<svg width="80" height="79" viewBox="0 0 80 79" fill="none" xmlns="http://www.w3.org/2000/svg">
<g clip-path="url(#clip0)">
<circle cx="39.5622" cy="40.0759" r="38.695" fill="#7C0819"/>
<path d="M64.1531 69.949C74.892 61.1083 80.0593 47.1839 77.6874 33.4779C75.3155 19.7719 65.7694 8.39374 52.6842 3.67599C39.599 -1.04175 24.9884 1.62701 14.416 10.6661C-1.71979 24.4616 -3.72698 48.682 9.9178 64.9456C23.5626 81.2092 47.7632 83.4418 64.1531 69.949ZM60.9438 56.9633C61.3717 57.4736 61.5856 58.1319 61.5033 58.8067C61.4375 59.465 61.1083 60.1069 60.5981 60.5348C60.0885 60.978 59.423 61.1995 58.7493 61.1501C58.0757 61.1006 57.4497 60.7844 57.0102 60.2715C56.1215 59.2181 56.286 57.6381 57.3723 56.7165C58.4585 55.7948 60.055 55.91 60.9602 56.9633H60.9438ZM63.3302 24.1619C62.3781 24.978 61.0306 25.1465 59.9069 24.5898C58.7959 24.0267 58.1525 22.8319 58.294 21.5944C58.4256 20.36 59.2979 19.2902 60.4994 18.8952C61.7008 18.5167 63.001 18.8952 63.791 19.8333C64.8608 21.1171 64.6633 23.0592 63.3302 24.1619ZM68.1031 48.405C67.6094 49.7217 66.1446 50.4294 64.8444 49.9686C64.2171 49.7463 63.7061 49.2803 63.4273 48.6761C63.1484 48.0719 63.1253 47.3807 63.3631 46.7592C63.8569 45.4425 65.3381 44.7348 66.6383 45.1956C67.2656 45.4179 67.7766 45.8839 68.0554 46.4881C68.3343 47.0923 68.3574 47.7835 68.1196 48.405H68.1031ZM66.6219 30.4654C67.6288 30.2593 68.658 30.6985 69.2058 31.5681C69.749 32.424 69.6996 33.5431 69.1071 34.3661C68.5146 35.2219 67.4613 35.6498 66.4737 35.4358C65.4533 35.2383 64.6963 34.4483 64.5317 33.4279C64.3177 32.0619 65.2558 30.7452 66.6383 30.4654H66.6219ZM33.6065 68.945C32.9481 69.5046 31.9935 69.4881 31.3846 68.945C30.7592 68.369 30.6604 67.4308 31.1542 66.7231C31.6479 66.0319 32.586 65.785 33.3267 66.1636C34.078 66.5458 34.4191 67.434 34.1167 68.2208C34.0177 68.501 33.8476 68.7506 33.6229 68.945H33.6065ZM48.1885 66.8713C48.338 67.8007 47.716 68.6789 46.7896 68.8463C46.1153 68.9851 45.4259 68.6896 45.0615 68.1056C44.6994 67.5461 44.7323 66.789 45.1273 66.2294C45.5388 65.6698 46.23 65.4065 46.8883 65.5381C47.5467 65.6698 48.0733 66.1965 48.1721 66.8548V66.8713H48.1885ZM19.3535 64.4354L18.6458 63.7936C11.9133 57.5837 8.26875 48.7164 8.68855 39.5669C8.82022 38.2502 8.85313 36.8183 9.13292 35.5181L9.51147 33.5102L10.0875 31.5352C10.2521 30.8604 10.499 30.2185 10.7788 29.5602C11.0421 28.9019 11.2725 28.2436 11.5688 27.6181C12.2271 26.3838 12.8031 25.0835 13.6096 23.9315C16.5761 19.1925 20.7516 15.3295 25.7065 12.7398C26.8915 12.1308 28.0929 11.6206 29.2944 11.1269C30.5123 10.7648 31.6808 10.2381 32.9152 10.0242C34.1002 9.76084 35.2688 9.44814 36.4208 9.36584C37.5565 9.21772 38.7085 9.06959 39.7125 9.05313C44.5482 8.90309 49.3562 9.83659 53.7844 11.7852C54.6958 12.1674 55.334 13.0068 55.4588 13.9872C55.5835 14.9676 55.1757 15.9401 54.389 16.5382C53.6023 17.1364 52.5562 17.2695 51.6448 16.8873L51.5625 16.8379L51.4638 16.805L50.6902 16.4429C48.7831 15.6052 46.7911 14.9762 44.7488 14.5667C43.3169 14.3033 41.6217 14.1058 39.8442 14.0894C38.8731 14.0729 37.9844 14.1717 36.9804 14.254C35.9929 14.2869 35.0054 14.5173 33.9685 14.6983C32.9317 14.8465 31.9277 15.2579 30.8579 15.5213C29.8375 15.9163 28.7842 16.3113 27.7473 16.805C23.3772 18.8902 19.6398 22.0994 16.9177 26.104C16.1606 27.0915 15.634 28.2106 15.0085 29.2804C14.7288 29.8236 14.5148 30.3996 14.2515 30.9592C13.9862 31.5111 13.7661 32.0835 13.5931 32.6708L13.0006 34.4154L12.5892 36.1765C12.26 37.3615 12.26 38.4806 12.079 39.6163C11.9967 40.7683 11.9967 42.1508 11.9967 43.1383C12.1157 46.281 12.7668 49.3807 13.9223 52.3056C15.4744 56.2534 17.8929 59.8023 20.9994 62.6908C21.4337 63.154 21.4326 63.8752 20.9969 64.3371C20.5611 64.799 19.8412 64.842 19.3535 64.4354Z" fill="#F12D49"/>
<path d="M42.2625 26.0045L40.5015 36.8506L48.1382 37.1797H48.385C49.0105 37.2949 49.5371 37.6735 49.8334 38.2331C50.1132 38.8091 50.1132 39.4674 49.8334 40.0435L40.2546 58.411C39.9227 59.0583 39.1699 59.3688 38.4782 59.1437C37.7864 58.9185 37.3605 58.2245 37.4732 57.5058L39.2507 46.6433L31.5975 46.2812H31.3671C30.7417 46.166 30.215 45.7874 29.9188 45.2279C29.6286 44.6593 29.6286 43.986 29.9188 43.4174L39.4811 25.0829C39.7961 24.4037 40.5684 24.0663 41.2808 24.2968C41.9932 24.5272 42.4215 25.2531 42.279 25.9881L42.2625 26.0045Z" fill="white"/>
</g>
<defs>
<clipPath id="clip0">
<rect width="79" height="79" fill="white" transform="translate(0.625)"/>
</clipPath>
</defs>
</svg>
