<svg width="379" height="44" viewBox="0 0 379 44" fill="none" xmlns="http://www.w3.org/2000/svg">
<g clip-path="url(#clip0)">
<path d="M19.704 28.4236C8.64398 29.3603 6.40398 32.1706 6.40398 34.9809C6.40398 37.2559 8.08398 38.728 10.884 38.728C14.104 38.728 17.324 37.2559 19.704 34.8471V28.4236ZM20.824 42.475L20.264 38.728C17.884 41.003 14.664 43.0103 9.76399 43.0103C4.44398 43.0103 1.08398 39.9324 1.08398 35.2486C1.08398 28.2898 7.52399 25.6133 19.844 24.4089V23.3383C19.844 19.8589 17.604 18.6545 14.104 18.6545C10.464 18.6545 7.10398 19.725 3.74398 21.0633L2.90398 16.5133C6.40398 15.175 9.90399 14.2383 14.524 14.2383C21.804 14.2383 25.304 16.9148 25.304 23.0706V42.475H20.824Z" fill="white"/>
<path d="M48.8238 42.475V23.6059C48.8238 20.7956 47.5638 18.7883 44.2038 18.7883C41.2638 18.7883 38.3238 20.528 35.5238 23.2045V42.3412H29.9238V14.7736H34.4038L35.1038 18.7883C37.9038 16.3795 41.4038 14.2383 45.6038 14.2383C51.2038 14.2383 54.2838 17.3162 54.2838 22.4015V42.6089H48.8238V42.475Z" fill="white"/>
<path d="M79.0636 42.4749L78.3636 38.4602C75.5636 40.869 71.9236 43.0102 67.8636 43.0102C62.1236 43.0102 59.1836 39.9323 59.1836 34.847V14.7734H64.7836V33.6426C64.7836 36.4528 66.0436 38.4602 69.4036 38.4602C72.3436 38.4602 75.2836 36.7205 78.0836 34.044V14.7734H83.6836V42.4749H79.0636Z" fill="white"/>
<path d="M98.6639 42.876C93.3439 42.876 89.9839 41.1363 89.9839 35.5157V19.1893H85.5039V14.7731H89.9839V5.53927L95.3039 4.73633V14.7731H101.744L102.444 19.1893H95.3039V34.7128C95.3039 36.9878 96.2839 38.326 99.3639 38.326C100.344 38.326 101.184 38.326 101.884 38.1922L102.584 42.6084C101.884 42.7422 100.624 42.876 98.6639 42.876Z" fill="white"/>
<path d="M122.745 28.4226C111.685 29.3593 109.445 32.1696 109.445 34.9799C109.445 37.2549 111.125 38.727 113.925 38.727C117.145 38.727 120.365 37.2549 122.745 34.8461V28.4226ZM123.865 42.474L123.305 38.727C120.925 41.002 117.705 43.0093 112.805 43.0093C107.485 43.0093 104.125 39.9314 104.125 35.2476C104.125 28.2887 110.565 25.6123 122.885 24.4079V23.3373C122.885 19.8579 120.645 18.6534 117.145 18.6534C113.505 18.6534 110.145 19.724 106.785 21.0623L106.085 16.6461C109.585 15.3079 113.085 14.3711 117.705 14.3711C124.985 14.3711 128.485 17.0476 128.485 23.2034V42.6079H123.865V42.474Z" fill="white"/>
<path d="M161.943 42.475V23.6059C161.943 20.7956 160.683 18.7883 157.323 18.7883C154.383 18.7883 151.443 20.528 148.643 23.2045V42.3412H143.043V14.7736H147.523L148.223 18.7883C151.023 16.3795 154.523 14.2383 158.723 14.2383C164.323 14.2383 167.403 17.3162 167.403 22.4015V42.6089H161.943V42.475Z" fill="white"/>
<path d="M183.783 18.2529C180.283 18.2529 177.343 20.5279 176.503 25.2117H190.923C190.223 20.7956 188.123 18.2529 183.783 18.2529ZM196.523 29.2264H176.223C176.363 35.65 179.723 38.7279 184.903 38.7279C189.243 38.7279 192.323 37.122 195.543 34.847L196.383 39.5309C193.163 41.8059 189.383 43.2779 184.483 43.2779C176.783 43.2779 170.623 38.8617 170.623 28.825C170.623 19.9926 176.223 14.5059 183.783 14.5059C192.463 14.5059 196.523 20.6617 196.523 28.4235C196.523 28.4235 196.523 28.825 196.523 29.2264Z" fill="white"/>
<path d="M209.963 42.876C204.783 42.876 201.283 41.1363 201.283 35.5157V19.1893H196.803V14.7731H201.283V5.53927L206.743 4.73633V14.7731H213.183L213.883 19.1893H206.743V34.7128C206.743 36.9878 207.723 38.326 210.803 38.326C211.783 38.326 212.623 38.326 213.323 38.1922L214.023 42.6084C213.183 42.7422 211.923 42.876 209.963 42.876Z" fill="white"/>
<path d="M245.943 42.474H241.603L234.743 21.4637L227.883 42.474H223.543L213.883 15.174L219.203 14.3711L225.783 34.8461L232.363 14.7726H236.983L243.563 34.8461L250.003 14.7726H255.463L245.943 42.474Z" fill="white"/>
<path d="M318.463 26.1486V42.475H312.863V14.7736H317.343L318.323 20.3942C320.423 17.3162 323.923 14.3721 328.823 14.2383L329.663 19.1898C324.623 19.3236 320.423 22.4015 318.463 26.1486Z" fill="white"/>
<path d="M350.382 42.8761L337.082 28.0217V42.4747H331.482V1.39083L337.082 0.587891V26.4158L348.702 14.7732H355.422L342.822 27.0849L356.402 42.0732L350.382 42.8761Z" fill="white"/>
<path d="M366.344 43.0103C362.424 43.0103 358.084 41.6721 355.424 40.3339L356.264 35.5162C359.064 37.2559 362.704 38.728 366.764 38.728C370.544 38.728 372.784 37.3898 372.784 35.1148C372.784 32.5721 371.104 31.6353 365.784 30.4309C358.784 28.825 355.984 26.8177 355.984 21.8662C355.984 17.45 360.044 14.2383 366.484 14.2383C370.124 14.2383 373.484 14.9074 376.284 16.1118L375.444 20.9295C372.784 19.5912 369.564 18.5206 366.344 18.5206C362.984 18.5206 361.164 19.725 361.164 21.7324C361.164 23.6059 362.704 24.6765 367.324 25.7471C374.744 27.4868 377.964 29.4942 377.964 34.7133C378.104 39.7986 374.044 43.0103 366.344 43.0103Z" fill="white"/>
<path d="M308.383 28.4229C307.683 22.1332 303.063 21.9994 297.463 21.0626C299.283 16.1112 291.863 11.0259 286.823 10.7582C281.503 10.6244 274.503 12.6317 272.543 17.3156C265.403 17.3156 261.623 19.0553 260.363 25.7464C255.883 25.7464 253.503 31.5009 254.763 35.1141C256.303 38.8612 261.903 39.3964 265.963 38.8612C266.243 44.2141 280.803 44.4817 283.603 40.8685C286.683 43.1435 297.743 43.1435 299.283 37.7906C304.603 39.1288 308.803 32.7053 308.383 28.4229Z" fill="white"/>
</g>
<defs>
<clipPath id="clip0">
<rect width="378" height="42.8235" fill="white" transform="translate(0.103516 0.587891)"/>
</clipPath>
</defs>
</svg>
