<svg width="290" height="45" viewBox="0 0 290 45" fill="none" xmlns="http://www.w3.org/2000/svg">
<path d="M43.1585 44.2013C38.6206 44.2013 35.188 42.3396 32.8609 38.6162C30.8828 35.4745 29.8938 31.6347 29.8938 27.0968C29.8938 21.2789 31.3482 16.0429 34.2572 11.3886C37.2825 6.73428 41.8204 3.01084 47.871 0.218262L49.4418 3.35991C45.8347 4.87256 42.6931 7.25788 40.0169 10.5159C37.457 13.7739 36.1771 17.0901 36.1771 20.4644C36.1771 21.8607 36.3516 23.0825 36.7007 24.1297C38.5624 22.617 40.715 21.8607 43.1585 21.8607C46.3002 21.8607 48.9182 22.9079 51.0126 25.0024C53.2234 26.9805 54.3288 29.6567 54.3288 33.031C54.3288 36.1727 53.2234 38.8489 51.0126 41.0597C48.9182 43.1541 46.3002 44.2013 43.1585 44.2013ZM13.4874 44.2013C8.94946 44.2013 5.51692 42.3396 3.18977 38.6162C1.21169 35.4745 0.222656 31.6347 0.222656 27.0968C0.222656 21.2789 1.67712 16.0429 4.58606 11.3886C7.61135 6.73428 12.1493 3.01084 18.1999 0.218262L19.7707 3.35991C16.1636 4.87256 13.022 7.25788 10.3457 10.5159C7.78588 13.7739 6.50595 17.0901 6.50595 20.4644C6.50595 21.8607 6.68049 23.0825 7.02956 24.1297C8.89128 22.617 11.0439 21.8607 13.4874 21.8607C16.629 21.8607 19.2471 22.9079 21.3415 25.0024C23.5523 26.9805 24.6577 29.6567 24.6577 33.031C24.6577 36.1727 23.5523 38.8489 21.3415 41.0597C19.2471 43.1541 16.629 44.2013 13.4874 44.2013Z" fill="white" fill-opacity="0.8"/>
<path d="M76.3281 31.5128H91.2719V29.3541H78.731V5.19728H76.3281V31.5128Z" fill="white"/>
<path d="M96.2318 31.5128H98.5318V11.7762H96.2318V31.5128ZM97.4011 8.38392C98.3391 8.38392 99.1229 7.63866 99.1229 6.7392C99.1229 5.83975 98.3391 5.09448 97.4011 5.09448C96.4631 5.09448 95.6921 5.83975 95.6921 6.7392C95.6921 7.63866 96.4631 8.38392 97.4011 8.38392Z" fill="white"/>
<path d="M112.355 11.7762H108.178V7.04759H105.878V11.7762H102.936V13.7678H105.878V26.8999C105.878 30.125 108.423 31.8083 110.954 31.8083C111.905 31.8083 112.547 31.6284 112.984 31.4614L112.496 29.3926C112.175 29.4826 111.763 29.5725 111.16 29.5725C109.605 29.5725 108.178 28.8401 108.178 26.3602V13.7678H112.355V11.7762Z" fill="white"/>
<path d="M117.549 31.5128H119.836V18.869C119.836 15.798 121.879 13.6136 124.616 13.6136C127.314 13.6136 128.882 15.4125 128.882 18.0852V31.5128H131.221V18.5221C131.221 15.6824 132.917 13.6136 135.923 13.6136C138.532 13.6136 140.267 15.1812 140.267 18.2908V31.5128H142.554V18.2908C142.554 13.8706 140.279 11.5192 136.617 11.5192C133.739 11.5192 131.657 12.9197 130.771 15.1041H130.604C129.73 12.8684 127.995 11.5192 125.271 11.5192C122.689 11.5192 120.761 12.7656 119.977 14.8086H119.772V11.7762H117.549V31.5128Z" fill="white"/>
<path d="M161.15 23.9702C161.15 27.5937 158.426 29.5468 155.753 29.5468C152.901 29.5468 150.896 27.5038 150.896 24.4199V11.7762H148.609V24.5613C148.609 29.2384 151.307 31.7698 155.098 31.7698C157.989 31.7698 160.045 30.2664 160.97 28.2362H161.15V31.5128H163.437V11.7762H161.15V23.9702Z" fill="white"/>
<path d="M182.753 16.1064C181.789 13.2538 179.682 11.5063 176.071 11.5063C172.088 11.5063 169.197 13.7807 169.197 17.0315C169.197 19.6785 170.803 21.4774 174.234 22.2998L177.459 23.0707C179.631 23.5847 180.671 24.7026 180.671 26.2831C180.671 28.339 178.705 29.8681 175.673 29.8681C172.975 29.8681 171.291 28.6474 170.739 26.3088L168.542 26.8485C169.235 30.1379 171.844 31.924 175.712 31.924C180.055 31.924 183.036 29.534 183.036 26.1803C183.036 23.5462 181.378 21.7858 178.076 20.9763L175.095 20.2439C172.641 19.6271 171.497 18.6377 171.497 16.9287C171.497 14.9242 173.412 13.5237 176.071 13.5237C178.731 13.5237 180.042 14.9242 180.659 16.6975L182.753 16.1064Z" fill="white"/>
<path d="M198.092 31.5128H208.179C214.295 31.5128 217.058 28.4675 217.058 24.4328C217.058 20.3595 214.205 18.0595 211.597 17.9182V17.6612C214.012 17.0444 216.03 15.3997 216.03 12.1102C216.03 8.21688 213.331 5.19728 207.729 5.19728H198.092V31.5128ZM202.062 28.1077V19.6785H207.935C211.121 19.6785 213.113 21.7344 213.113 24.24C213.113 26.4501 211.609 28.1077 207.793 28.1077H202.062ZM202.062 16.5818V8.57666H207.485C210.633 8.57666 212.136 10.2342 212.136 12.4186C212.136 14.9628 210.055 16.5818 207.382 16.5818H202.062Z" fill="white"/>
<path d="M225.3 5.19728H221.458V31.5128H225.3V5.19728Z" fill="white"/>
<path d="M238.783 31.9111C244.346 31.9111 247.983 27.8379 247.983 21.7344C247.983 15.5924 244.346 11.5192 238.783 11.5192C233.219 11.5192 229.583 15.5924 229.583 21.7344C229.583 27.8379 233.219 31.9111 238.783 31.9111ZM238.796 28.6859C235.159 28.6859 233.463 25.5121 233.463 21.7216C233.463 17.9438 235.159 14.7315 238.796 14.7315C242.406 14.7315 244.102 17.9438 244.102 21.7216C244.102 25.5121 242.406 28.6859 238.796 28.6859Z" fill="white"/>
<path d="M260.546 39.3252C265.57 39.3252 269.451 37.0252 269.451 31.9497V11.7762H265.686V14.9756H265.403C264.722 13.755 263.36 11.5192 259.685 11.5192C254.918 11.5192 251.41 15.284 251.41 21.5674C251.41 27.8636 254.995 31.2172 259.66 31.2172C263.283 31.2172 264.684 29.1742 265.378 27.915H265.622V31.7955C265.622 34.8922 263.502 36.2285 260.585 36.2285C257.385 36.2285 256.139 34.6223 255.458 33.4916L252.156 34.8536C253.196 37.2693 255.831 39.3252 260.546 39.3252ZM260.508 28.0306C257.077 28.0306 255.291 25.3965 255.291 21.516C255.291 17.7254 257.038 14.7829 260.508 14.7829C263.861 14.7829 265.66 17.5198 265.66 21.516C265.66 25.5892 263.823 28.0306 260.508 28.0306Z" fill="white"/>
<path d="M289.393 16.5947C288.596 13.5237 286.194 11.5192 281.928 11.5192C277.469 11.5192 274.308 13.8706 274.308 17.3656C274.308 20.1668 276.004 22.0299 279.705 22.8523L283.046 23.5847C284.947 24.0088 285.834 24.8568 285.834 26.0903C285.834 27.6194 284.202 28.8144 281.683 28.8144C279.383 28.8144 277.906 27.825 277.443 25.8848L273.73 26.4501C274.372 29.9452 277.276 31.9111 281.709 31.9111C286.476 31.9111 289.779 29.3798 289.779 25.8077C289.779 23.0194 288.005 21.2975 284.382 20.4623L281.247 19.7428C279.075 19.2288 278.137 18.4964 278.15 17.16C278.137 15.6438 279.782 14.5645 281.966 14.5645C284.356 14.5645 285.461 15.888 285.911 17.2114L289.393 16.5947Z" fill="white"/>
</svg>
