<svg width="350" height="146" viewBox="0 0 350 146" fill="none" xmlns="http://www.w3.org/2000/svg">
<ellipse cx="72.1193" cy="72.7712" rx="71.7092" ry="72.5015" fill="url(#paint0_radial)"/>
<ellipse cx="72.1193" cy="72.7712" rx="71.7092" ry="72.5015" fill="url(#paint1_angular)"/>
<ellipse cx="72.1193" cy="72.7712" rx="71.7092" ry="72.5015" fill="url(#paint2_radial)"/>
<ellipse cx="72.1193" cy="72.7712" rx="71.7092" ry="72.5015" fill="url(#paint3_radial)"/>
<ellipse cx="72.1193" cy="72.7712" rx="71.7092" ry="72.5015" fill="url(#paint4_radial)"/>
<ellipse cx="72.1193" cy="72.7712" rx="71.7092" ry="72.5015" fill="url(#paint5_radial)" fill-opacity="0.1"/>
<ellipse cx="72.1193" cy="72.7712" rx="71.7092" ry="72.5015" fill="url(#paint6_radial)"/>
<ellipse cx="72.1193" cy="72.7712" rx="71.7092" ry="72.5015" fill="url(#paint7_radial)"/>
<ellipse cx="72.1193" cy="72.7712" rx="71.7092" ry="72.5015" fill="url(#paint8_radial)"/>
<ellipse cx="72.1193" cy="72.7712" rx="71.7092" ry="72.5015" fill="url(#paint9_radial)"/>
<ellipse cx="72.1193" cy="72.7712" rx="71.7092" ry="72.5015" fill="url(#paint10_radial)" style="mix-blend-mode:hard-light"/>
<path d="M119.231 40.48V66.7955H123.009V47.7399H123.253L131.014 66.757H134.149L141.91 47.7528H142.154V66.7955H145.932V40.48H141.113L132.736 60.9362H132.427L124.049 40.48H119.231ZM159.902 67.1939C164.207 67.1939 167.252 65.0737 168.126 61.8614L164.49 61.2061C163.796 63.0692 162.125 64.0201 159.941 64.0201C156.652 64.0201 154.441 61.8871 154.339 58.0837H168.37V56.7216C168.37 49.5902 164.104 46.8019 159.633 46.8019C154.133 46.8019 150.51 50.9908 150.51 57.0557C150.51 63.1849 154.082 67.1939 159.902 67.1939ZM154.351 55.2054C154.506 52.4042 156.536 49.9757 159.658 49.9757C162.639 49.9757 164.592 52.1858 164.605 55.2054H154.351ZM181.139 67.1939C185.444 67.1939 188.489 65.0737 189.363 61.8614L185.726 61.2061C185.033 63.0692 183.362 64.0201 181.178 64.0201C177.888 64.0201 175.678 61.8871 175.575 58.0837H189.607V56.7216C189.607 49.5902 185.341 46.8019 180.869 46.8019C175.37 46.8019 171.746 50.9908 171.746 57.0557C171.746 63.1849 175.318 67.1939 181.139 67.1939ZM175.588 55.2054C175.742 52.4042 177.773 49.9757 180.895 49.9757C183.876 49.9757 185.829 52.1858 185.842 55.2054H175.588ZM203.083 47.0589H199.035V42.3303H195.193V47.0589H192.302V50.1428H195.193V61.7971C195.18 65.3821 197.917 67.1168 200.95 67.0525C202.17 67.0397 202.993 66.8084 203.442 66.6413L202.749 63.4675C202.492 63.5189 202.016 63.6346 201.399 63.6346C200.153 63.6346 199.035 63.2234 199.035 61.0005V50.1428H203.083V47.0589ZM219.835 58.6105C219.848 61.9642 217.355 63.5575 215.196 63.5575C212.819 63.5575 211.175 61.8357 211.175 59.1502V47.0589H207.333V59.6127C207.333 64.5083 210.018 67.0525 213.809 67.0525C216.777 67.0525 218.794 65.4849 219.707 63.3776H219.912V66.7955H223.69V47.0589H219.835V58.6105ZM228.852 74.1968H232.694V63.7245H232.925C233.619 64.9838 235.033 67.181 238.63 67.181C243.41 67.181 246.88 63.3519 246.88 56.9658C246.88 50.5668 243.359 46.8019 238.592 46.8019C234.93 46.8019 233.606 49.0377 232.925 50.2584H232.604V47.0589H228.852V74.1968ZM232.617 56.9272C232.617 52.8026 234.416 50.0657 237.77 50.0657C241.252 50.0657 242.999 53.0082 242.999 56.9272C242.999 60.8848 241.2 63.9044 237.77 63.9044C234.467 63.9044 232.617 61.0776 232.617 56.9272ZM265.974 51.8774C265.177 48.8064 262.774 46.8019 258.508 46.8019C254.05 46.8019 250.889 49.1534 250.889 52.6484C250.889 55.4495 252.585 57.3127 256.285 58.1351L259.626 58.8675C261.528 59.2915 262.415 60.1396 262.415 61.3731C262.415 62.9022 260.783 64.0972 258.264 64.0972C255.964 64.0972 254.487 63.1078 254.024 61.1675L250.311 61.7329C250.953 65.2279 253.857 67.1939 258.29 67.1939C263.057 67.1939 266.359 64.6625 266.359 61.0904C266.359 58.3021 264.586 56.5803 260.963 55.7451L257.827 55.0255C255.656 54.5115 254.718 53.7791 254.731 52.4428C254.718 50.9266 256.363 49.8472 258.547 49.8472C260.937 49.8472 262.042 51.1707 262.492 52.4942L265.974 51.8774ZM285.903 67.2324C289.167 67.2324 291.004 65.5748 291.737 64.0972H291.891V66.7955H295.643V53.6892C295.643 47.9455 291.12 46.8019 287.985 46.8019C284.413 46.8019 281.123 48.241 279.838 51.8389L283.449 52.6612C284.014 51.2606 285.454 49.9115 288.036 49.9115C290.516 49.9115 291.788 51.2093 291.788 53.445V53.535C291.788 54.9356 290.349 54.9099 286.803 55.321C283.064 55.7579 279.234 56.7345 279.234 61.2189C279.234 65.0994 282.151 67.2324 285.903 67.2324ZM286.739 64.1486C284.567 64.1486 282.999 63.172 282.999 61.2703C282.999 59.2144 284.824 58.482 287.047 58.1865C288.293 58.0194 291.249 57.6853 291.801 57.1328V59.677C291.801 62.0156 289.938 64.1486 286.739 64.1486ZM304.602 55.0769C304.602 51.9288 306.53 50.1299 309.202 50.1299C311.811 50.1299 313.391 51.8389 313.391 54.7043V66.7955H317.233V54.2417C317.233 49.3589 314.548 46.8019 310.513 46.8019C307.545 46.8019 305.605 48.1768 304.692 50.2712H304.448V47.0589H300.76V66.7955H304.602V55.0769ZM329.774 67.181C333.372 67.181 334.785 64.9838 335.479 63.7245H335.801V66.7955H339.553V40.48H335.711V50.2584H335.479C334.785 49.0377 333.475 46.8019 329.8 46.8019C325.033 46.8019 321.525 50.5668 321.525 56.9658C321.525 63.3519 324.981 67.181 329.774 67.181ZM330.622 63.9044C327.192 63.9044 325.405 60.8848 325.405 56.9272C325.405 53.0082 327.153 50.0657 330.622 50.0657C333.976 50.0657 335.775 52.8026 335.775 56.9272C335.775 61.0776 333.937 63.9044 330.622 63.9044ZM133.712 95.8774C132.916 92.8064 130.513 90.8019 126.247 90.8019C121.788 90.8019 118.627 93.1534 118.627 96.6484C118.627 99.4495 120.323 101.313 124.024 102.135L127.365 102.867C129.266 103.292 130.153 104.14 130.153 105.373C130.153 106.902 128.521 108.097 126.003 108.097C123.703 108.097 122.225 107.108 121.762 105.168L118.049 105.733C118.691 109.228 121.595 111.194 126.028 111.194C130.795 111.194 134.098 108.663 134.098 105.09C134.098 102.302 132.324 100.58 128.701 99.7451L125.566 99.0255C123.394 98.5115 122.456 97.7791 122.469 96.4428C122.456 94.9266 124.101 93.8472 126.285 93.8472C128.675 93.8472 129.78 95.1707 130.23 96.4942L133.712 95.8774ZM140.75 118.197C143.924 118.197 145.929 116.539 147.072 113.43L155.232 91.0975L151.081 91.0589L146.083 106.375H145.877L140.879 91.0589H136.767L143.988 111.053L143.513 112.363C142.536 114.984 141.162 115.203 139.054 114.625L138.129 117.773C138.592 117.978 139.594 118.197 140.75 118.197ZM162.694 99.0769C162.694 95.9288 164.621 94.1299 167.294 94.1299C169.902 94.1299 171.483 95.8389 171.483 98.7043V110.796H175.325V98.2417C175.325 93.3589 172.639 90.8019 168.605 90.8019C165.636 90.8019 163.696 92.1768 162.784 94.2712H162.54V91.0589H158.852V110.796H162.694V99.0769ZM188.791 111.194C193.455 111.194 196.475 108.393 196.899 104.551H193.16C192.672 106.684 191.014 107.943 188.817 107.943C185.566 107.943 183.471 105.232 183.471 100.927C183.471 96.6998 185.604 94.04 188.817 94.04C191.258 94.04 192.749 95.5819 193.16 97.4322H196.899C196.488 93.4489 193.237 90.8019 188.752 90.8019C183.189 90.8019 179.591 94.9908 179.591 101.017C179.591 106.966 183.06 111.194 188.791 111.194ZM223.086 102.61C223.099 105.964 220.606 107.557 218.447 107.557C216.07 107.557 214.425 105.836 214.425 103.15V91.0589H210.584V103.613C210.584 108.508 213.269 111.053 217.06 111.053C220.028 111.053 222.045 109.485 222.957 107.378H223.163V110.796H226.941V91.0589H223.086V102.61ZM232.103 118.197H235.945V107.725H236.176C236.87 108.984 238.284 111.181 241.881 111.181C246.661 111.181 250.131 107.352 250.131 100.966C250.131 94.5668 246.61 90.8019 241.843 90.8019C238.181 90.8019 236.857 93.0377 236.176 94.2584H235.855V91.0589H232.103V118.197ZM235.868 100.927C235.868 96.8026 237.667 94.0657 241.02 94.0657C244.503 94.0657 246.25 97.0082 246.25 100.927C246.25 104.885 244.451 107.904 241.02 107.904C237.718 107.904 235.868 105.078 235.868 100.927ZM269.225 95.8774C268.428 92.8064 266.025 90.8019 261.759 90.8019C257.301 90.8019 254.14 93.1534 254.14 96.6484C254.14 99.4495 255.836 101.313 259.536 102.135L262.877 102.867C264.779 103.292 265.666 104.14 265.666 105.373C265.666 106.902 264.034 108.097 261.515 108.097C259.215 108.097 257.737 107.108 257.275 105.168L253.561 105.733C254.204 109.228 257.108 111.194 261.541 111.194C266.308 111.194 269.61 108.663 269.61 105.09C269.61 102.302 267.837 100.58 264.214 99.7451L261.078 99.0255C258.907 98.5115 257.969 97.7791 257.982 96.4428C257.969 94.9266 259.613 93.8472 261.798 93.8472C264.188 93.8472 265.293 95.1707 265.743 96.4942L269.225 95.8774Z" fill="white"/>
<defs>
<radialGradient id="paint0_radial" cx="0" cy="0" r="1" gradientUnits="userSpaceOnUse" gradientTransform="translate(31.0258 47.2895) rotate(84.7791) scale(90.776 56.8998)">
<stop stop-color="#19C2FF"/>
<stop offset="1" stop-color="#858CDD"/>
</radialGradient>
<radialGradient id="paint1_angular" cx="0" cy="0" r="1" gradientUnits="userSpaceOnUse" gradientTransform="translate(32.1154 58.8169) rotate(-88.2349) scale(28.5288 15.6037)">
<stop offset="0.495182" stop-color="#5469D4"/>
<stop offset="0.806554" stop-color="#8863E4" stop-opacity="0.383199"/>
<stop offset="1" stop-color="#A960EE" stop-opacity="0"/>
</radialGradient>
<radialGradient id="paint2_radial" cx="0" cy="0" r="1" gradientUnits="userSpaceOnUse" gradientTransform="translate(8.07285 57.3001) rotate(97.9763) scale(67.7782 34.4932)">
<stop offset="0.411761" stop-color="#FFCB57"/>
<stop offset="0.719902" stop-color="#B778E1" stop-opacity="0"/>
</radialGradient>
<radialGradient id="paint3_radial" cx="0" cy="0" r="1" gradientUnits="userSpaceOnUse" gradientTransform="translate(0.41016 145.273) rotate(-42.8635) scale(52.1752 69.1899)">
<stop offset="0.192069" stop-color="#ECB22E"/>
<stop offset="0.545432" stop-color="#FB9C40"/>
</radialGradient>
<radialGradient id="paint4_radial" cx="0" cy="0" r="1" gradientUnits="userSpaceOnUse" gradientTransform="translate(66.1406 26.0547) rotate(-35.4587) scale(35.971 42.5841)">
<stop offset="0.317029" stop-color="#19C2FF"/>
<stop offset="1" stop-color="#C721FF" stop-opacity="0.75"/>
</radialGradient>
<radialGradient id="paint5_radial" cx="0" cy="0" r="1" gradientUnits="userSpaceOnUse" gradientTransform="translate(28.0732 83.2369) rotate(86.9127) scale(59.3918 41.9235)">
<stop offset="0.507408" stop-color="#90E0FF"/>
<stop offset="1" stop-color="#A960EE" stop-opacity="0"/>
</radialGradient>
<radialGradient id="paint6_radial" cx="0" cy="0" r="1" gradientUnits="userSpaceOnUse" gradientTransform="translate(11.3814 123.494) rotate(-127.11) scale(25.8999 22.4884)">
<stop offset="0.259592" stop-color="#A960EE"/>
<stop offset="1" stop-color="#FF333D" stop-opacity="0"/>
</radialGradient>
<radialGradient id="paint7_radial" cx="0" cy="0" r="1" gradientUnits="userSpaceOnUse" gradientTransform="translate(28.5057 82.7472) rotate(87.5107) scale(70.4604 29.2976)">
<stop stop-color="#B8EBFF"/>
<stop offset="0.605789" stop-color="#90E0FF"/>
<stop offset="0.832381" stop-color="#A960EE" stop-opacity="0"/>
</radialGradient>
<radialGradient id="paint8_radial" cx="0" cy="0" r="1" gradientUnits="userSpaceOnUse" gradientTransform="translate(9.85131 97.7814) rotate(13.6159) scale(19.6963 32.5587)">
<stop stop-color="#AFE9FF"/>
<stop offset="0.414475" stop-color="#90E0FF"/>
<stop offset="1" stop-color="#90E0FF" stop-opacity="0"/>
</radialGradient>
<radialGradient id="paint9_radial" cx="0" cy="0" r="1" gradientUnits="userSpaceOnUse" gradientTransform="translate(81.6769 72.7712) rotate(155.055) scale(55.3027 44.4083)">
<stop offset="0.447917" stop-color="#F19389"/>
<stop offset="0.831859" stop-color="#858CDD" stop-opacity="0"/>
</radialGradient>
<radialGradient id="paint10_radial" cx="0" cy="0" r="1" gradientUnits="userSpaceOnUse" gradientTransform="translate(82.0635 23.6279) rotate(83.0934) scale(93.4169 127.596)">
<stop offset="0.166667" stop-color="#EB8172"/>
<stop offset="0.614133" stop-color="#5B44BA"/>
</radialGradient>
</defs>
</svg>
