<svg width="198" height="87" viewBox="0 0 198 87" fill="none" xmlns="http://www.w3.org/2000/svg">
<path fill-rule="evenodd" clip-rule="evenodd" d="M197.136 0.18457H128.721V80.0712C128.721 83.6487 131.592 86.5485 135.135 86.5485H190.722C194.264 86.5485 197.136 83.6487 197.136 80.0712V0.18457Z" fill="#878EDE"/>
<path d="M139.246 10.7162H149.772V34.9402H139.246V10.7162Z" fill="#4028A0"/>
<path d="M139.246 32.8339H149.772V76.0159H139.246V32.8339Z" fill="white"/>
<path d="M155.035 65.4843H186.611V76.0164H155.035V65.4843Z" fill="white"/>
<path d="M18.3061 54.8287C18.3061 59.8523 14.3857 63.9127 9.5349 63.9127C4.68405 63.9127 0.763672 59.8523 0.763672 54.8287C0.763672 49.8055 4.68405 45.7455 9.53523 45.7455H18.3058V54.8291L18.3061 54.8287ZM22.6919 54.8287C22.6919 49.8055 26.6123 45.7455 31.4631 45.7455C36.314 45.7455 40.2344 49.8055 40.2344 54.8291V77.5379C40.2344 82.5615 36.314 86.6218 31.4628 86.6218C26.6126 86.6218 22.6919 82.5615 22.6919 77.5379V54.8291V54.8287Z" fill="#E01E5A"/>
<path d="M31.465 18.3517C26.6141 18.3517 22.6935 14.2917 22.6935 9.26813C22.6935 4.24455 26.6145 0.18457 31.465 0.18457C36.3155 0.18457 40.2362 4.24455 40.2362 9.26813V18.352H31.4647L31.465 18.3517ZM31.465 22.9624C36.3158 22.9624 40.2362 27.0224 40.2362 32.0459C40.2362 37.0695 36.3158 41.1295 31.4647 41.1295H9.47075C4.61959 41.1295 0.699219 37.0695 0.699219 32.0456C0.699219 27.0227 4.61959 22.9624 9.47042 22.9624H31.4647H31.465Z" fill="#36C5F0"/>
<path d="M66.6177 32.0459C66.6177 27.0224 70.5381 22.962 75.3886 22.962C80.2394 22.962 84.1601 27.0224 84.1601 32.0459C84.1601 37.0695 80.2394 41.1295 75.3886 41.1295H66.6177V32.0456V32.0459ZM62.2319 32.0459C62.2319 37.0695 58.3112 41.1295 53.4604 41.1295C48.6098 41.1295 44.6895 37.0695 44.6895 32.0456V9.26847C44.6895 4.24455 48.6098 0.18457 53.4604 0.18457C58.3109 0.18457 62.2316 4.24455 62.2316 9.26813V32.0456L62.2319 32.0459Z" fill="#2EB67D"/>
<path d="M53.4603 68.4546C58.3112 68.4546 62.2319 72.5146 62.2319 77.5379C62.2319 82.5615 58.3112 86.6218 53.4603 86.6218C48.6098 86.6218 44.6895 82.5615 44.6895 77.5379V68.4546H53.4607H53.4603ZM53.4603 63.9127C48.6098 63.9127 44.6895 59.8523 44.6895 54.8287C44.6895 49.8055 48.6098 45.7455 53.4607 45.7455H75.4549C80.3057 45.7455 84.2264 49.8055 84.2264 54.8291C84.2264 59.8523 80.3057 63.9127 75.4549 63.9127H53.4607H53.4603Z" fill="#ECB22E"/>
</svg>
