<svg width="17" height="17" viewBox="0 0 17 17" fill="none" xmlns="http://www.w3.org/2000/svg">
<path fill-rule="evenodd" clip-rule="evenodd" d="M5.5 3.87725C5.5 4.07616 5.42099 4.26693 5.28033 4.40758C5.13968 4.54823 4.94892 4.62725 4.75 4.62725C4.55109 4.62725 4.36033 4.54823 4.21967 4.40758C4.07902 4.26693 4 4.07616 4 3.87725C4 3.67834 4.07902 3.48757 4.21967 3.34692C4.36033 3.20627 4.55109 3.12725 4.75 3.12725C4.94892 3.12725 5.13968 3.20627 5.28033 3.34692C5.42099 3.48757 5.5 3.67834 5.5 3.87725ZM5.5 5.99925C6.00042 5.82233 6.42217 5.4742 6.69073 5.01639C6.95929 4.55858 7.05735 4.02057 6.9676 3.49745C6.87785 2.97433 6.60605 2.49978 6.20025 2.15767C5.79445 1.81556 5.28077 1.62793 4.75 1.62793C4.21924 1.62793 3.70556 1.81556 3.29976 2.15767C2.89396 2.49978 2.62216 2.97433 2.53241 3.49745C2.44265 4.02057 2.54072 4.55858 2.80928 5.01639C3.07784 5.4742 3.49959 5.82233 4 5.99925V6.87725C4 7.47399 4.23706 8.04628 4.65901 8.46824C5.08097 8.8902 5.65327 9.12725 6.25 9.12725H7.75V11.2552C7.24932 11.4322 6.8273 11.7804 6.55855 12.2384C6.28981 12.6964 6.19164 13.2347 6.28139 13.7581C6.37115 14.2815 6.64306 14.7563 7.04905 15.0986C7.45504 15.4409 7.96897 15.6286 8.5 15.6286C9.03104 15.6286 9.54497 15.4409 9.95096 15.0986C10.357 14.7563 10.6289 14.2815 10.7186 13.7581C10.8084 13.2347 10.7102 12.6964 10.4415 12.2384C10.1727 11.7804 9.75069 11.4322 9.25 11.2552V9.12725H10.75C11.3467 9.12725 11.919 8.8902 12.341 8.46824C12.763 8.04628 13 7.47399 13 6.87725V5.99925C13.5004 5.82233 13.9222 5.4742 14.1907 5.01639C14.4593 4.55858 14.5574 4.02057 14.4676 3.49745C14.3778 2.97433 14.1061 2.49978 13.7002 2.15767C13.2944 1.81556 12.7808 1.62793 12.25 1.62793C11.7192 1.62793 11.2056 1.81556 10.7998 2.15767C10.394 2.49978 10.1222 2.97433 10.0324 3.49745C9.94265 4.02057 10.0407 4.55858 10.3093 5.01639C10.5778 5.4742 10.9996 5.82233 11.5 5.99925V6.87725C11.5 7.07616 11.421 7.26693 11.2803 7.40758C11.1397 7.54823 10.9489 7.62725 10.75 7.62725H6.25C6.05109 7.62725 5.86033 7.54823 5.71967 7.40758C5.57902 7.26693 5.5 7.07616 5.5 6.87725V5.99925ZM9.25 13.3772C9.25 13.5762 9.17099 13.7669 9.03033 13.9076C8.88968 14.0482 8.69892 14.1272 8.5 14.1272C8.30109 14.1272 8.11033 14.0482 7.96967 13.9076C7.82902 13.7669 7.75 13.5762 7.75 13.3772C7.75 13.1783 7.82902 12.9876 7.96967 12.8469C8.11033 12.7063 8.30109 12.6272 8.5 12.6272C8.69892 12.6272 8.88968 12.7063 9.03033 12.8469C9.17099 12.9876 9.25 13.1783 9.25 13.3772ZM12.25 4.62725C12.4489 4.62725 12.6397 4.54823 12.7803 4.40758C12.921 4.26693 13 4.07616 13 3.87725C13 3.67834 12.921 3.48757 12.7803 3.34692C12.6397 3.20627 12.4489 3.12725 12.25 3.12725C12.0511 3.12725 11.8603 3.20627 11.7197 3.34692C11.579 3.48757 11.5 3.67834 11.5 3.87725C11.5 4.07616 11.579 4.26693 11.7197 4.40758C11.8603 4.54823 12.0511 4.62725 12.25 4.62725Z" fill="black"/>
</svg>
