<svg width="16" height="17" viewBox="0 0 16 17" fill="none" xmlns="http://www.w3.org/2000/svg">
<path fill-rule="evenodd" clip-rule="evenodd" d="M1.67974 8.55895C2.09174 7.93795 2.92174 6.80895 4.04574 5.84195C5.17574 4.86895 6.52774 4.12695 8.00074 4.12695C9.47374 4.12695 10.8247 4.86895 11.9557 5.84195C13.0797 6.80895 13.9097 7.93795 14.3217 8.55895C14.3356 8.57891 14.3431 8.60264 14.3431 8.62695C14.3431 8.65127 14.3356 8.675 14.3217 8.69495C13.9097 9.31595 13.0797 10.445 11.9557 11.412C10.8257 12.385 9.47374 13.127 8.00074 13.127C6.52774 13.127 5.17674 12.385 4.04574 11.412C2.92074 10.445 2.09074 9.31695 1.67974 8.69495C1.66585 8.675 1.6584 8.65127 1.6584 8.62695C1.6584 8.60264 1.66585 8.57891 1.67974 8.55895ZM8.00074 2.62695C6.01974 2.62695 4.33074 3.61895 3.06774 4.70495C1.79774 5.79595 0.880741 7.04995 0.430741 7.72695C0.253042 7.9931 0.158203 8.30594 0.158203 8.62595C0.158203 8.94597 0.253042 9.25881 0.430741 9.52495C0.880741 10.203 1.79774 11.457 3.06774 12.549C4.32974 13.635 6.01974 14.627 8.00074 14.627C9.98174 14.627 11.6707 13.635 12.9337 12.549C14.2037 11.458 15.1207 10.204 15.5707 9.52595C15.7484 9.25981 15.8433 8.94697 15.8433 8.62695C15.8433 8.30694 15.7484 7.9941 15.5707 7.72795C15.1207 7.04995 14.2037 5.79595 12.9337 4.70495C11.6717 3.61895 9.98174 2.62695 8.00074 2.62695ZM8.00074 10.627C8.53117 10.627 9.03988 10.4162 9.41495 10.0412C9.79003 9.66609 10.0007 9.15739 10.0007 8.62695C10.0007 8.09652 9.79003 7.58781 9.41495 7.21274C9.03988 6.83767 8.53117 6.62695 8.00074 6.62695C7.47031 6.62695 6.9616 6.83767 6.58653 7.21274C6.21145 7.58781 6.00074 8.09652 6.00074 8.62695C6.00074 9.15739 6.21145 9.66609 6.58653 10.0412C6.9616 10.4162 7.47031 10.627 8.00074 10.627Z" fill="black"/>
</svg>
