<svg width="20" height="21" viewBox="0 0 20 21" fill="none" xmlns="http://www.w3.org/2000/svg">
<g clip-path="url(#clip0)">
<path fill-rule="evenodd" clip-rule="evenodd" d="M9.99966 0.939453C10.1747 0.93934 10.3462 0.98822 10.4949 1.08056C10.6436 1.1729 10.7634 1.30502 10.8409 1.46195L13.1934 6.2307L18.4559 6.9957C18.629 7.02084 18.7916 7.09389 18.9253 7.2066C19.0591 7.31931 19.1586 7.46718 19.2127 7.6335C19.2668 7.79982 19.2733 7.97795 19.2314 8.14777C19.1896 8.31758 19.1011 8.47231 18.9759 8.59445L15.1684 12.307L16.0672 17.547C16.0968 17.7194 16.0776 17.8966 16.0117 18.0587C15.9459 18.2208 15.836 18.3612 15.6945 18.4641C15.553 18.5669 15.3855 18.6282 15.2111 18.6408C15.0366 18.6535 14.862 18.6171 14.7072 18.5357L9.99966 16.0607L5.29216 18.5357C5.13739 18.617 4.96299 18.6533 4.78864 18.6407C4.6143 18.6281 4.44696 18.567 4.30551 18.4643C4.16406 18.3616 4.05415 18.2214 3.98817 18.0595C3.9222 17.8976 3.9028 17.7205 3.93216 17.5482L4.83216 12.3057L1.02216 8.59445C0.896614 8.47236 0.80778 8.31754 0.765721 8.14754C0.723662 7.97754 0.730059 7.79916 0.784187 7.63261C0.838315 7.46606 0.938011 7.31801 1.07198 7.20522C1.20594 7.09243 1.36882 7.01941 1.54216 6.99445L6.80466 6.2307L9.15841 1.46195C9.23588 1.30502 9.35574 1.1729 9.50441 1.08056C9.65309 0.98822 9.82464 0.93934 9.99966 0.939453ZM9.99966 3.9957L8.26841 7.50195C8.20118 7.63808 8.10189 7.75584 7.97909 7.84511C7.85628 7.93439 7.71363 7.9925 7.56341 8.01445L3.69216 8.57695L6.49216 11.307C6.6011 11.413 6.6826 11.544 6.72964 11.6886C6.77668 11.8332 6.78784 11.9871 6.76216 12.137L6.10216 15.992L9.56341 14.172C9.69794 14.1012 9.84766 14.0643 9.99966 14.0643C10.1517 14.0643 10.3014 14.1012 10.4359 14.172L13.8984 15.992L13.2359 12.137C13.2102 11.9871 13.2214 11.8332 13.2684 11.6886C13.3155 11.544 13.397 11.413 13.5059 11.307L16.3059 8.5782L12.4359 8.0157C12.2857 7.99375 12.143 7.93564 12.0202 7.84636C11.8974 7.75709 11.7981 7.63933 11.7309 7.5032L9.99966 3.99445V3.9957Z" fill="black"/>
</g>
<defs>
<clipPath id="clip0">
<rect width="20" height="20" fill="white" transform="translate(0 0.626953)"/>
</clipPath>
</defs>
</svg>
