<svg width="79" height="79" viewBox="0 0 79 79" fill="none" xmlns="http://www.w3.org/2000/svg">
<circle cx="38.9372" cy="40.0759" r="38.695" fill="#CC5200"/>
<path d="M63.5281 69.949C74.267 61.1083 79.4343 47.1839 77.0624 33.4779C74.6905 19.7719 65.1444 8.39374 52.0592 3.67599C38.974 -1.04175 24.3634 1.62701 13.791 10.6661C-2.34479 24.4616 -4.35198 48.682 9.2928 64.9456C22.9376 81.2092 47.1382 83.4418 63.5281 69.949ZM60.3188 56.9633C60.7467 57.4736 60.9606 58.1319 60.8783 58.8067C60.8125 59.465 60.4833 60.1069 59.9731 60.5348C59.4635 60.978 58.798 61.1995 58.1243 61.1501C57.4507 61.1006 56.8247 60.7844 56.3852 60.2715C55.4965 59.2181 55.661 57.6381 56.7473 56.7165C57.8335 55.7948 59.43 55.91 60.3352 56.9633H60.3188ZM62.7052 24.1619C61.7531 24.978 60.4056 25.1465 59.2819 24.5898C58.1709 24.0267 57.5275 22.8319 57.669 21.5944C57.8006 20.36 58.6729 19.2902 59.8744 18.8952C61.0758 18.5167 62.376 18.8952 63.166 19.8333C64.2358 21.1171 64.0383 23.0592 62.7052 24.1619ZM67.4781 48.405C66.9844 49.7217 65.5196 50.4294 64.2194 49.9686C63.5921 49.7463 63.0811 49.2803 62.8023 48.6761C62.5234 48.0719 62.5003 47.3807 62.7381 46.7592C63.2319 45.4425 64.7131 44.7348 66.0133 45.1956C66.6406 45.4179 67.1516 45.8839 67.4304 46.4881C67.7093 47.0923 67.7324 47.7835 67.4946 48.405H67.4781ZM65.9969 30.4654C67.0038 30.2593 68.033 30.6985 68.5808 31.5681C69.124 32.424 69.0746 33.5431 68.4821 34.3661C67.8896 35.2219 66.8363 35.6498 65.8487 35.4358C64.8283 35.2383 64.0713 34.4483 63.9067 33.4279C63.6927 32.0619 64.6308 30.7452 66.0133 30.4654H65.9969ZM32.9815 68.945C32.3231 69.5046 31.3685 69.4881 30.7596 68.945C30.1342 68.369 30.0354 67.4308 30.5292 66.7231C31.0229 66.0319 31.961 65.785 32.7017 66.1636C33.453 66.5458 33.7941 67.434 33.4917 68.2208C33.3927 68.501 33.2226 68.7506 32.9979 68.945H32.9815ZM47.5635 66.8713C47.713 67.8007 47.091 68.6789 46.1646 68.8463C45.4903 68.9851 44.8009 68.6896 44.4365 68.1056C44.0744 67.5461 44.1073 66.789 44.5023 66.2294C44.9138 65.6698 45.605 65.4065 46.2633 65.5381C46.9217 65.6698 47.4483 66.1965 47.5471 66.8548V66.8713H47.5635ZM18.7285 64.4354L18.0208 63.7936C11.2883 57.5837 7.64375 48.7164 8.06355 39.5669C8.19522 38.2502 8.22813 36.8183 8.50792 35.5181L8.88647 33.5102L9.46251 31.5352C9.62709 30.8604 9.87397 30.2185 10.1538 29.5602C10.4171 28.9019 10.6475 28.2436 10.9438 27.6181C11.6021 26.3838 12.1781 25.0835 12.9846 23.9315C15.9511 19.1925 20.1266 15.3295 25.0815 12.7398C26.2665 12.1308 27.4679 11.6206 28.6694 11.1269C29.8873 10.7648 31.0558 10.2381 32.2902 10.0242C33.4752 9.76084 34.6438 9.44814 35.7958 9.36584C36.9315 9.21772 38.0835 9.06959 39.0875 9.05313C43.9232 8.90309 48.7312 9.83659 53.1594 11.7852C54.0708 12.1674 54.709 13.0068 54.8338 13.9872C54.9585 14.9676 54.5507 15.9401 53.764 16.5382C52.9773 17.1364 51.9312 17.2695 51.0198 16.8873L50.9375 16.8379L50.8388 16.805L50.0652 16.4429C48.1581 15.6052 46.1661 14.9762 44.1238 14.5667C42.6919 14.3033 40.9967 14.1058 39.2192 14.0894C38.2481 14.0729 37.3594 14.1717 36.3554 14.254C35.3679 14.2869 34.3804 14.5173 33.3435 14.6983C32.3067 14.8465 31.3027 15.2579 30.2329 15.5213C29.2125 15.9163 28.1592 16.3113 27.1223 16.805C22.7522 18.8902 19.0148 22.0994 16.2927 26.104C15.5356 27.0915 15.009 28.2106 14.3835 29.2804C14.1038 29.8236 13.8898 30.3996 13.6265 30.9592C13.3612 31.5111 13.1411 32.0835 12.9681 32.6708L12.3756 34.4154L11.9642 36.1765C11.635 37.3615 11.635 38.4806 11.454 39.6163C11.3717 40.7683 11.3717 42.1508 11.3717 43.1383C11.4907 46.281 12.1418 49.3807 13.2973 52.3056C14.8494 56.2534 17.2679 59.8023 20.3744 62.6908C20.8087 63.154 20.8076 63.8752 20.3719 64.3371C19.9361 64.799 19.2162 64.842 18.7285 64.4354Z" fill="#FF6600"/>
<path d="M35.8905 45.9855H39.9488V45.7159C40.0056 42.4521 40.9421 40.9905 43.3544 39.5006C45.8945 37.968 47.4554 35.8112 47.4554 32.6184C47.4554 28.0066 43.9646 24.8848 38.7569 24.8848C33.9748 24.8848 30.1435 27.6802 29.959 32.7887H34.2728C34.4431 29.7804 36.5858 28.4607 38.7569 28.4607C41.1692 28.4607 43.1274 30.0642 43.1274 32.5758C43.1274 34.6901 41.8077 36.1801 40.1191 37.2302C37.4797 38.8478 35.9188 40.4513 35.8905 45.7159V45.9855ZM38.0332 54.6131C39.5799 54.6131 40.8712 53.3501 40.8712 51.775C40.8712 50.2283 39.5799 48.9512 38.0332 48.9512C36.4722 48.9512 35.1951 50.2283 35.1951 51.775C35.1951 53.3501 36.4722 54.6131 38.0332 54.6131Z" fill="white"/>
</svg>
