<svg width="49" height="49" viewBox="0 0 49 49" fill="none" xmlns="http://www.w3.org/2000/svg">
<path d="M24.2188 33.2666V15.2666" stroke="white" stroke-width="2" stroke-linecap="round" stroke-linejoin="round"/>
<path d="M16.7188 27.2666C18.2021 27.2666 19.6522 27.7065 20.8855 28.5306C22.1189 29.3547 23.0802 30.526 23.6478 31.8965C24.2155 33.2669 24.364 34.7749 24.0746 36.2298C23.7853 37.6846 23.0709 39.021 22.0221 40.0699C20.9732 41.1188 19.6368 41.8331 18.1819 42.1225C16.7271 42.4119 15.2191 42.2634 13.8486 41.6957C12.4782 41.128 11.3068 40.1667 10.4827 38.9334C9.65862 37.7 9.21875 36.25 9.21875 34.7666V33.5041" stroke="white" stroke-width="2" stroke-linecap="round" stroke-linejoin="round"/>
<path d="M31.7188 27.2666C30.2354 27.2666 28.7853 27.7065 27.552 28.5306C26.3186 29.3547 25.3573 30.526 24.7897 31.8965C24.222 33.2669 24.0735 34.7749 24.3629 36.2298C24.6523 37.6846 25.3666 39.021 26.4155 40.0699C27.4643 41.1188 28.8007 41.8331 30.2556 42.1225C31.7104 42.4119 33.2184 42.2634 34.5889 41.6957C35.9593 41.128 37.1307 40.1667 37.9548 38.9334C38.7789 37.7 39.2188 36.25 39.2188 34.7666V33.5044" stroke="white" stroke-width="2" stroke-linecap="round" stroke-linejoin="round"/>
<path d="M13.7188 34.0166H12.2188C10.0956 34.0162 8.04086 33.2654 6.41769 31.8967C4.79452 30.5281 3.70738 28.6297 3.34838 26.5371C2.98938 24.4445 3.38163 22.2923 4.45581 20.4609C5.52999 18.6295 7.21696 17.2368 9.21862 16.5288L9.21877 13.7666C9.21877 11.7775 10.0089 9.86982 11.4155 8.4633C12.822 7.05678 14.7296 6.2666 16.7188 6.2666C18.7079 6.2666 20.6155 7.05678 22.0221 8.4633C23.4286 9.86982 24.2188 11.7775 24.2188 13.7666V34.7666" stroke="white" stroke-width="2" stroke-linecap="round" stroke-linejoin="round"/>
<path d="M34.7188 34.0166H36.2188C38.3419 34.0162 40.3967 33.2654 42.0198 31.8967C43.643 30.5281 44.7301 28.6297 45.0891 26.5371C45.4481 24.4445 45.0559 22.2923 43.9817 20.4609C42.9075 18.6295 41.2206 17.2368 39.2189 16.5288L39.2188 13.7666C39.2188 11.7775 38.4286 9.86982 37.0221 8.4633C35.6155 7.05678 33.7079 6.2666 31.7188 6.2666C29.7296 6.2666 27.822 7.05678 26.4154 8.4633C25.0089 9.86982 24.2188 11.7775 24.2188 13.7666" stroke="white" stroke-width="2" stroke-linecap="round" stroke-linejoin="round"/>
<path d="M16.7188 16.0166V17.5166C16.7188 18.909 16.1656 20.2443 15.1811 21.2289C14.1965 22.2135 12.8611 22.7666 11.4688 22.7666" stroke="white" stroke-width="2" stroke-linecap="round" stroke-linejoin="round"/>
<path d="M31.7188 16.0166V17.5166C31.7188 18.909 32.2719 20.2443 33.2564 21.2289C34.241 22.2135 35.5764 22.7666 36.9688 22.7666" stroke="white" stroke-width="2" stroke-linecap="round" stroke-linejoin="round"/>
</svg>
