<svg width="33" height="33" viewBox="0 0 33 33" fill="none" xmlns="http://www.w3.org/2000/svg">
<path d="M30.2384 15.5537L19.0876 8.38538C18.9366 8.28827 18.7621 8.23363 18.5827 8.2272C18.4032 8.22077 18.2253 8.2628 18.0677 8.34885C17.9101 8.43491 17.7785 8.56182 17.6869 8.71626C17.5952 8.8707 17.5469 9.04698 17.5469 9.22656V23.5632C17.5469 23.7428 17.5952 23.9191 17.6869 24.0735C17.7785 24.228 17.9101 24.3549 18.0677 24.4409C18.2253 24.527 18.4032 24.569 18.5827 24.5626C18.7621 24.5562 18.9366 24.5015 19.0876 24.4044L30.2384 17.2361C30.3792 17.1455 30.4951 17.0211 30.5753 16.8741C30.6556 16.7271 30.6976 16.5623 30.6976 16.3949C30.6976 16.2274 30.6556 16.0627 30.5753 15.9157C30.4951 15.7687 30.3792 15.6443 30.2384 15.5537Z" fill="white"/>
<path d="M16.2384 15.5537L5.08763 8.38538C4.93657 8.28827 4.76214 8.23363 4.58267 8.2272C4.4032 8.22077 4.22531 8.2628 4.06769 8.34885C3.91006 8.43491 3.77852 8.56182 3.68688 8.71626C3.59524 8.8707 3.54688 9.04698 3.54688 9.22656V23.5632C3.54688 23.7428 3.59524 23.9191 3.68688 24.0735C3.77852 24.228 3.91006 24.3549 4.06769 24.4409C4.22531 24.527 4.4032 24.569 4.58267 24.5626C4.76214 24.5562 4.93657 24.5015 5.08763 24.4044L16.2384 17.2361C16.3792 17.1455 16.4951 17.0211 16.5753 16.8741C16.6556 16.7271 16.6976 16.5623 16.6976 16.3949C16.6976 16.2274 16.6556 16.0627 16.5753 15.9157C16.4951 15.7687 16.3792 15.6443 16.2384 15.5537Z" fill="white"/>
</svg>
