<svg width="280" height="288" viewBox="0 0 280 288" fill="none" xmlns="http://www.w3.org/2000/svg">
<rect x="1.19336" y="124.546" width="277.934" height="46.3506" rx="3.62114" fill="white"/>
<path d="M47.5445 147.721C47.5445 154.121 42.3565 159.309 35.9568 159.309C29.5571 159.309 24.3691 154.121 24.3691 147.721C24.3691 141.322 29.5571 136.134 35.9568 136.134C42.3565 136.134 47.5445 141.322 47.5445 147.721Z" fill="#87BBFD"/>
<path d="M29.1943 140.909V141.587V140.909ZM29.1943 140.909V141.587V140.909ZM29.5332 141.248H28.8555H29.5332ZM36.6493 153.616V154.633V153.616ZM37.1574 154.125H36.1408H37.1574ZM42.0711 144.298V145.653V144.298ZM42.7488 144.976H41.3934Z" fill="black"/>
<path fill-rule="evenodd" clip-rule="evenodd" d="M29.1936 140.669C29.3269 140.669 29.435 140.777 29.435 140.91V141.008H29.5324C29.6657 141.008 29.7738 141.116 29.7738 141.249C29.7738 141.383 29.6657 141.491 29.5324 141.491H29.435V141.588C29.435 141.721 29.3269 141.829 29.1936 141.829C29.0602 141.829 28.9521 141.721 28.9521 141.588V141.491H28.8547C28.7214 141.491 28.6133 141.383 28.6133 141.249C28.6133 141.116 28.7214 141.008 28.8547 141.008H28.9521V140.91C28.9521 140.777 29.0602 140.669 29.1936 140.669ZM42.0703 144.058C42.2037 144.058 42.3118 144.166 42.3118 144.299V144.735H42.7481C42.8814 144.735 42.9895 144.843 42.9895 144.977C42.9895 145.11 42.8814 145.218 42.7481 145.218H42.3118V145.654C42.3118 145.788 42.2037 145.896 42.0703 145.896C41.937 145.896 41.8289 145.788 41.8289 145.654V145.218H41.3926C41.2593 145.218 41.1512 145.11 41.1512 144.977C41.1512 144.843 41.2593 144.735 41.3926 144.735H41.8289V144.299C41.8289 144.166 41.937 144.058 42.0703 144.058ZM36.6485 153.376C36.7819 153.376 36.8899 153.484 36.8899 153.618V153.885H37.1566C37.29 153.885 37.398 153.993 37.398 154.126C37.398 154.259 37.29 154.367 37.1566 154.367H36.8899V154.634C36.8899 154.767 36.7819 154.876 36.6485 154.876C36.5152 154.876 36.4071 154.767 36.4071 154.634V154.367H36.1401C36.0067 154.367 35.8986 154.259 35.8986 154.126C35.8986 153.993 36.0067 153.885 36.1401 153.885H36.4071V153.618C36.4071 153.484 36.5152 153.376 36.6485 153.376Z" fill="#6772E5"/>
<path d="M41.0717 151.944L37.1479 149.548Z" fill="black"/>
<path fill-rule="evenodd" clip-rule="evenodd" d="M35.9562 142.682C36.0562 142.682 36.1373 142.763 36.1373 142.863V147.417C36.1373 147.517 36.0562 147.598 35.9562 147.598C35.8562 147.598 35.7751 147.517 35.7751 147.417V142.863C35.7751 142.763 35.8562 142.682 35.9562 142.682ZM34.9196 149.453C34.9717 149.538 34.9448 149.65 34.8594 149.702L30.9356 152.098C30.8503 152.15 30.7388 152.123 30.6867 152.038C30.6346 151.953 30.6615 151.841 30.7469 151.789L34.6707 149.393C34.756 149.341 34.8674 149.367 34.9196 149.453ZM36.9928 149.453C37.0449 149.367 37.1564 149.341 37.2417 149.393L41.1655 151.789C41.2509 151.841 41.2778 151.953 41.2257 152.038C41.1736 152.123 41.0621 152.15 40.9768 152.098L37.053 149.702C36.9676 149.65 36.9407 149.538 36.9928 149.453Z" fill="white"/>
<path d="M35.9555 150.273C36.3272 150.273 36.6836 150.125 36.9464 149.863C37.2092 149.6 37.3569 149.243 37.3569 148.872C37.3569 148.5 37.2092 148.144 36.9464 147.881C36.6836 147.618 36.3272 147.47 35.9555 147.47C35.5839 147.47 35.2274 147.618 34.9646 147.881C34.7018 148.144 34.5542 148.5 34.5542 148.872C34.5542 149.243 34.7018 149.6 34.9646 149.863C35.2274 150.125 35.5839 150.273 35.9555 150.273ZM42.2616 154.127C42.6333 154.127 42.9897 153.979 43.2525 153.716C43.5153 153.454 43.663 153.097 43.663 152.726C43.663 152.354 43.5153 151.997 43.2525 151.735C42.9897 151.472 42.6333 151.324 42.2616 151.324C41.89 151.324 41.5335 151.472 41.2707 151.735C41.0079 151.997 40.8603 152.354 40.8603 152.726C40.8603 153.097 41.0079 153.454 41.2707 153.716C41.5335 153.979 41.89 154.127 42.2616 154.127ZM29.6494 154.127C30.0211 154.127 30.3775 153.979 30.6403 153.716C30.9031 153.454 31.0508 153.097 31.0508 152.726C31.0508 152.354 30.9031 151.997 30.6403 151.735C30.3775 151.472 30.0211 151.324 29.6494 151.324C29.2777 151.324 28.9213 151.472 28.6585 151.735C28.3957 151.997 28.248 152.354 28.248 152.726C28.248 153.097 28.3957 153.454 28.6585 153.716C28.9213 153.979 29.2777 154.127 29.6494 154.127ZM35.9555 142.916C36.3272 142.916 36.6836 142.768 36.9464 142.506C37.2092 142.243 37.3569 141.886 37.3569 141.515C37.3569 141.143 37.2092 140.787 36.9464 140.524C36.6836 140.261 36.3272 140.113 35.9555 140.113C35.5839 140.113 35.2274 140.261 34.9646 140.524C34.7018 140.787 34.5542 141.143 34.5542 141.515C34.5542 141.886 34.7018 142.243 34.9646 142.506C35.2274 142.768 35.5839 142.916 35.9555 142.916V142.916Z" fill="black"/>
<path fill-rule="evenodd" clip-rule="evenodd" d="M34.7093 140.267C35.0401 139.937 35.4886 139.751 35.9563 139.751C36.424 139.751 36.8726 139.937 37.2033 140.267C37.534 140.598 37.7198 141.047 37.7198 141.514C37.7198 141.982 37.534 142.431 37.2033 142.761C36.8726 143.092 36.424 143.278 35.9563 143.278C35.4886 143.278 35.0401 143.092 34.7093 142.761C34.3786 142.431 34.1928 141.982 34.1928 141.514C34.1928 141.047 34.3786 140.598 34.7093 140.267ZM35.9563 140.475C35.6807 140.475 35.4163 140.585 35.2214 140.78C35.0266 140.974 34.9171 141.239 34.9171 141.514C34.9171 141.79 35.0266 142.054 35.2214 142.249C35.4163 142.444 35.6807 142.554 35.9563 142.554C36.2319 142.554 36.4963 142.444 36.6912 142.249C36.8861 142.054 36.9955 141.79 36.9955 141.514C36.9955 141.239 36.8861 140.974 36.6912 140.78C36.4963 140.585 36.2319 140.475 35.9563 140.475ZM34.7093 147.625C35.0401 147.294 35.4886 147.108 35.9563 147.108C36.424 147.108 36.8726 147.294 37.2033 147.625C37.534 147.955 37.7198 148.404 37.7198 148.872C37.7198 149.339 37.534 149.788 37.2033 150.119C36.8726 150.449 36.424 150.635 35.9563 150.635C35.4886 150.635 35.0401 150.449 34.7093 150.119C34.3786 149.788 34.1928 149.339 34.1928 148.872C34.1928 148.404 34.3786 147.955 34.7093 147.625ZM35.9563 147.832C35.6807 147.832 35.4163 147.942 35.2214 148.137C35.0266 148.332 34.9171 148.596 34.9171 148.872C34.9171 149.147 35.0266 149.412 35.2214 149.606C35.4163 149.801 35.6807 149.911 35.9563 149.911C36.2319 149.911 36.4963 149.801 36.6912 149.606C36.8861 149.412 36.9955 149.147 36.9955 148.872C36.9955 148.596 36.8861 148.332 36.6912 148.137C36.4963 147.942 36.2319 147.832 35.9563 147.832ZM28.4032 151.478C28.7339 151.148 29.1825 150.962 29.6502 150.962C30.1179 150.962 30.5664 151.148 30.8972 151.478C31.2279 151.809 31.4137 152.258 31.4137 152.725C31.4137 153.193 31.2279 153.642 30.8972 153.972C30.5664 154.303 30.1179 154.489 29.6502 154.489C29.1825 154.489 28.7339 154.303 28.4032 153.972C28.0725 153.642 27.8867 153.193 27.8867 152.725C27.8867 152.258 28.0725 151.809 28.4032 151.478ZM29.6502 151.686C29.3746 151.686 29.1102 151.796 28.9153 151.99C28.7204 152.185 28.6109 152.45 28.6109 152.725C28.6109 153.001 28.7204 153.265 28.9153 153.46C29.1102 153.655 29.3746 153.765 29.6502 153.765C29.9258 153.765 30.1902 153.655 30.385 153.46C30.5799 153.265 30.6894 153.001 30.6894 152.725C30.6894 152.45 30.5799 152.185 30.385 151.99C30.1902 151.796 29.9258 151.686 29.6502 151.686ZM41.0155 151.478C41.3462 151.148 41.7947 150.962 42.2624 150.962C42.7301 150.962 43.1787 151.148 43.5094 151.478C43.8401 151.809 44.0259 152.258 44.0259 152.725C44.0259 153.193 43.8401 153.642 43.5094 153.972C43.1787 154.303 42.7301 154.489 42.2624 154.489C41.7947 154.489 41.3462 154.303 41.0155 153.972C40.6847 153.642 40.4989 153.193 40.4989 152.725C40.4989 152.258 40.6847 151.809 41.0155 151.478ZM42.2624 151.686C41.9868 151.686 41.7225 151.796 41.5276 151.99C41.3327 152.185 41.2232 152.45 41.2232 152.725C41.2232 153.001 41.3327 153.265 41.5276 153.46C41.7225 153.655 41.9868 153.765 42.2624 153.765C42.538 153.765 42.8024 153.655 42.9973 153.46C43.1922 153.265 43.3017 153.001 43.3017 152.725C43.3017 152.45 43.1922 152.185 42.9973 151.99C42.8024 151.796 42.538 151.686 42.2624 151.686Z" fill="#6772E5"/>
<path d="M56.2063 151.603H57.5218V148.303H59.3099C59.3397 148.303 59.3653 148.303 59.3951 148.303L61.1661 151.603H62.6647L60.7318 148.073C61.8004 147.677 62.3326 146.788 62.3326 145.617C62.3326 144.012 61.3364 142.884 59.3142 142.884H56.2063V151.603ZM57.5218 147.171V144.012H59.1737C60.4722 144.012 61.0086 144.629 61.0086 145.617C61.0086 146.6 60.4722 147.171 59.1907 147.171H57.5218ZM67.9735 148.891C67.9778 150.002 67.1519 150.53 66.4366 150.53C65.649 150.53 65.1041 149.959 65.1041 149.069V145.063H63.8312V149.223C63.8312 150.845 64.7209 151.688 65.9768 151.688C66.9603 151.688 67.6287 151.168 67.9309 150.47H67.9991V151.603H69.2507V145.063H67.9735V148.891ZM72.234 147.72C72.234 146.677 72.8726 146.081 73.7581 146.081C74.6224 146.081 75.146 146.647 75.146 147.596V151.603H76.4189V147.443C76.4189 145.825 75.5292 144.978 74.1924 144.978C73.2089 144.978 72.5661 145.434 72.2638 146.128H72.1829V145.063H70.9611V151.603H72.234V147.72ZM152.583 151.603H157.849V150.47H153.899V142.884H152.583V151.603ZM159.248 151.603H160.521V145.063H159.248V151.603ZM159.891 144.054C160.329 144.054 160.695 143.714 160.695 143.297C160.695 142.879 160.329 142.534 159.891 142.534C159.448 142.534 159.086 142.879 159.086 143.297C159.086 143.714 159.448 144.054 159.891 144.054ZM165.286 145.063H163.945V143.497H162.672V145.063H161.714V146.085H162.672V149.946C162.668 151.134 163.574 151.709 164.579 151.688C164.984 151.683 165.256 151.607 165.405 151.551L165.175 150.5C165.09 150.517 164.933 150.555 164.728 150.555C164.315 150.555 163.945 150.419 163.945 149.682V146.085H165.286V145.063ZM166.694 151.603H167.967V147.571C167.967 146.69 168.584 146.077 169.308 146.077C170.015 146.077 170.504 146.545 170.504 147.256V151.603H171.773V147.435C171.773 146.647 172.254 146.077 173.084 146.077C173.757 146.077 174.31 146.451 174.31 147.337V151.603H175.583V147.218C175.583 145.723 174.749 144.978 173.565 144.978C172.624 144.978 171.918 145.429 171.603 146.128H171.535C171.249 145.412 170.649 144.978 169.776 144.978C168.912 144.978 168.269 145.408 167.997 146.128H167.916V145.063H166.694V151.603ZM181.432 148.891C181.436 150.002 180.61 150.53 179.895 150.53C179.107 150.53 178.562 149.959 178.562 149.069V145.063H177.289V149.223C177.289 150.845 178.179 151.688 179.435 151.688C180.418 151.688 181.087 151.168 181.389 150.47H181.457V151.603H182.709V145.063H181.432V148.891ZM189.319 146.66C189.055 145.642 188.259 144.978 186.846 144.978C185.369 144.978 184.321 145.757 184.321 146.915C184.321 147.843 184.883 148.461 186.109 148.733L187.216 148.976C187.846 149.116 188.14 149.397 188.14 149.806C188.14 150.313 187.599 150.709 186.765 150.709C186.003 150.709 185.513 150.381 185.36 149.738L184.13 149.925C184.343 151.083 185.305 151.735 186.774 151.735C188.353 151.735 189.447 150.896 189.447 149.712C189.447 148.788 188.86 148.218 187.659 147.941L186.62 147.703C185.901 147.533 185.59 147.29 185.594 146.847C185.59 146.345 186.135 145.987 186.859 145.987C187.651 145.987 188.017 146.426 188.166 146.864L189.319 146.66ZM195.829 151.603H197.157L198.992 145.072H199.06L200.895 151.603H202.219L204.641 142.884H203.254L201.559 149.64H201.478L199.711 142.884H198.341L196.574 149.636H196.493L194.794 142.884H193.411L195.829 151.603ZM207.849 151.735C209.693 151.735 210.898 150.385 210.898 148.363C210.898 146.328 209.693 144.978 207.849 144.978C206.006 144.978 204.801 146.328 204.801 148.363C204.801 150.385 206.006 151.735 207.849 151.735ZM207.854 150.666C206.649 150.666 206.087 149.614 206.087 148.358C206.087 147.107 206.649 146.043 207.854 146.043C209.05 146.043 209.612 147.107 209.612 148.358C209.612 149.614 209.05 150.666 207.854 150.666ZM212.318 151.603H213.591V147.609C213.591 146.753 214.251 146.136 215.154 146.136C215.418 146.136 215.716 146.183 215.818 146.213V144.995C215.69 144.978 215.439 144.965 215.277 144.965C214.511 144.965 213.855 145.4 213.617 146.102H213.549V145.063H212.318V151.603ZM216.919 151.603H218.192V149.282L218.827 148.648L221.049 151.603H222.611L219.785 147.869L222.433 145.063H220.909L218.303 147.831H218.192V142.884H216.919V151.603ZM226.705 145.063H225.296V144.476C225.296 143.897 225.534 143.582 226.156 143.582C226.42 143.582 226.607 143.641 226.726 143.68L227.024 142.649C226.845 142.581 226.475 142.475 225.96 142.475C224.925 142.475 224.019 143.079 224.019 144.306V145.063H223.01V146.085H224.019V151.603H225.296V146.085H226.705V145.063ZM229.291 142.884H228.018V151.603H229.291V142.884ZM233.758 151.735C235.602 151.735 236.806 150.385 236.806 148.363C236.806 146.328 235.602 144.978 233.758 144.978C231.915 144.978 230.71 146.328 230.71 148.363C230.71 150.385 231.915 151.735 233.758 151.735ZM233.762 150.666C232.558 150.666 231.996 149.614 231.996 148.358C231.996 147.107 232.558 146.043 233.762 146.043C234.959 146.043 235.521 147.107 235.521 148.358C235.521 149.614 234.959 150.666 233.762 150.666ZM239.446 151.603H240.74L242.068 146.881H242.166L243.495 151.603H244.793L246.713 145.063H245.398L244.125 149.844H244.061L242.784 145.063H241.468L240.182 149.866H240.119L238.837 145.063H237.522L239.446 151.603ZM252.821 146.66C252.557 145.642 251.761 144.978 250.348 144.978C248.871 144.978 247.823 145.757 247.823 146.915C247.823 147.843 248.385 148.461 249.611 148.733L250.718 148.976C251.348 149.116 251.642 149.397 251.642 149.806C251.642 150.313 251.101 150.709 250.267 150.709C249.505 150.709 249.015 150.381 248.862 149.738L247.632 149.925C247.845 151.083 248.807 151.735 250.275 151.735C251.855 151.735 252.949 150.896 252.949 149.712C252.949 148.788 252.362 148.218 251.161 147.941L250.122 147.703C249.403 147.533 249.092 147.29 249.096 146.847C249.092 146.345 249.637 145.987 250.361 145.987C251.152 145.987 251.519 146.426 251.668 146.864L252.821 146.66Z" fill="#1C0732"/>
<path d="M81.2989 154.055H82.5718V150.585H82.6484C82.8783 151.002 83.3466 151.73 84.5387 151.73C86.1224 151.73 87.2719 150.462 87.2719 148.346C87.2719 146.226 86.1054 144.978 84.5259 144.978C83.3126 144.978 82.8741 145.719 82.6484 146.123H82.542V145.063H81.2989V154.055ZM82.5463 148.333C82.5463 146.966 83.1423 146.06 84.2534 146.06C85.4072 146.06 85.9862 147.034 85.9862 148.333C85.9862 149.644 85.3901 150.645 84.2534 150.645C83.1593 150.645 82.5463 149.708 82.5463 148.333ZM88.6981 151.603H89.971V147.609C89.971 146.753 90.6309 146.136 91.5334 146.136C91.7974 146.136 92.0954 146.183 92.1976 146.213V144.995C92.0698 144.978 91.8187 144.965 91.6569 144.965C90.8906 144.965 90.235 145.4 89.9965 146.102H89.9284V145.063H88.6981V151.603ZM95.8833 151.735C97.3095 151.735 98.3185 151.032 98.608 149.968L97.4032 149.751C97.1733 150.368 96.6198 150.683 95.8961 150.683C94.8062 150.683 94.074 149.976 94.0399 148.716H98.6889V148.265C98.6889 145.902 97.2755 144.978 95.7939 144.978C93.9718 144.978 92.7712 146.366 92.7712 148.376C92.7712 150.406 93.9548 151.735 95.8833 151.735ZM94.0442 147.762C94.0953 146.834 94.7679 146.03 95.8024 146.03C96.7901 146.03 97.4372 146.762 97.4415 147.762H94.0442ZM103.954 147.367H100.088V148.469H103.954V147.367ZM108.099 151.73C109.291 151.73 109.759 151.002 109.989 150.585H110.095V151.603H111.338V142.884H110.065V146.123H109.989C109.759 145.719 109.325 144.978 108.107 144.978C106.528 144.978 105.365 146.226 105.365 148.346C105.365 150.462 106.511 151.73 108.099 151.73ZM108.38 150.645C107.243 150.645 106.651 149.644 106.651 148.333C106.651 147.034 107.23 146.06 108.38 146.06C109.491 146.06 110.087 146.966 110.087 148.333C110.087 149.708 109.478 150.645 108.38 150.645ZM115.974 151.735C117.4 151.735 118.409 151.032 118.698 149.968L117.493 149.751C117.263 150.368 116.71 150.683 115.986 150.683C114.896 150.683 114.164 149.976 114.13 148.716H118.779V148.265C118.779 145.902 117.366 144.978 115.884 144.978C114.062 144.978 112.861 146.366 112.861 148.376C112.861 150.406 114.045 151.735 115.974 151.735ZM114.134 147.762C114.185 146.834 114.858 146.03 115.893 146.03C116.88 146.03 117.527 146.762 117.532 147.762H114.134ZM123.304 145.063H121.894V144.476C121.894 143.897 122.133 143.582 122.754 143.582C123.018 143.582 123.206 143.641 123.325 143.68L123.623 142.649C123.444 142.581 123.074 142.475 122.559 142.475C121.524 142.475 120.617 143.079 120.617 144.306V145.063H119.608V146.085H120.617V151.603H121.894V146.085H123.304V145.063ZM124.617 151.603H125.89V145.063H124.617V151.603ZM125.26 144.054C125.698 144.054 126.064 143.714 126.064 143.297C126.064 142.879 125.698 142.534 125.26 142.534C124.817 142.534 124.455 142.879 124.455 143.297C124.455 143.714 124.817 144.054 125.26 144.054ZM128.875 147.72C128.875 146.677 129.514 146.081 130.399 146.081C131.264 146.081 131.787 146.647 131.787 147.596V151.603H133.06V147.443C133.06 145.825 132.17 144.978 130.834 144.978C129.85 144.978 129.207 145.434 128.905 146.128H128.824V145.063H127.602V151.603H128.875V147.72ZM137.586 151.735C139.012 151.735 140.021 151.032 140.31 149.968L139.106 149.751C138.876 150.368 138.322 150.683 137.598 150.683C136.509 150.683 135.776 149.976 135.742 148.716H140.391V148.265C140.391 145.902 138.978 144.978 137.496 144.978C135.674 144.978 134.474 146.366 134.474 148.376C134.474 150.406 135.657 151.735 137.586 151.735ZM135.747 147.762C135.798 146.834 136.47 146.03 137.505 146.03C138.493 146.03 139.14 146.762 139.144 147.762H135.747ZM144.252 151.73C145.444 151.73 145.912 151.002 146.142 150.585H146.248V151.603H147.491V142.884H146.218V146.123H146.142C145.912 145.719 145.478 144.978 144.26 144.978C142.681 144.978 141.518 146.226 141.518 148.346C141.518 150.462 142.664 151.73 144.252 151.73ZM144.533 150.645C143.396 150.645 142.804 149.644 142.804 148.333C142.804 147.034 143.383 146.06 144.533 146.06C145.644 146.06 146.24 146.966 146.24 148.333C146.24 149.708 145.631 150.645 144.533 150.645Z" fill="#5B44BA"/>
<rect x="1.00195" y="241.513" width="278.104" height="46.3506" rx="3.62114" fill="white"/>
<path d="M46.7693 253.101C40.3697 253.101 35.1816 258.288 35.1816 264.688C35.1816 271.088 40.37 276.276 46.7693 276.276C53.1686 276.276 58.357 271.088 58.357 264.688C58.357 258.289 53.1686 253.101 46.7693 253.101V253.101ZM46.7693 274.788C44.9486 274.788 43.4722 273.571 43.4722 272.072H50.0627C50.0627 273.572 48.5864 274.788 46.7657 274.788H46.7693ZM52.2191 271.173H41.3231V269.198H52.2191V271.173ZM52.18 268.182H41.3546L41.2471 268.057C40.1317 266.703 39.8696 265.993 39.6146 265.276C39.6103 265.252 40.9668 265.553 41.9286 265.77C41.9286 265.77 42.4236 265.884 43.1467 266.016C42.4522 265.201 42.0397 264.166 42.0397 263.108C42.0397 260.785 43.8213 258.755 43.1786 257.115C43.8043 257.166 44.4731 258.435 44.5184 260.42C45.1836 259.501 45.4617 257.823 45.4617 256.793C45.4617 255.728 46.1642 254.49 46.866 254.448C46.2395 255.48 47.0282 256.364 47.7285 258.558C47.9914 259.382 47.9578 260.769 48.1605 261.649C48.2279 259.822 48.5419 257.157 49.701 256.236C49.1897 257.395 49.777 258.846 50.1782 259.543C50.8264 260.667 51.2186 261.52 51.2186 263.128C51.2186 264.208 50.8196 265.225 50.1467 266.024C50.9119 265.881 51.4402 265.751 51.4402 265.751L53.925 265.266C53.925 265.266 53.564 266.751 52.1768 268.181L52.18 268.182Z" fill="#DA4E31"/>
<path d="M66.1793 259.85V268.569H67.4309V262.256H67.5118L70.0832 268.557H71.122L73.6934 262.26H73.7743V268.569H75.026V259.85H73.4295L70.6537 266.628H70.5515L67.7758 259.85H66.1793ZM79.5909 268.701C81.4343 268.701 82.6391 267.352 82.6391 265.33C82.6391 263.295 81.4343 261.945 79.5909 261.945C77.7475 261.945 76.5426 263.295 76.5426 265.33C76.5426 267.352 77.7475 268.701 79.5909 268.701ZM79.5951 267.633C78.3903 267.633 77.8283 266.581 77.8283 265.325C77.8283 264.074 78.3903 263.009 79.5951 263.009C80.7914 263.009 81.3534 264.074 81.3534 265.325C81.3534 266.581 80.7914 267.633 79.5951 267.633ZM85.3329 264.687C85.3329 263.644 85.9715 263.048 86.857 263.048C87.7212 263.048 88.2449 263.614 88.2449 264.563V268.569H89.5178V264.41C89.5178 262.792 88.6281 261.945 87.2913 261.945C86.3078 261.945 85.665 262.401 85.3627 263.094H85.2818V262.03H84.06V268.569H85.3329V264.687ZM91.225 268.569H92.4979V262.03H91.225V268.569ZM91.8679 261.021C92.3064 261.021 92.6725 260.681 92.6725 260.263C92.6725 259.846 92.3064 259.501 91.8679 259.501C91.4251 259.501 91.0632 259.846 91.0632 260.263C91.0632 260.681 91.4251 261.021 91.8679 261.021ZM97.2629 262.03H95.9219V260.463H94.6489V262.03H93.691V263.052H94.6489V266.913C94.6447 268.101 95.5515 268.676 96.5562 268.654C96.9607 268.65 97.2331 268.574 97.3821 268.518L97.1522 267.467C97.0671 267.484 96.9096 267.522 96.7052 267.522C96.2923 267.522 95.9219 267.386 95.9219 266.649V263.052H97.2629V262.03ZM101.355 268.701C103.199 268.701 104.403 267.352 104.403 265.33C104.403 263.295 103.199 261.945 101.355 261.945C99.5118 261.945 98.307 263.295 98.307 265.33C98.307 267.352 99.5118 268.701 101.355 268.701ZM101.36 267.633C100.155 267.633 99.5927 266.581 99.5927 265.325C99.5927 264.074 100.155 263.009 101.36 263.009C102.556 263.009 103.118 264.074 103.118 265.325C103.118 266.581 102.556 267.633 101.36 267.633ZM105.824 268.569H107.097V264.576C107.097 263.72 107.757 263.103 108.66 263.103C108.924 263.103 109.222 263.15 109.324 263.18V261.962C109.196 261.945 108.945 261.932 108.783 261.932C108.017 261.932 107.361 262.366 107.123 263.069H107.055V262.03H105.824V268.569Z" fill="#E6522C"/>
<path d="M114.403 271.022C115.454 271.022 116.119 270.472 116.497 269.442L119.201 262.043L117.826 262.03L116.17 267.105H116.101L114.445 262.03H113.083L115.476 268.654L115.318 269.089C114.995 269.957 114.539 270.03 113.841 269.838L113.534 270.881C113.688 270.949 114.02 271.022 114.403 271.022ZM122.921 268.701C124.764 268.701 125.969 267.352 125.969 265.33C125.969 263.295 124.764 261.945 122.921 261.945C121.077 261.945 119.872 263.295 119.872 265.33C119.872 267.352 121.077 268.701 122.921 268.701ZM122.925 267.633C121.72 267.633 121.158 266.581 121.158 265.325C121.158 264.074 121.72 263.009 122.925 263.009C124.121 263.009 124.683 264.074 124.683 265.325C124.683 266.581 124.121 267.633 122.925 267.633ZM131.532 265.857C131.536 266.969 130.71 267.496 129.995 267.496C129.208 267.496 128.663 266.926 128.663 266.036V262.03H127.39V266.19C127.39 267.812 128.279 268.654 129.535 268.654C130.519 268.654 131.187 268.135 131.49 267.437H131.558V268.569H132.809V262.03H131.532V265.857ZM134.52 268.569H135.793V264.576C135.793 263.72 136.452 263.103 137.355 263.103C137.619 263.103 137.917 263.15 138.019 263.18V261.962C137.891 261.945 137.64 261.932 137.478 261.932C136.712 261.932 136.057 262.366 135.818 263.069H135.75V262.03H134.52V268.569ZM142.396 268.569H147.662V267.437H143.711V259.85H142.396V268.569ZM149.06 268.569H150.333V262.03H149.06V268.569ZM149.703 261.021C150.142 261.021 150.508 260.681 150.508 260.263C150.508 259.846 150.142 259.501 149.703 259.501C149.261 259.501 148.899 259.846 148.899 260.263C148.899 260.681 149.261 261.021 149.703 261.021ZM155.098 262.03H153.757V260.463H152.484V262.03H151.526V263.052H152.484V266.913C152.48 268.101 153.387 268.676 154.392 268.654C154.796 268.65 155.069 268.574 155.218 268.518L154.988 267.467C154.903 267.484 154.745 267.522 154.541 267.522C154.128 267.522 153.757 267.386 153.757 266.649V263.052H155.098V262.03ZM156.506 268.569H157.779V264.538C157.779 263.656 158.397 263.043 159.12 263.043C159.827 263.043 160.317 263.512 160.317 264.223V268.569H161.585V264.401C161.585 263.614 162.067 263.043 162.897 263.043C163.569 263.043 164.123 263.418 164.123 264.304V268.569H165.396V264.184C165.396 262.69 164.561 261.945 163.378 261.945C162.437 261.945 161.73 262.396 161.415 263.094H161.347C161.062 262.379 160.462 261.945 159.589 261.945C158.725 261.945 158.082 262.375 157.809 263.094H157.728V262.03H156.506V268.569ZM171.244 265.857C171.248 266.969 170.423 267.496 169.707 267.496C168.92 267.496 168.375 266.926 168.375 266.036V262.03H167.102V266.19C167.102 267.812 167.992 268.654 169.248 268.654C170.231 268.654 170.899 268.135 171.202 267.437H171.27V268.569H172.521V262.03H171.244V265.857ZM179.132 263.627C178.868 262.609 178.072 261.945 176.658 261.945C175.181 261.945 174.134 262.724 174.134 263.882C174.134 264.81 174.696 265.427 175.922 265.7L177.029 265.943C177.659 266.083 177.953 266.364 177.953 266.773C177.953 267.279 177.412 267.675 176.578 267.675C175.815 267.675 175.326 267.347 175.173 266.705L173.942 266.892C174.155 268.05 175.117 268.701 176.586 268.701C178.166 268.701 179.26 267.863 179.26 266.679C179.26 265.755 178.672 265.185 177.472 264.908L176.433 264.67C175.713 264.499 175.403 264.257 175.407 263.814C175.403 263.312 175.947 262.954 176.671 262.954C177.463 262.954 177.829 263.392 177.978 263.831L179.132 263.627ZM185.641 268.569H186.97L188.804 262.039H188.873L190.708 268.569H192.032L194.454 259.85H193.066L191.372 266.607H191.291L189.524 259.85H188.153L186.386 266.602H186.305L184.607 259.85H183.223L185.641 268.569ZM197.662 268.701C199.505 268.701 200.71 267.352 200.71 265.33C200.71 263.295 199.505 261.945 197.662 261.945C195.818 261.945 194.614 263.295 194.614 265.33C194.614 267.352 195.818 268.701 197.662 268.701ZM197.666 267.633C196.461 267.633 195.899 266.581 195.899 265.325C195.899 264.074 196.461 263.009 197.666 263.009C198.862 263.009 199.424 264.074 199.424 265.325C199.424 266.581 198.862 267.633 197.666 267.633ZM202.131 268.569H203.404V264.576C203.404 263.72 204.064 263.103 204.966 263.103C205.23 263.103 205.528 263.15 205.63 263.18V261.962C205.503 261.945 205.252 261.932 205.09 261.932C204.323 261.932 203.668 262.366 203.429 263.069H203.361V262.03H202.131V268.569ZM206.732 268.569H208.005V266.249L208.639 265.615L210.862 268.569H212.424L209.597 264.836L212.245 262.03H210.721L208.116 264.797H208.005V259.85H206.732V268.569ZM216.517 262.03H215.108V261.443C215.108 260.864 215.347 260.549 215.968 260.549C216.232 260.549 216.419 260.608 216.539 260.646L216.837 259.616C216.658 259.548 216.288 259.442 215.772 259.442C214.738 259.442 213.831 260.046 213.831 261.272V262.03H212.822V263.052H213.831V268.569H215.108V263.052H216.517V262.03ZM219.104 259.85H217.831V268.569H219.104V259.85ZM223.571 268.701C225.414 268.701 226.619 267.352 226.619 265.33C226.619 263.295 225.414 261.945 223.571 261.945C221.727 261.945 220.522 263.295 220.522 265.33C220.522 267.352 221.727 268.701 223.571 268.701ZM223.575 267.633C222.37 267.633 221.808 266.581 221.808 265.325C221.808 264.074 222.37 263.009 223.575 263.009C224.771 263.009 225.333 264.074 225.333 265.325C225.333 266.581 224.771 267.633 223.575 267.633ZM229.258 268.569H230.553L231.881 263.848H231.979L233.307 268.569H234.606L236.526 262.03H235.21L233.937 266.811H233.873L232.596 262.03H231.281L229.995 266.832H229.931L228.65 262.03H227.334L229.258 268.569ZM242.634 263.627C242.37 262.609 241.574 261.945 240.16 261.945C238.683 261.945 237.636 262.724 237.636 263.882C237.636 264.81 238.198 265.427 239.424 265.7L240.531 265.943C241.161 266.083 241.455 266.364 241.455 266.773C241.455 267.279 240.914 267.675 240.079 267.675C239.317 267.675 238.828 267.347 238.675 266.705L237.444 266.892C237.657 268.05 238.619 268.701 240.088 268.701C241.667 268.701 242.762 267.863 242.762 266.679C242.762 265.755 242.174 265.185 240.973 264.908L239.935 264.67C239.215 264.499 238.904 264.257 238.909 263.814C238.904 263.312 239.449 262.954 240.173 262.954C240.965 262.954 241.331 263.392 241.48 263.831L242.634 263.627Z" fill="#1C0732"/>
<path d="M143.781 124.545L143.781 53.6273L136.539 53.6273L136.539 124.545L143.781 124.545Z" fill="url(#paint0_linear)" fill-opacity="0.5"/>
<circle cx="140.161" cy="58.9257" r="0.731369" fill="white"/>
<circle cx="140.161" cy="64.0097" r="0.731369" fill="white"/>
<circle cx="140.161" cy="69.0937" r="0.731369" fill="white"/>
<circle cx="140.161" cy="74.1777" r="0.731369" fill="white"/>
<circle cx="140.161" cy="79.2616" r="0.731369" fill="white"/>
<circle cx="140.161" cy="84.3447" r="0.731369" fill="white"/>
<circle cx="140.161" cy="89.4286" r="0.731369" fill="white"/>
<circle cx="140.161" cy="94.5126" r="0.731369" fill="white"/>
<circle cx="140.161" cy="99.5966" r="0.731369" fill="white"/>
<circle cx="140.161" cy="104.681" r="0.731369" fill="white"/>
<circle cx="140.161" cy="109.765" r="0.731369" fill="white"/>
<circle cx="140.161" cy="114.849" r="0.731369" fill="white"/>
<circle cx="140.161" cy="119.933" r="0.731369" fill="white"/>
<path d="M143.781 241.814L143.781 170.897L136.539 170.897L136.539 241.814L143.781 241.814Z" fill="url(#paint1_linear)" fill-opacity="0.5"/>
<circle cx="140.161" cy="176.194" r="0.731369" fill="white"/>
<circle cx="140.161" cy="181.278" r="0.731369" fill="white"/>
<circle cx="140.161" cy="186.362" r="0.731369" fill="white"/>
<circle cx="140.161" cy="191.446" r="0.731369" fill="white"/>
<circle cx="140.161" cy="196.53" r="0.731369" fill="white"/>
<circle cx="140.161" cy="201.613" r="0.731369" fill="white"/>
<circle cx="140.161" cy="206.697" r="0.731369" fill="white"/>
<circle cx="140.161" cy="211.781" r="0.731369" fill="white"/>
<circle cx="140.161" cy="216.865" r="0.731369" fill="white"/>
<circle cx="140.161" cy="221.949" r="0.731369" fill="white"/>
<circle cx="140.161" cy="227.033" r="0.731369" fill="white"/>
<circle cx="140.161" cy="232.117" r="0.731369" fill="white"/>
<circle cx="140.161" cy="237.201" r="0.731369" fill="white"/>
<path d="M0.376953 37.6367H278.481V52.4145C278.481 56.4143 275.238 59.6567 271.239 59.6567H7.61925C3.61944 59.6567 0.376953 56.4143 0.376953 52.4145V37.6367Z" fill="#2E225D"/>
<path d="M64.6314 48.7151C64.6314 47.7501 65.2471 47.2028 66.0861 47.2028C66.8854 47.2028 67.3679 47.7069 67.3679 48.5854V52.042H68.2176V48.5278C68.2176 47.1056 67.4615 46.4395 66.3309 46.4395C65.4596 46.4395 64.9627 46.8032 64.7034 47.3757H64.6314V44.668H63.7817V52.042H64.6314V48.7151ZM72.0909 52.1572C73.2143 52.1572 74.0352 51.5955 74.2945 50.7602L73.4735 50.5298C73.2575 51.1058 72.757 51.3939 72.0909 51.3939C71.0936 51.3939 70.4058 50.7494 70.3662 49.5648H74.3809V49.2047C74.3809 47.1452 73.1567 46.4395 72.0045 46.4395C70.5067 46.4395 69.5129 47.6205 69.5129 49.32C69.5129 51.0194 70.4923 52.1572 72.0909 52.1572ZM70.3662 48.8303C70.4238 47.9697 71.0323 47.2028 72.0045 47.2028C72.9262 47.2028 73.5167 47.8941 73.5167 48.8303H70.3662ZM76.5232 44.668H75.6735V52.042H76.5232V44.668ZM78.0796 52.042H78.9293V48.5854C78.9293 47.7753 79.5198 47.2028 80.1823 47.2028C80.8268 47.2028 81.2769 47.6241 81.2769 48.2542V52.042H82.141V48.4414C82.141 47.7285 82.5875 47.2028 83.3652 47.2028C83.9701 47.2028 84.4886 47.5233 84.4886 48.3406V52.042H85.3383V48.3406C85.3383 47.0408 84.6398 46.4395 83.6532 46.4395C82.8611 46.4395 82.2814 46.8032 81.997 47.3757H81.9394C81.6657 46.7852 81.1832 46.4395 80.4559 46.4395C79.7358 46.4395 79.2029 46.7852 78.9725 47.3757H78.9005V46.5115H78.0796V52.042Z" fill="#00D4FF"/>
<path d="M92.5953 52.042H93.445V46.5115H92.5953V52.042ZM93.0273 45.5898C93.3586 45.5898 93.6322 45.3305 93.6322 45.0137C93.6322 44.6968 93.3586 44.4376 93.0273 44.4376C92.6961 44.4376 92.4224 44.6968 92.4224 45.0137C92.4224 45.3305 92.6961 45.5898 93.0273 45.5898ZM95.8511 48.7151C95.8511 47.7501 96.4488 47.2028 97.2625 47.2028C98.051 47.2028 98.5299 47.7177 98.5299 48.5854V52.042H99.3796V48.5278C99.3796 47.1164 98.6271 46.4395 97.5073 46.4395C96.672 46.4395 96.1535 46.814 95.8943 47.3757H95.8223V46.5115H95.0013V52.042H95.8511V48.7151ZM104.85 47.7501C104.583 46.9652 103.986 46.4395 102.891 46.4395C101.724 46.4395 100.86 47.102 100.86 48.0382C100.86 48.8015 101.314 49.3128 102.329 49.5504L103.251 49.7664C103.809 49.8961 104.072 50.1625 104.072 50.5442C104.072 51.0194 103.568 51.4083 102.776 51.4083C102.081 51.4083 101.645 51.1094 101.494 50.5154L100.688 50.717C100.886 51.6567 101.66 52.1572 102.79 52.1572C104.076 52.1572 104.951 51.4551 104.951 50.5009C104.951 49.7304 104.468 49.2443 103.482 49.0031L102.661 48.8015C102.005 48.6395 101.71 48.4198 101.71 47.995C101.71 47.5197 102.214 47.174 102.891 47.174C103.633 47.174 103.939 47.5845 104.086 47.9661L104.85 47.7501ZM108.635 46.5115H107.454V45.1865H106.604V46.5115H105.769V47.2316H106.604V50.6882C106.604 51.6531 107.382 52.114 108.102 52.114C108.419 52.114 108.62 52.0564 108.736 52.0132L108.563 51.2499C108.491 51.2643 108.376 51.2931 108.188 51.2931C107.814 51.2931 107.454 51.1779 107.454 50.4577V47.2316H108.635V46.5115ZM111.541 52.1716C112.506 52.1716 113.01 51.6531 113.182 51.2931H113.226V52.042H114.075V48.3982C114.075 46.6411 112.736 46.4395 112.03 46.4395C111.195 46.4395 110.244 46.7276 109.812 47.7357L110.619 48.0238C110.806 47.6205 111.249 47.1884 112.059 47.1884C112.84 47.1884 113.226 47.6025 113.226 48.3118V48.3406C113.226 48.7511 112.808 48.7151 111.8 48.8447C110.774 48.9779 109.654 49.2047 109.654 50.4721C109.654 51.5523 110.489 52.1716 111.541 52.1716ZM111.67 51.4083C110.993 51.4083 110.504 51.1058 110.504 50.5154C110.504 49.8672 111.094 49.6656 111.757 49.5792C112.117 49.536 113.082 49.4352 113.226 49.2624V50.0401C113.226 50.7314 112.678 51.4083 111.67 51.4083ZM116.476 44.668H115.626V52.042H116.476V44.668ZM118.882 44.668H118.032V52.042H118.882V44.668Z" fill="#7C91F9"/>
<path d="M126.991 44.668H126.142V52.042H126.991V44.668ZM128.548 52.042H129.398V46.5115H128.548V52.042ZM128.98 45.5898C129.311 45.5898 129.585 45.3305 129.585 45.0137C129.585 44.6968 129.311 44.4376 128.98 44.4376C128.649 44.4376 128.375 44.6968 128.375 45.0137C128.375 45.3305 128.649 45.5898 128.98 45.5898ZM133.359 46.5115H132.178V45.1865H131.328V46.5115H130.493V47.2316H131.328V50.6882C131.328 51.6531 132.106 52.114 132.826 52.114C133.143 52.114 133.345 52.0564 133.46 52.0132L133.287 51.2499C133.215 51.2643 133.1 51.2931 132.913 51.2931C132.538 51.2931 132.178 51.1779 132.178 50.4577V47.2316H133.359V46.5115ZM134.637 52.042H135.487V48.5854C135.487 47.7753 136.078 47.2028 136.74 47.2028C137.385 47.2028 137.835 47.6241 137.835 48.2542V52.042H138.699V48.4414C138.699 47.7285 139.145 47.2028 139.923 47.2028C140.528 47.2028 141.046 47.5233 141.046 48.3406V52.042H141.896V48.3406C141.896 47.0408 141.198 46.4395 140.211 46.4395C139.419 46.4395 138.839 46.8032 138.555 47.3757H138.497C138.223 46.7852 137.741 46.4395 137.014 46.4395C136.294 46.4395 135.761 46.7852 135.53 47.3757H135.458V46.5115H134.637V52.042ZM146.935 49.7808C146.935 50.8178 146.143 51.2931 145.509 51.2931C144.804 51.2931 144.299 50.7746 144.299 49.9681V46.5115H143.45V50.0257C143.45 51.4371 144.199 52.114 145.236 52.114C146.071 52.114 146.618 51.6675 146.877 51.1058H146.935V52.042H147.785V46.5115H146.935V49.7808ZM153.259 47.7501C152.992 46.9652 152.394 46.4395 151.3 46.4395C150.133 46.4395 149.269 47.102 149.269 48.0382C149.269 48.8015 149.723 49.3128 150.738 49.5504L151.66 49.7664C152.218 49.8961 152.481 50.1625 152.481 50.5442C152.481 51.0194 151.977 51.4083 151.185 51.4083C150.49 51.4083 150.054 51.1094 149.903 50.5154L149.096 50.717C149.294 51.6567 150.068 52.1572 151.199 52.1572C152.484 52.1572 153.359 51.4551 153.359 50.5009C153.359 49.7304 152.877 49.2443 151.89 49.0031L151.069 48.8015C150.414 48.6395 150.119 48.4198 150.119 47.995C150.119 47.5197 150.623 47.174 151.3 47.174C152.042 47.174 152.348 47.5845 152.495 47.9661L153.259 47.7501ZM156.885 52.1572C158.109 52.1572 158.916 51.4083 159.06 50.4289H158.21C158.052 51.0338 157.548 51.3939 156.885 51.3939C155.877 51.3939 155.229 50.5586 155.229 49.2768C155.229 48.0238 155.891 47.2028 156.885 47.2028C157.634 47.2028 158.081 47.6637 158.21 48.1678H159.06C158.916 47.1308 158.037 46.4395 156.871 46.4395C155.373 46.4395 154.379 47.6205 154.379 49.3056C154.379 50.9618 155.33 52.1572 156.885 52.1572ZM161.152 48.7151C161.152 47.7501 161.768 47.2028 162.607 47.2028C163.406 47.2028 163.888 47.7069 163.888 48.5854V52.042H164.738V48.5278C164.738 47.1056 163.982 46.4395 162.851 46.4395C161.98 46.4395 161.483 46.8032 161.224 47.3757H161.152V44.668H160.302V52.042H161.152V48.7151ZM167.92 52.1716C168.885 52.1716 169.389 51.6531 169.562 51.2931H169.605V52.042H170.455V48.3982C170.455 46.6411 169.115 46.4395 168.41 46.4395C167.574 46.4395 166.624 46.7276 166.192 47.7357L166.998 48.0238C167.186 47.6205 167.628 47.1884 168.439 47.1884C169.22 47.1884 169.605 47.6025 169.605 48.3118V48.3406C169.605 48.7511 169.187 48.7151 168.179 48.8447C167.153 48.9779 166.033 49.2047 166.033 50.4721C166.033 51.5523 166.869 52.1716 167.92 52.1716ZM168.05 51.4083C167.373 51.4083 166.883 51.1058 166.883 50.5154C166.883 49.8672 167.474 49.6656 168.136 49.5792C168.496 49.536 169.461 49.4352 169.605 49.2624V50.0401C169.605 50.7314 169.058 51.4083 168.05 51.4083ZM174.253 52.1572C175.75 52.1572 176.759 51.0194 176.759 49.3056C176.759 47.5773 175.75 46.4395 174.253 46.4395C172.755 46.4395 171.747 47.5773 171.747 49.3056C171.747 51.0194 172.755 52.1572 174.253 52.1572ZM174.253 51.3939C173.115 51.3939 172.596 50.4145 172.596 49.3056C172.596 48.1966 173.115 47.2028 174.253 47.2028C175.39 47.2028 175.909 48.1966 175.909 49.3056C175.909 50.4145 175.39 51.3939 174.253 51.3939ZM181.973 47.7501C181.707 46.9652 181.109 46.4395 180.014 46.4395C178.848 46.4395 177.984 47.102 177.984 48.0382C177.984 48.8015 178.437 49.3128 179.453 49.5504L180.374 49.7664C180.933 49.8961 181.195 50.1625 181.195 50.5442C181.195 51.0194 180.691 51.4083 179.899 51.4083C179.204 51.4083 178.769 51.1094 178.617 50.5154L177.811 50.717C178.009 51.6567 178.783 52.1572 179.914 52.1572C181.199 52.1572 182.074 51.4551 182.074 50.5009C182.074 49.7304 181.591 49.2443 180.605 49.0031L179.784 48.8015C179.129 48.6395 178.833 48.4198 178.833 47.995C178.833 47.5197 179.337 47.174 180.014 47.174C180.756 47.174 181.062 47.5845 181.21 47.9661L181.973 47.7501ZM185.96 44.3224H185.182L182.806 53.151H183.583L185.96 44.3224ZM187.817 44.668H186.967V52.042H187.817V44.668ZM189.373 52.042H190.223V46.5115H189.373V52.042ZM189.805 45.5898C190.136 45.5898 190.41 45.3305 190.41 45.0137C190.41 44.6968 190.136 44.4376 189.805 44.4376C189.474 44.4376 189.2 44.6968 189.2 45.0137C189.2 45.3305 189.474 45.5898 189.805 45.5898ZM194.184 46.5115H193.003V45.1865H192.154V46.5115H191.318V47.2316H192.154V50.6882C192.154 51.6531 192.931 52.114 193.652 52.114C193.968 52.114 194.17 52.0564 194.285 52.0132L194.112 51.2499C194.04 51.2643 193.925 51.2931 193.738 51.2931C193.363 51.2931 193.003 51.1779 193.003 50.4577V47.2316H194.184V46.5115ZM195.463 52.042H196.312V48.5854C196.312 47.7753 196.903 47.2028 197.565 47.2028C198.21 47.2028 198.66 47.6241 198.66 48.2542V52.042H199.524V48.4414C199.524 47.7285 199.971 47.2028 200.748 47.2028C201.353 47.2028 201.872 47.5233 201.872 48.3406V52.042H202.721V48.3406C202.721 47.0408 202.023 46.4395 201.036 46.4395C200.244 46.4395 199.664 46.8032 199.38 47.3757H199.322C199.049 46.7852 198.566 46.4395 197.839 46.4395C197.119 46.4395 196.586 46.7852 196.356 47.3757H196.284V46.5115H195.463V52.042ZM207.76 49.7808C207.76 50.8178 206.968 51.2931 206.335 51.2931C205.629 51.2931 205.125 50.7746 205.125 49.9681V46.5115H204.275V50.0257C204.275 51.4371 205.024 52.114 206.061 52.114C206.896 52.114 207.444 51.6675 207.703 51.1058H207.76V52.042H208.61V46.5115H207.76V49.7808ZM214.084 47.7501C213.817 46.9652 213.22 46.4395 212.125 46.4395C210.959 46.4395 210.094 47.102 210.094 48.0382C210.094 48.8015 210.548 49.3128 211.563 49.5504L212.485 49.7664C213.043 49.8961 213.306 50.1625 213.306 50.5442C213.306 51.0194 212.802 51.4083 212.01 51.4083C211.315 51.4083 210.879 51.1094 210.728 50.5154L209.922 50.717C210.12 51.6567 210.894 52.1572 212.024 52.1572C213.31 52.1572 214.185 51.4551 214.185 50.5009C214.185 49.7304 213.702 49.2443 212.716 49.0031L211.895 48.8015C211.239 48.6395 210.944 48.4198 210.944 47.995C210.944 47.5197 211.448 47.174 212.125 47.174C212.867 47.174 213.173 47.5845 213.321 47.9661L214.084 47.7501Z" fill="#F6A556"/>
<path d="M0.376953 3.64849C0.376953 1.64858 1.99819 0.0273438 3.9981 0.0273438H274.86C276.86 0.0273438 278.481 1.64859 278.481 3.64849V37.4391H0.376953V3.64849Z" fill="white"/>
<path d="M83.1199 13.8963H81.5405V22.6152H83.1199V13.8963ZM86.3033 18.7837C86.3033 17.8385 86.8738 17.2936 87.6869 17.2936C88.483 17.2936 88.9599 17.8173 88.9599 18.69V22.6152H90.501V18.4516C90.5053 16.8849 89.6112 15.9909 88.2617 15.9909C87.2825 15.9909 86.6098 16.4592 86.3118 17.1872H86.2352V16.076H84.7622V22.6152H86.3033V18.7837ZM97.2361 17.8045C97.0232 16.6976 96.1377 15.9909 94.605 15.9909C93.0298 15.9909 91.957 16.7657 91.9613 17.9748C91.957 18.9284 92.5445 19.5585 93.8004 19.8182L94.9158 20.0523C95.5161 20.1843 95.7971 20.427 95.7971 20.7974C95.7971 21.2444 95.3118 21.5807 94.5795 21.5807C93.8728 21.5807 93.413 21.2742 93.281 20.6867L91.7782 20.8314C91.9698 22.032 92.9788 22.743 94.5838 22.743C96.2186 22.743 97.3723 21.8958 97.3766 20.6569C97.3723 19.7245 96.772 19.154 95.5374 18.8858L94.422 18.6474C93.7578 18.4984 93.4939 18.2685 93.4981 17.8896C93.4939 17.4469 93.9835 17.1403 94.6263 17.1403C95.3373 17.1403 95.7119 17.5278 95.8312 17.9577L97.2361 17.8045ZM101.913 16.076H100.623V14.5093H99.0816V16.076H98.1535V17.2681H99.0816V20.9038C99.0731 22.1342 99.9671 22.7387 101.125 22.7046C101.564 22.6919 101.866 22.6067 102.032 22.5514L101.772 21.3466C101.687 21.3678 101.513 21.4062 101.321 21.4062C100.934 21.4062 100.623 21.2699 100.623 20.6484V17.2681H101.913V16.076ZM105.083 22.7472C106.109 22.7472 106.722 22.2661 107.003 21.7169H107.054V22.6152H108.536V18.2387C108.536 16.5103 107.127 15.9909 105.879 15.9909C104.504 15.9909 103.449 16.6039 103.108 17.796L104.547 18.0003C104.7 17.5533 105.134 17.1701 105.888 17.1701C106.603 17.1701 106.995 17.5363 106.995 18.1791V18.2047C106.995 18.6474 106.531 18.6687 105.377 18.7922C104.108 18.9284 102.895 19.3073 102.895 20.7803C102.895 22.066 103.836 22.7472 105.083 22.7472ZM105.484 21.6148C104.841 21.6148 104.381 21.321 104.381 20.7548C104.381 20.163 104.896 19.9161 105.586 19.8182C105.99 19.7628 106.799 19.6607 106.999 19.4989V20.2695C106.999 20.9975 106.412 21.6148 105.484 21.6148ZM111.627 13.8963H110.086V22.6152H111.627V13.8963ZM114.753 13.8963H113.212V22.6152H114.753V13.8963Z" fill="#1C0732"/>
<path d="M126.842 16.8381C126.574 14.901 125.084 13.7771 123.151 13.7771C120.874 13.7771 119.158 15.4374 119.158 18.2558C119.158 21.0698 120.852 22.7344 123.151 22.7344C125.225 22.7344 126.6 21.3934 126.842 19.7288L125.25 19.7203C125.05 20.742 124.216 21.3168 123.173 21.3168C121.759 21.3168 120.746 20.2567 120.746 18.2558C120.746 16.2889 121.751 15.1948 123.177 15.1948C124.237 15.1948 125.067 15.795 125.25 16.8381H126.842ZM129.762 18.7837C129.762 17.8385 130.349 17.2936 131.175 17.2936C131.984 17.2936 132.461 17.8087 132.461 18.69V22.6152H134.002V18.4516C134.002 16.8721 133.108 15.9909 131.75 15.9909C130.745 15.9909 130.107 16.4464 129.804 17.1872H129.728V13.8963H128.221V22.6152H129.762V18.7837ZM137.455 22.7472C138.481 22.7472 139.094 22.2661 139.375 21.7169H139.426V22.6152H140.907V18.2387C140.907 16.5103 139.498 15.9909 138.251 15.9909C136.876 15.9909 135.82 16.6039 135.479 17.796L136.918 18.0003C137.072 17.5533 137.506 17.1701 138.259 17.1701C138.975 17.1701 139.366 17.5363 139.366 18.1791V18.2047C139.366 18.6474 138.902 18.6687 137.749 18.7922C136.48 18.9284 135.267 19.3073 135.267 20.7803C135.267 22.066 136.207 22.7472 137.455 22.7472ZM137.855 21.6148C137.212 21.6148 136.752 21.321 136.752 20.7548C136.752 20.163 137.267 19.9161 137.957 19.8182C138.362 19.7628 139.17 19.6607 139.371 19.4989V20.2695C139.371 20.9975 138.783 21.6148 137.855 21.6148ZM145.31 22.743C147.225 22.743 148.443 21.3934 148.443 19.3712C148.443 17.3447 147.225 15.9909 145.31 15.9909C143.394 15.9909 142.176 17.3447 142.176 19.3712C142.176 21.3934 143.394 22.743 145.31 22.743ZM145.318 21.5083C144.258 21.5083 143.739 20.5632 143.739 19.3669C143.739 18.1706 144.258 17.2127 145.318 17.2127C146.361 17.2127 146.88 18.1706 146.88 19.3669C146.88 20.5632 146.361 21.5083 145.318 21.5083ZM154.919 17.8045C154.706 16.6976 153.821 15.9909 152.288 15.9909C150.713 15.9909 149.64 16.7657 149.645 17.9748C149.64 18.9284 150.228 19.5585 151.484 19.8182L152.599 20.0523C153.199 20.1843 153.48 20.427 153.48 20.7974C153.48 21.2444 152.995 21.5807 152.263 21.5807C151.556 21.5807 151.096 21.2742 150.964 20.6867L149.461 20.8314C149.653 22.032 150.662 22.743 152.267 22.743C153.902 22.743 155.056 21.8958 155.06 20.6569C155.056 19.7245 154.455 19.154 153.221 18.8858L152.105 18.6474C151.441 18.4984 151.177 18.2685 151.181 17.8896C151.177 17.4469 151.667 17.1403 152.31 17.1403C153.021 17.1403 153.395 17.5278 153.514 17.9577L154.919 17.8045ZM166.836 16.8381C166.567 14.901 165.077 13.7771 163.144 13.7771C160.867 13.7771 159.151 15.4374 159.151 18.2558C159.151 21.0698 160.845 22.7344 163.144 22.7344C165.218 22.7344 166.593 21.3934 166.836 19.7288L165.243 19.7203C165.043 20.742 164.209 21.3168 163.166 21.3168C161.752 21.3168 160.739 20.2567 160.739 18.2558C160.739 16.2889 161.744 15.1948 163.17 15.1948C164.23 15.1948 165.06 15.795 165.243 16.8381H166.836ZM171.109 22.743C172.633 22.743 173.68 21.9979 173.953 20.8612L172.514 20.6994C172.305 21.2529 171.794 21.5424 171.13 21.5424C170.134 21.5424 169.474 20.8868 169.461 19.7671H174.016V19.2945C174.016 16.9999 172.637 15.9909 171.028 15.9909C169.155 15.9909 167.933 17.366 167.933 19.3839C167.933 21.436 169.138 22.743 171.109 22.743ZM169.465 18.7283C169.512 17.8939 170.13 17.1914 171.049 17.1914C171.935 17.1914 172.531 17.8385 172.539 18.7283H169.465ZM176.861 18.7837C176.861 17.8385 177.432 17.2936 178.245 17.2936C179.041 17.2936 179.518 17.8173 179.518 18.69V22.6152H181.059V18.4516C181.063 16.8849 180.169 15.9909 178.82 15.9909C177.841 15.9909 177.168 16.4592 176.87 17.1872H176.793V16.076H175.32V22.6152H176.861V18.7837ZM185.891 16.076H184.601V14.5093H183.06V16.076H182.132V17.2681H183.06V20.9038C183.052 22.1342 183.946 22.7387 185.104 22.7046C185.542 22.6919 185.844 22.6067 186.01 22.5514L185.751 21.3466C185.666 21.3678 185.491 21.4062 185.299 21.4062C184.912 21.4062 184.601 21.2699 184.601 20.6484V17.2681H185.891V16.076ZM190.005 22.743C191.529 22.743 192.576 21.9979 192.849 20.8612L191.41 20.6994C191.201 21.2529 190.69 21.5424 190.026 21.5424C189.03 21.5424 188.37 20.8868 188.357 19.7671H192.913V19.2945C192.913 16.9999 191.533 15.9909 189.924 15.9909C188.051 15.9909 186.829 17.366 186.829 19.3839C186.829 21.436 188.034 22.743 190.005 22.743ZM188.361 18.7283C188.408 17.8939 189.026 17.1914 189.945 17.1914C190.831 17.1914 191.427 17.8385 191.435 18.7283H188.361ZM194.216 22.6152H195.757V18.7709C195.757 17.9407 196.383 17.3532 197.231 17.3532C197.49 17.3532 197.814 17.4 197.946 17.4426V16.0249C197.805 15.9994 197.563 15.9824 197.392 15.9824C196.643 15.9824 196.017 16.4081 195.779 17.1659H195.711V16.076H194.216V22.6152Z" fill="#5B44BA"/>
<defs>
<linearGradient id="paint0_linear" x1="140.16" y1="100.176" x2="140.16" y2="53.6273" gradientUnits="userSpaceOnUse">
<stop stop-color="#CEC7EB"/>
<stop offset="1" stop-color="white" stop-opacity="0"/>
</linearGradient>
<linearGradient id="paint1_linear" x1="140.16" y1="217.445" x2="140.16" y2="170.897" gradientUnits="userSpaceOnUse">
<stop stop-color="#CEC7EB"/>
<stop offset="1" stop-color="white" stop-opacity="0"/>
</linearGradient>
</defs>
</svg>
