<svg width="681" height="801" viewBox="0 0 681 801" fill="none" xmlns="http://www.w3.org/2000/svg">
<rect x="0.704834" y="1.25098" width="679" height="799" rx="9.5" fill="white" fill-opacity="0.05" stroke="url(#paint0_radial)"/>
<rect x="148.885" y="373.964" width="383.766" height="64" rx="5" fill="white"/>
<path d="M212.885 405.964C212.885 414.801 205.722 421.964 196.885 421.964C188.049 421.964 180.885 414.801 180.885 405.964C180.885 397.128 188.049 389.964 196.885 389.964C205.722 389.964 212.885 397.128 212.885 405.964Z" fill="#87BBFD"/>
<path d="M187.548 396.56V397.495V396.56ZM187.548 396.56V397.495V396.56ZM188.016 397.027H187.081H188.016ZM197.842 414.105V415.509V414.105ZM198.544 414.807H197.14H198.544ZM205.328 401.239V403.11V401.239ZM206.264 402.174H204.393H206.264Z" fill="black"/>
<path fill-rule="evenodd" clip-rule="evenodd" d="M187.549 396.226C187.733 396.226 187.882 396.375 187.882 396.559V396.694H188.016C188.201 396.694 188.35 396.843 188.35 397.027C188.35 397.211 188.201 397.361 188.016 397.361H187.882V397.495C187.882 397.679 187.733 397.829 187.549 397.829C187.364 397.829 187.215 397.679 187.215 397.495V397.361H187.081C186.897 397.361 186.747 397.211 186.747 397.027C186.747 396.843 186.897 396.694 187.081 396.694H187.215V396.559C187.215 396.375 187.364 396.226 187.549 396.226ZM205.329 400.905C205.513 400.905 205.662 401.054 205.662 401.238V401.841H206.264C206.448 401.841 206.598 401.99 206.598 402.174C206.598 402.358 206.448 402.507 206.264 402.507H205.662V403.11C205.662 403.294 205.513 403.443 205.329 403.443C205.144 403.443 204.995 403.294 204.995 403.11V402.507H204.393C204.209 402.507 204.059 402.358 204.059 402.174C204.059 401.99 204.209 401.841 204.393 401.841H204.995V401.238C204.995 401.054 205.144 400.905 205.329 400.905ZM197.842 413.772C198.026 413.772 198.176 413.921 198.176 414.105V414.474H198.544C198.728 414.474 198.877 414.623 198.877 414.807C198.877 414.991 198.728 415.141 198.544 415.141H198.176V415.509C198.176 415.693 198.026 415.842 197.842 415.842C197.658 415.842 197.509 415.693 197.509 415.509V415.141H197.14C196.956 415.141 196.807 414.991 196.807 414.807C196.807 414.623 196.956 414.474 197.14 414.474H197.509V414.105C197.509 413.921 197.658 413.772 197.842 413.772Z" fill="#6772E5"/>
<path d="M203.947 411.794L198.529 408.485L203.947 411.794Z" fill="black"/>
<path fill-rule="evenodd" clip-rule="evenodd" d="M196.885 399.005C197.023 399.005 197.135 399.117 197.135 399.255V405.544C197.135 405.682 197.023 405.794 196.885 405.794C196.747 405.794 196.635 405.682 196.635 405.544V399.255C196.635 399.117 196.747 399.005 196.885 399.005ZM195.453 408.355C195.525 408.473 195.488 408.627 195.37 408.699L189.952 412.007C189.835 412.079 189.681 412.042 189.609 411.924C189.537 411.806 189.574 411.653 189.692 411.581L195.11 408.272C195.227 408.2 195.381 408.237 195.453 408.355ZM198.316 408.355C198.388 408.237 198.542 408.2 198.66 408.272L204.078 411.581C204.195 411.653 204.233 411.806 204.161 411.924C204.089 412.042 203.935 412.079 203.817 412.007L198.399 408.699C198.281 408.627 198.244 408.473 198.316 408.355Z" fill="white"/>
<path d="M196.884 409.487C197.397 409.487 197.889 409.283 198.252 408.92C198.615 408.557 198.818 408.065 198.818 407.552C198.818 407.039 198.615 406.547 198.252 406.184C197.889 405.821 197.397 405.617 196.884 405.617C196.37 405.617 195.878 405.821 195.515 406.184C195.152 406.547 194.949 407.039 194.949 407.552C194.949 408.065 195.152 408.557 195.515 408.92C195.878 409.283 196.37 409.487 196.884 409.487ZM205.591 414.808C206.104 414.808 206.596 414.604 206.959 414.241C207.322 413.879 207.526 413.386 207.526 412.873C207.526 412.36 207.322 411.868 206.959 411.505C206.596 411.142 206.104 410.938 205.591 410.938C205.078 410.938 204.586 411.142 204.223 411.505C203.86 411.868 203.656 412.36 203.656 412.873C203.656 413.386 203.86 413.879 204.223 414.241C204.586 414.604 205.078 414.808 205.591 414.808ZM188.176 414.808C188.689 414.808 189.182 414.604 189.544 414.241C189.907 413.879 190.111 413.386 190.111 412.873C190.111 412.36 189.907 411.868 189.544 411.505C189.182 411.142 188.689 410.938 188.176 410.938C187.663 410.938 187.171 411.142 186.808 411.505C186.445 411.868 186.241 412.36 186.241 412.873C186.241 413.386 186.445 413.879 186.808 414.241C187.171 414.604 187.663 414.808 188.176 414.808ZM196.884 399.328C197.397 399.328 197.889 399.125 198.252 398.762C198.615 398.399 198.818 397.907 198.818 397.393C198.818 396.88 198.615 396.388 198.252 396.025C197.889 395.662 197.397 395.458 196.884 395.458C196.37 395.458 195.878 395.662 195.515 396.025C195.152 396.388 194.949 396.88 194.949 397.393C194.949 397.907 195.152 398.399 195.515 398.762C195.878 399.125 196.37 399.328 196.884 399.328Z" fill="black"/>
<path fill-rule="evenodd" clip-rule="evenodd" d="M195.162 395.672C195.619 395.216 196.238 394.959 196.884 394.959C197.53 394.959 198.149 395.216 198.606 395.672C199.063 396.129 199.319 396.748 199.319 397.394C199.319 398.04 199.063 398.659 198.606 399.116C198.149 399.572 197.53 399.829 196.884 399.829C196.238 399.829 195.619 399.572 195.162 399.116C194.706 398.659 194.449 398.04 194.449 397.394C194.449 396.748 194.706 396.129 195.162 395.672ZM196.884 395.959C196.504 395.959 196.139 396.11 195.87 396.379C195.6 396.648 195.449 397.013 195.449 397.394C195.449 397.775 195.6 398.14 195.87 398.409C196.139 398.678 196.504 398.829 196.884 398.829C197.265 398.829 197.63 398.678 197.899 398.409C198.168 398.14 198.319 397.775 198.319 397.394C198.319 397.013 198.168 396.648 197.899 396.379C197.63 396.11 197.265 395.959 196.884 395.959ZM195.162 405.831C195.619 405.374 196.238 405.118 196.884 405.118C197.53 405.118 198.149 405.374 198.606 405.831C199.063 406.287 199.319 406.907 199.319 407.553C199.319 408.198 199.063 408.818 198.606 409.274C198.149 409.731 197.53 409.987 196.884 409.987C196.238 409.987 195.619 409.731 195.162 409.274C194.706 408.818 194.449 408.198 194.449 407.553C194.449 406.907 194.706 406.287 195.162 405.831ZM196.884 406.118C196.504 406.118 196.139 406.269 195.87 406.538C195.6 406.807 195.449 407.172 195.449 407.553C195.449 407.933 195.6 408.298 195.87 408.567C196.139 408.836 196.504 408.987 196.884 408.987C197.265 408.987 197.63 408.836 197.899 408.567C198.168 408.298 198.319 407.933 198.319 407.553C198.319 407.172 198.168 406.807 197.899 406.538C197.63 406.269 197.265 406.118 196.884 406.118ZM186.455 411.152C186.912 410.695 187.531 410.439 188.177 410.439C188.823 410.439 189.442 410.695 189.899 411.152C190.355 411.609 190.612 412.228 190.612 412.874C190.612 413.519 190.355 414.139 189.899 414.595C189.442 415.052 188.823 415.309 188.177 415.309C187.531 415.309 186.912 415.052 186.455 414.595C185.998 414.139 185.742 413.519 185.742 412.874C185.742 412.228 185.998 411.609 186.455 411.152ZM188.177 411.439C187.796 411.439 187.431 411.59 187.162 411.859C186.893 412.128 186.742 412.493 186.742 412.874C186.742 413.254 186.893 413.619 187.162 413.888C187.431 414.157 187.796 414.309 188.177 414.309C188.557 414.309 188.922 414.157 189.192 413.888C189.461 413.619 189.612 413.254 189.612 412.874C189.612 412.493 189.461 412.128 189.192 411.859C188.922 411.59 188.557 411.439 188.177 411.439ZM203.87 411.152C204.326 410.695 204.946 410.439 205.592 410.439C206.237 410.439 206.857 410.695 207.313 411.152C207.77 411.609 208.027 412.228 208.027 412.874C208.027 413.519 207.77 414.139 207.313 414.595C206.857 415.052 206.237 415.309 205.592 415.309C204.946 415.309 204.326 415.052 203.87 414.595C203.413 414.139 203.157 413.519 203.157 412.874C203.157 412.228 203.413 411.609 203.87 411.152ZM205.592 411.439C205.211 411.439 204.846 411.59 204.577 411.859C204.308 412.128 204.157 412.493 204.157 412.874C204.157 413.254 204.308 413.619 204.577 413.888C204.846 414.157 205.211 414.309 205.592 414.309C205.972 414.309 206.337 414.157 206.606 413.888C206.875 413.619 207.027 413.254 207.027 412.874C207.027 412.493 206.875 412.128 206.606 411.859C206.337 411.59 205.972 411.439 205.592 411.439Z" fill="#6772E5"/>
<path d="M224.846 412.136H226.662V407.58H229.131C229.172 407.58 229.208 407.58 229.249 407.58L231.694 412.136H233.763L231.095 407.263C232.57 406.716 233.305 405.487 233.305 403.871C233.305 401.655 231.929 400.097 229.137 400.097H224.846V412.136ZM226.662 406.016V401.655H228.943C230.736 401.655 231.477 402.507 231.477 403.871C231.477 405.229 230.736 406.016 228.967 406.016H226.662ZM241.094 408.391C241.1 409.925 239.959 410.654 238.972 410.654C237.884 410.654 237.132 409.867 237.132 408.638V403.107H235.374V408.85C235.374 411.089 236.603 412.253 238.337 412.253C239.695 412.253 240.618 411.536 241.035 410.572H241.129V412.136H242.857V403.107H241.094V408.391ZM246.977 406.775C246.977 405.334 247.858 404.511 249.081 404.511C250.274 404.511 250.997 405.293 250.997 406.604V412.136H252.755V406.393C252.755 404.159 251.526 402.989 249.681 402.989C248.323 402.989 247.435 403.618 247.018 404.576H246.906V403.107H245.219V412.136H246.977V406.775ZM357.921 412.136H365.193V410.572H359.737V400.097H357.921V412.136ZM367.124 412.136H368.881V403.107H367.124V412.136ZM368.011 401.713C368.617 401.713 369.122 401.243 369.122 400.667C369.122 400.091 368.617 399.615 368.011 399.615C367.4 399.615 366.9 400.091 366.9 400.667C366.9 401.243 367.4 401.713 368.011 401.713ZM375.461 403.107H373.609V400.943H371.851V403.107H370.529V404.517H371.851V409.849C371.845 411.489 373.098 412.283 374.485 412.253C375.043 412.247 375.42 412.142 375.625 412.065L375.308 410.613C375.19 410.637 374.973 410.69 374.691 410.69C374.12 410.69 373.609 410.502 373.609 409.485V404.517H375.461V403.107ZM377.405 412.136H379.163V406.569C379.163 405.352 380.015 404.506 381.014 404.506C381.99 404.506 382.666 405.152 382.666 406.134V412.136H384.418V406.381C384.418 405.293 385.082 404.506 386.228 404.506C387.157 404.506 387.921 405.023 387.921 406.246V412.136H389.679V406.081C389.679 404.018 388.527 402.989 386.893 402.989C385.594 402.989 384.618 403.612 384.183 404.576H384.089C383.695 403.589 382.866 402.989 381.661 402.989C380.468 402.989 379.58 403.583 379.204 404.576H379.092V403.107H377.405V412.136ZM397.754 408.391C397.76 409.925 396.62 410.654 395.632 410.654C394.545 410.654 393.792 409.867 393.792 408.638V403.107H392.035V408.85C392.035 411.089 393.263 412.253 394.998 412.253C396.355 412.253 397.278 411.536 397.696 410.572H397.79V412.136H399.518V403.107H397.754V408.391ZM408.646 405.311C408.281 403.906 407.182 402.989 405.23 402.989C403.191 402.989 401.744 404.065 401.744 405.664C401.744 406.945 402.52 407.797 404.213 408.174L405.742 408.509C406.612 408.703 407.017 409.091 407.017 409.655C407.017 410.355 406.271 410.901 405.119 410.901C404.066 410.901 403.39 410.449 403.179 409.561L401.48 409.82C401.774 411.419 403.102 412.318 405.13 412.318C407.311 412.318 408.822 411.16 408.822 409.526C408.822 408.25 408.011 407.462 406.353 407.08L404.919 406.751C403.925 406.516 403.496 406.181 403.502 405.57C403.496 404.876 404.249 404.382 405.248 404.382C406.341 404.382 406.847 404.988 407.053 405.593L408.646 405.311ZM417.634 412.136H419.468L422.001 403.118H422.095L424.629 412.136H426.457L429.802 400.097H427.886L425.546 409.426H425.434L422.995 400.097H421.102L418.662 409.42H418.551L416.205 400.097H414.295L417.634 412.136ZM434.231 412.318C436.777 412.318 438.44 410.455 438.44 407.662C438.44 404.852 436.777 402.989 434.231 402.989C431.686 402.989 430.022 404.852 430.022 407.662C430.022 410.455 431.686 412.318 434.231 412.318ZM434.237 410.842C432.574 410.842 431.798 409.391 431.798 407.656C431.798 405.928 432.574 404.459 434.237 404.459C435.889 404.459 436.665 405.928 436.665 407.656C436.665 409.391 435.889 410.842 434.237 410.842ZM440.402 412.136H442.16V406.622C442.16 405.44 443.071 404.588 444.317 404.588C444.682 404.588 445.093 404.653 445.234 404.694V403.012C445.058 402.989 444.711 402.971 444.488 402.971C443.43 402.971 442.524 403.571 442.195 404.541H442.101V403.107H440.402V412.136ZM446.755 412.136H448.513V408.932L449.389 408.056L452.457 412.136H454.615L450.711 406.98L454.368 403.107H452.263L448.666 406.927H448.513V400.097H446.755V412.136ZM460.267 403.107H458.321V402.295C458.321 401.496 458.65 401.061 459.508 401.061C459.873 401.061 460.132 401.143 460.296 401.196L460.708 399.773C460.461 399.679 459.949 399.532 459.238 399.532C457.81 399.532 456.558 400.367 456.558 402.06V403.107H455.164V404.517H456.558V412.136H458.321V404.517H460.267V403.107ZM463.838 400.097H462.08V412.136H463.838V400.097ZM470.006 412.318C472.551 412.318 474.215 410.455 474.215 407.662C474.215 404.852 472.551 402.989 470.006 402.989C467.46 402.989 465.797 404.852 465.797 407.662C465.797 410.455 467.46 412.318 470.006 412.318ZM470.012 410.842C468.348 410.842 467.572 409.391 467.572 407.656C467.572 405.928 468.348 404.459 470.012 404.459C471.664 404.459 472.439 405.928 472.439 407.656C472.439 409.391 471.664 410.842 470.012 410.842ZM477.859 412.136H479.646L481.48 405.617H481.616L483.45 412.136H485.243L487.894 403.107H486.077L484.32 409.708H484.232L482.468 403.107H480.652L478.876 409.737H478.788L477.019 403.107H475.202L477.859 412.136ZM496.328 405.311C495.963 403.906 494.864 402.989 492.912 402.989C490.873 402.989 489.427 404.065 489.427 405.664C489.427 406.945 490.202 407.797 491.895 408.174L493.424 408.509C494.294 408.703 494.699 409.091 494.699 409.655C494.699 410.355 493.953 410.901 492.801 410.901C491.749 410.901 491.072 410.449 490.861 409.561L489.162 409.82C489.456 411.419 490.784 412.318 492.812 412.318C494.993 412.318 496.504 411.16 496.504 409.526C496.504 408.25 495.693 407.462 494.035 407.08L492.601 406.751C491.607 406.516 491.178 406.181 491.184 405.57C491.178 404.876 491.931 404.382 492.93 404.382C494.023 404.382 494.529 404.988 494.735 405.593L496.328 405.311Z" fill="#1C0732"/>
<path d="M259.493 415.522H261.251V410.731H261.357C261.674 411.307 262.321 412.312 263.967 412.312C266.153 412.312 267.741 410.56 267.741 407.639C267.741 404.711 266.13 402.989 263.949 402.989C262.274 402.989 261.668 404.012 261.357 404.57H261.21V403.107H259.493V415.522ZM261.216 407.621C261.216 405.734 262.039 404.482 263.573 404.482C265.166 404.482 265.965 405.828 265.965 407.621C265.965 409.432 265.142 410.813 263.573 410.813C262.062 410.813 261.216 409.52 261.216 407.621ZM269.71 412.136H271.467V406.622C271.467 405.44 272.379 404.588 273.625 404.588C273.989 404.588 274.401 404.653 274.542 404.694V403.012C274.366 402.989 274.019 402.971 273.795 402.971C272.737 402.971 271.832 403.571 271.503 404.541H271.409V403.107H269.71V412.136ZM279.631 412.318C281.6 412.318 282.994 411.348 283.393 409.878L281.73 409.579C281.412 410.431 280.648 410.866 279.649 410.866C278.144 410.866 277.133 409.89 277.086 408.15H283.505V407.527C283.505 404.265 281.553 402.989 279.508 402.989C276.992 402.989 275.334 404.905 275.334 407.68C275.334 410.484 276.968 412.318 279.631 412.318ZM277.092 406.833C277.162 405.552 278.091 404.441 279.519 404.441C280.883 404.441 281.777 405.452 281.783 406.833H277.092ZM290.775 406.287H285.437V407.809H290.775V406.287ZM296.498 412.312C298.144 412.312 298.79 411.307 299.108 410.731H299.255V412.136H300.971V400.097H299.213V404.57H299.108C298.79 404.012 298.191 402.989 296.509 402.989C294.329 402.989 292.724 404.711 292.724 407.639C292.724 410.56 294.305 412.312 296.498 412.312ZM296.886 410.813C295.316 410.813 294.499 409.432 294.499 407.621C294.499 405.828 295.298 404.482 296.886 404.482C298.42 404.482 299.243 405.734 299.243 407.621C299.243 409.52 298.402 410.813 296.886 410.813ZM307.371 412.318C309.341 412.318 310.734 411.348 311.133 409.878L309.47 409.579C309.152 410.431 308.388 410.866 307.389 410.866C305.884 410.866 304.873 409.89 304.826 408.15H311.245V407.527C311.245 404.265 309.293 402.989 307.248 402.989C304.732 402.989 303.074 404.905 303.074 407.68C303.074 410.484 304.708 412.318 307.371 412.318ZM304.832 406.833C304.902 405.552 305.831 404.441 307.26 404.441C308.623 404.441 309.517 405.452 309.523 406.833H304.832ZM317.492 403.107H315.547V402.295C315.547 401.496 315.876 401.061 316.734 401.061C317.099 401.061 317.357 401.143 317.522 401.196L317.933 399.773C317.686 399.679 317.175 399.532 316.464 399.532C315.035 399.532 313.783 400.367 313.783 402.06V403.107H312.39V404.517H313.783V412.136H315.547V404.517H317.492V403.107ZM319.306 412.136H321.063V403.107H319.306V412.136ZM320.193 401.713C320.799 401.713 321.305 401.243 321.305 400.667C321.305 400.091 320.799 399.615 320.193 399.615C319.582 399.615 319.082 400.091 319.082 400.667C319.082 401.243 319.582 401.713 320.193 401.713ZM325.186 406.775C325.186 405.334 326.067 404.511 327.29 404.511C328.483 404.511 329.207 405.293 329.207 406.604V412.136H330.964V406.393C330.964 404.159 329.736 402.989 327.89 402.989C326.532 402.989 325.644 403.618 325.227 404.576H325.115V403.107H323.428V412.136H325.186V406.775ZM337.213 412.318C339.182 412.318 340.575 411.348 340.975 409.878L339.311 409.579C338.994 410.431 338.23 410.866 337.231 410.866C335.726 410.866 334.715 409.89 334.668 408.15H341.087V407.527C341.087 404.265 339.135 402.989 337.089 402.989C334.574 402.989 332.916 404.905 332.916 407.68C332.916 410.484 334.55 412.318 337.213 412.318ZM334.673 406.833C334.744 405.552 335.673 404.441 337.101 404.441C338.465 404.441 339.359 405.452 339.364 406.833H334.673ZM346.417 412.312C348.063 412.312 348.71 411.307 349.027 410.731H349.174V412.136H350.89V400.097H349.133V404.57H349.027C348.71 404.012 348.11 402.989 346.429 402.989C344.248 402.989 342.643 404.711 342.643 407.639C342.643 410.56 344.224 412.312 346.417 412.312ZM346.805 410.813C345.235 410.813 344.418 409.432 344.418 407.621C344.418 405.828 345.218 404.482 346.805 404.482C348.339 404.482 349.162 405.734 349.162 407.621C349.162 409.52 348.322 410.813 346.805 410.813Z" fill="#5B44BA"/>
<rect x="148.621" y="535.47" width="384" height="64" rx="5" fill="white"/>
<path d="M211.816 551.47C202.98 551.47 195.816 558.633 195.816 567.47C195.816 576.307 202.98 583.47 211.816 583.47C220.652 583.47 227.816 576.307 227.816 567.47C227.816 558.634 220.652 551.47 211.816 551.47V551.47ZM211.816 581.415C209.302 581.415 207.264 579.735 207.264 577.665H216.364C216.364 579.736 214.325 581.415 211.811 581.415H211.816ZM219.341 576.424H204.296V573.697H219.341V576.424ZM219.287 572.294H204.34L204.191 572.122C202.651 570.252 202.289 569.272 201.937 568.282C201.931 568.249 203.804 568.665 205.132 568.963C205.132 568.963 205.816 569.121 206.814 569.303C205.855 568.178 205.286 566.75 205.286 565.288C205.286 562.081 207.746 559.278 206.858 557.013C207.722 557.083 208.646 558.836 208.708 561.576C209.627 560.307 210.011 557.99 210.011 556.569C210.011 555.098 210.981 553.389 211.95 553.331C211.085 554.756 212.174 555.976 213.141 559.006C213.504 560.144 213.457 562.059 213.737 563.273C213.83 560.751 214.264 557.071 215.864 555.8C215.158 557.4 215.969 559.403 216.523 560.365C217.418 561.918 217.96 563.095 217.96 565.315C217.96 566.807 217.409 568.212 216.48 569.315C217.536 569.117 218.266 568.938 218.266 568.938L221.697 568.268C221.697 568.268 221.198 570.318 219.283 572.293L219.287 572.294Z" fill="#DA4E31"/>
<path d="M238.618 561.603V573.642H240.346V564.924H240.458L244.008 573.624H245.442L248.993 564.93H249.105V573.642H250.833V561.603H248.629L244.796 570.961H244.655L240.822 561.603H238.618ZM257.136 573.824C259.681 573.824 261.345 571.96 261.345 569.168C261.345 566.358 259.681 564.495 257.136 564.495C254.591 564.495 252.927 566.358 252.927 569.168C252.927 571.96 254.591 573.824 257.136 573.824ZM257.142 572.348C255.478 572.348 254.702 570.896 254.702 569.162C254.702 567.434 255.478 565.964 257.142 565.964C258.794 565.964 259.57 567.434 259.57 569.162C259.57 570.896 258.794 572.348 257.142 572.348ZM265.065 568.281C265.065 566.84 265.946 566.017 267.169 566.017C268.362 566.017 269.085 566.799 269.085 568.11V573.642H270.843V567.898C270.843 565.665 269.614 564.495 267.769 564.495C266.411 564.495 265.523 565.124 265.106 566.082H264.994V564.612H263.307V573.642H265.065V568.281ZM273.2 573.642H274.958V564.612H273.2V573.642ZM274.088 563.219C274.693 563.219 275.199 562.749 275.199 562.173C275.199 561.597 274.693 561.121 274.088 561.121C273.477 561.121 272.977 561.597 272.977 562.173C272.977 562.749 273.477 563.219 274.088 563.219ZM281.537 564.612H279.686V562.449H277.928V564.612H276.605V566.023H277.928V571.355C277.922 572.995 279.174 573.789 280.561 573.759C281.12 573.753 281.496 573.647 281.702 573.571L281.384 572.119C281.267 572.143 281.049 572.196 280.767 572.196C280.197 572.196 279.686 572.007 279.686 570.99V566.023H281.537V564.612ZM287.188 573.824C289.733 573.824 291.397 571.96 291.397 569.168C291.397 566.358 289.733 564.495 287.188 564.495C284.643 564.495 282.979 566.358 282.979 569.168C282.979 571.96 284.643 573.824 287.188 573.824ZM287.194 572.348C285.53 572.348 284.754 570.896 284.754 569.162C284.754 567.434 285.53 565.964 287.194 565.964C288.846 565.964 289.622 567.434 289.622 569.162C289.622 570.896 288.846 572.348 287.194 572.348ZM293.359 573.642H295.116V568.128C295.116 566.946 296.028 566.094 297.274 566.094C297.638 566.094 298.05 566.158 298.191 566.2V564.518C298.014 564.495 297.668 564.477 297.444 564.477C296.386 564.477 295.481 565.077 295.152 566.047H295.058V564.612H293.359V573.642Z" fill="#E6522C"/>
<path d="M305.204 577.028C306.656 577.028 307.573 576.269 308.096 574.847L311.829 564.63L309.93 564.612L307.643 571.619H307.549L305.262 564.612H303.381L306.685 573.759L306.468 574.359C306.021 575.558 305.392 575.658 304.428 575.393L304.004 576.834C304.216 576.928 304.675 577.028 305.204 577.028ZM316.965 573.824C319.51 573.824 321.174 571.96 321.174 569.168C321.174 566.358 319.51 564.495 316.965 564.495C314.42 564.495 312.756 566.358 312.756 569.168C312.756 571.96 314.42 573.824 316.965 573.824ZM316.971 572.348C315.307 572.348 314.531 570.896 314.531 569.162C314.531 567.434 315.307 565.964 316.971 565.964C318.623 565.964 319.399 567.434 319.399 569.162C319.399 570.896 318.623 572.348 316.971 572.348ZM328.855 569.897C328.861 571.431 327.721 572.16 326.733 572.16C325.646 572.16 324.893 571.373 324.893 570.144V564.612H323.136V570.356C323.136 572.595 324.364 573.759 326.098 573.759C327.456 573.759 328.379 573.042 328.797 572.078H328.891V573.642H330.619V564.612H328.855V569.897ZM332.981 573.642H334.738V568.128C334.738 566.946 335.649 566.094 336.896 566.094C337.26 566.094 337.672 566.158 337.813 566.2V564.518C337.636 564.495 337.289 564.477 337.066 564.477C336.008 564.477 335.103 565.077 334.773 566.047H334.679V564.612H332.981V573.642ZM343.856 573.642H351.127V572.078H345.672V561.603H343.856V573.642ZM353.058 573.642H354.816V564.612H353.058V573.642ZM353.946 563.219C354.551 563.219 355.057 562.749 355.057 562.173C355.057 561.597 354.551 561.121 353.946 561.121C353.334 561.121 352.835 561.597 352.835 562.173C352.835 562.749 353.334 563.219 353.946 563.219ZM361.395 564.612H359.544V562.449H357.786V564.612H356.463V566.023H357.786V571.355C357.78 572.995 359.032 573.789 360.419 573.759C360.978 573.753 361.354 573.647 361.56 573.571L361.242 572.119C361.125 572.143 360.907 572.196 360.625 572.196C360.055 572.196 359.544 572.007 359.544 570.99V566.023H361.395V564.612ZM363.34 573.642H365.097V568.075C365.097 566.858 365.95 566.011 366.949 566.011C367.925 566.011 368.601 566.658 368.601 567.64V573.642H370.352V567.887C370.352 566.799 371.017 566.011 372.163 566.011C373.092 566.011 373.856 566.529 373.856 567.751V573.642H375.614V567.587C375.614 565.524 374.461 564.495 372.827 564.495C371.528 564.495 370.552 565.118 370.117 566.082H370.023C369.629 565.094 368.801 564.495 367.595 564.495C366.402 564.495 365.515 565.089 365.138 566.082H365.027V564.612H363.34V573.642ZM383.689 569.897C383.695 571.431 382.555 572.16 381.567 572.16C380.479 572.16 379.727 571.373 379.727 570.144V564.612H377.969V570.356C377.969 572.595 379.198 573.759 380.932 573.759C382.29 573.759 383.213 573.042 383.63 572.078H383.724V573.642H385.453V564.612H383.689V569.897ZM394.58 566.817C394.216 565.412 393.117 564.495 391.165 564.495C389.125 564.495 387.679 565.571 387.679 567.169C387.679 568.451 388.455 569.303 390.148 569.68L391.676 570.015C392.546 570.209 392.952 570.597 392.952 571.161C392.952 571.86 392.205 572.407 391.053 572.407C390.001 572.407 389.325 571.955 389.113 571.067L387.414 571.326C387.708 572.924 389.037 573.824 391.065 573.824C393.246 573.824 394.757 572.666 394.757 571.032C394.757 569.756 393.945 568.968 392.288 568.586L390.853 568.257C389.86 568.022 389.431 567.687 389.437 567.075C389.431 566.382 390.183 565.888 391.183 565.888C392.276 565.888 392.781 566.493 392.987 567.099L394.58 566.817ZM403.568 573.642H405.402L407.936 564.624H408.03L410.564 573.642H412.392L415.737 561.603H413.82L411.481 570.932H411.369L408.929 561.603H407.037L404.597 570.926H404.485L402.14 561.603H400.229L403.568 573.642ZM420.166 573.824C422.711 573.824 424.375 571.96 424.375 569.168C424.375 566.358 422.711 564.495 420.166 564.495C417.621 564.495 415.957 566.358 415.957 569.168C415.957 571.96 417.621 573.824 420.166 573.824ZM420.172 572.348C418.508 572.348 417.732 570.896 417.732 569.162C417.732 567.434 418.508 565.964 420.172 565.964C421.824 565.964 422.6 567.434 422.6 569.162C422.6 570.896 421.824 572.348 420.172 572.348ZM426.337 573.642H428.094V568.128C428.094 566.946 429.006 566.094 430.252 566.094C430.616 566.094 431.028 566.158 431.169 566.2V564.518C430.992 564.495 430.646 564.477 430.422 564.477C429.364 564.477 428.459 565.077 428.13 566.047H428.036V564.612H426.337V573.642ZM432.69 573.642H434.447V570.438L435.323 569.562L438.392 573.642H440.549L436.646 568.486L440.302 564.612H438.198L434.6 568.433H434.447V561.603H432.69V573.642ZM446.201 564.612H444.256V563.801C444.256 563.002 444.585 562.567 445.443 562.567C445.807 562.567 446.066 562.649 446.231 562.702L446.642 561.279C446.395 561.185 445.884 561.038 445.173 561.038C443.744 561.038 442.492 561.873 442.492 563.566V564.612H441.099V566.023H442.492V573.642H444.256V566.023H446.201V564.612ZM449.772 561.603H448.015V573.642H449.772V561.603ZM455.94 573.824C458.486 573.824 460.149 571.96 460.149 569.168C460.149 566.358 458.486 564.495 455.94 564.495C453.395 564.495 451.731 566.358 451.731 569.168C451.731 571.96 453.395 573.824 455.94 573.824ZM455.946 572.348C454.283 572.348 453.507 570.896 453.507 569.162C453.507 567.434 454.283 565.964 455.946 565.964C457.598 565.964 458.374 567.434 458.374 569.162C458.374 570.896 457.598 572.348 455.946 572.348ZM463.794 573.642H465.581L467.415 567.122H467.55L469.384 573.642H471.177L473.828 564.612H472.012L470.254 571.214H470.166L468.403 564.612H466.586L464.811 571.243H464.723L462.953 564.612H461.137L463.794 573.642ZM482.262 566.817C481.898 565.412 480.799 564.495 478.847 564.495C476.807 564.495 475.361 565.571 475.361 567.169C475.361 568.451 476.137 569.303 477.83 569.68L479.358 570.015C480.228 570.209 480.634 570.597 480.634 571.161C480.634 571.86 479.888 572.407 478.735 572.407C477.683 572.407 477.007 571.955 476.795 571.067L475.097 571.326C475.391 572.924 476.719 573.824 478.747 573.824C480.928 573.824 482.439 572.666 482.439 571.032C482.439 569.756 481.628 568.968 479.97 568.586L478.535 568.257C477.542 568.022 477.113 567.687 477.119 567.075C477.113 566.382 477.865 565.888 478.865 565.888C479.958 565.888 480.464 566.493 480.669 567.099L482.262 566.817Z" fill="#1C0732"/>
<path d="M345.768 373.964L345.768 276.042L335.768 276.042L335.768 373.964L345.768 373.964Z" fill="url(#paint1_linear)" fill-opacity="0.5"/>
<circle cx="340.768" cy="283.358" r="1.00986" fill="white"/>
<circle cx="340.768" cy="290.377" r="1.00986" fill="white"/>
<circle cx="340.768" cy="297.397" r="1.00986" fill="white"/>
<circle cx="340.768" cy="304.417" r="1.00986" fill="white"/>
<circle cx="340.768" cy="311.437" r="1.00986" fill="white"/>
<circle cx="340.768" cy="318.456" r="1.00986" fill="white"/>
<circle cx="340.768" cy="325.476" r="1.00986" fill="white"/>
<circle cx="340.768" cy="332.496" r="1.00986" fill="white"/>
<circle cx="340.768" cy="339.515" r="1.00986" fill="white"/>
<circle cx="340.768" cy="346.535" r="1.00986" fill="white"/>
<circle cx="340.768" cy="353.555" r="1.00986" fill="white"/>
<circle cx="340.768" cy="360.574" r="1.00986" fill="white"/>
<circle cx="340.768" cy="367.594" r="1.00986" fill="white"/>
<path d="M345.768 535.886L345.768 437.964L335.768 437.964L335.768 535.886L345.768 535.886Z" fill="url(#paint2_linear)" fill-opacity="0.5"/>
<circle cx="340.768" cy="445.279" r="1.00986" fill="white"/>
<circle cx="340.768" cy="452.299" r="1.00986" fill="white"/>
<circle cx="340.768" cy="459.319" r="1.00986" fill="white"/>
<circle cx="340.768" cy="466.338" r="1.00986" fill="white"/>
<circle cx="340.768" cy="473.358" r="1.00986" fill="white"/>
<circle cx="340.768" cy="480.378" r="1.00986" fill="white"/>
<circle cx="340.768" cy="487.398" r="1.00986" fill="white"/>
<circle cx="340.768" cy="494.418" r="1.00986" fill="white"/>
<circle cx="340.768" cy="501.437" r="1.00986" fill="white"/>
<circle cx="340.768" cy="508.457" r="1.00986" fill="white"/>
<circle cx="340.768" cy="515.477" r="1.00986" fill="white"/>
<circle cx="340.768" cy="522.496" r="1.00986" fill="white"/>
<circle cx="340.768" cy="529.516" r="1.00986" fill="white"/>
<path d="M147.758 253.962H531.758V274.367C531.758 279.89 527.281 284.367 521.758 284.367H157.758C152.235 284.367 147.758 279.89 147.758 274.367V253.962Z" fill="#2E225D"/>
<path d="M236.481 270.071C236.481 268.739 237.331 267.983 238.489 267.983C239.593 267.983 240.259 268.679 240.259 269.892V274.665H241.433V269.813C241.433 267.849 240.388 266.929 238.827 266.929C237.624 266.929 236.938 267.431 236.58 268.222H236.481V264.483H235.308V274.665H236.481V270.071ZM246.781 274.824C248.332 274.824 249.465 274.049 249.823 272.895L248.69 272.577C248.392 273.372 247.7 273.77 246.781 273.77C245.404 273.77 244.454 272.88 244.399 271.245H249.943V270.747C249.943 267.904 248.252 266.929 246.661 266.929C244.593 266.929 243.221 268.56 243.221 270.907C243.221 273.253 244.573 274.824 246.781 274.824ZM244.399 270.23C244.479 269.042 245.319 267.983 246.661 267.983C247.934 267.983 248.749 268.938 248.749 270.23H244.399ZM252.901 264.483H251.727V274.665H252.901V264.483ZM255.05 274.665H256.223V269.892C256.223 268.774 257.038 267.983 257.953 267.983C258.843 267.983 259.464 268.565 259.464 269.435V274.665H260.658V269.693C260.658 268.709 261.274 267.983 262.348 267.983C263.183 267.983 263.899 268.426 263.899 269.554V274.665H265.072V269.554C265.072 267.759 264.108 266.929 262.746 266.929C261.652 266.929 260.852 267.431 260.459 268.222H260.379C260.001 267.407 259.335 266.929 258.331 266.929C257.337 266.929 256.601 267.407 256.283 268.222H256.183V267.029H255.05V274.665Z" fill="#00D4FF"/>
<path d="M275.093 274.665H276.266V267.029H275.093V274.665ZM275.689 265.756C276.147 265.756 276.524 265.398 276.524 264.96C276.524 264.523 276.147 264.165 275.689 264.165C275.232 264.165 274.854 264.523 274.854 264.96C274.854 265.398 275.232 265.756 275.689 265.756ZM279.588 270.071C279.588 268.739 280.414 267.983 281.537 267.983C282.626 267.983 283.287 268.694 283.287 269.892V274.665H284.46V269.813C284.46 267.864 283.421 266.929 281.875 266.929C280.722 266.929 280.006 267.446 279.648 268.222H279.548V267.029H278.415V274.665H279.588V270.071ZM292.013 268.739C291.646 267.655 290.82 266.929 289.309 266.929C287.698 266.929 286.505 267.844 286.505 269.137C286.505 270.191 287.131 270.897 288.533 271.225L289.806 271.523C290.577 271.702 290.94 272.07 290.94 272.597C290.94 273.253 290.244 273.79 289.15 273.79C288.19 273.79 287.589 273.377 287.38 272.557L286.266 272.835C286.54 274.133 287.609 274.824 289.17 274.824C290.945 274.824 292.153 273.855 292.153 272.537C292.153 271.473 291.486 270.802 290.124 270.469L288.991 270.191C288.086 269.967 287.678 269.664 287.678 269.077C287.678 268.421 288.374 267.943 289.309 267.943C290.333 267.943 290.756 268.51 290.96 269.037L292.013 268.739ZM297.24 267.029H295.609V265.199H294.436V267.029H293.282V268.023H294.436V272.796C294.436 274.128 295.51 274.764 296.504 274.764C296.942 274.764 297.22 274.685 297.379 274.625L297.14 273.571C297.041 273.591 296.882 273.631 296.623 273.631C296.106 273.631 295.609 273.472 295.609 272.478V268.023H297.24V267.029ZM301.252 274.844C302.584 274.844 303.28 274.128 303.519 273.631H303.579V274.665H304.752V269.634C304.752 267.208 302.903 266.929 301.928 266.929C300.775 266.929 299.462 267.327 298.866 268.719L299.979 269.117C300.238 268.56 300.849 267.963 301.968 267.963C303.047 267.963 303.579 268.535 303.579 269.514V269.554C303.579 270.121 303.002 270.071 301.61 270.25C300.193 270.434 298.647 270.747 298.647 272.497C298.647 273.989 299.8 274.844 301.252 274.844ZM301.431 273.79C300.496 273.79 299.82 273.372 299.82 272.557C299.82 271.662 300.635 271.384 301.55 271.264C302.047 271.205 303.38 271.066 303.579 270.827V271.901C303.579 272.855 302.823 273.79 301.431 273.79ZM308.067 264.483H306.893V274.665H308.067V264.483ZM311.389 264.483H310.216V274.665H311.389V264.483Z" fill="#7C91F9"/>
<path d="M322.586 264.483H321.413V274.665H322.586V264.483ZM324.735 274.665H325.909V267.029H324.735V274.665ZM325.332 265.756C325.789 265.756 326.167 265.398 326.167 264.96C326.167 264.523 325.789 264.165 325.332 264.165C324.874 264.165 324.497 264.523 324.497 264.96C324.497 265.398 324.874 265.756 325.332 265.756ZM331.379 267.029H329.748V265.199H328.575V267.029H327.421V268.023H328.575V272.796C328.575 274.128 329.648 274.764 330.643 274.764C331.08 274.764 331.359 274.685 331.518 274.625L331.279 273.571C331.18 273.591 331.021 273.631 330.762 273.631C330.245 273.631 329.748 273.472 329.748 272.478V268.023H331.379V267.029ZM333.143 274.665H334.317V269.892C334.317 268.774 335.132 267.983 336.047 267.983C336.937 267.983 337.558 268.565 337.558 269.435V274.665H338.751V269.693C338.751 268.709 339.368 267.983 340.442 267.983C341.277 267.983 341.993 268.426 341.993 269.554V274.665H343.166V269.554C343.166 267.759 342.202 266.929 340.839 266.929C339.746 266.929 338.945 267.431 338.553 268.222H338.473C338.095 267.407 337.429 266.929 336.425 266.929C335.43 266.929 334.695 267.407 334.376 268.222H334.277V267.029H333.143V274.665ZM350.124 271.543C350.124 272.975 349.03 273.631 348.155 273.631C347.181 273.631 346.485 272.915 346.485 271.801V267.029H345.311V271.881C345.311 273.83 346.346 274.764 347.777 274.764C348.931 274.764 349.686 274.148 350.044 273.372H350.124V274.665H351.297V267.029H350.124V271.543ZM358.855 268.739C358.487 267.655 357.662 266.929 356.151 266.929C354.54 266.929 353.347 267.844 353.347 269.137C353.347 270.191 353.973 270.897 355.375 271.225L356.648 271.523C357.418 271.702 357.781 272.07 357.781 272.597C357.781 273.253 357.085 273.79 355.992 273.79C355.032 273.79 354.431 273.377 354.222 272.557L353.108 272.835C353.382 274.133 354.45 274.824 356.012 274.824C357.786 274.824 358.994 273.855 358.994 272.537C358.994 271.473 358.328 270.802 356.966 270.469L355.833 270.191C354.928 269.967 354.52 269.664 354.52 269.077C354.52 268.421 355.216 267.943 356.151 267.943C357.175 267.943 357.597 268.51 357.801 269.037L358.855 268.739ZM363.863 274.824C365.553 274.824 366.667 273.79 366.866 272.438H365.692C365.474 273.273 364.778 273.77 363.863 273.77C362.471 273.77 361.576 272.617 361.576 270.847C361.576 269.117 362.491 267.983 363.863 267.983C364.897 267.983 365.513 268.62 365.692 269.316H366.866C366.667 267.884 365.454 266.929 363.843 266.929C361.775 266.929 360.403 268.56 360.403 270.887C360.403 273.174 361.715 274.824 363.863 274.824ZM369.754 270.071C369.754 268.739 370.604 267.983 371.763 267.983C372.866 267.983 373.533 268.679 373.533 269.892V274.665H374.706V269.813C374.706 267.849 373.662 266.929 372.101 266.929C370.898 266.929 370.212 267.431 369.854 268.222H369.754V264.483H368.581V274.665H369.754V270.071ZM379.1 274.844C380.432 274.844 381.128 274.128 381.367 273.631H381.426V274.665H382.6V269.634C382.6 267.208 380.75 266.929 379.776 266.929C378.622 266.929 377.31 267.327 376.713 268.719L377.827 269.117C378.085 268.56 378.697 267.963 379.816 267.963C380.894 267.963 381.426 268.535 381.426 269.514V269.554C381.426 270.121 380.85 270.071 379.458 270.25C378.041 270.434 376.494 270.747 376.494 272.497C376.494 273.989 377.648 274.844 379.1 274.844ZM379.279 273.79C378.344 273.79 377.668 273.372 377.668 272.557C377.668 271.662 378.483 271.384 379.398 271.264C379.895 271.205 381.227 271.066 381.426 270.827V271.901C381.426 272.855 380.671 273.79 379.279 273.79ZM387.843 274.824C389.912 274.824 391.304 273.253 391.304 270.887C391.304 268.5 389.912 266.929 387.843 266.929C385.775 266.929 384.383 268.5 384.383 270.887C384.383 273.253 385.775 274.824 387.843 274.824ZM387.843 273.77C386.272 273.77 385.556 272.418 385.556 270.887C385.556 269.355 386.272 267.983 387.843 267.983C389.414 267.983 390.13 269.355 390.13 270.887C390.13 272.418 389.414 273.77 387.843 273.77ZM398.504 268.739C398.136 267.655 397.311 266.929 395.799 266.929C394.188 266.929 392.995 267.844 392.995 269.137C392.995 270.191 393.622 270.897 395.024 271.225L396.296 271.523C397.067 271.702 397.43 272.07 397.43 272.597C397.43 273.253 396.734 273.79 395.64 273.79C394.681 273.79 394.079 273.377 393.87 272.557L392.757 272.835C393.03 274.133 394.099 274.824 395.66 274.824C397.435 274.824 398.643 273.855 398.643 272.537C398.643 271.473 397.977 270.802 396.615 270.469L395.481 270.191C394.576 269.967 394.168 269.664 394.168 269.077C394.168 268.421 394.865 267.943 395.799 267.943C396.823 267.943 397.246 268.51 397.45 269.037L398.504 268.739ZM404.009 264.006H402.935L399.653 276.196H400.727L404.009 264.006ZM406.573 264.483H405.399V274.665H406.573V264.483ZM408.722 274.665H409.895V267.029H408.722V274.665ZM409.318 265.756C409.776 265.756 410.153 265.398 410.153 264.96C410.153 264.523 409.776 264.165 409.318 264.165C408.861 264.165 408.483 264.523 408.483 264.96C408.483 265.398 408.861 265.756 409.318 265.756ZM415.365 267.029H413.734V265.199H412.561V267.029H411.407V268.023H412.561V272.796C412.561 274.128 413.635 274.764 414.629 274.764C415.067 274.764 415.345 274.685 415.504 274.625L415.265 273.571C415.166 273.591 415.007 273.631 414.748 273.631C414.231 273.631 413.734 273.472 413.734 272.478V268.023H415.365V267.029ZM417.13 274.665H418.303V269.892C418.303 268.774 419.118 267.983 420.033 267.983C420.923 267.983 421.545 268.565 421.545 269.435V274.665H422.738V269.693C422.738 268.709 423.354 267.983 424.428 267.983C425.263 267.983 425.979 268.426 425.979 269.554V274.665H427.153V269.554C427.153 267.759 426.188 266.929 424.826 266.929C423.732 266.929 422.932 267.431 422.539 268.222H422.459C422.081 267.407 421.415 266.929 420.411 266.929C419.417 266.929 418.681 267.407 418.363 268.222H418.263V267.029H417.13V274.665ZM434.11 271.543C434.11 272.975 433.017 273.631 432.142 273.631C431.167 273.631 430.471 272.915 430.471 271.801V267.029H429.298V271.881C429.298 273.83 430.332 274.764 431.764 274.764C432.917 274.764 433.673 274.148 434.031 273.372H434.11V274.665H435.284V267.029H434.11V271.543ZM442.842 268.739C442.474 267.655 441.648 266.929 440.137 266.929C438.526 266.929 437.333 267.844 437.333 269.137C437.333 270.191 437.96 270.897 439.361 271.225L440.634 271.523C441.405 271.702 441.768 272.07 441.768 272.597C441.768 273.253 441.072 273.79 439.978 273.79C439.018 273.79 438.417 273.377 438.208 272.557L437.094 272.835C437.368 274.133 438.437 274.824 439.998 274.824C441.773 274.824 442.981 273.855 442.981 272.537C442.981 271.473 442.315 270.802 440.952 270.469L439.819 270.191C438.914 269.967 438.506 269.664 438.506 269.077C438.506 268.421 439.202 267.943 440.137 267.943C441.161 267.943 441.584 268.51 441.788 269.037L442.842 268.739Z" fill="#F6A556"/>
<path d="M147.758 207.032C147.758 204.27 149.997 202.032 152.758 202.032H526.758C529.52 202.032 531.758 204.27 531.758 207.032V253.689H147.758V207.032Z" fill="white"/>
<path d="M262.008 221.993H259.827V234.032H262.008V221.993ZM266.403 228.741C266.403 227.436 267.191 226.684 268.314 226.684C269.413 226.684 270.071 227.407 270.071 228.612V234.032H272.199V228.283C272.205 226.119 270.971 224.885 269.107 224.885C267.755 224.885 266.827 225.532 266.415 226.537H266.309V225.003H264.275V234.032H266.403V228.741ZM281.499 227.389C281.205 225.861 279.982 224.885 277.866 224.885C275.691 224.885 274.21 225.955 274.216 227.624C274.21 228.941 275.021 229.811 276.755 230.17L278.295 230.493C279.124 230.675 279.512 231.01 279.512 231.522C279.512 232.139 278.842 232.603 277.831 232.603C276.855 232.603 276.22 232.18 276.038 231.369L273.963 231.569C274.228 233.226 275.621 234.208 277.837 234.208C280.094 234.208 281.687 233.038 281.693 231.328C281.687 230.04 280.858 229.253 279.154 228.882L277.613 228.553C276.696 228.347 276.332 228.03 276.338 227.507C276.332 226.895 277.008 226.472 277.896 226.472C278.877 226.472 279.395 227.007 279.559 227.601L281.499 227.389ZM287.956 225.003H286.175V222.839H284.047V225.003H282.766V226.648H284.047V231.669C284.036 233.367 285.27 234.202 286.869 234.155C287.474 234.138 287.892 234.02 288.121 233.944L287.763 232.28C287.645 232.309 287.404 232.362 287.139 232.362C286.604 232.362 286.175 232.174 286.175 231.316V226.648H287.956V225.003ZM292.334 234.214C293.751 234.214 294.598 233.55 294.986 232.791H295.056V234.032H297.102V227.989C297.102 225.602 295.156 224.885 293.434 224.885C291.535 224.885 290.077 225.731 289.607 227.377L291.594 227.66C291.805 227.042 292.405 226.513 293.445 226.513C294.433 226.513 294.974 227.019 294.974 227.906V227.942C294.974 228.553 294.333 228.582 292.74 228.753C290.988 228.941 289.313 229.464 289.313 231.498C289.313 233.273 290.612 234.214 292.334 234.214ZM292.887 232.65C291.999 232.65 291.364 232.245 291.364 231.463C291.364 230.646 292.076 230.305 293.028 230.17C293.587 230.093 294.703 229.952 294.98 229.729V230.793C294.98 231.798 294.168 232.65 292.887 232.65ZM301.37 221.993H299.242V234.032H301.37V221.993ZM305.686 221.993H303.558V234.032H305.686V221.993Z" fill="#1C0732"/>
<path d="M322.379 226.055C322.009 223.38 319.951 221.828 317.282 221.828C314.137 221.828 311.768 224.121 311.768 228.012C311.768 231.898 314.108 234.196 317.282 234.196C320.145 234.196 322.044 232.345 322.379 230.046L320.18 230.034C319.904 231.445 318.752 232.239 317.312 232.239C315.36 232.239 313.961 230.775 313.961 228.012C313.961 225.296 315.348 223.786 317.318 223.786C318.781 223.786 319.928 224.615 320.18 226.055H322.379ZM326.41 228.741C326.41 227.436 327.221 226.684 328.362 226.684C329.479 226.684 330.137 227.395 330.137 228.612V234.032H332.265V228.283C332.265 226.102 331.03 224.885 329.155 224.885C327.768 224.885 326.886 225.514 326.469 226.537H326.363V221.993H324.282V234.032H326.41V228.741ZM337.032 234.214C338.449 234.214 339.295 233.55 339.683 232.791H339.754V234.032H341.8V227.989C341.8 225.602 339.854 224.885 338.132 224.885C336.233 224.885 334.775 225.731 334.305 227.377L336.292 227.66C336.503 227.042 337.103 226.513 338.143 226.513C339.131 226.513 339.672 227.019 339.672 227.906V227.942C339.672 228.553 339.031 228.582 337.438 228.753C335.686 228.941 334.011 229.464 334.011 231.498C334.011 233.273 335.31 234.214 337.032 234.214ZM337.585 232.65C336.697 232.65 336.062 232.245 336.062 231.463C336.062 230.646 336.774 230.305 337.726 230.17C338.284 230.093 339.401 229.952 339.678 229.729V230.793C339.678 231.798 338.866 232.65 337.585 232.65ZM347.878 234.208C350.523 234.208 352.204 232.345 352.204 229.552C352.204 226.754 350.523 224.885 347.878 224.885C345.233 224.885 343.551 226.754 343.551 229.552C343.551 232.345 345.233 234.208 347.878 234.208ZM347.89 232.503C346.426 232.503 345.709 231.198 345.709 229.547C345.709 227.895 346.426 226.572 347.89 226.572C349.33 226.572 350.047 227.895 350.047 229.547C350.047 231.198 349.33 232.503 347.89 232.503ZM361.147 227.389C360.853 225.861 359.63 224.885 357.514 224.885C355.339 224.885 353.858 225.955 353.864 227.624C353.858 228.941 354.669 229.811 356.403 230.17L357.943 230.493C358.772 230.675 359.16 231.01 359.16 231.522C359.16 232.139 358.49 232.603 357.479 232.603C356.503 232.603 355.868 232.18 355.686 231.369L353.611 231.569C353.875 233.226 355.269 234.208 357.485 234.208C359.742 234.208 361.335 233.038 361.341 231.328C361.335 230.04 360.506 229.253 358.801 228.882L357.261 228.553C356.344 228.347 355.98 228.03 355.986 227.507C355.98 226.895 356.656 226.472 357.543 226.472C358.525 226.472 359.042 227.007 359.207 227.601L361.147 227.389ZM377.601 226.055C377.23 223.38 375.173 221.828 372.504 221.828C369.359 221.828 366.99 224.121 366.99 228.012C366.99 231.898 369.33 234.196 372.504 234.196C375.367 234.196 377.265 232.345 377.601 230.046L375.402 230.034C375.126 231.445 373.974 232.239 372.533 232.239C370.582 232.239 369.183 230.775 369.183 228.012C369.183 225.296 370.57 223.786 372.539 223.786C374.003 223.786 375.149 224.615 375.402 226.055H377.601ZM383.501 234.208C385.605 234.208 387.052 233.179 387.428 231.61L385.441 231.386C385.153 232.151 384.447 232.55 383.53 232.55C382.155 232.55 381.244 231.645 381.226 230.099H387.516V229.447C387.516 226.278 385.611 224.885 383.389 224.885C380.803 224.885 379.116 226.784 379.116 229.57C379.116 232.403 380.779 234.208 383.501 234.208ZM381.232 228.665C381.297 227.513 382.149 226.543 383.419 226.543C384.641 226.543 385.464 227.436 385.476 228.665H381.232ZM391.444 228.741C391.444 227.436 392.232 226.684 393.355 226.684C394.454 226.684 395.112 227.407 395.112 228.612V234.032H397.24V228.283C397.246 226.119 396.012 224.885 394.148 224.885C392.796 224.885 391.867 225.532 391.456 226.537H391.35V225.003H389.316V234.032H391.444V228.741ZM403.912 225.003H402.131V222.839H400.003V225.003H398.722V226.648H400.003V231.669C399.991 233.367 401.226 234.202 402.825 234.155C403.43 234.138 403.848 234.02 404.077 233.944L403.718 232.28C403.601 232.309 403.36 232.362 403.095 232.362C402.56 232.362 402.131 232.174 402.131 231.316V226.648H403.912V225.003ZM409.592 234.208C411.697 234.208 413.143 233.179 413.519 231.61L411.532 231.386C411.244 232.151 410.539 232.55 409.622 232.55C408.246 232.55 407.335 231.645 407.317 230.099H413.607V229.447C413.607 226.278 411.703 224.885 409.481 224.885C406.894 224.885 405.207 226.784 405.207 229.57C405.207 232.403 406.871 234.208 409.592 234.208ZM407.323 228.665C407.388 227.513 408.24 226.543 409.51 226.543C410.733 226.543 411.556 227.436 411.567 228.665H407.323ZM415.407 234.032H417.535V228.724C417.535 227.577 418.4 226.766 419.569 226.766C419.928 226.766 420.375 226.831 420.557 226.889V224.932C420.363 224.897 420.028 224.873 419.793 224.873C418.758 224.873 417.894 225.461 417.565 226.507H417.471V225.003H415.407V234.032Z" fill="#5B44BA"/>
<defs>
<radialGradient id="paint0_radial" cx="0" cy="0" r="1" gradientUnits="userSpaceOnUse" gradientTransform="translate(0.204828 337.875) rotate(-0.742761) scale(207.503 179.064)">
<stop stop-color="#A93DDB"/>
<stop offset="1" stop-color="#A93DDB" stop-opacity="0"/>
</radialGradient>
<linearGradient id="paint1_linear" x1="340.768" y1="340.315" x2="340.768" y2="276.042" gradientUnits="userSpaceOnUse">
<stop stop-color="#CEC7EB"/>
<stop offset="1" stop-color="white" stop-opacity="0"/>
</linearGradient>
<linearGradient id="paint2_linear" x1="340.768" y1="502.237" x2="340.768" y2="437.964" gradientUnits="userSpaceOnUse">
<stop stop-color="#CEC7EB"/>
<stop offset="1" stop-color="white" stop-opacity="0"/>
</linearGradient>
</defs>
</svg>
