<svg width="33" height="33" viewBox="0 0 33 33" fill="none" xmlns="http://www.w3.org/2000/svg">
<g clip-path="url(#clip0)">
<path d="M3.89038 17.5566C3.82861 17.042 3.79688 16.5308 3.79688 16.0811C3.79688 9.36841 9.33423 3.83105 16.0469 3.83105C19.178 3.83105 22.1094 5.09351 24.2656 7.06226L23.1843 8.16235C22.9407 8.40601 22.8469 8.76221 22.9407 9.09985C23.0532 9.41846 23.3157 9.66235 23.6531 9.7373C23.8418 9.77515 30.0415 11.7729 29.6467 11.6936C30.1489 11.8608 30.8916 11.3252 30.7532 10.5874C30.7151 10.3984 29.3425 3.51147 29.4219 3.90601C29.3469 3.5686 29.103 3.28735 28.7656 3.1936C28.447 3.09985 28.0906 3.1936 27.8469 3.43726L26.9282 4.33716C24.0969 1.6936 20.2092 0.0810547 16.0469 0.0810547C7.25317 0.0810547 0.046875 7.28735 0.046875 16.0811V16.1184C0.046875 16.647 0.0710449 17.0554 0.0991211 17.3679C0.136475 17.782 0.44165 18.1211 0.849365 18.2029L2.77539 18.5879C3.40234 18.7134 3.96606 18.1877 3.89038 17.5566Z" fill="white"/>
<path d="M31.2495 13.9578L29.3179 13.5642C28.6902 13.4363 28.1226 13.9624 28.1997 14.5965C28.2666 15.1436 28.2964 15.6756 28.2964 16.0811C28.2964 22.7935 22.7591 28.3311 16.0464 28.3311C12.9153 28.3311 9.98392 27.0686 7.82767 25.0811L8.90897 23.9998C9.15262 23.7561 9.24637 23.3999 9.15262 23.0623C9.04007 22.7434 8.77762 22.4998 8.44022 22.4248C8.2515 22.3867 2.05179 20.3892 2.44656 20.4685C2.12772 20.4124 1.80887 20.5061 1.60281 20.731C1.37772 20.9373 1.28397 21.2747 1.34012 21.5747C1.3782 21.7635 2.75101 28.5879 2.67166 28.1934C2.74637 28.531 2.99027 28.8123 3.32767 28.9058C3.71903 29.0039 4.04569 28.8853 4.24637 28.6621L5.14652 27.7622C7.97757 30.406 11.8653 32.0811 16.0464 32.0811C24.8401 32.0811 32.0464 24.8748 32.0464 16.0811V16.0247C32.0464 15.6092 32.0313 15.2012 31.9966 14.7957C31.961 14.3814 31.657 14.041 31.2495 13.9578Z" fill="white"/>
</g>
<defs>
<clipPath id="clip0">
<rect width="32" height="32" fill="white" transform="translate(0.046875 0.0810547)"/>
</clipPath>
</defs>
</svg>
