<svg width="64" height="64" viewBox="0 0 64 64" fill="none" xmlns="http://www.w3.org/2000/svg">
<path d="M22 28L36 42" stroke="#1ED6B3" stroke-width="4" stroke-linecap="round" stroke-linejoin="round" stroke-dasharray="1 1"/>
<path d="M21.4521 42.5478L27.9431 56.4518C29.2729 59.3005 33.218 59.5722 34.9258 56.9328L41.1444 47.3223C41.7029 46.4591 42 45.453 42 44.425V39" stroke="#10B180" stroke-width="4" stroke-linecap="round" stroke-dasharray="1 1"/>
<path d="M21.4523 42.5477L7.54841 36.0569C4.69976 34.7271 4.42802 30.782 7.06743 29.0741L16.6778 22.8556C17.5409 22.2972 18.5471 22 19.5751 22H25.0003" stroke="#10B180" stroke-width="4" stroke-linecap="round" stroke-dasharray="1 1"/>
<path d="M49.3195 32.2874C56.5173 26.5645 60.0047 17.3606 58.4066 8.30483C58.1624 6.92114 57.0787 5.83774 55.695 5.59356C46.6392 3.99547 37.4321 7.47646 31.7005 14.6674L19.9466 29.414C17.6179 32.3355 17.4341 36.4289 19.4847 39.5519C20.7809 41.5259 22.4714 43.216 24.4467 44.5102C27.5555 46.547 31.62 46.3604 34.5291 44.0474L49.3195 32.2874Z" stroke="#10B180" stroke-width="4" stroke-linecap="round" stroke-dasharray="1 1"/>
<path d="M48 20C48 17.7909 46.2091 16 44 16C41.7909 16 40 17.7909 40 20C40 22.2091 41.7909 24 44 24C46.2091 24 48 22.2091 48 20Z" fill="white"/>
<path d="M13.9715 50.0285C11.2668 47.3238 6.88173 47.3238 4.17707 50.0285C2.89287 51.3127 2.0647 53.3179 2 55V60C2 61.1046 2.89543 62 4 62H9C10.6845 61.9369 12.6856 61.1088 13.9715 59.8229C16.6762 57.1182 16.6762 52.7331 13.9715 50.0285Z" fill="#10B180"/>
</svg>
