<svg width="680" height="800" viewBox="0 0 680 800" fill="none" xmlns="http://www.w3.org/2000/svg">
<rect x="0.5" y="0.5" width="679" height="799" rx="9.5" fill="white" fill-opacity="0.05" stroke="url(#paint0_radial)"/>
<path d="M345 597.771L345 499.849L335 499.849L335 597.771L345 597.771Z" fill="url(#paint1_linear)" fill-opacity="0.5"/>
<circle cx="340" cy="507.164" r="1.00986" fill="white"/>
<circle cx="340" cy="514.184" r="1.00986" fill="white"/>
<circle cx="340" cy="521.204" r="1.00986" fill="white"/>
<circle cx="340" cy="528.223" r="1.00986" fill="white"/>
<circle cx="340" cy="535.243" r="1.00986" fill="white"/>
<circle cx="340" cy="542.263" r="1.00986" fill="white"/>
<circle cx="340" cy="549.282" r="1.00986" fill="white"/>
<circle cx="340" cy="556.302" r="1.00986" fill="white"/>
<circle cx="340" cy="563.322" r="1.00986" fill="white"/>
<circle cx="340" cy="570.341" r="1.00986" fill="white"/>
<circle cx="340" cy="577.361" r="1.00986" fill="white"/>
<circle cx="340" cy="584.381" r="1.00986" fill="white"/>
<circle cx="340" cy="591.401" r="1.00986" fill="white"/>
<rect x="143" y="598.012" width="394" height="64" rx="5" fill="white"/>
<g clip-path="url(#clip0)">
<path d="M285.16 631.488C285.098 630.973 285.066 630.462 285.066 630.012C285.066 623.3 290.604 617.762 297.316 617.762C300.447 617.762 303.379 619.025 305.535 620.993L304.454 622.094C304.21 622.337 304.116 622.693 304.21 623.031C304.323 623.35 304.585 623.594 304.922 623.668C305.111 623.706 311.311 625.704 310.916 625.625C311.418 625.792 312.161 625.256 312.022 624.519C311.984 624.33 310.612 617.443 310.691 617.837C310.616 617.5 310.372 617.219 310.035 617.125C309.716 617.031 309.36 617.125 309.116 617.368L308.198 618.268C305.366 615.625 301.479 614.012 297.316 614.012C288.522 614.012 281.316 621.219 281.316 630.012V630.05C281.316 630.578 281.34 630.987 281.368 631.299C281.406 631.713 281.711 632.052 282.119 632.134L284.045 632.519C284.672 632.645 285.235 632.119 285.16 631.488Z" fill="#0098DD"/>
<path d="M312.52 627.889L310.588 627.495C309.96 627.367 309.393 627.894 309.47 628.528C309.537 629.075 309.567 629.607 309.567 630.012C309.567 636.725 304.029 642.262 297.317 642.262C294.186 642.262 291.254 641 289.098 639.012L290.179 637.931C290.423 637.687 290.517 637.331 290.423 636.993C290.31 636.675 290.048 636.431 289.71 636.356C289.522 636.318 283.322 634.32 283.717 634.4C283.398 634.344 283.079 634.437 282.873 634.662C282.648 634.868 282.554 635.206 282.61 635.506C282.648 635.695 284.021 642.519 283.942 642.125C284.017 642.462 284.261 642.743 284.598 642.837C284.989 642.935 285.316 642.816 285.517 642.593L286.417 641.693C289.248 644.337 293.136 646.012 297.317 646.012C306.11 646.012 313.317 638.806 313.317 630.012V629.956C313.317 629.54 313.302 629.132 313.267 628.727C313.231 628.313 312.927 627.972 312.52 627.889Z" fill="#0098DD"/>
</g>
<path d="M322.898 636.184L324.003 632.998H328.706L329.805 636.184H331.733L327.401 624.145H325.302L320.97 636.184H322.898ZM324.532 631.469L326.307 626.331H326.401L328.177 631.469H324.532ZM339.05 632.439C339.056 633.973 337.916 634.702 336.928 634.702C335.841 634.702 335.088 633.915 335.088 632.686V627.154H333.331V632.898C333.331 635.137 334.559 636.301 336.293 636.301C337.651 636.301 338.574 635.584 338.992 634.62H339.086V636.184H340.814V627.154H339.05V632.439ZM347.39 627.154H345.539V624.991H343.781V627.154H342.458V628.565H343.781V633.897C343.775 635.537 345.027 636.331 346.414 636.301C346.973 636.295 347.349 636.189 347.555 636.113L347.237 634.661C347.12 634.685 346.902 634.738 346.62 634.738C346.05 634.738 345.539 634.549 345.539 633.532V628.565H347.39V627.154ZM353.041 636.366C355.586 636.366 357.25 634.502 357.25 631.71C357.25 628.9 355.586 627.037 353.041 627.037C350.496 627.037 348.832 628.9 348.832 631.71C348.832 634.502 350.496 636.366 353.041 636.366ZM353.047 634.89C351.383 634.89 350.607 633.438 350.607 631.704C350.607 629.976 351.383 628.506 353.047 628.506C354.699 628.506 355.475 629.976 355.475 631.704C355.475 633.438 354.699 634.89 353.047 634.89ZM359.212 636.184H360.969V630.617C360.969 629.4 361.822 628.553 362.821 628.553C363.797 628.553 364.473 629.2 364.473 630.182V636.184H366.225V630.429C366.225 629.341 366.889 628.553 368.035 628.553C368.964 628.553 369.728 629.071 369.728 630.293V636.184H371.486V630.129C371.486 628.066 370.334 627.037 368.699 627.037C367.4 627.037 366.425 627.66 365.99 628.624H365.895C365.502 627.636 364.673 627.037 363.468 627.037C362.274 627.037 361.387 627.631 361.011 628.624H360.899V627.154H359.212V636.184ZM376.469 636.383C377.962 636.383 378.803 635.625 379.138 634.949H379.209V636.184H380.925V630.188C380.925 627.56 378.856 627.037 377.422 627.037C375.787 627.037 374.282 627.695 373.695 629.341L375.346 629.717C375.605 629.077 376.263 628.459 377.445 628.459C378.58 628.459 379.162 629.053 379.162 630.076V630.117C379.162 630.758 378.503 630.746 376.881 630.934C375.17 631.134 373.418 631.581 373.418 633.632C373.418 635.408 374.753 636.383 376.469 636.383ZM376.851 634.973C375.858 634.973 375.141 634.526 375.141 633.656C375.141 632.715 375.975 632.38 376.992 632.245C377.563 632.169 378.915 632.016 379.167 631.763V632.927C379.167 633.997 378.315 634.973 376.851 634.973ZM387.481 627.154H385.629V624.991H383.872V627.154H382.549V628.565H383.872V633.897C383.866 635.537 385.118 636.331 386.505 636.301C387.064 636.295 387.44 636.189 387.646 636.113L387.328 634.661C387.211 634.685 386.993 634.738 386.711 634.738C386.141 634.738 385.629 634.549 385.629 633.532V628.565H387.481V627.154ZM393.22 636.366C395.189 636.366 396.582 635.396 396.982 633.926L395.318 633.626C395.001 634.479 394.237 634.914 393.237 634.914C391.732 634.914 390.721 633.938 390.674 632.198H397.094V631.575C397.094 628.312 395.142 627.037 393.096 627.037C390.58 627.037 388.923 628.953 388.923 631.728C388.923 634.532 390.557 636.366 393.22 636.366ZM390.68 630.881C390.751 629.6 391.68 628.489 393.108 628.489C394.472 628.489 395.365 629.5 395.371 630.881H390.68Z" fill="#0098DD"/>
<rect x="143.197" y="273.927" width="393.607" height="64" rx="5" fill="white"/>
<path d="M207.197 305.927C207.197 314.763 200.033 321.927 191.197 321.927C182.36 321.927 175.197 314.763 175.197 305.927C175.197 297.09 182.36 289.927 191.197 289.927C200.033 289.927 207.197 297.09 207.197 305.927Z" fill="#87BBFD"/>
<path d="M181.86 296.522V297.458V296.522ZM181.86 296.522V297.458V296.522ZM182.328 296.99H181.392H182.328ZM192.153 314.068V315.471V314.068ZM192.855 314.77H191.451H192.855ZM199.64 301.201V303.072V301.201ZM200.576 302.137H198.704H200.576Z" fill="black"/>
<path fill-rule="evenodd" clip-rule="evenodd" d="M181.86 296.188C182.044 296.188 182.193 296.338 182.193 296.522V296.656H182.328C182.512 296.656 182.661 296.806 182.661 296.99C182.661 297.174 182.512 297.323 182.328 297.323H182.193V297.458C182.193 297.642 182.044 297.791 181.86 297.791C181.676 297.791 181.526 297.642 181.526 297.458V297.323H181.392C181.208 297.323 181.059 297.174 181.059 296.99C181.059 296.806 181.208 296.656 181.392 296.656H181.526V296.522C181.526 296.338 181.676 296.188 181.86 296.188ZM199.64 300.867C199.824 300.867 199.973 301.017 199.973 301.201V301.803H200.576C200.76 301.803 200.909 301.952 200.909 302.137C200.909 302.321 200.76 302.47 200.576 302.47H199.973V303.072C199.973 303.256 199.824 303.406 199.64 303.406C199.456 303.406 199.306 303.256 199.306 303.072V302.47H198.704C198.52 302.47 198.371 302.321 198.371 302.137C198.371 301.952 198.52 301.803 198.704 301.803H199.306V301.201C199.306 301.017 199.456 300.867 199.64 300.867ZM192.154 313.734C192.338 313.734 192.487 313.884 192.487 314.068V314.436H192.855C193.039 314.436 193.188 314.586 193.188 314.77C193.188 314.954 193.039 315.103 192.855 315.103H192.487V315.471C192.487 315.655 192.338 315.805 192.154 315.805C191.969 315.805 191.82 315.655 191.82 315.471V315.103H191.451C191.267 315.103 191.118 314.954 191.118 314.77C191.118 314.586 191.267 314.436 191.451 314.436H191.82V314.068C191.82 313.884 191.969 313.734 192.154 313.734Z" fill="#6772E5"/>
<path d="M198.259 311.756L192.841 308.448L198.259 311.756Z" fill="black"/>
<path fill-rule="evenodd" clip-rule="evenodd" d="M191.196 298.968C191.334 298.968 191.446 299.08 191.446 299.218V305.506C191.446 305.644 191.334 305.756 191.196 305.756C191.058 305.756 190.946 305.644 190.946 305.506V299.218C190.946 299.08 191.058 298.968 191.196 298.968ZM189.765 308.317C189.837 308.435 189.799 308.589 189.682 308.661L184.264 311.97C184.146 312.042 183.992 312.004 183.92 311.887C183.848 311.769 183.885 311.615 184.003 311.543L189.421 308.234C189.539 308.162 189.693 308.199 189.765 308.317ZM192.627 308.317C192.699 308.199 192.853 308.162 192.971 308.234L198.389 311.543C198.507 311.615 198.544 311.769 198.472 311.887C198.4 312.004 198.246 312.042 198.128 311.97L192.71 308.661C192.593 308.589 192.555 308.435 192.627 308.317Z" fill="white"/>
<path d="M191.195 309.449C191.708 309.449 192.2 309.246 192.563 308.883C192.926 308.52 193.13 308.028 193.13 307.514C193.13 307.001 192.926 306.509 192.563 306.146C192.2 305.783 191.708 305.579 191.195 305.579C190.682 305.579 190.189 305.783 189.827 306.146C189.464 306.509 189.26 307.001 189.26 307.514C189.26 308.028 189.464 308.52 189.827 308.883C190.189 309.246 190.682 309.449 191.195 309.449ZM199.902 314.771C200.415 314.771 200.908 314.567 201.27 314.204C201.633 313.841 201.837 313.349 201.837 312.836C201.837 312.322 201.633 311.83 201.27 311.467C200.908 311.104 200.415 310.901 199.902 310.901C199.389 310.901 198.897 311.104 198.534 311.467C198.171 311.83 197.967 312.322 197.967 312.836C197.967 313.349 198.171 313.841 198.534 314.204C198.897 314.567 199.389 314.771 199.902 314.771ZM182.487 314.771C183.001 314.771 183.493 314.567 183.856 314.204C184.219 313.841 184.422 313.349 184.422 312.836C184.422 312.322 184.219 311.83 183.856 311.467C183.493 311.104 183.001 310.901 182.487 310.901C181.974 310.901 181.482 311.104 181.119 311.467C180.756 311.83 180.552 312.322 180.552 312.836C180.552 313.349 180.756 313.841 181.119 314.204C181.482 314.567 181.974 314.771 182.487 314.771ZM191.195 299.291C191.708 299.291 192.2 299.087 192.563 298.724C192.926 298.361 193.13 297.869 193.13 297.356C193.13 296.843 192.926 296.351 192.563 295.988C192.2 295.625 191.708 295.421 191.195 295.421C190.682 295.421 190.189 295.625 189.827 295.988C189.464 296.351 189.26 296.843 189.26 297.356C189.26 297.869 189.464 298.361 189.827 298.724C190.189 299.087 190.682 299.291 191.195 299.291Z" fill="black"/>
<path fill-rule="evenodd" clip-rule="evenodd" d="M189.474 295.635C189.93 295.178 190.55 294.921 191.196 294.921C191.841 294.921 192.461 295.178 192.917 295.635C193.374 296.091 193.631 296.711 193.631 297.356C193.631 298.002 193.374 298.621 192.917 299.078C192.461 299.535 191.841 299.791 191.196 299.791C190.55 299.791 189.93 299.535 189.474 299.078C189.017 298.621 188.761 298.002 188.761 297.356C188.761 296.711 189.017 296.091 189.474 295.635ZM191.196 295.921C190.815 295.921 190.45 296.073 190.181 296.342C189.912 296.611 189.761 296.976 189.761 297.356C189.761 297.737 189.912 298.102 190.181 298.371C190.45 298.64 190.815 298.791 191.196 298.791C191.576 298.791 191.941 298.64 192.21 298.371C192.479 298.102 192.631 297.737 192.631 297.356C192.631 296.976 192.479 296.611 192.21 296.342C191.941 296.073 191.576 295.921 191.196 295.921ZM189.474 305.793C189.93 305.337 190.55 305.08 191.196 305.08C191.841 305.08 192.461 305.337 192.917 305.793C193.374 306.25 193.631 306.869 193.631 307.515C193.631 308.161 193.374 308.78 192.917 309.237C192.461 309.693 191.841 309.95 191.196 309.95C190.55 309.95 189.93 309.693 189.474 309.237C189.017 308.78 188.761 308.161 188.761 307.515C188.761 306.869 189.017 306.25 189.474 305.793ZM191.196 306.08C190.815 306.08 190.45 306.231 190.181 306.5C189.912 306.769 189.761 307.134 189.761 307.515C189.761 307.896 189.912 308.26 190.181 308.53C190.45 308.799 190.815 308.95 191.196 308.95C191.576 308.95 191.941 308.799 192.21 308.53C192.479 308.26 192.631 307.896 192.631 307.515C192.631 307.134 192.479 306.769 192.21 306.5C191.941 306.231 191.576 306.08 191.196 306.08ZM180.766 311.114C181.223 310.658 181.842 310.401 182.488 310.401C183.134 310.401 183.753 310.658 184.21 311.114C184.667 311.571 184.923 312.19 184.923 312.836C184.923 313.482 184.667 314.101 184.21 314.558C183.753 315.015 183.134 315.271 182.488 315.271C181.842 315.271 181.223 315.015 180.766 314.558C180.31 314.101 180.053 313.482 180.053 312.836C180.053 312.19 180.31 311.571 180.766 311.114ZM182.488 311.401C182.108 311.401 181.743 311.552 181.474 311.821C181.204 312.091 181.053 312.456 181.053 312.836C181.053 313.217 181.204 313.582 181.474 313.851C181.743 314.12 182.108 314.271 182.488 314.271C182.869 314.271 183.234 314.12 183.503 313.851C183.772 313.582 183.923 313.217 183.923 312.836C183.923 312.456 183.772 312.091 183.503 311.821C183.234 311.552 182.869 311.401 182.488 311.401ZM198.181 311.114C198.638 310.658 199.257 310.401 199.903 310.401C200.549 310.401 201.168 310.658 201.625 311.114C202.081 311.571 202.338 312.19 202.338 312.836C202.338 313.482 202.081 314.101 201.625 314.558C201.168 315.015 200.549 315.271 199.903 315.271C199.257 315.271 198.638 315.015 198.181 314.558C197.724 314.101 197.468 313.482 197.468 312.836C197.468 312.19 197.724 311.571 198.181 311.114ZM199.903 311.401C199.522 311.401 199.157 311.552 198.888 311.821C198.619 312.091 198.468 312.456 198.468 312.836C198.468 313.217 198.619 313.582 198.888 313.851C199.157 314.12 199.522 314.271 199.903 314.271C200.283 314.271 200.648 314.12 200.918 313.851C201.187 313.582 201.338 313.217 201.338 312.836C201.338 312.456 201.187 312.091 200.918 311.821C200.648 311.552 200.283 311.401 199.903 311.401Z" fill="#6772E5"/>
<path d="M222.414 312.098C226.082 312.098 228.204 309.823 228.204 306.061C228.204 302.316 226.082 300.059 222.538 300.059H218.517V312.098H222.414ZM220.333 310.511V301.646H222.426C225.06 301.646 226.417 303.222 226.417 306.061C226.417 308.912 225.06 310.511 222.314 310.511H220.333ZM234.214 312.28C236.183 312.28 237.576 311.31 237.976 309.841L236.312 309.541C235.995 310.393 235.231 310.828 234.231 310.828C232.726 310.828 231.715 309.853 231.668 308.113H238.088V307.489C238.088 304.227 236.136 302.951 234.09 302.951C231.574 302.951 229.917 304.868 229.917 307.642C229.917 310.446 231.551 312.28 234.214 312.28ZM231.674 306.796C231.745 305.514 232.674 304.403 234.102 304.403C235.466 304.403 236.359 305.414 236.365 306.796H231.674ZM247.487 303.069H245.6L243.319 310.017H243.225L240.939 303.069H239.052L242.332 312.098H244.213L247.487 303.069ZM252.707 312.28C254.676 312.28 256.07 311.31 256.469 309.841L254.806 309.541C254.488 310.393 253.724 310.828 252.725 310.828C251.22 310.828 250.209 309.853 250.162 308.113H256.581V307.489C256.581 304.227 254.629 302.951 252.584 302.951C250.068 302.951 248.41 304.868 248.41 307.642C248.41 310.446 250.044 312.28 252.707 312.28ZM250.168 306.796C250.238 305.514 251.167 304.403 252.595 304.403C253.959 304.403 254.853 305.414 254.859 306.796H250.168ZM260.289 300.059H258.531V312.098H260.289V300.059ZM266.457 312.28C269.002 312.28 270.666 310.417 270.666 307.625C270.666 304.815 269.002 302.951 266.457 302.951C263.911 302.951 262.248 304.815 262.248 307.625C262.248 310.417 263.911 312.28 266.457 312.28ZM266.463 310.805C264.799 310.805 264.023 309.353 264.023 307.619C264.023 305.891 264.799 304.421 266.463 304.421C268.114 304.421 268.89 305.891 268.89 307.619C268.89 309.353 268.114 310.805 266.463 310.805ZM272.627 315.484H274.385V310.693H274.491C274.808 311.269 275.455 312.274 277.101 312.274C279.288 312.274 280.875 310.523 280.875 307.601C280.875 304.674 279.264 302.951 277.083 302.951C275.408 302.951 274.802 303.974 274.491 304.533H274.344V303.069H272.627V315.484ZM274.35 307.584C274.35 305.697 275.173 304.444 276.707 304.444C278.3 304.444 279.1 305.791 279.1 307.584C279.1 309.394 278.277 310.776 276.707 310.776C275.196 310.776 274.35 309.482 274.35 307.584ZM288.336 315.484C289.788 315.484 290.705 314.726 291.228 313.303L294.961 303.087L293.062 303.069L290.776 310.076H290.681L288.395 303.069H286.514L289.817 312.216L289.6 312.815C289.153 314.015 288.524 314.114 287.56 313.85L287.137 315.29C287.348 315.384 287.807 315.484 288.336 315.484ZM300.097 312.28C302.643 312.28 304.306 310.417 304.306 307.625C304.306 304.815 302.643 302.951 300.097 302.951C297.552 302.951 295.888 304.815 295.888 307.625C295.888 310.417 297.552 312.28 300.097 312.28ZM300.103 310.805C298.44 310.805 297.664 309.353 297.664 307.619C297.664 305.891 298.44 304.421 300.103 304.421C301.755 304.421 302.531 305.891 302.531 307.619C302.531 309.353 301.755 310.805 300.103 310.805ZM311.988 308.354C311.994 309.888 310.853 310.617 309.866 310.617C308.778 310.617 308.026 309.829 308.026 308.601V303.069H306.268V308.812C306.268 311.052 307.497 312.216 309.231 312.216C310.589 312.216 311.512 311.499 311.929 310.534H312.023V312.098H313.751V303.069H311.988V308.354ZM316.113 312.098H317.871V306.584C317.871 305.403 318.782 304.55 320.028 304.55C320.392 304.55 320.804 304.615 320.945 304.656V302.975C320.769 302.951 320.422 302.934 320.198 302.934C319.14 302.934 318.235 303.533 317.906 304.503H317.812V303.069H316.113V312.098ZM364.621 312.098H371.893V310.534H366.438V300.059H364.621V312.098ZM373.824 312.098H375.582V303.069H373.824V312.098ZM374.712 301.676C375.317 301.676 375.823 301.205 375.823 300.629C375.823 300.053 375.317 299.577 374.712 299.577C374.1 299.577 373.601 300.053 373.601 300.629C373.601 301.205 374.1 301.676 374.712 301.676ZM382.161 303.069H380.309V300.906H378.552V303.069H377.229V304.48H378.552V309.811C378.546 311.452 379.798 312.245 381.185 312.216C381.744 312.21 382.12 312.104 382.326 312.028L382.008 310.576C381.891 310.599 381.673 310.652 381.391 310.652C380.821 310.652 380.309 310.464 380.309 309.447V304.48H382.161V303.069ZM384.105 312.098H385.863V306.531C385.863 305.314 386.715 304.468 387.715 304.468C388.69 304.468 389.367 305.115 389.367 306.096V312.098H391.118V306.343C391.118 305.256 391.783 304.468 392.929 304.468C393.858 304.468 394.622 304.985 394.622 306.208V312.098H396.379V306.043C396.379 303.98 395.227 302.951 393.593 302.951C392.294 302.951 391.318 303.574 390.883 304.539H390.789C390.395 303.551 389.566 302.951 388.361 302.951C387.168 302.951 386.28 303.545 385.904 304.539H385.792V303.069H384.105V312.098ZM404.455 308.354C404.461 309.888 403.32 310.617 402.333 310.617C401.245 310.617 400.493 309.829 400.493 308.601V303.069H398.735V308.812C398.735 311.052 399.964 312.216 401.698 312.216C403.056 312.216 403.979 311.499 404.396 310.534H404.49V312.098H406.218V303.069H404.455V308.354ZM415.346 305.273C414.982 303.868 413.882 302.951 411.931 302.951C409.891 302.951 408.445 304.027 408.445 305.626C408.445 306.908 409.221 307.76 410.914 308.136L412.442 308.471C413.312 308.665 413.718 309.053 413.718 309.617C413.718 310.317 412.971 310.864 411.819 310.864C410.767 310.864 410.091 310.411 409.879 309.523L408.18 309.782C408.474 311.381 409.803 312.28 411.831 312.28C414.012 312.28 415.522 311.122 415.522 309.488C415.522 308.213 414.711 307.425 413.053 307.043L411.619 306.714C410.626 306.478 410.197 306.143 410.202 305.532C410.197 304.838 410.949 304.345 411.948 304.345C413.042 304.345 413.547 304.95 413.753 305.555L415.346 305.273ZM423.793 312.098H425.58L427.414 305.579H427.55L429.384 312.098H431.177L433.828 303.069H432.011L430.254 309.67H430.165L428.402 303.069H426.586L424.81 309.7H424.722L422.953 303.069H421.136L423.793 312.098ZM439.024 312.28C441.57 312.28 443.233 310.417 443.233 307.625C443.233 304.815 441.57 302.951 439.024 302.951C436.479 302.951 434.815 304.815 434.815 307.625C434.815 310.417 436.479 312.28 439.024 312.28ZM439.03 310.805C437.367 310.805 436.591 309.353 436.591 307.619C436.591 305.891 437.367 304.421 439.03 304.421C440.682 304.421 441.458 305.891 441.458 307.619C441.458 309.353 440.682 310.805 439.03 310.805ZM445.195 312.098H446.953V306.584C446.953 305.403 447.864 304.55 449.11 304.55C449.475 304.55 449.886 304.615 450.027 304.656V302.975C449.851 302.951 449.504 302.934 449.281 302.934C448.222 302.934 447.317 303.533 446.988 304.503H446.894V303.069H445.195V312.098ZM451.548 312.098H453.306V308.894L454.182 308.019L457.25 312.098H459.408L455.504 306.943L459.161 303.069H457.056L453.459 306.89H453.306V300.059H451.548V312.098ZM465.06 303.069H463.114V302.258C463.114 301.458 463.443 301.023 464.301 301.023C464.666 301.023 464.924 301.106 465.089 301.158L465.501 299.736C465.254 299.642 464.742 299.495 464.031 299.495C462.602 299.495 461.35 300.33 461.35 302.023V303.069H459.957V304.48H461.35V312.098H463.114V304.48H465.06V303.069ZM468.631 300.059H466.873V312.098H468.631V300.059ZM474.799 312.28C477.344 312.28 479.008 310.417 479.008 307.625C479.008 304.815 477.344 302.951 474.799 302.951C472.253 302.951 470.59 304.815 470.59 307.625C470.59 310.417 472.253 312.28 474.799 312.28ZM474.805 310.805C473.141 310.805 472.365 309.353 472.365 307.619C472.365 305.891 473.141 304.421 474.805 304.421C476.456 304.421 477.232 305.891 477.232 307.619C477.232 309.353 476.456 310.805 474.805 310.805ZM482.652 312.098H484.439L486.273 305.579H486.408L488.243 312.098H490.035L492.687 303.069H490.87L489.113 309.67H489.024L487.261 303.069H485.444L483.669 309.7H483.581L481.812 303.069H479.995L482.652 312.098ZM501.121 305.273C500.756 303.868 499.657 302.951 497.705 302.951C495.665 302.951 494.219 304.027 494.219 305.626C494.219 306.908 494.995 307.76 496.688 308.136L498.217 308.471C499.087 308.665 499.492 309.053 499.492 309.617C499.492 310.317 498.746 310.864 497.594 310.864C496.541 310.864 495.865 310.411 495.654 309.523L493.955 309.782C494.249 311.381 495.577 312.28 497.605 312.28C499.786 312.28 501.297 311.122 501.297 309.488C501.297 308.213 500.486 307.425 498.828 307.043L497.394 306.714C496.4 306.478 495.971 306.143 495.977 305.532C495.971 304.838 496.724 304.345 497.723 304.345C498.816 304.345 499.322 304.95 499.528 305.555L501.121 305.273Z" fill="#1C0732"/>
<path d="M330.65 312.28C333.196 312.28 334.859 310.417 334.859 307.625C334.859 304.815 333.196 302.951 330.65 302.951C328.105 302.951 326.441 304.815 326.441 307.625C326.441 310.417 328.105 312.28 330.65 312.28ZM330.656 310.805C328.992 310.805 328.217 309.353 328.217 307.619C328.217 305.891 328.992 304.421 330.656 304.421C332.308 304.421 333.084 305.891 333.084 307.619C333.084 309.353 332.308 310.805 330.656 310.805ZM338.504 312.098H340.291L342.125 305.579H342.26L344.094 312.098H345.887L348.538 303.069H346.722L344.964 309.67H344.876L343.112 303.069H341.296L339.521 309.7H339.432L337.663 303.069H335.847L338.504 312.098ZM351.964 306.737C351.964 305.297 352.846 304.474 354.068 304.474C355.262 304.474 355.985 305.256 355.985 306.567V312.098H357.742V306.355C357.742 304.121 356.514 302.951 354.668 302.951C353.31 302.951 352.422 303.58 352.005 304.539H351.893V303.069H350.206V312.098H351.964V306.737Z" fill="#5B44BA"/>
<rect x="143" y="436.012" width="394" height="64" rx="5" fill="white"/>
<path d="M196.899 465.307H198.651C198.598 463.379 196.893 461.98 194.448 461.98C192.032 461.98 190.18 463.361 190.18 465.437C190.18 467.112 191.379 468.094 193.313 468.617L194.736 469.005C196.023 469.346 197.016 469.769 197.016 470.839C197.016 472.014 195.894 472.79 194.348 472.79C192.949 472.79 191.785 472.167 191.679 470.856H189.857C189.974 473.037 191.661 474.383 194.359 474.383C197.187 474.383 198.815 472.896 198.815 470.856C198.815 468.687 196.881 467.847 195.353 467.47L194.177 467.165C193.237 466.924 191.985 466.483 191.99 465.331C191.99 464.308 192.925 463.55 194.406 463.55C195.788 463.55 196.77 464.196 196.899 465.307ZM204.736 474.366C206.706 474.366 208.099 473.396 208.498 471.926L206.835 471.626C206.517 472.479 205.753 472.914 204.754 472.914C203.249 472.914 202.238 471.938 202.191 470.198H208.61V469.575C208.61 466.312 206.659 465.037 204.613 465.037C202.097 465.037 200.439 466.953 200.439 469.728C200.439 472.532 202.073 474.366 204.736 474.366ZM202.197 468.881C202.267 467.6 203.196 466.489 204.625 466.489C205.988 466.489 206.882 467.5 206.888 468.881H202.197ZM214.775 465.154H212.923V462.991H211.166V465.154H209.843V466.565H211.166V471.897C211.16 473.537 212.412 474.331 213.799 474.301C214.358 474.295 214.734 474.189 214.94 474.113L214.622 472.661C214.505 472.685 214.287 472.738 214.005 472.738C213.435 472.738 212.923 472.549 212.923 471.532V466.565H214.775V465.154ZM222.439 470.439C222.445 471.973 221.305 472.702 220.317 472.702C219.229 472.702 218.477 471.915 218.477 470.686V465.154H216.719V470.898C216.719 473.137 217.948 474.301 219.682 474.301C221.04 474.301 221.963 473.584 222.38 472.62H222.474V474.184H224.203V465.154H222.439V470.439ZM226.564 477.57H228.322V472.779H228.428C228.745 473.355 229.392 474.36 231.038 474.36C233.224 474.36 234.812 472.608 234.812 469.687C234.812 466.759 233.201 465.037 231.02 465.037C229.345 465.037 228.739 466.06 228.428 466.618H228.281V465.154H226.564V477.57ZM228.287 469.669C228.287 467.782 229.11 466.53 230.644 466.53C232.237 466.53 233.036 467.876 233.036 469.669C233.036 471.48 232.213 472.861 230.644 472.861C229.133 472.861 228.287 471.568 228.287 469.669Z" fill="#1C0732"/>
<g clip-path="url(#clip1)">
<path d="M250.922 453.012C250.922 452.747 250.817 452.493 250.629 452.305C250.441 452.118 250.187 452.012 249.922 452.012C249.657 452.012 249.402 452.118 249.215 452.305C249.027 452.493 248.922 452.747 248.922 453.012V454.012H246.922C245.861 454.012 244.844 454.434 244.093 455.184C243.343 455.934 242.922 456.951 242.922 458.012V460.012H274.922V458.012C274.922 456.951 274.5 455.934 273.75 455.184C273 454.434 271.983 454.012 270.922 454.012H268.922V453.012C268.922 452.747 268.817 452.493 268.629 452.305C268.441 452.118 268.187 452.012 267.922 452.012C267.657 452.012 267.402 452.118 267.215 452.305C267.027 452.493 266.922 452.747 266.922 453.012V454.012H250.922V453.012ZM274.922 480.012V462.012H242.922V480.012C242.922 481.073 243.343 482.09 244.093 482.841C244.844 483.591 245.861 484.012 246.922 484.012H270.922C271.983 484.012 273 483.591 273.75 482.841C274.5 482.09 274.922 481.073 274.922 480.012ZM261.922 466.012H263.922C264.187 466.012 264.441 466.118 264.629 466.305C264.817 466.493 264.922 466.747 264.922 467.012V469.012C264.922 469.277 264.817 469.532 264.629 469.719C264.441 469.907 264.187 470.012 263.922 470.012H261.922C261.657 470.012 261.402 469.907 261.215 469.719C261.027 469.532 260.922 469.277 260.922 469.012V467.012C260.922 466.747 261.027 466.493 261.215 466.305C261.402 466.118 261.657 466.012 261.922 466.012ZM267.922 466.012H269.922C270.187 466.012 270.441 466.118 270.629 466.305C270.817 466.493 270.922 466.747 270.922 467.012V469.012C270.922 469.277 270.817 469.532 270.629 469.719C270.441 469.907 270.187 470.012 269.922 470.012H267.922C267.657 470.012 267.402 469.907 267.215 469.719C267.027 469.532 266.922 469.277 266.922 469.012V467.012C266.922 466.747 267.027 466.493 267.215 466.305C267.402 466.118 267.657 466.012 267.922 466.012ZM246.922 473.012C246.922 472.747 247.027 472.493 247.215 472.305C247.402 472.118 247.657 472.012 247.922 472.012H249.922C250.187 472.012 250.441 472.118 250.629 472.305C250.817 472.493 250.922 472.747 250.922 473.012V475.012C250.922 475.277 250.817 475.532 250.629 475.719C250.441 475.907 250.187 476.012 249.922 476.012H247.922C247.657 476.012 247.402 475.907 247.215 475.719C247.027 475.532 246.922 475.277 246.922 475.012V473.012ZM253.922 472.012H255.922C256.187 472.012 256.441 472.118 256.629 472.305C256.817 472.493 256.922 472.747 256.922 473.012V475.012C256.922 475.277 256.817 475.532 256.629 475.719C256.441 475.907 256.187 476.012 255.922 476.012H253.922C253.657 476.012 253.402 475.907 253.215 475.719C253.027 475.532 252.922 475.277 252.922 475.012V473.012C252.922 472.747 253.027 472.493 253.215 472.305C253.402 472.118 253.657 472.012 253.922 472.012Z" fill="#5B44BA"/>
</g>
<path d="M290.337 465.307H292.088C292.035 463.379 290.331 461.98 287.885 461.98C285.469 461.98 283.618 463.361 283.618 465.437C283.618 467.112 284.817 468.094 286.751 468.617L288.173 469.005C289.461 469.346 290.454 469.769 290.454 470.839C290.454 472.014 289.331 472.79 287.785 472.79C286.386 472.79 285.222 472.167 285.117 470.856H283.294C283.412 473.037 285.099 474.383 287.797 474.383C290.625 474.383 292.253 472.896 292.253 470.856C292.253 468.687 290.319 467.847 288.791 467.47L287.615 467.165C286.674 466.924 285.422 466.483 285.428 465.331C285.428 464.308 286.363 463.55 287.844 463.55C289.226 463.55 290.207 464.196 290.337 465.307ZM298.086 474.366C300.22 474.366 301.601 473.084 301.795 471.327H300.084C299.861 472.303 299.103 472.879 298.098 472.879C296.61 472.879 295.652 471.638 295.652 469.669C295.652 467.735 296.628 466.518 298.098 466.518C299.214 466.518 299.896 467.224 300.084 468.07H301.795C301.607 466.248 300.12 465.037 298.068 465.037C295.523 465.037 293.877 466.953 293.877 469.71C293.877 472.432 295.464 474.366 298.086 474.366ZM305.432 468.822C305.432 467.382 306.343 466.559 307.596 466.559C308.807 466.559 309.53 467.329 309.53 468.652V474.184H311.287V468.44C311.287 466.189 310.053 465.037 308.195 465.037C306.79 465.037 305.944 465.648 305.521 466.624H305.409V462.145H303.675V474.184H305.432V468.822ZM317.524 474.366C319.493 474.366 320.887 473.396 321.286 471.926L319.623 471.626C319.305 472.479 318.541 472.914 317.542 472.914C316.037 472.914 315.026 471.938 314.979 470.198H321.398V469.575C321.398 466.312 319.446 465.037 317.401 465.037C314.885 465.037 313.227 466.953 313.227 469.728C313.227 472.532 314.861 474.366 317.524 474.366ZM314.985 468.881C315.055 467.6 315.984 466.489 317.413 466.489C318.776 466.489 319.67 467.5 319.676 468.881H314.985ZM326.728 474.36C328.374 474.36 329.021 473.355 329.338 472.779H329.485V474.184H331.202V462.145H329.444V466.618H329.338C329.021 466.06 328.421 465.037 326.74 465.037C324.559 465.037 322.954 466.759 322.954 469.687C322.954 472.608 324.536 474.36 326.728 474.36ZM327.116 472.861C325.547 472.861 324.73 471.48 324.73 469.669C324.73 467.876 325.529 466.53 327.116 466.53C328.651 466.53 329.473 467.782 329.473 469.669C329.473 471.568 328.633 472.861 327.116 472.861ZM339.43 470.439C339.436 471.973 338.295 472.702 337.308 472.702C336.22 472.702 335.468 471.915 335.468 470.686V465.154H333.71V470.898C333.71 473.137 334.939 474.301 336.673 474.301C338.031 474.301 338.954 473.584 339.371 472.62H339.465V474.184H341.194V465.154H339.43V470.439ZM345.313 462.145H343.555V474.184H345.313V462.145ZM351.569 474.366C353.538 474.366 354.931 473.396 355.331 471.926L353.667 471.626C353.35 472.479 352.586 472.914 351.587 472.914C350.082 472.914 349.071 471.938 349.024 470.198H355.443V469.575C355.443 466.312 353.491 465.037 351.445 465.037C348.93 465.037 347.272 466.953 347.272 469.728C347.272 472.532 348.906 474.366 351.569 474.366ZM349.029 468.881C349.1 467.6 350.029 466.489 351.457 466.489C352.821 466.489 353.715 467.5 353.72 468.881H349.029ZM364.159 467.359C363.795 465.954 362.695 465.037 360.744 465.037C358.704 465.037 357.258 466.113 357.258 467.711C357.258 468.993 358.034 469.845 359.727 470.222L361.255 470.557C362.125 470.751 362.531 471.139 362.531 471.703C362.531 472.402 361.784 472.949 360.632 472.949C359.58 472.949 358.904 472.496 358.692 471.609L356.993 471.868C357.287 473.466 358.616 474.366 360.644 474.366C362.825 474.366 364.335 473.208 364.335 471.574C364.335 470.298 363.524 469.51 361.866 469.128L360.432 468.799C359.439 468.564 359.009 468.229 359.015 467.617C359.009 466.924 359.762 466.43 360.761 466.43C361.855 466.43 362.36 467.035 362.566 467.641L364.159 467.359Z" fill="#5B44BA"/>
<path d="M377.597 474.366C380.143 474.366 381.806 472.502 381.806 469.71C381.806 466.9 380.143 465.037 377.597 465.037C375.052 465.037 373.388 466.9 373.388 469.71C373.388 472.502 375.052 474.366 377.597 474.366ZM377.603 472.89C375.939 472.89 375.164 471.438 375.164 469.704C375.164 467.976 375.939 466.506 377.603 466.506C379.255 466.506 380.031 467.976 380.031 469.704C380.031 471.438 379.255 472.89 377.603 472.89ZM383.768 474.184H385.526V468.67C385.526 467.488 386.437 466.636 387.683 466.636C388.047 466.636 388.459 466.7 388.6 466.742V465.06C388.424 465.037 388.077 465.019 387.854 465.019C386.795 465.019 385.89 465.619 385.561 466.589H385.467V465.154H383.768V474.184Z" fill="#1C0732"/>
<g clip-path="url(#clip2)">
<path d="M427.997 466.587L414.026 452.616C413.221 451.812 411.916 451.812 411.111 452.616L408.21 455.517L411.89 459.198C412.746 458.909 413.726 459.103 414.408 459.784C415.093 460.471 415.286 461.46 414.99 462.318L418.537 465.865C419.395 465.569 420.385 465.76 421.07 466.447C422.028 467.404 422.028 468.956 421.07 469.914C420.112 470.873 418.56 470.873 417.602 469.914C416.881 469.193 416.703 468.135 417.068 467.247L413.76 463.94L413.76 472.644C413.999 472.763 414.218 472.919 414.408 473.108C415.366 474.065 415.366 475.617 414.408 476.576C413.45 477.534 411.897 477.534 410.941 476.576C409.983 475.617 409.983 474.066 410.941 473.108C411.17 472.878 411.443 472.696 411.743 472.573V463.787C411.443 463.664 411.17 463.482 410.941 463.252C410.215 462.527 410.04 461.462 410.412 460.571L406.784 456.943L397.204 466.522C396.399 467.328 396.399 468.633 397.204 469.438L411.176 483.409C411.98 484.213 413.285 484.213 414.091 483.409L427.997 469.502C428.802 468.697 428.802 467.392 427.997 466.587" fill="#DE4C36"/>
</g>
<path d="M445.313 465.948H447.176C446.771 463.602 444.766 461.98 442.168 461.98C439.052 461.98 436.777 464.326 436.777 468.17C436.777 471.979 438.988 474.348 442.25 474.348C445.172 474.348 447.259 472.432 447.259 469.393V468.023H442.527V469.522H445.501C445.46 471.462 444.178 472.69 442.25 472.69C440.128 472.69 438.582 471.086 438.582 468.158C438.582 465.243 440.14 463.638 442.18 463.638C443.779 463.638 444.86 464.52 445.313 465.948ZM449.989 474.184H451.747V465.154H449.989V474.184ZM450.877 463.761C451.482 463.761 451.988 463.291 451.988 462.715C451.988 462.139 451.482 461.663 450.877 461.663C450.265 461.663 449.766 462.139 449.766 462.715C449.766 463.291 450.265 463.761 450.877 463.761ZM458.326 465.154H456.474V462.991H454.717V465.154H453.394V466.565H454.717V471.897C454.711 473.537 455.963 474.331 457.35 474.301C457.909 474.295 458.285 474.189 458.491 474.113L458.173 472.661C458.056 472.685 457.838 472.738 457.556 472.738C456.986 472.738 456.474 472.549 456.474 471.532V466.565H458.326V465.154ZM470.869 468.164C470.869 464.314 468.565 461.98 465.449 461.98C462.322 461.98 460.024 464.314 460.024 468.164C460.024 472.009 462.322 474.348 465.449 474.348C468.565 474.348 470.869 472.014 470.869 468.164ZM469.07 468.164C469.07 471.097 467.518 472.69 465.449 472.69C463.374 472.69 461.828 471.097 461.828 468.164C461.828 465.231 463.374 463.638 465.449 463.638C467.518 463.638 469.07 465.231 469.07 468.164ZM472.993 477.57H474.75V472.779H474.856C475.174 473.355 475.82 474.36 477.466 474.36C479.653 474.36 481.24 472.608 481.24 469.687C481.24 466.759 479.629 465.037 477.449 465.037C475.773 465.037 475.168 466.06 474.856 466.618H474.709V465.154H472.993V477.57ZM474.715 469.669C474.715 467.782 475.538 466.53 477.072 466.53C478.665 466.53 479.465 467.876 479.465 469.669C479.465 471.48 478.642 472.861 477.072 472.861C475.562 472.861 474.715 471.568 474.715 469.669ZM489.975 467.359C489.611 465.954 488.512 465.037 486.56 465.037C484.52 465.037 483.074 466.113 483.074 467.711C483.074 468.993 483.85 469.845 485.543 470.222L487.072 470.557C487.942 470.751 488.347 471.139 488.347 471.703C488.347 472.402 487.601 472.949 486.448 472.949C485.396 472.949 484.72 472.496 484.509 471.609L482.81 471.868C483.104 473.466 484.432 474.366 486.46 474.366C488.641 474.366 490.152 473.208 490.152 471.574C490.152 470.298 489.341 469.51 487.683 469.128L486.249 468.799C485.255 468.564 484.826 468.229 484.832 467.617C484.826 466.924 485.578 466.43 486.578 466.43C487.671 466.43 488.177 467.035 488.382 467.641L489.975 467.359Z" fill="#DE4C36"/>
<path d="M345 273.927L345 176.005L335 176.005L335 273.927L345 273.927Z" fill="url(#paint2_linear)" fill-opacity="0.5"/>
<rect x="143" y="112.012" width="394" height="64" rx="5" fill="white"/>
<path d="M231.161 134.613V142.403L237.046 136.518C236.591 135.829 236.408 134.995 236.532 134.178C236.656 133.362 237.079 132.62 237.719 132.098C238.359 131.575 239.17 131.309 239.995 131.351C240.82 131.392 241.6 131.739 242.184 132.323C242.768 132.907 243.115 133.687 243.156 134.512C243.198 135.337 242.932 136.148 242.409 136.788C241.887 137.428 241.145 137.851 240.329 137.975C239.512 138.099 238.678 137.916 237.989 137.461L232.104 143.346H239.894C240.06 142.536 240.519 141.817 241.185 141.328C241.85 140.838 242.674 140.613 243.495 140.696C244.317 140.779 245.079 141.164 245.633 141.777C246.187 142.39 246.494 143.186 246.494 144.013C246.494 144.839 246.187 145.635 245.633 146.248C245.079 146.861 244.317 147.246 243.495 147.329C242.674 147.412 241.85 147.187 241.185 146.697C240.519 146.208 240.06 145.489 239.894 144.679H232.104L237.989 150.565C238.678 150.109 239.512 149.926 240.329 150.05C241.145 150.174 241.887 150.597 242.409 151.237C242.932 151.877 243.198 152.688 243.156 153.513C243.115 154.338 242.768 155.118 242.184 155.702C241.6 156.286 240.82 156.633 239.995 156.674C239.17 156.716 238.359 156.45 237.719 155.927C237.079 155.405 236.656 154.663 236.532 153.847C236.408 153.03 236.591 152.196 237.046 151.507L231.161 145.622V153.413C231.97 153.578 232.69 154.038 233.179 154.703C233.669 155.368 233.894 156.192 233.811 157.014C233.728 157.835 233.343 158.597 232.73 159.151C232.117 159.705 231.32 160.012 230.494 160.012C229.668 160.012 228.872 159.705 228.259 159.151C227.646 158.597 227.261 157.835 227.178 157.014C227.095 156.192 227.32 155.368 227.81 154.703C228.299 154.038 229.018 153.578 229.828 153.413V145.622L223.942 151.507C224.398 152.196 224.581 153.03 224.457 153.847C224.333 154.663 223.91 155.405 223.27 155.927C222.63 156.45 221.819 156.716 220.994 156.674C220.169 156.633 219.389 156.286 218.805 155.702C218.221 155.118 217.874 154.338 217.833 153.513C217.791 152.688 218.057 151.877 218.58 151.237C219.102 150.597 219.844 150.174 220.66 150.05C221.477 149.926 222.311 150.109 223 150.565L228.885 144.679H221.094C220.929 145.489 220.469 146.208 219.804 146.697C219.139 147.187 218.315 147.412 217.493 147.329C216.672 147.246 215.91 146.861 215.356 146.248C214.802 145.635 214.495 144.839 214.495 144.013C214.495 143.186 214.802 142.39 215.356 141.777C215.91 141.164 216.672 140.779 217.493 140.696C218.315 140.613 219.139 140.838 219.804 141.328C220.469 141.817 220.929 142.536 221.094 143.346H228.885L223 137.461C222.311 137.916 221.477 138.099 220.66 137.975C219.844 137.851 219.102 137.428 218.58 136.788C218.057 136.148 217.791 135.337 217.833 134.512C217.874 133.687 218.221 132.907 218.805 132.323C219.389 131.739 220.169 131.392 220.994 131.351C221.819 131.309 222.63 131.575 223.27 132.098C223.91 132.62 224.333 133.362 224.457 134.178C224.581 134.995 224.398 135.829 223.942 136.518L229.828 142.403V134.613C229.018 134.447 228.299 133.987 227.81 133.322C227.32 132.657 227.095 131.833 227.178 131.011C227.261 130.19 227.646 129.428 228.259 128.874C228.872 128.32 229.668 128.013 230.494 128.013C231.32 128.013 232.117 128.32 232.73 128.874C233.343 129.428 233.728 130.19 233.811 131.011C233.894 131.833 233.669 132.657 233.179 133.322C232.69 133.987 231.97 134.447 231.161 134.613Z" fill="#87BBFD"/>
<path d="M230.494 148.012C232.703 148.012 234.494 146.221 234.494 144.012C234.494 141.803 232.703 140.012 230.494 140.012C228.285 140.012 226.494 141.803 226.494 144.012C226.494 146.221 228.285 148.012 230.494 148.012Z" fill="#6772E5"/>
<path d="M243.649 149.059H243.648H242.031V147.916C242.031 147.087 241.701 146.291 241.115 145.705C240.529 145.119 239.733 144.789 238.904 144.789C238.075 144.789 237.28 145.119 236.694 145.705C236.107 146.291 235.778 147.087 235.778 147.916V149.059L234.16 149.059L234.16 149.059C233.771 149.059 233.399 149.214 233.124 149.488C232.849 149.763 232.695 150.136 232.694 150.524V150.525L232.694 157.166L232.694 157.167C232.695 157.555 232.849 157.928 233.124 158.202C233.399 158.477 233.771 158.632 234.16 158.632H234.16H243.648H243.649C244.037 158.632 244.41 158.477 244.684 158.202C244.959 157.928 245.114 157.555 245.114 157.167V157.166V150.525V150.524C245.114 150.136 244.959 149.763 244.684 149.488C244.41 149.214 244.037 149.059 243.649 149.059ZM238.724 153.92L238.246 154.118L238.724 153.92C238.71 153.884 238.706 153.845 238.713 153.808C238.721 153.77 238.739 153.735 238.767 153.708C238.794 153.681 238.828 153.662 238.866 153.655C238.904 153.647 238.943 153.651 238.978 153.666C239.014 153.681 239.044 153.706 239.065 153.738C239.087 153.769 239.098 153.807 239.098 153.845C239.098 153.871 239.093 153.896 239.083 153.92C239.074 153.943 239.059 153.965 239.041 153.983C239.023 154.001 239.002 154.015 238.978 154.025C238.955 154.035 238.929 154.04 238.904 154.04C238.865 154.04 238.828 154.028 238.796 154.007C238.764 153.986 238.739 153.955 238.724 153.92ZM240.047 149.059H237.761V147.916C237.761 147.613 237.882 147.322 238.096 147.107L237.73 146.742L238.096 147.107C238.31 146.893 238.601 146.773 238.904 146.773C239.207 146.773 239.498 146.893 239.712 147.107C239.927 147.322 240.047 147.613 240.047 147.916V149.059Z" fill="#6772E5" stroke="white" stroke-width="1.0346"/>
<path d="M267.003 141.307H268.755C268.702 139.379 266.997 137.98 264.552 137.98C262.136 137.98 260.284 139.361 260.284 141.437C260.284 143.112 261.483 144.094 263.417 144.617L264.84 145.005C266.127 145.346 267.12 145.769 267.12 146.839C267.12 148.014 265.998 148.79 264.452 148.79C263.053 148.79 261.889 148.167 261.783 146.856H259.961C260.078 149.037 261.765 150.383 264.463 150.383C267.291 150.383 268.919 148.896 268.919 146.856C268.919 144.687 266.985 143.847 265.457 143.47L264.281 143.165C263.341 142.924 262.089 142.483 262.094 141.331C262.094 140.308 263.029 139.55 264.51 139.55C265.892 139.55 266.874 140.196 267.003 141.307ZM274.84 150.366C276.81 150.366 278.203 149.396 278.602 147.926L276.939 147.626C276.621 148.479 275.857 148.914 274.858 148.914C273.353 148.914 272.342 147.938 272.295 146.198H278.714V145.575C278.714 142.312 276.762 141.037 274.717 141.037C272.201 141.037 270.543 142.953 270.543 145.728C270.543 148.532 272.177 150.366 274.84 150.366ZM272.301 144.881C272.371 143.6 273.3 142.489 274.729 142.489C276.092 142.489 276.986 143.5 276.992 144.881H272.301ZM284.879 141.154H283.027V138.991H281.27V141.154H279.947V142.565H281.27V147.897C281.264 149.537 282.516 150.331 283.903 150.301C284.462 150.295 284.838 150.189 285.044 150.113L284.726 148.661C284.609 148.685 284.391 148.738 284.109 148.738C283.539 148.738 283.027 148.549 283.027 147.532V142.565H284.879V141.154ZM296.924 146.439C296.93 147.973 295.789 148.702 294.802 148.702C293.714 148.702 292.962 147.915 292.962 146.686V141.154H291.204V146.898C291.204 149.137 292.433 150.301 294.167 150.301C295.525 150.301 296.448 149.584 296.865 148.62H296.959V150.184H298.687V141.154H296.924V146.439ZM301.049 153.57H302.807V148.779H302.913C303.23 149.355 303.877 150.36 305.523 150.36C307.709 150.36 309.296 148.608 309.296 145.687C309.296 142.759 307.686 141.037 305.505 141.037C303.83 141.037 303.224 142.06 302.913 142.618H302.766V141.154H301.049V153.57ZM302.771 145.669C302.771 143.782 303.594 142.53 305.129 142.53C306.722 142.53 307.521 143.876 307.521 145.669C307.521 147.48 306.698 148.861 305.129 148.861C303.618 148.861 302.771 147.568 302.771 145.669Z" fill="#1C0732"/>
<path d="M315.647 153.57H317.404V148.779H317.51C317.827 149.355 318.474 150.36 320.12 150.36C322.307 150.36 323.894 148.608 323.894 145.687C323.894 142.759 322.283 141.037 320.102 141.037C318.427 141.037 317.822 142.06 317.51 142.618H317.363V141.154H315.647V153.57ZM317.369 145.669C317.369 143.782 318.192 142.53 319.726 142.53C321.319 142.53 322.119 143.876 322.119 145.669C322.119 147.48 321.296 148.861 319.726 148.861C318.215 148.861 317.369 147.568 317.369 145.669ZM325.863 150.184H327.621V144.67C327.621 143.488 328.532 142.636 329.778 142.636C330.143 142.636 330.554 142.7 330.695 142.742V141.06C330.519 141.037 330.172 141.019 329.949 141.019C328.891 141.019 327.985 141.619 327.656 142.589H327.562V141.154H325.863V150.184ZM332.216 150.184H333.974V141.154H332.216V150.184ZM333.104 139.761C333.709 139.761 334.215 139.291 334.215 138.715C334.215 138.139 333.709 137.663 333.104 137.663C332.493 137.663 331.993 138.139 331.993 138.715C331.993 139.291 332.493 139.761 333.104 139.761ZM344.063 141.154H342.176L339.895 148.103H339.801L337.514 141.154H335.627L338.907 150.184H340.788L344.063 141.154ZM348.067 150.383C349.561 150.383 350.401 149.625 350.736 148.949H350.807V150.184H352.523V144.188C352.523 141.56 350.454 141.037 349.02 141.037C347.386 141.037 345.881 141.695 345.293 143.341L346.945 143.717C347.203 143.077 347.862 142.459 349.043 142.459C350.178 142.459 350.76 143.053 350.76 144.076V144.117C350.76 144.758 350.101 144.746 348.479 144.934C346.768 145.134 345.017 145.581 345.017 147.632C345.017 149.408 346.351 150.383 348.067 150.383ZM348.45 148.973C347.456 148.973 346.739 148.526 346.739 147.656C346.739 146.715 347.574 146.38 348.591 146.245C349.161 146.169 350.513 146.016 350.766 145.763V146.927C350.766 147.997 349.913 148.973 348.45 148.973ZM359.079 141.154H357.227V138.991H355.47V141.154H354.147V142.565H355.47V147.897C355.464 149.537 356.716 150.331 358.103 150.301C358.662 150.295 359.038 150.189 359.244 150.113L358.926 148.661C358.809 148.685 358.591 148.738 358.309 148.738C357.739 148.738 357.227 148.549 357.227 147.532V142.565H359.079V141.154ZM364.818 150.366C366.787 150.366 368.18 149.396 368.58 147.926L366.916 147.626C366.599 148.479 365.835 148.914 364.836 148.914C363.331 148.914 362.32 147.938 362.273 146.198H368.692V145.575C368.692 142.312 366.74 141.037 364.694 141.037C362.178 141.037 360.521 142.953 360.521 145.728C360.521 148.532 362.155 150.366 364.818 150.366ZM362.278 144.881C362.349 143.6 363.278 142.489 364.706 142.489C366.07 142.489 366.964 143.5 366.969 144.881H362.278ZM378.826 150.366C380.96 150.366 382.341 149.084 382.535 147.327H380.825C380.601 148.303 379.843 148.879 378.838 148.879C377.351 148.879 376.392 147.638 376.392 145.669C376.392 143.735 377.368 142.518 378.838 142.518C379.955 142.518 380.637 143.224 380.825 144.07H382.535C382.347 142.248 380.86 141.037 378.808 141.037C376.263 141.037 374.617 142.953 374.617 145.71C374.617 148.432 376.204 150.366 378.826 150.366ZM386.173 144.822C386.173 143.382 387.084 142.559 388.336 142.559C389.547 142.559 390.27 143.329 390.27 144.652V150.184H392.028V144.44C392.028 142.189 390.793 141.037 388.935 141.037C387.531 141.037 386.684 141.648 386.261 142.624H386.149V138.145H384.415V150.184H386.173V144.822ZM397.001 150.383C398.494 150.383 399.334 149.625 399.669 148.949H399.74V150.184H401.456V144.188C401.456 141.56 399.387 141.037 397.953 141.037C396.319 141.037 394.814 141.695 394.226 143.341L395.878 143.717C396.137 143.077 396.795 142.459 397.976 142.459C399.111 142.459 399.693 143.053 399.693 144.076V144.117C399.693 144.758 399.035 144.746 397.412 144.934C395.702 145.134 393.95 145.581 393.95 147.632C393.95 149.408 395.284 150.383 397.001 150.383ZM397.383 148.973C396.389 148.973 395.672 148.526 395.672 147.656C395.672 146.715 396.507 146.38 397.524 146.245C398.094 146.169 399.446 146.016 399.699 145.763V146.927C399.699 147.997 398.846 148.973 397.383 148.973ZM407.601 150.366C410.146 150.366 411.81 148.502 411.81 145.71C411.81 142.9 410.146 141.037 407.601 141.037C405.056 141.037 403.392 142.9 403.392 145.71C403.392 148.502 405.056 150.366 407.601 150.366ZM407.607 148.89C405.943 148.89 405.167 147.438 405.167 145.704C405.167 143.976 405.943 142.506 407.607 142.506C409.259 142.506 410.034 143.976 410.034 145.704C410.034 147.438 409.259 148.89 407.607 148.89ZM420.538 143.359C420.173 141.954 419.074 141.037 417.122 141.037C415.083 141.037 413.636 142.113 413.636 143.711C413.636 144.993 414.412 145.845 416.105 146.222L417.634 146.557C418.504 146.751 418.909 147.139 418.909 147.703C418.909 148.402 418.163 148.949 417.011 148.949C415.958 148.949 415.282 148.496 415.071 147.609L413.372 147.868C413.666 149.466 414.994 150.366 417.022 150.366C419.203 150.366 420.714 149.208 420.714 147.574C420.714 146.298 419.903 145.51 418.245 145.128L416.811 144.799C415.817 144.564 415.388 144.229 415.394 143.617C415.388 142.924 416.141 142.43 417.14 142.43C418.233 142.43 418.739 143.035 418.945 143.641L420.538 143.359ZM428.785 144.822C428.785 143.382 429.696 142.559 430.948 142.559C432.159 142.559 432.882 143.329 432.882 144.652V150.184H434.64V144.44C434.64 142.189 433.406 141.037 431.548 141.037C430.143 141.037 429.297 141.648 428.873 142.624H428.762V138.145H427.027V150.184H428.785V144.822ZM442.705 146.439C442.711 147.973 441.571 148.702 440.583 148.702C439.496 148.702 438.743 147.915 438.743 146.686V141.154H436.985V146.898C436.985 149.137 438.214 150.301 439.948 150.301C441.306 150.301 442.229 149.584 442.646 148.62H442.74V150.184H444.469V141.154H442.705V146.439ZM446.971 150.184H448.688V148.779H448.835C449.152 149.355 449.799 150.36 451.445 150.36C453.632 150.36 455.219 148.608 455.219 145.687C455.219 142.759 453.608 141.037 451.427 141.037C449.752 141.037 449.146 142.06 448.835 142.618H448.729V138.145H446.971V150.184ZM448.694 145.669C448.694 143.782 449.517 142.53 451.051 142.53C452.644 142.53 453.443 143.876 453.443 145.669C453.443 147.48 452.621 148.861 451.051 148.861C449.54 148.861 448.694 147.568 448.694 145.669ZM463.958 143.359C463.594 141.954 462.495 141.037 460.543 141.037C458.503 141.037 457.057 142.113 457.057 143.711C457.057 144.993 457.833 145.845 459.526 146.222L461.055 146.557C461.925 146.751 462.33 147.139 462.33 147.703C462.33 148.402 461.584 148.949 460.431 148.949C459.379 148.949 458.703 148.496 458.492 147.609L456.793 147.868C457.087 149.466 458.415 150.366 460.443 150.366C462.624 150.366 464.135 149.208 464.135 147.574C464.135 146.298 463.324 145.51 461.666 145.128L460.232 144.799C459.238 144.564 458.809 144.229 458.815 143.617C458.809 142.924 459.561 142.43 460.561 142.43C461.654 142.43 462.16 143.035 462.365 143.641L463.958 143.359Z" fill="#5B44BA"/>
<circle cx="340" cy="183.32" r="1.00986" fill="white"/>
<circle cx="340" cy="190.34" r="1.00986" fill="white"/>
<circle cx="340" cy="197.36" r="1.00986" fill="white"/>
<circle cx="340" cy="204.379" r="1.00986" fill="white"/>
<circle cx="340" cy="211.4" r="1.00986" fill="white"/>
<circle cx="340" cy="218.419" r="1.00986" fill="white"/>
<circle cx="340" cy="225.439" r="1.00986" fill="white"/>
<circle cx="340" cy="232.459" r="1.00986" fill="white"/>
<circle cx="340" cy="239.478" r="1.00986" fill="white"/>
<circle cx="340" cy="246.498" r="1.00986" fill="white"/>
<circle cx="340" cy="253.518" r="1.00986" fill="white"/>
<circle cx="340" cy="260.537" r="1.00986" fill="white"/>
<circle cx="340" cy="267.557" r="1.00986" fill="white"/>
<path d="M345 435.849L345 337.927L335 337.927L335 435.849L345 435.849Z" fill="url(#paint3_linear)" fill-opacity="0.5"/>
<circle cx="340" cy="345.242" r="1.00986" fill="white"/>
<circle cx="340" cy="352.262" r="1.00986" fill="white"/>
<circle cx="340" cy="359.282" r="1.00986" fill="white"/>
<circle cx="340" cy="366.301" r="1.00986" fill="white"/>
<circle cx="340" cy="373.321" r="1.00986" fill="white"/>
<circle cx="340" cy="380.341" r="1.00986" fill="white"/>
<circle cx="340" cy="387.36" r="1.00986" fill="white"/>
<circle cx="340" cy="394.38" r="1.00986" fill="white"/>
<circle cx="340" cy="401.4" r="1.00986" fill="white"/>
<circle cx="340" cy="408.42" r="1.00986" fill="white"/>
<circle cx="340" cy="415.44" r="1.00986" fill="white"/>
<circle cx="340" cy="422.459" r="1.00986" fill="white"/>
<circle cx="340" cy="429.479" r="1.00986" fill="white"/>
<defs>
<radialGradient id="paint0_radial" cx="0" cy="0" r="1" gradientUnits="userSpaceOnUse" gradientTransform="translate(-7.30452e-06 667.387) rotate(-16.7725) scale(239.005 201.054)">
<stop stop-color="#A93DDB"/>
<stop offset="1" stop-color="#A93DDB" stop-opacity="0"/>
</radialGradient>
<linearGradient id="paint1_linear" x1="340" y1="564.122" x2="340" y2="499.849" gradientUnits="userSpaceOnUse">
<stop stop-color="#CEC7EB"/>
<stop offset="1" stop-color="white" stop-opacity="0"/>
</linearGradient>
<linearGradient id="paint2_linear" x1="340" y1="240.278" x2="340" y2="176.005" gradientUnits="userSpaceOnUse">
<stop stop-color="#CEC7EB"/>
<stop offset="1" stop-color="white" stop-opacity="0"/>
</linearGradient>
<linearGradient id="paint3_linear" x1="340" y1="402.2" x2="340" y2="337.927" gradientUnits="userSpaceOnUse">
<stop stop-color="#CEC7EB"/>
<stop offset="1" stop-color="white" stop-opacity="0"/>
</linearGradient>
<clipPath id="clip0">
<rect width="32" height="32" fill="white" transform="translate(281.316 614.012)"/>
</clipPath>
<clipPath id="clip1">
<rect width="32" height="32" fill="white" transform="translate(242.922 452.012)"/>
</clipPath>
<clipPath id="clip2">
<rect width="32" height="32" fill="white" transform="translate(396.601 452.012)"/>
</clipPath>
</defs>
</svg>
