<svg width="394" height="551" viewBox="0 0 394 551" fill="none" xmlns="http://www.w3.org/2000/svg">
<path d="M202 485.771L202 387.849L192 387.849L192 485.771L202 485.771Z" fill="url(#paint0_linear)" fill-opacity="0.5"/>
<circle cx="197" cy="395.164" r="1.00986" fill="white"/>
<circle cx="197" cy="402.184" r="1.00986" fill="white"/>
<circle cx="197" cy="409.204" r="1.00986" fill="white"/>
<circle cx="197" cy="416.223" r="1.00986" fill="white"/>
<circle cx="197" cy="423.243" r="1.00986" fill="white"/>
<circle cx="197" cy="430.263" r="1.00986" fill="white"/>
<circle cx="197" cy="437.282" r="1.00986" fill="white"/>
<circle cx="197" cy="444.302" r="1.00986" fill="white"/>
<circle cx="197" cy="451.322" r="1.00986" fill="white"/>
<circle cx="197" cy="458.341" r="1.00986" fill="white"/>
<circle cx="197" cy="465.361" r="1.00986" fill="white"/>
<circle cx="197" cy="472.381" r="1.00986" fill="white"/>
<circle cx="197" cy="479.401" r="1.00986" fill="white"/>
<rect y="486.012" width="394" height="64" rx="5" fill="white"/>
<g clip-path="url(#clip0)">
<path d="M142.16 519.488C142.098 518.973 142.066 518.462 142.066 518.012C142.066 511.3 147.604 505.762 154.316 505.762C157.447 505.762 160.379 507.025 162.535 508.993L161.454 510.094C161.21 510.337 161.116 510.693 161.21 511.031C161.323 511.35 161.585 511.594 161.922 511.668C162.111 511.706 168.311 513.704 167.916 513.625C168.418 513.792 169.161 513.256 169.022 512.519C168.984 512.33 167.612 505.443 167.691 505.837C167.616 505.5 167.372 505.219 167.035 505.125C166.716 505.031 166.36 505.125 166.116 505.368L165.198 506.268C162.366 503.625 158.479 502.012 154.316 502.012C145.522 502.012 138.316 509.219 138.316 518.012V518.05C138.316 518.578 138.34 518.987 138.368 519.299C138.406 519.713 138.711 520.052 139.119 520.134L141.045 520.519C141.672 520.645 142.235 520.119 142.16 519.488Z" fill="#0098DD"/>
<path d="M169.52 515.889L167.588 515.495C166.96 515.367 166.393 515.894 166.47 516.528C166.537 517.075 166.567 517.607 166.567 518.012C166.567 524.725 161.029 530.262 154.317 530.262C151.186 530.262 148.254 529 146.098 527.012L147.179 525.931C147.423 525.687 147.517 525.331 147.423 524.993C147.31 524.675 147.048 524.431 146.71 524.356C146.522 524.318 140.322 522.32 140.717 522.4C140.398 522.344 140.079 522.437 139.873 522.662C139.648 522.868 139.554 523.206 139.61 523.506C139.648 523.695 141.021 530.519 140.942 530.125C141.017 530.462 141.261 530.743 141.598 530.837C141.989 530.935 142.316 530.816 142.517 530.593L143.417 529.693C146.248 532.337 150.136 534.012 154.317 534.012C163.11 534.012 170.317 526.806 170.317 518.012V517.956C170.317 517.54 170.302 517.132 170.267 516.727C170.231 516.313 169.927 515.972 169.52 515.889Z" fill="#0098DD"/>
</g>
<path d="M179.898 524.184L181.003 520.998H185.706L186.805 524.184H188.733L184.401 512.145H182.302L177.97 524.184H179.898ZM181.532 519.469L183.307 514.331H183.401L185.177 519.469H181.532ZM196.05 520.439C196.056 521.973 194.916 522.702 193.928 522.702C192.841 522.702 192.088 521.915 192.088 520.686V515.154H190.331V520.898C190.331 523.137 191.559 524.301 193.293 524.301C194.651 524.301 195.574 523.584 195.992 522.62H196.086V524.184H197.814V515.154H196.05V520.439ZM204.39 515.154H202.539V512.991H200.781V515.154H199.458V516.565H200.781V521.897C200.775 523.537 202.027 524.331 203.414 524.301C203.973 524.295 204.349 524.189 204.555 524.113L204.237 522.661C204.12 522.685 203.902 522.738 203.62 522.738C203.05 522.738 202.539 522.549 202.539 521.532V516.565H204.39V515.154ZM210.041 524.366C212.586 524.366 214.25 522.502 214.25 519.71C214.25 516.9 212.586 515.037 210.041 515.037C207.496 515.037 205.832 516.9 205.832 519.71C205.832 522.502 207.496 524.366 210.041 524.366ZM210.047 522.89C208.383 522.89 207.607 521.438 207.607 519.704C207.607 517.976 208.383 516.506 210.047 516.506C211.699 516.506 212.475 517.976 212.475 519.704C212.475 521.438 211.699 522.89 210.047 522.89ZM216.212 524.184H217.969V518.617C217.969 517.4 218.822 516.553 219.821 516.553C220.797 516.553 221.473 517.2 221.473 518.182V524.184H223.225V518.429C223.225 517.341 223.889 516.553 225.035 516.553C225.964 516.553 226.728 517.071 226.728 518.293V524.184H228.486V518.129C228.486 516.066 227.334 515.037 225.699 515.037C224.4 515.037 223.425 515.66 222.99 516.624H222.895C222.502 515.636 221.673 515.037 220.468 515.037C219.274 515.037 218.387 515.631 218.011 516.624H217.899V515.154H216.212V524.184ZM233.469 524.383C234.962 524.383 235.803 523.625 236.138 522.949H236.209V524.184H237.925V518.188C237.925 515.56 235.856 515.037 234.422 515.037C232.787 515.037 231.282 515.695 230.695 517.341L232.346 517.717C232.605 517.077 233.263 516.459 234.445 516.459C235.58 516.459 236.162 517.053 236.162 518.076V518.117C236.162 518.758 235.503 518.746 233.881 518.934C232.17 519.134 230.418 519.581 230.418 521.632C230.418 523.408 231.753 524.383 233.469 524.383ZM233.851 522.973C232.858 522.973 232.141 522.526 232.141 521.656C232.141 520.715 232.975 520.38 233.992 520.245C234.563 520.169 235.915 520.016 236.167 519.763V520.927C236.167 521.997 235.315 522.973 233.851 522.973ZM244.481 515.154H242.629V512.991H240.872V515.154H239.549V516.565H240.872V521.897C240.866 523.537 242.118 524.331 243.505 524.301C244.064 524.295 244.44 524.189 244.646 524.113L244.328 522.661C244.211 522.685 243.993 522.738 243.711 522.738C243.141 522.738 242.629 522.549 242.629 521.532V516.565H244.481V515.154ZM250.22 524.366C252.189 524.366 253.582 523.396 253.982 521.926L252.318 521.626C252.001 522.479 251.237 522.914 250.237 522.914C248.732 522.914 247.721 521.938 247.674 520.198H254.094V519.575C254.094 516.312 252.142 515.037 250.096 515.037C247.58 515.037 245.923 516.953 245.923 519.728C245.923 522.532 247.557 524.366 250.22 524.366ZM247.68 518.881C247.751 517.6 248.68 516.489 250.108 516.489C251.472 516.489 252.365 517.5 252.371 518.881H247.68Z" fill="#0098DD"/>
<rect x="0.196533" y="161.927" width="393.607" height="64" rx="5" fill="white"/>
<path d="M64.1965 193.927C64.1965 202.763 57.0331 209.927 48.1965 209.927C39.36 209.927 32.1965 202.763 32.1965 193.927C32.1965 185.09 39.36 177.927 48.1965 177.927C57.0331 177.927 64.1965 185.09 64.1965 193.927Z" fill="#87BBFD"/>
<path d="M38.8597 184.522V185.458V184.522ZM38.8597 184.522V185.458V184.522ZM39.3276 184.99H38.3918H39.3276ZM49.1534 202.068V203.471V202.068ZM49.855 202.77H48.4513H49.855ZM56.6397 189.201V191.072V189.201ZM57.5755 190.137H55.704H57.5755Z" fill="black"/>
<path fill-rule="evenodd" clip-rule="evenodd" d="M38.8598 184.188C39.0439 184.188 39.1932 184.338 39.1932 184.522V184.656H39.3277C39.5118 184.656 39.6611 184.806 39.6611 184.99C39.6611 185.174 39.5118 185.323 39.3277 185.323H39.1932V185.458C39.1932 185.642 39.0439 185.791 38.8598 185.791C38.6757 185.791 38.5265 185.642 38.5265 185.458V185.323H38.3919C38.2078 185.323 38.0586 185.174 38.0586 184.99C38.0586 184.806 38.2078 184.656 38.3919 184.656H38.5265V184.522C38.5265 184.338 38.6757 184.188 38.8598 184.188ZM56.6398 188.867C56.8239 188.867 56.9732 189.017 56.9732 189.201V189.803H57.5756C57.7597 189.803 57.9089 189.952 57.9089 190.137C57.9089 190.321 57.7597 190.47 57.5756 190.47H56.9732V191.072C56.9732 191.256 56.8239 191.406 56.6398 191.406C56.4557 191.406 56.3065 191.256 56.3065 191.072V190.47H55.704C55.5199 190.47 55.3707 190.321 55.3707 190.137C55.3707 189.952 55.5199 189.803 55.704 189.803H56.3065V189.201C56.3065 189.017 56.4557 188.867 56.6398 188.867ZM49.1535 201.734C49.3376 201.734 49.4868 201.884 49.4868 202.068V202.436H49.8551C50.0392 202.436 50.1884 202.586 50.1884 202.77C50.1884 202.954 50.0392 203.103 49.8551 203.103H49.4868V203.471C49.4868 203.655 49.3376 203.805 49.1535 203.805C48.9694 203.805 48.8202 203.655 48.8202 203.471V203.103H48.4514C48.2673 203.103 48.1181 202.954 48.1181 202.77C48.1181 202.586 48.2673 202.436 48.4514 202.436H48.8202V202.068C48.8202 201.884 48.9694 201.734 49.1535 201.734Z" fill="#6772E5"/>
<path d="M55.2586 199.756L49.8406 196.448L55.2586 199.756Z" fill="black"/>
<path fill-rule="evenodd" clip-rule="evenodd" d="M48.196 186.968C48.334 186.968 48.446 187.08 48.446 187.218V193.506C48.446 193.644 48.334 193.756 48.196 193.756C48.0579 193.756 47.946 193.644 47.946 193.506V187.218C47.946 187.08 48.0579 186.968 48.196 186.968ZM46.7646 196.317C46.8366 196.435 46.7994 196.589 46.6815 196.661L41.2636 199.97C41.1458 200.042 40.9919 200.004 40.92 199.887C40.848 199.769 40.8852 199.615 41.003 199.543L46.4209 196.234C46.5388 196.162 46.6926 196.199 46.7646 196.317ZM49.6273 196.317C49.6993 196.199 49.8532 196.162 49.971 196.234L55.3889 199.543C55.5067 199.615 55.5439 199.769 55.472 199.887C55.4 200.004 55.2461 200.042 55.1283 199.97L49.7104 196.661C49.5926 196.589 49.5554 196.435 49.6273 196.317Z" fill="white"/>
<path d="M48.1948 197.449C48.708 197.449 49.2002 197.246 49.563 196.883C49.9259 196.52 50.1298 196.028 50.1298 195.514C50.1298 195.001 49.9259 194.509 49.563 194.146C49.2002 193.783 48.708 193.579 48.1948 193.579C47.6816 193.579 47.1895 193.783 46.8266 194.146C46.4637 194.509 46.2598 195.001 46.2598 195.514C46.2598 196.028 46.4637 196.52 46.8266 196.883C47.1895 197.246 47.6816 197.449 48.1948 197.449ZM56.9022 202.771C57.4153 202.771 57.9075 202.567 58.2704 202.204C58.6333 201.841 58.8371 201.349 58.8371 200.836C58.8371 200.322 58.6333 199.83 58.2704 199.467C57.9075 199.104 57.4153 198.901 56.9022 198.901C56.389 198.901 55.8968 199.104 55.5339 199.467C55.1711 199.83 54.9672 200.322 54.9672 200.836C54.9672 201.349 55.1711 201.841 55.5339 202.204C55.8968 202.567 56.389 202.771 56.9022 202.771ZM39.4875 202.771C40.0006 202.771 40.4928 202.567 40.8557 202.204C41.2186 201.841 41.4224 201.349 41.4224 200.836C41.4224 200.322 41.2186 199.83 40.8557 199.467C40.4928 199.104 40.0006 198.901 39.4875 198.901C38.9743 198.901 38.4821 199.104 38.1192 199.467C37.7564 199.83 37.5525 200.322 37.5525 200.836C37.5525 201.349 37.7564 201.841 38.1192 202.204C38.4821 202.567 38.9743 202.771 39.4875 202.771ZM48.1948 187.291C48.708 187.291 49.2002 187.087 49.563 186.724C49.9259 186.361 50.1298 185.869 50.1298 185.356C50.1298 184.843 49.9259 184.351 49.563 183.988C49.2002 183.625 48.708 183.421 48.1948 183.421C47.6816 183.421 47.1895 183.625 46.8266 183.988C46.4637 184.351 46.2598 184.843 46.2598 185.356C46.2598 185.869 46.4637 186.361 46.8266 186.724C47.1895 187.087 47.6816 187.291 48.1948 187.291Z" fill="black"/>
<path fill-rule="evenodd" clip-rule="evenodd" d="M46.4738 183.635C46.9304 183.178 47.5497 182.921 48.1955 182.921C48.8413 182.921 49.4607 183.178 49.9173 183.635C50.374 184.091 50.6305 184.711 50.6305 185.356C50.6305 186.002 50.374 186.621 49.9173 187.078C49.4607 187.535 48.8413 187.791 48.1955 187.791C47.5497 187.791 46.9304 187.535 46.4738 187.078C46.0171 186.621 45.7606 186.002 45.7606 185.356C45.7606 184.711 46.0171 184.091 46.4738 183.635ZM48.1955 183.921C47.815 183.921 47.45 184.073 47.1809 184.342C46.9118 184.611 46.7606 184.976 46.7606 185.356C46.7606 185.737 46.9118 186.102 47.1809 186.371C47.45 186.64 47.815 186.791 48.1955 186.791C48.5761 186.791 48.9411 186.64 49.2102 186.371C49.4793 186.102 49.6305 185.737 49.6305 185.356C49.6305 184.976 49.4793 184.611 49.2102 184.342C48.9411 184.073 48.5761 183.921 48.1955 183.921ZM46.4738 193.793C46.9304 193.337 47.5497 193.08 48.1955 193.08C48.8413 193.08 49.4607 193.337 49.9173 193.793C50.374 194.25 50.6305 194.869 50.6305 195.515C50.6305 196.161 50.374 196.78 49.9173 197.237C49.4607 197.693 48.8413 197.95 48.1955 197.95C47.5497 197.95 46.9304 197.693 46.4738 197.237C46.0171 196.78 45.7606 196.161 45.7606 195.515C45.7606 194.869 46.0171 194.25 46.4738 193.793ZM48.1955 194.08C47.815 194.08 47.45 194.231 47.1809 194.5C46.9118 194.769 46.7606 195.134 46.7606 195.515C46.7606 195.896 46.9118 196.26 47.1809 196.53C47.45 196.799 47.815 196.95 48.1955 196.95C48.5761 196.95 48.9411 196.799 49.2102 196.53C49.4793 196.26 49.6305 195.896 49.6305 195.515C49.6305 195.134 49.4793 194.769 49.2102 194.5C48.9411 194.231 48.5761 194.08 48.1955 194.08ZM37.7664 199.114C38.2231 198.658 38.8424 198.401 39.4882 198.401C40.134 198.401 40.7533 198.658 41.21 199.114C41.6666 199.571 41.9232 200.19 41.9232 200.836C41.9232 201.482 41.6666 202.101 41.21 202.558C40.7533 203.015 40.134 203.271 39.4882 203.271C38.8424 203.271 38.2231 203.015 37.7664 202.558C37.3098 202.101 37.0532 201.482 37.0532 200.836C37.0532 200.19 37.3098 199.571 37.7664 199.114ZM39.4882 199.401C39.1076 199.401 38.7426 199.552 38.4735 199.821C38.2044 200.091 38.0532 200.456 38.0532 200.836C38.0532 201.217 38.2044 201.582 38.4735 201.851C38.7426 202.12 39.1076 202.271 39.4882 202.271C39.8688 202.271 40.2338 202.12 40.5029 201.851C40.772 201.582 40.9232 201.217 40.9232 200.836C40.9232 200.456 40.772 200.091 40.5029 199.821C40.2338 199.552 39.8688 199.401 39.4882 199.401ZM55.1811 199.114C55.6378 198.658 56.2571 198.401 56.9029 198.401C57.5487 198.401 58.168 198.658 58.6247 199.114C59.0813 199.571 59.3379 200.19 59.3379 200.836C59.3379 201.482 59.0813 202.101 58.6247 202.558C58.168 203.015 57.5487 203.271 56.9029 203.271C56.2571 203.271 55.6378 203.015 55.1811 202.558C54.7245 202.101 54.4679 201.482 54.4679 200.836C54.4679 200.19 54.7245 199.571 55.1811 199.114ZM56.9029 199.401C56.5223 199.401 56.1573 199.552 55.8882 199.821C55.6191 200.091 55.4679 200.456 55.4679 200.836C55.4679 201.217 55.6191 201.582 55.8882 201.851C56.1573 202.12 56.5223 202.271 56.9029 202.271C57.2835 202.271 57.6485 202.12 57.9176 201.851C58.1867 201.582 58.3379 201.217 58.3379 200.836C58.3379 200.456 58.1867 200.091 57.9176 199.821C57.6485 199.552 57.2835 199.401 56.9029 199.401Z" fill="#6772E5"/>
<path d="M79.4142 200.098C83.0824 200.098 85.2045 197.823 85.2045 194.061C85.2045 190.316 83.0824 188.059 79.5377 188.059H75.5169V200.098H79.4142ZM77.3333 198.511V189.646H79.426C82.0595 189.646 83.4174 191.222 83.4174 194.061C83.4174 196.912 82.0595 198.511 79.3143 198.511H77.3333ZM91.2136 200.28C93.1829 200.28 94.5761 199.31 94.9758 197.841L93.3122 197.541C92.9948 198.393 92.2306 198.828 91.2313 198.828C89.7264 198.828 88.7153 197.853 88.6683 196.113H95.0875V195.489C95.0875 192.227 93.1359 190.951 91.0902 190.951C88.5742 190.951 86.9165 192.868 86.9165 195.642C86.9165 198.446 88.5507 200.28 91.2136 200.28ZM88.6742 194.796C88.7447 193.514 89.6735 192.403 91.102 192.403C92.4657 192.403 93.3593 193.414 93.3651 194.796H88.6742ZM104.487 191.069H102.6L100.319 198.017H100.225L97.9385 191.069H96.0516L99.3317 200.098H101.213L104.487 191.069ZM109.707 200.28C111.676 200.28 113.07 199.31 113.469 197.841L111.806 197.541C111.488 198.393 110.724 198.828 109.725 198.828C108.22 198.828 107.209 197.853 107.162 196.113H113.581V195.489C113.581 192.227 111.629 190.951 109.584 190.951C107.068 190.951 105.41 192.868 105.41 195.642C105.41 198.446 107.044 200.28 109.707 200.28ZM107.168 194.796C107.238 193.514 108.167 192.403 109.595 192.403C110.959 192.403 111.853 193.414 111.859 194.796H107.168ZM117.289 188.059H115.531V200.098H117.289V188.059ZM123.457 200.28C126.002 200.28 127.666 198.417 127.666 195.625C127.666 192.815 126.002 190.951 123.457 190.951C120.911 190.951 119.248 192.815 119.248 195.625C119.248 198.417 120.911 200.28 123.457 200.28ZM123.463 198.805C121.799 198.805 121.023 197.353 121.023 195.619C121.023 193.891 121.799 192.421 123.463 192.421C125.114 192.421 125.89 193.891 125.89 195.619C125.89 197.353 125.114 198.805 123.463 198.805ZM129.627 203.484H131.385V198.693H131.491C131.808 199.269 132.455 200.274 134.101 200.274C136.288 200.274 137.875 198.523 137.875 195.601C137.875 192.674 136.264 190.951 134.083 190.951C132.408 190.951 131.802 191.974 131.491 192.533H131.344V191.069H129.627V203.484ZM131.35 195.584C131.35 193.697 132.173 192.444 133.707 192.444C135.3 192.444 136.1 193.791 136.1 195.584C136.1 197.394 135.277 198.776 133.707 198.776C132.196 198.776 131.35 197.482 131.35 195.584ZM145.336 203.484C146.788 203.484 147.705 202.726 148.228 201.303L151.961 191.087L150.062 191.069L147.776 198.076H147.681L145.395 191.069H143.514L146.817 200.216L146.6 200.815C146.153 202.015 145.524 202.114 144.56 201.85L144.137 203.29C144.348 203.384 144.807 203.484 145.336 203.484ZM157.097 200.28C159.643 200.28 161.306 198.417 161.306 195.625C161.306 192.815 159.643 190.951 157.097 190.951C154.552 190.951 152.888 192.815 152.888 195.625C152.888 198.417 154.552 200.28 157.097 200.28ZM157.103 198.805C155.44 198.805 154.664 197.353 154.664 195.619C154.664 193.891 155.44 192.421 157.103 192.421C158.755 192.421 159.531 193.891 159.531 195.619C159.531 197.353 158.755 198.805 157.103 198.805ZM168.988 196.354C168.994 197.888 167.853 198.617 166.866 198.617C165.778 198.617 165.026 197.829 165.026 196.601V191.069H163.268V196.812C163.268 199.052 164.497 200.216 166.231 200.216C167.589 200.216 168.512 199.499 168.929 198.534H169.023V200.098H170.751V191.069H168.988V196.354ZM173.113 200.098H174.871V194.584C174.871 193.403 175.782 192.55 177.028 192.55C177.392 192.55 177.804 192.615 177.945 192.656V190.975C177.769 190.951 177.422 190.934 177.198 190.934C176.14 190.934 175.235 191.533 174.906 192.503H174.812V191.069H173.113V200.098ZM221.621 200.098H228.893V198.534H223.438V188.059H221.621V200.098ZM230.824 200.098H232.582V191.069H230.824V200.098ZM231.712 189.676C232.317 189.676 232.823 189.205 232.823 188.629C232.823 188.053 232.317 187.577 231.712 187.577C231.1 187.577 230.601 188.053 230.601 188.629C230.601 189.205 231.1 189.676 231.712 189.676ZM239.161 191.069H237.309V188.906H235.552V191.069H234.229V192.48H235.552V197.811C235.546 199.452 236.798 200.245 238.185 200.216C238.744 200.21 239.12 200.104 239.326 200.028L239.008 198.576C238.891 198.599 238.673 198.652 238.391 198.652C237.821 198.652 237.309 198.464 237.309 197.447V192.48H239.161V191.069ZM241.105 200.098H242.863V194.531C242.863 193.314 243.715 192.468 244.715 192.468C245.69 192.468 246.367 193.115 246.367 194.096V200.098H248.118V194.343C248.118 193.256 248.783 192.468 249.929 192.468C250.858 192.468 251.622 192.985 251.622 194.208V200.098H253.379V194.043C253.379 191.98 252.227 190.951 250.593 190.951C249.294 190.951 248.318 191.574 247.883 192.539H247.789C247.395 191.551 246.566 190.951 245.361 190.951C244.168 190.951 243.28 191.545 242.904 192.539H242.792V191.069H241.105V200.098ZM261.455 196.354C261.461 197.888 260.32 198.617 259.333 198.617C258.245 198.617 257.493 197.829 257.493 196.601V191.069H255.735V196.812C255.735 199.052 256.964 200.216 258.698 200.216C260.056 200.216 260.979 199.499 261.396 198.534H261.49V200.098H263.218V191.069H261.455V196.354ZM272.346 193.273C271.982 191.868 270.882 190.951 268.931 190.951C266.891 190.951 265.445 192.027 265.445 193.626C265.445 194.908 266.221 195.76 267.914 196.136L269.442 196.471C270.312 196.665 270.718 197.053 270.718 197.617C270.718 198.317 269.971 198.864 268.819 198.864C267.767 198.864 267.091 198.411 266.879 197.523L265.18 197.782C265.474 199.381 266.803 200.28 268.831 200.28C271.012 200.28 272.522 199.122 272.522 197.488C272.522 196.213 271.711 195.425 270.053 195.043L268.619 194.714C267.626 194.478 267.197 194.143 267.202 193.532C267.197 192.838 267.949 192.345 268.948 192.345C270.042 192.345 270.547 192.95 270.753 193.555L272.346 193.273ZM280.793 200.098H282.58L284.414 193.579H284.55L286.384 200.098H288.177L290.828 191.069H289.011L287.254 197.67H287.165L285.402 191.069H283.586L281.81 197.7H281.722L279.953 191.069H278.136L280.793 200.098ZM296.024 200.28C298.57 200.28 300.233 198.417 300.233 195.625C300.233 192.815 298.57 190.951 296.024 190.951C293.479 190.951 291.815 192.815 291.815 195.625C291.815 198.417 293.479 200.28 296.024 200.28ZM296.03 198.805C294.367 198.805 293.591 197.353 293.591 195.619C293.591 193.891 294.367 192.421 296.03 192.421C297.682 192.421 298.458 193.891 298.458 195.619C298.458 197.353 297.682 198.805 296.03 198.805ZM302.195 200.098H303.953V194.584C303.953 193.403 304.864 192.55 306.11 192.55C306.475 192.55 306.886 192.615 307.027 192.656V190.975C306.851 190.951 306.504 190.934 306.281 190.934C305.222 190.934 304.317 191.533 303.988 192.503H303.894V191.069H302.195V200.098ZM308.548 200.098H310.306V196.894L311.182 196.019L314.25 200.098H316.408L312.504 194.943L316.161 191.069H314.056L310.459 194.89H310.306V188.059H308.548V200.098ZM322.06 191.069H320.114V190.258C320.114 189.458 320.443 189.023 321.301 189.023C321.666 189.023 321.924 189.106 322.089 189.158L322.501 187.736C322.254 187.642 321.742 187.495 321.031 187.495C319.602 187.495 318.35 188.33 318.35 190.023V191.069H316.957V192.48H318.35V200.098H320.114V192.48H322.06V191.069ZM325.631 188.059H323.873V200.098H325.631V188.059ZM331.799 200.28C334.344 200.28 336.008 198.417 336.008 195.625C336.008 192.815 334.344 190.951 331.799 190.951C329.253 190.951 327.59 192.815 327.59 195.625C327.59 198.417 329.253 200.28 331.799 200.28ZM331.805 198.805C330.141 198.805 329.365 197.353 329.365 195.619C329.365 193.891 330.141 192.421 331.805 192.421C333.456 192.421 334.232 193.891 334.232 195.619C334.232 197.353 333.456 198.805 331.805 198.805ZM339.652 200.098H341.439L343.273 193.579H343.408L345.243 200.098H347.035L349.687 191.069H347.87L346.113 197.67H346.024L344.261 191.069H342.444L340.669 197.7H340.581L338.812 191.069H336.995L339.652 200.098ZM358.121 193.273C357.756 191.868 356.657 190.951 354.705 190.951C352.665 190.951 351.219 192.027 351.219 193.626C351.219 194.908 351.995 195.76 353.688 196.136L355.217 196.471C356.087 196.665 356.492 197.053 356.492 197.617C356.492 198.317 355.746 198.864 354.594 198.864C353.541 198.864 352.865 198.411 352.654 197.523L350.955 197.782C351.249 199.381 352.577 200.28 354.605 200.28C356.786 200.28 358.297 199.122 358.297 197.488C358.297 196.213 357.486 195.425 355.828 195.043L354.394 194.714C353.4 194.478 352.971 194.143 352.977 193.532C352.971 192.838 353.724 192.345 354.723 192.345C355.816 192.345 356.322 192.95 356.528 193.555L358.121 193.273Z" fill="#1C0732"/>
<path d="M187.65 200.28C190.196 200.28 191.859 198.417 191.859 195.625C191.859 192.815 190.196 190.951 187.65 190.951C185.105 190.951 183.441 192.815 183.441 195.625C183.441 198.417 185.105 200.28 187.65 200.28ZM187.656 198.805C185.992 198.805 185.217 197.353 185.217 195.619C185.217 193.891 185.992 192.421 187.656 192.421C189.308 192.421 190.084 193.891 190.084 195.619C190.084 197.353 189.308 198.805 187.656 198.805ZM195.504 200.098H197.291L199.125 193.579H199.26L201.094 200.098H202.887L205.538 191.069H203.722L201.964 197.67H201.876L200.112 191.069H198.296L196.521 197.7H196.432L194.663 191.069H192.847L195.504 200.098ZM208.964 194.737C208.964 193.297 209.846 192.474 211.068 192.474C212.262 192.474 212.985 193.256 212.985 194.567V200.098H214.742V194.355C214.742 192.121 213.514 190.951 211.668 190.951C210.31 190.951 209.422 191.58 209.005 192.539H208.893V191.069H207.206V200.098H208.964V194.737Z" fill="#5B44BA"/>
<rect y="324.012" width="394" height="64" rx="5" fill="white"/>
<path d="M53.8989 353.307H55.6507C55.5978 351.379 53.893 349.98 51.4476 349.98C49.0316 349.98 47.1799 351.361 47.1799 353.437C47.1799 355.112 48.3791 356.094 50.3131 356.617L51.7357 357.005C53.023 357.346 54.0165 357.769 54.0165 358.839C54.0165 360.014 52.8937 360.79 51.3477 360.79C49.9486 360.79 48.7847 360.167 48.6789 358.856H46.8566C46.9742 361.037 48.6613 362.383 51.3595 362.383C54.187 362.383 55.8153 360.896 55.8153 358.856C55.8153 356.687 53.8813 355.847 52.3529 355.47L51.1772 355.165C50.2367 354.924 48.9846 354.483 48.9905 353.331C48.9905 352.308 49.9251 351.55 51.4065 351.55C52.7879 351.55 53.7696 352.196 53.8989 353.307ZM61.7363 362.366C63.7056 362.366 65.0987 361.396 65.4985 359.926L63.8349 359.626C63.5174 360.479 62.7533 360.914 61.7539 360.914C60.2491 360.914 59.238 359.938 59.191 358.198H65.6102V357.575C65.6102 354.312 63.6585 353.037 61.6128 353.037C59.0969 353.037 57.4392 354.953 57.4392 357.728C57.4392 360.532 59.0734 362.366 61.7363 362.366ZM59.1968 356.881C59.2674 355.6 60.1962 354.489 61.6246 354.489C62.9884 354.489 63.8819 355.5 63.8878 356.881H59.1968ZM71.7751 353.154H69.9234V350.991H68.1658V353.154H66.8431V354.565H68.1658V359.897C68.1599 361.537 69.412 362.331 70.7993 362.301C71.3578 362.295 71.734 362.189 71.9397 362.113L71.6223 360.661C71.5047 360.685 71.2872 360.738 71.0051 360.738C70.4348 360.738 69.9234 360.549 69.9234 359.532V354.565H71.7751V353.154ZM79.4391 358.439C79.445 359.973 78.3045 360.702 77.317 360.702C76.2295 360.702 75.477 359.915 75.477 358.686V353.154H73.7194V358.898C73.7194 361.137 74.948 362.301 76.6821 362.301C78.04 362.301 78.9629 361.584 79.3803 360.62H79.4743V362.184H81.2026V353.154H79.4391V358.439ZM83.5642 365.57H85.3219V360.779H85.4277C85.7451 361.355 86.3917 362.36 88.0377 362.36C90.2245 362.36 91.8116 360.608 91.8116 357.687C91.8116 354.759 90.2009 353.037 88.0201 353.037C86.3447 353.037 85.7392 354.06 85.4277 354.618H85.2807V353.154H83.5642V365.57ZM85.2866 357.669C85.2866 355.782 86.1096 354.53 87.6438 354.53C89.2369 354.53 90.0364 355.876 90.0364 357.669C90.0364 359.48 89.2134 360.861 87.6438 360.861C86.1331 360.861 85.2866 359.568 85.2866 357.669Z" fill="#1C0732"/>
<g clip-path="url(#clip1)">
<path d="M107.922 341.012C107.922 340.747 107.817 340.493 107.629 340.305C107.441 340.118 107.187 340.012 106.922 340.012C106.657 340.012 106.402 340.118 106.215 340.305C106.027 340.493 105.922 340.747 105.922 341.012V342.012H103.922C102.861 342.012 101.844 342.434 101.093 343.184C100.343 343.934 99.9219 344.951 99.9219 346.012V348.012H131.922V346.012C131.922 344.951 131.5 343.934 130.75 343.184C130 342.434 128.983 342.012 127.922 342.012H125.922V341.012C125.922 340.747 125.817 340.493 125.629 340.305C125.441 340.118 125.187 340.012 124.922 340.012C124.657 340.012 124.402 340.118 124.215 340.305C124.027 340.493 123.922 340.747 123.922 341.012V342.012H107.922V341.012ZM131.922 368.012V350.012H99.9219V368.012C99.9219 369.073 100.343 370.09 101.093 370.841C101.844 371.591 102.861 372.012 103.922 372.012H127.922C128.983 372.012 130 371.591 130.75 370.841C131.5 370.09 131.922 369.073 131.922 368.012ZM118.922 354.012H120.922C121.187 354.012 121.441 354.118 121.629 354.305C121.817 354.493 121.922 354.747 121.922 355.012V357.012C121.922 357.277 121.817 357.532 121.629 357.719C121.441 357.907 121.187 358.012 120.922 358.012H118.922C118.657 358.012 118.402 357.907 118.215 357.719C118.027 357.532 117.922 357.277 117.922 357.012V355.012C117.922 354.747 118.027 354.493 118.215 354.305C118.402 354.118 118.657 354.012 118.922 354.012ZM124.922 354.012H126.922C127.187 354.012 127.441 354.118 127.629 354.305C127.817 354.493 127.922 354.747 127.922 355.012V357.012C127.922 357.277 127.817 357.532 127.629 357.719C127.441 357.907 127.187 358.012 126.922 358.012H124.922C124.657 358.012 124.402 357.907 124.215 357.719C124.027 357.532 123.922 357.277 123.922 357.012V355.012C123.922 354.747 124.027 354.493 124.215 354.305C124.402 354.118 124.657 354.012 124.922 354.012ZM103.922 361.012C103.922 360.747 104.027 360.493 104.215 360.305C104.402 360.118 104.657 360.012 104.922 360.012H106.922C107.187 360.012 107.441 360.118 107.629 360.305C107.817 360.493 107.922 360.747 107.922 361.012V363.012C107.922 363.277 107.817 363.532 107.629 363.719C107.441 363.907 107.187 364.012 106.922 364.012H104.922C104.657 364.012 104.402 363.907 104.215 363.719C104.027 363.532 103.922 363.277 103.922 363.012V361.012ZM110.922 360.012H112.922C113.187 360.012 113.441 360.118 113.629 360.305C113.817 360.493 113.922 360.747 113.922 361.012V363.012C113.922 363.277 113.817 363.532 113.629 363.719C113.441 363.907 113.187 364.012 112.922 364.012H110.922C110.657 364.012 110.402 363.907 110.215 363.719C110.027 363.532 109.922 363.277 109.922 363.012V361.012C109.922 360.747 110.027 360.493 110.215 360.305C110.402 360.118 110.657 360.012 110.922 360.012Z" fill="#5B44BA"/>
</g>
<path d="M147.337 353.307H149.088C149.035 351.379 147.331 349.98 144.885 349.98C142.469 349.98 140.618 351.361 140.618 353.437C140.618 355.112 141.817 356.094 143.751 356.617L145.173 357.005C146.461 357.346 147.454 357.769 147.454 358.839C147.454 360.014 146.331 360.79 144.785 360.79C143.386 360.79 142.222 360.167 142.117 358.856H140.294C140.412 361.037 142.099 362.383 144.797 362.383C147.625 362.383 149.253 360.896 149.253 358.856C149.253 356.687 147.319 355.847 145.791 355.47L144.615 355.165C143.674 354.924 142.422 354.483 142.428 353.331C142.428 352.308 143.363 351.55 144.844 351.55C146.226 351.55 147.207 352.196 147.337 353.307ZM155.086 362.366C157.22 362.366 158.601 361.084 158.795 359.327H157.084C156.861 360.303 156.103 360.879 155.098 360.879C153.61 360.879 152.652 359.638 152.652 357.669C152.652 355.735 153.628 354.518 155.098 354.518C156.214 354.518 156.896 355.224 157.084 356.07H158.795C158.607 354.248 157.12 353.037 155.068 353.037C152.523 353.037 150.877 354.953 150.877 357.71C150.877 360.432 152.464 362.366 155.086 362.366ZM162.432 356.822C162.432 355.382 163.343 354.559 164.596 354.559C165.807 354.559 166.53 355.329 166.53 356.652V362.184H168.287V356.44C168.287 354.189 167.053 353.037 165.195 353.037C163.79 353.037 162.944 353.648 162.521 354.624H162.409V350.145H160.675V362.184H162.432V356.822ZM174.524 362.366C176.493 362.366 177.887 361.396 178.286 359.926L176.623 359.626C176.305 360.479 175.541 360.914 174.542 360.914C173.037 360.914 172.026 359.938 171.979 358.198H178.398V357.575C178.398 354.312 176.446 353.037 174.401 353.037C171.885 353.037 170.227 354.953 170.227 357.728C170.227 360.532 171.861 362.366 174.524 362.366ZM171.985 356.881C172.055 355.6 172.984 354.489 174.413 354.489C175.776 354.489 176.67 355.5 176.676 356.881H171.985ZM183.728 362.36C185.374 362.36 186.021 361.355 186.338 360.779H186.485V362.184H188.202V350.145H186.444V354.618H186.338C186.021 354.06 185.421 353.037 183.74 353.037C181.559 353.037 179.954 354.759 179.954 357.687C179.954 360.608 181.536 362.36 183.728 362.36ZM184.116 360.861C182.547 360.861 181.73 359.48 181.73 357.669C181.73 355.876 182.529 354.53 184.116 354.53C185.651 354.53 186.473 355.782 186.473 357.669C186.473 359.568 185.633 360.861 184.116 360.861ZM196.43 358.439C196.436 359.973 195.295 360.702 194.308 360.702C193.22 360.702 192.468 359.915 192.468 358.686V353.154H190.71V358.898C190.71 361.137 191.939 362.301 193.673 362.301C195.031 362.301 195.954 361.584 196.371 360.62H196.465V362.184H198.194V353.154H196.43V358.439ZM202.313 350.145H200.555V362.184H202.313V350.145ZM208.569 362.366C210.538 362.366 211.931 361.396 212.331 359.926L210.667 359.626C210.35 360.479 209.586 360.914 208.587 360.914C207.082 360.914 206.071 359.938 206.024 358.198H212.443V357.575C212.443 354.312 210.491 353.037 208.445 353.037C205.93 353.037 204.272 354.953 204.272 357.728C204.272 360.532 205.906 362.366 208.569 362.366ZM206.029 356.881C206.1 355.6 207.029 354.489 208.457 354.489C209.821 354.489 210.715 355.5 210.72 356.881H206.029ZM221.159 355.359C220.795 353.954 219.695 353.037 217.744 353.037C215.704 353.037 214.258 354.113 214.258 355.711C214.258 356.993 215.034 357.845 216.727 358.222L218.255 358.557C219.125 358.751 219.531 359.139 219.531 359.703C219.531 360.402 218.784 360.949 217.632 360.949C216.58 360.949 215.904 360.496 215.692 359.609L213.993 359.868C214.287 361.466 215.616 362.366 217.644 362.366C219.825 362.366 221.335 361.208 221.335 359.574C221.335 358.298 220.524 357.51 218.866 357.128L217.432 356.799C216.439 356.564 216.009 356.229 216.015 355.617C216.009 354.924 216.762 354.43 217.761 354.43C218.855 354.43 219.36 355.035 219.566 355.641L221.159 355.359Z" fill="#5B44BA"/>
<path d="M234.597 362.366C237.143 362.366 238.806 360.502 238.806 357.71C238.806 354.9 237.143 353.037 234.597 353.037C232.052 353.037 230.388 354.9 230.388 357.71C230.388 360.502 232.052 362.366 234.597 362.366ZM234.603 360.89C232.939 360.89 232.164 359.438 232.164 357.704C232.164 355.976 232.939 354.506 234.603 354.506C236.255 354.506 237.031 355.976 237.031 357.704C237.031 359.438 236.255 360.89 234.603 360.89ZM240.768 362.184H242.526V356.67C242.526 355.488 243.437 354.636 244.683 354.636C245.047 354.636 245.459 354.7 245.6 354.742V353.06C245.424 353.037 245.077 353.019 244.854 353.019C243.795 353.019 242.89 353.619 242.561 354.589H242.467V353.154H240.768V362.184Z" fill="#1C0732"/>
<g clip-path="url(#clip2)">
<path d="M284.997 354.587L271.026 340.616C270.221 339.812 268.916 339.812 268.111 340.616L265.21 343.517L268.89 347.198C269.746 346.909 270.726 347.103 271.408 347.784C272.093 348.471 272.286 349.46 271.99 350.318L275.537 353.865C276.395 353.569 277.385 353.76 278.07 354.447C279.028 355.404 279.028 356.956 278.07 357.914C277.112 358.873 275.56 358.873 274.602 357.914C273.881 357.193 273.703 356.135 274.068 355.247L270.76 351.94L270.76 360.644C270.999 360.763 271.218 360.919 271.408 361.108C272.366 362.065 272.366 363.617 271.408 364.576C270.45 365.534 268.897 365.534 267.941 364.576C266.983 363.617 266.983 362.066 267.941 361.108C268.17 360.878 268.443 360.696 268.743 360.573V351.787C268.443 351.664 268.17 351.482 267.941 351.252C267.215 350.527 267.04 349.462 267.412 348.571L263.784 344.943L254.204 354.522C253.399 355.328 253.399 356.633 254.204 357.438L268.176 371.409C268.98 372.213 270.285 372.213 271.091 371.409L284.997 357.502C285.802 356.697 285.802 355.392 284.997 354.587" fill="#DE4C36"/>
</g>
<path d="M302.313 353.948H304.176C303.771 351.602 301.766 349.98 299.168 349.98C296.052 349.98 293.777 352.326 293.777 356.17C293.777 359.979 295.988 362.348 299.25 362.348C302.172 362.348 304.259 360.432 304.259 357.393V356.023H299.527V357.522H302.501C302.46 359.462 301.178 360.69 299.25 360.69C297.128 360.69 295.582 359.086 295.582 356.158C295.582 353.243 297.14 351.638 299.18 351.638C300.779 351.638 301.86 352.52 302.313 353.948ZM306.989 362.184H308.747V353.154H306.989V362.184ZM307.877 351.761C308.482 351.761 308.988 351.291 308.988 350.715C308.988 350.139 308.482 349.663 307.877 349.663C307.265 349.663 306.766 350.139 306.766 350.715C306.766 351.291 307.265 351.761 307.877 351.761ZM315.326 353.154H313.474V350.991H311.717V353.154H310.394V354.565H311.717V359.897C311.711 361.537 312.963 362.331 314.35 362.301C314.909 362.295 315.285 362.189 315.491 362.113L315.173 360.661C315.056 360.685 314.838 360.738 314.556 360.738C313.986 360.738 313.474 360.549 313.474 359.532V354.565H315.326V353.154ZM327.869 356.164C327.869 352.314 325.565 349.98 322.449 349.98C319.322 349.98 317.024 352.314 317.024 356.164C317.024 360.009 319.322 362.348 322.449 362.348C325.565 362.348 327.869 360.014 327.869 356.164ZM326.07 356.164C326.07 359.097 324.518 360.69 322.449 360.69C320.374 360.69 318.828 359.097 318.828 356.164C318.828 353.231 320.374 351.638 322.449 351.638C324.518 351.638 326.07 353.231 326.07 356.164ZM329.993 365.57H331.75V360.779H331.856C332.174 361.355 332.82 362.36 334.466 362.36C336.653 362.36 338.24 360.608 338.24 357.687C338.24 354.759 336.629 353.037 334.449 353.037C332.773 353.037 332.168 354.06 331.856 354.618H331.709V353.154H329.993V365.57ZM331.715 357.669C331.715 355.782 332.538 354.53 334.072 354.53C335.665 354.53 336.465 355.876 336.465 357.669C336.465 359.48 335.642 360.861 334.072 360.861C332.562 360.861 331.715 359.568 331.715 357.669ZM346.975 355.359C346.611 353.954 345.512 353.037 343.56 353.037C341.52 353.037 340.074 354.113 340.074 355.711C340.074 356.993 340.85 357.845 342.543 358.222L344.072 358.557C344.942 358.751 345.347 359.139 345.347 359.703C345.347 360.402 344.601 360.949 343.448 360.949C342.396 360.949 341.72 360.496 341.509 359.609L339.81 359.868C340.104 361.466 341.432 362.366 343.46 362.366C345.641 362.366 347.152 361.208 347.152 359.574C347.152 358.298 346.341 357.51 344.683 357.128L343.249 356.799C342.255 356.564 341.826 356.229 341.832 355.617C341.826 354.924 342.578 354.43 343.578 354.43C344.671 354.43 345.177 355.035 345.382 355.641L346.975 355.359Z" fill="#DE4C36"/>
<path d="M202 161.927L202 64.0052L192 64.0051L192 161.927L202 161.927Z" fill="url(#paint1_linear)" fill-opacity="0.5"/>
<rect y="0.012207" width="394" height="64" rx="5" fill="white"/>
<path d="M88.1611 22.6125V30.4032L94.0464 24.5178C93.5909 23.8287 93.4075 22.995 93.5318 22.1783C93.656 21.3617 94.0791 20.6203 94.719 20.0978C95.3588 19.5753 96.1699 19.3091 96.9949 19.3506C97.8199 19.3922 98.6001 19.7386 99.1842 20.3227C99.7683 20.9068 100.115 21.687 100.156 22.5121C100.198 23.3371 99.9316 24.1481 99.4091 24.788C98.8867 25.4278 98.1453 25.8509 97.3286 25.9752C96.5119 26.0994 95.6782 25.916 94.9891 25.4605L89.1038 31.3458H96.8944C97.0596 30.5365 97.5195 29.8173 98.1848 29.3277C98.8502 28.8381 99.6736 28.613 100.495 28.696C101.317 28.7791 102.079 29.1643 102.633 29.7771C103.187 30.3898 103.494 31.1865 103.494 32.0125C103.494 32.8386 103.187 33.6352 102.633 34.2479C102.079 34.8607 101.317 35.2459 100.495 35.329C99.6736 35.412 98.8502 35.1869 98.1848 34.6973C97.5195 34.2077 97.0596 33.4885 96.8944 32.6792H89.1038L94.9891 38.5645C95.6782 38.109 96.5119 37.9256 97.3286 38.0498C98.1453 38.1741 98.8867 38.5972 99.4091 39.237C99.9316 39.8769 100.198 40.6879 100.156 41.513C100.115 42.338 99.7683 43.1182 99.1842 43.7023C98.6001 44.2864 97.8199 44.6328 96.9949 44.6744C96.1699 44.7159 95.3588 44.4497 94.719 43.9272C94.0791 43.4048 93.656 42.6633 93.5318 41.8467C93.4075 41.03 93.5909 40.1963 94.0464 39.5072L88.1611 33.6218V41.4125C88.9705 41.5777 89.6897 42.0376 90.1792 42.7029C90.6688 43.3682 90.8939 44.1917 90.8109 45.0135C90.7279 45.8354 90.3426 46.5971 89.7299 47.1511C89.1171 47.7051 88.3205 48.0118 87.4944 48.0118C86.6684 48.0118 85.8718 47.7051 85.259 47.1511C84.6462 46.5971 84.261 45.8354 84.178 45.0135C84.095 44.1917 84.3201 43.3682 84.8096 42.7029C85.2992 42.0376 86.0184 41.5777 86.8278 41.4125V33.6218L80.9424 39.5072C81.3979 40.1963 81.5814 41.03 81.4571 41.8467C81.3328 42.6633 80.9098 43.4048 80.2699 43.9272C79.6301 44.4497 78.819 44.7159 77.994 44.6744C77.169 44.6328 76.3888 44.2864 75.8047 43.7023C75.2206 43.1182 74.8741 42.338 74.8326 41.513C74.791 40.6879 75.0573 39.8769 75.5797 39.237C76.1022 38.5972 76.8436 38.1741 77.6603 38.0498C78.4769 37.9256 79.3107 38.109 79.9998 38.5645L85.8851 32.6792H78.0944C77.9292 33.4885 77.4694 34.2077 76.804 34.6973C76.1387 35.1869 75.3153 35.412 74.4934 35.329C73.6716 35.2459 72.9098 34.8607 72.3558 34.2479C71.8018 33.6352 71.4951 32.8386 71.4951 32.0125C71.4951 31.1865 71.8018 30.3898 72.3558 29.7771C72.9098 29.1643 73.6716 28.7791 74.4934 28.696C75.3153 28.613 76.1387 28.8381 76.804 29.3277C77.4694 29.8173 77.9292 30.5365 78.0944 31.3458H85.8851L79.9998 25.4605C79.3107 25.916 78.4769 26.0994 77.6603 25.9752C76.8436 25.8509 76.1022 25.4278 75.5797 24.788C75.0573 24.1481 74.791 23.3371 74.8326 22.5121C74.8741 21.687 75.2206 20.9068 75.8047 20.3227C76.3888 19.7386 77.169 19.3922 77.994 19.3506C78.819 19.3091 79.6301 19.5753 80.2699 20.0978C80.9098 20.6203 81.3328 21.3617 81.4571 22.1783C81.5814 22.995 81.3979 23.8287 80.9424 24.5178L86.8278 30.4032V22.6125C86.0184 22.4473 85.2992 21.9874 84.8096 21.3221C84.3201 20.6568 84.095 19.8334 84.178 19.0115C84.261 18.1896 84.6462 17.4279 85.259 16.8739C85.8718 16.3199 86.6684 16.0132 87.4944 16.0132C88.3205 16.0132 89.1171 16.3199 89.7299 16.8739C90.3426 17.4279 90.7279 18.1896 90.8109 19.0115C90.8939 19.8334 90.6688 20.6568 90.1792 21.3221C89.6897 21.9874 88.9705 22.4473 88.1611 22.6125Z" fill="#87BBFD"/>
<path d="M87.4941 36.0122C89.7033 36.0122 91.4941 34.2213 91.4941 32.0122C91.4941 29.8031 89.7033 28.0122 87.4941 28.0122C85.285 28.0122 83.4941 29.8031 83.4941 32.0122C83.4941 34.2213 85.285 36.0122 87.4941 36.0122Z" fill="#6772E5"/>
<path d="M100.649 37.0588H100.648H99.0306V35.9157C99.0306 35.0866 98.7012 34.2914 98.1149 33.705C97.5286 33.1187 96.7334 32.7893 95.9042 32.7893C95.0751 32.7893 94.2798 33.1187 93.6935 33.705C93.1072 34.2914 92.7778 35.0866 92.7778 35.9157V37.0588L91.1604 37.0588L91.1598 37.0588C90.7713 37.0592 90.3988 37.2137 90.1241 37.4885C89.8494 37.7632 89.6948 38.1357 89.6944 38.5242V38.5248L89.6944 45.1661L89.6944 45.1667C89.6948 45.5553 89.8494 45.9277 90.1241 46.2025C90.3988 46.4772 90.7713 46.6317 91.1598 46.6322H91.1604H100.648H100.649C101.037 46.6317 101.41 46.4772 101.684 46.2025C101.959 45.9277 102.114 45.5553 102.114 45.1667V45.1661V38.5248V38.5242C102.114 38.1357 101.959 37.7632 101.684 37.4885C101.41 37.2137 101.037 37.0592 100.649 37.0588ZM95.7244 41.9198L95.2465 42.1178L95.7244 41.9198C95.7097 41.8843 95.7058 41.8453 95.7133 41.8076C95.7208 41.7699 95.7393 41.7353 95.7665 41.7081C95.7937 41.6809 95.8283 41.6624 95.866 41.6549C95.9037 41.6474 95.9427 41.6513 95.9782 41.666C96.0137 41.6807 96.0441 41.7056 96.0654 41.7375C96.0868 41.7695 96.0981 41.8071 96.0981 41.8455C96.0981 41.871 96.0931 41.8962 96.0834 41.9198C96.0736 41.9434 96.0593 41.9648 96.0412 41.9828C96.0232 42.0009 96.0018 42.0152 95.9782 42.025C95.9547 42.0347 95.9294 42.0397 95.9039 42.0397C95.8655 42.0397 95.8279 42.0284 95.7959 42.007C95.764 41.9857 95.7391 41.9553 95.7244 41.9198ZM97.0473 37.0588H94.7612V35.9157C94.7612 35.6126 94.8816 35.3218 95.096 35.1075L94.7302 34.7417L95.096 35.1075C95.3103 34.8931 95.6011 34.7727 95.9042 34.7727C96.2074 34.7727 96.4981 34.8931 96.7125 35.1075C96.9268 35.3218 97.0473 35.6126 97.0473 35.9157V37.0588Z" fill="#6772E5" stroke="white" stroke-width="1.0346"/>
<path d="M124.003 29.3072H125.755C125.702 27.3791 123.997 25.98 121.552 25.98C119.136 25.98 117.284 27.3615 117.284 29.4365C117.284 31.1119 118.483 32.0936 120.417 32.6168L121.84 33.0047C123.127 33.3457 124.12 33.7689 124.12 34.8388C124.12 36.0145 122.998 36.7904 121.452 36.7904C120.053 36.7904 118.889 36.1673 118.783 34.8564H116.961C117.078 37.0373 118.765 38.3835 121.463 38.3835C124.291 38.3835 125.919 36.8962 125.919 34.8564C125.919 32.6873 123.985 31.8467 122.457 31.4705L121.281 31.1648C120.341 30.9238 119.089 30.4829 119.094 29.3307C119.094 28.3079 120.029 27.5496 121.51 27.5496C122.892 27.5496 123.874 28.1962 124.003 29.3072ZM131.84 38.3658C133.81 38.3658 135.203 37.3959 135.602 35.9263L133.939 35.6265C133.621 36.4789 132.857 36.9139 131.858 36.9139C130.353 36.9139 129.342 35.938 129.295 34.198H135.714V33.5749C135.714 30.3124 133.762 29.0368 131.717 29.0368C129.201 29.0368 127.543 30.9532 127.543 33.7278C127.543 36.5318 129.177 38.3658 131.84 38.3658ZM129.301 32.8813C129.371 31.5998 130.3 30.4888 131.729 30.4888C133.092 30.4888 133.986 31.4999 133.992 32.8813H129.301ZM141.879 29.1544H140.027V26.9911H138.27V29.1544H136.947V30.5652H138.27V35.8969C138.264 37.537 139.516 38.3306 140.903 38.3012C141.462 38.2953 141.838 38.1895 142.044 38.1131L141.726 36.6611C141.609 36.6846 141.391 36.7375 141.109 36.7375C140.539 36.7375 140.027 36.5494 140.027 35.5324V30.5652H141.879V29.1544ZM153.924 34.4391C153.93 35.9733 152.789 36.7022 151.802 36.7022C150.714 36.7022 149.962 35.9145 149.962 34.6859V29.1544H148.204V34.8976C148.204 37.1372 149.433 38.3012 151.167 38.3012C152.525 38.3012 153.448 37.584 153.865 36.6199H153.959V38.1836H155.687V29.1544H153.924V34.4391ZM158.049 41.5695H159.807V36.7787H159.913C160.23 37.3547 160.877 38.3599 162.523 38.3599C164.709 38.3599 166.296 36.6082 166.296 33.6866C166.296 30.7592 164.686 29.0368 162.505 29.0368C160.83 29.0368 160.224 30.0597 159.913 30.6181H159.766V29.1544H158.049V41.5695ZM159.771 33.669C159.771 31.782 160.594 30.5299 162.129 30.5299C163.722 30.5299 164.521 31.8761 164.521 33.669C164.521 35.4795 163.698 36.861 162.129 36.861C160.618 36.861 159.771 35.5677 159.771 33.669Z" fill="#1C0732"/>
<path d="M172.647 41.5695H174.404V36.7787H174.51C174.827 37.3547 175.474 38.3599 177.12 38.3599C179.307 38.3599 180.894 36.6082 180.894 33.6866C180.894 30.7592 179.283 29.0368 177.102 29.0368C175.427 29.0368 174.822 30.0597 174.51 30.6181H174.363V29.1544H172.647V41.5695ZM174.369 33.669C174.369 31.782 175.192 30.5299 176.726 30.5299C178.319 30.5299 179.119 31.8761 179.119 33.669C179.119 35.4795 178.296 36.861 176.726 36.861C175.215 36.861 174.369 35.5677 174.369 33.669ZM182.863 38.1836H184.621V32.6697C184.621 31.4881 185.532 30.6357 186.778 30.6357C187.143 30.6357 187.554 30.7004 187.695 30.7415V29.0603C187.519 29.0368 187.172 29.0192 186.949 29.0192C185.891 29.0192 184.985 29.6188 184.656 30.5887H184.562V29.1544H182.863V38.1836ZM189.216 38.1836H190.974V29.1544H189.216V38.1836ZM190.104 27.7612C190.709 27.7612 191.215 27.2909 191.215 26.7148C191.215 26.1388 190.709 25.6626 190.104 25.6626C189.493 25.6626 188.993 26.1388 188.993 26.7148C188.993 27.2909 189.493 27.7612 190.104 27.7612ZM201.063 29.1544H199.176L196.895 36.1026H196.801L194.514 29.1544H192.627L195.907 38.1836H197.788L201.063 29.1544ZM205.067 38.3835C206.561 38.3835 207.401 37.6251 207.736 36.9491H207.807V38.1836H209.523V32.1876C209.523 29.56 207.454 29.0368 206.02 29.0368C204.386 29.0368 202.881 29.6952 202.293 31.3411L203.945 31.7174C204.203 31.0766 204.862 30.4594 206.043 30.4594C207.178 30.4594 207.76 31.0531 207.76 32.0759V32.1171C207.76 32.7578 207.101 32.7461 205.479 32.9342C203.768 33.1341 202.017 33.5808 202.017 35.6324C202.017 37.4076 203.351 38.3835 205.067 38.3835ZM205.45 36.9726C204.456 36.9726 203.739 36.5259 203.739 35.6559C203.739 34.7153 204.574 34.3803 205.591 34.2451C206.161 34.1687 207.513 34.0158 207.766 33.763V34.927C207.766 35.9968 206.913 36.9726 205.45 36.9726ZM216.079 29.1544H214.227V26.9911H212.47V29.1544H211.147V30.5652H212.47V35.8969C212.464 37.537 213.716 38.3306 215.103 38.3012C215.662 38.2953 216.038 38.1895 216.244 38.1131L215.926 36.6611C215.809 36.6846 215.591 36.7375 215.309 36.7375C214.739 36.7375 214.227 36.5494 214.227 35.5324V30.5652H216.079V29.1544ZM221.818 38.3658C223.787 38.3658 225.18 37.3959 225.58 35.9263L223.916 35.6265C223.599 36.4789 222.835 36.9139 221.836 36.9139C220.331 36.9139 219.32 35.938 219.273 34.198H225.692V33.5749C225.692 30.3124 223.74 29.0368 221.694 29.0368C219.178 29.0368 217.521 30.9532 217.521 33.7278C217.521 36.5318 219.155 38.3658 221.818 38.3658ZM219.278 32.8813C219.349 31.5998 220.278 30.4888 221.706 30.4888C223.07 30.4888 223.964 31.4999 223.969 32.8813H219.278ZM235.826 38.3658C237.96 38.3658 239.341 37.0843 239.535 35.3267H237.825C237.601 36.3025 236.843 36.8786 235.838 36.8786C234.351 36.8786 233.392 35.6382 233.392 33.669C233.392 31.735 234.368 30.5182 235.838 30.5182C236.955 30.5182 237.637 31.2236 237.825 32.0701H239.535C239.347 30.2478 237.86 29.0368 235.808 29.0368C233.263 29.0368 231.617 30.9532 231.617 33.7101C231.617 36.4318 233.204 38.3658 235.826 38.3658ZM243.173 32.8225C243.173 31.3823 244.084 30.5593 245.336 30.5593C246.547 30.5593 247.27 31.3294 247.27 32.652V38.1836H249.028V32.4404C249.028 30.189 247.793 29.0368 245.935 29.0368C244.531 29.0368 243.684 29.6482 243.261 30.624H243.149V26.1446H241.415V38.1836H243.173V32.8225ZM254.001 38.3835C255.494 38.3835 256.334 37.6251 256.669 36.9491H256.74V38.1836H258.456V32.1876C258.456 29.56 256.387 29.0368 254.953 29.0368C253.319 29.0368 251.814 29.6952 251.226 31.3411L252.878 31.7174C253.137 31.0766 253.795 30.4594 254.976 30.4594C256.111 30.4594 256.693 31.0531 256.693 32.0759V32.1171C256.693 32.7578 256.035 32.7461 254.412 32.9342C252.702 33.1341 250.95 33.5808 250.95 35.6324C250.95 37.4076 252.284 38.3835 254.001 38.3835ZM254.383 36.9726C253.389 36.9726 252.672 36.5259 252.672 35.6559C252.672 34.7153 253.507 34.3803 254.524 34.2451C255.094 34.1687 256.446 34.0158 256.699 33.763V34.927C256.699 35.9968 255.846 36.9726 254.383 36.9726ZM264.601 38.3658C267.146 38.3658 268.81 36.5024 268.81 33.7101C268.81 30.9003 267.146 29.0368 264.601 29.0368C262.056 29.0368 260.392 30.9003 260.392 33.7101C260.392 36.5024 262.056 38.3658 264.601 38.3658ZM264.607 36.8903C262.943 36.8903 262.167 35.4384 262.167 33.7043C262.167 31.976 262.943 30.5064 264.607 30.5064C266.259 30.5064 267.034 31.976 267.034 33.7043C267.034 35.4384 266.259 36.8903 264.607 36.8903ZM277.538 31.3588C277.173 29.9538 276.074 29.0368 274.122 29.0368C272.083 29.0368 270.636 30.1126 270.636 31.7115C270.636 32.993 271.412 33.8453 273.105 34.2216L274.634 34.5566C275.504 34.7506 275.909 35.1386 275.909 35.7029C275.909 36.4024 275.163 36.9491 274.011 36.9491C272.958 36.9491 272.282 36.4965 272.071 35.6089L270.372 35.8675C270.666 37.4664 271.994 38.3658 274.022 38.3658C276.203 38.3658 277.714 37.2078 277.714 35.5736C277.714 34.298 276.903 33.5103 275.245 33.1282L273.811 32.799C272.817 32.5638 272.388 32.2288 272.394 31.6174C272.388 30.9238 273.141 30.43 274.14 30.43C275.233 30.43 275.739 31.0355 275.945 31.6409L277.538 31.3588ZM285.785 32.8225C285.785 31.3823 286.696 30.5593 287.948 30.5593C289.159 30.5593 289.882 31.3294 289.882 32.652V38.1836H291.64V32.4404C291.64 30.189 290.406 29.0368 288.548 29.0368C287.143 29.0368 286.297 29.6482 285.873 30.624H285.762V26.1446H284.027V38.1836H285.785V32.8225ZM299.705 34.4391C299.711 35.9733 298.571 36.7022 297.583 36.7022C296.496 36.7022 295.743 35.9145 295.743 34.6859V29.1544H293.985V34.8976C293.985 37.1372 295.214 38.3012 296.948 38.3012C298.306 38.3012 299.229 37.584 299.646 36.6199H299.74V38.1836H301.469V29.1544H299.705V34.4391ZM303.971 38.1836H305.688V36.7787H305.835C306.152 37.3547 306.799 38.3599 308.445 38.3599C310.632 38.3599 312.219 36.6082 312.219 33.6866C312.219 30.7592 310.608 29.0368 308.427 29.0368C306.752 29.0368 306.146 30.0597 305.835 30.6181H305.729V26.1446H303.971V38.1836ZM305.694 33.669C305.694 31.782 306.517 30.5299 308.051 30.5299C309.644 30.5299 310.443 31.8761 310.443 33.669C310.443 35.4795 309.621 36.861 308.051 36.861C306.54 36.861 305.694 35.5677 305.694 33.669ZM320.958 31.3588C320.594 29.9538 319.495 29.0368 317.543 29.0368C315.503 29.0368 314.057 30.1126 314.057 31.7115C314.057 32.993 314.833 33.8453 316.526 34.2216L318.055 34.5566C318.925 34.7506 319.33 35.1386 319.33 35.7029C319.33 36.4024 318.584 36.9491 317.431 36.9491C316.379 36.9491 315.703 36.4965 315.492 35.6089L313.793 35.8675C314.087 37.4664 315.415 38.3658 317.443 38.3658C319.624 38.3658 321.135 37.2078 321.135 35.5736C321.135 34.298 320.324 33.5103 318.666 33.1282L317.232 32.799C316.238 32.5638 315.809 32.2288 315.815 31.6174C315.809 30.9238 316.561 30.43 317.561 30.43C318.654 30.43 319.16 31.0355 319.365 31.6409L320.958 31.3588Z" fill="#5B44BA"/>
<circle cx="197" cy="71.3204" r="1.00986" fill="white"/>
<circle cx="197" cy="78.3399" r="1.00986" fill="white"/>
<circle cx="197" cy="85.36" r="1.00986" fill="white"/>
<circle cx="197" cy="92.3795" r="1.00986" fill="white"/>
<circle cx="197" cy="99.3995" r="1.00986" fill="white"/>
<circle cx="197" cy="106.419" r="1.00986" fill="white"/>
<circle cx="197" cy="113.439" r="1.00986" fill="white"/>
<circle cx="197" cy="120.459" r="1.00986" fill="white"/>
<circle cx="197" cy="127.478" r="1.00986" fill="white"/>
<circle cx="197" cy="134.498" r="1.00986" fill="white"/>
<circle cx="197" cy="141.518" r="1.00986" fill="white"/>
<circle cx="197" cy="148.537" r="1.00986" fill="white"/>
<circle cx="197" cy="155.557" r="1.00986" fill="white"/>
<path d="M202 323.849L202 225.927L192 225.927L192 323.849L202 323.849Z" fill="url(#paint2_linear)" fill-opacity="0.5"/>
<circle cx="197" cy="233.242" r="1.00986" fill="white"/>
<circle cx="197" cy="240.262" r="1.00986" fill="white"/>
<circle cx="197" cy="247.282" r="1.00986" fill="white"/>
<circle cx="197" cy="254.301" r="1.00986" fill="white"/>
<circle cx="197" cy="261.321" r="1.00986" fill="white"/>
<circle cx="197" cy="268.341" r="1.00986" fill="white"/>
<circle cx="197" cy="275.36" r="1.00986" fill="white"/>
<circle cx="197" cy="282.38" r="1.00986" fill="white"/>
<circle cx="197" cy="289.4" r="1.00986" fill="white"/>
<circle cx="197" cy="296.42" r="1.00986" fill="white"/>
<circle cx="197" cy="303.44" r="1.00986" fill="white"/>
<circle cx="197" cy="310.459" r="1.00986" fill="white"/>
<circle cx="197" cy="317.479" r="1.00986" fill="white"/>
<defs>
<linearGradient id="paint0_linear" x1="197" y1="452.122" x2="197" y2="387.849" gradientUnits="userSpaceOnUse">
<stop stop-color="#CEC7EB"/>
<stop offset="1" stop-color="white" stop-opacity="0"/>
</linearGradient>
<linearGradient id="paint1_linear" x1="197" y1="128.278" x2="197" y2="64.0052" gradientUnits="userSpaceOnUse">
<stop stop-color="#CEC7EB"/>
<stop offset="1" stop-color="white" stop-opacity="0"/>
</linearGradient>
<linearGradient id="paint2_linear" x1="197" y1="290.2" x2="197" y2="225.927" gradientUnits="userSpaceOnUse">
<stop stop-color="#CEC7EB"/>
<stop offset="1" stop-color="white" stop-opacity="0"/>
</linearGradient>
<clipPath id="clip0">
<rect width="32" height="32" fill="white" transform="translate(138.316 502.012)"/>
</clipPath>
<clipPath id="clip1">
<rect width="32" height="32" fill="white" transform="translate(99.9219 340.012)"/>
</clipPath>
<clipPath id="clip2">
<rect width="32" height="32" fill="white" transform="translate(253.601 340.012)"/>
</clipPath>
</defs>
</svg>
