<svg width="54" height="63" viewBox="0 0 54 63" fill="none" xmlns="http://www.w3.org/2000/svg">
<path d="M2.37271 19.1475H0.25V37.4447H2.37271V19.1475Z" fill="#F19389"/>
<path d="M2.37271 35.5723H0.25V37.4445H2.37271V35.5723Z" fill="#F19389"/>
<path d="M6.61881 20.7695H4.49609V37.4454H6.61881V20.7695Z" fill="#F19389"/>
<path d="M6.61881 35.5723H4.49609V37.4445H6.61881V35.5723Z" fill="#F19389"/>
<path d="M10.8639 16.001H8.74121V37.4447H10.8639V16.001Z" fill="#F19389"/>
<path d="M10.8639 35.5723H8.74121V37.4445H10.8639V35.5723Z" fill="#F19389"/>
<path d="M15.11 10.041H12.9873V37.4442H15.11V10.041Z" fill="#F19389"/>
<path d="M15.11 35.5723H12.9873V37.4445H15.11V35.5723Z" fill="#F19389"/>
<path d="M19.3551 29.0527H17.2324V37.4449H19.3551V29.0527Z" fill="#F19389"/>
<path d="M19.3551 35.5723H17.2324V37.4445H19.3551V35.5723Z" fill="#F19389"/>
<path d="M23.6003 0H21.4775V37.4447H23.6003V0Z" fill="#F19389"/>
<path d="M23.6003 35.5723H21.4775V37.4445H23.6003V35.5723Z" fill="#F19389"/>
<path d="M27.8454 30.2139H25.7227V37.4445H27.8454V30.2139Z" fill="#F19389"/>
<path d="M27.8454 35.5723H25.7227V37.4445H27.8454V35.5723Z" fill="#F19389"/>
<path d="M32.0915 6.57031H29.9688V37.4446H32.0915V6.57031Z" fill="#F19389"/>
<path d="M32.0915 35.5723H29.9688V37.4445H32.0915V35.5723Z" fill="#F19389"/>
<path d="M36.3366 8.5332H34.2139V37.4442H36.3366V8.5332Z" fill="#F19389"/>
<path d="M36.3366 35.5723H34.2139V37.4445H36.3366V35.5723Z" fill="#F19389"/>
<path d="M40.5827 12.2666H38.46V37.4442H40.5827V12.2666Z" fill="#F19389"/>
<path d="M40.5827 35.5723H38.46V37.4445H40.5827V35.5723Z" fill="#F19389"/>
<path d="M44.8278 32.708H42.7051V37.4445H44.8278V32.708Z" fill="#F19389"/>
<path d="M44.8278 35.5723H42.7051V37.4445H44.8278V35.5723Z" fill="#F19389"/>
<path d="M49.0729 24.5205H46.9502V37.4448H49.0729V24.5205Z" fill="#F19389"/>
<path d="M49.0729 35.5723H46.9502V37.4445H49.0729V35.5723Z" fill="#F19389"/>
<path d="M53.319 2.96875H51.1963V37.4456H53.319V2.96875Z" fill="#F19389"/>
<path d="M53.319 35.5723H51.1963V37.4445H53.319V35.5723Z" fill="#F19389"/>
<path d="M2.12271 62.0518H0V49.9267H2.12271V62.0518Z" fill="#F19389"/>
<path d="M2.12271 51.7988H0V49.9266H2.12271V51.7988Z" fill="#F19389"/>
<path d="M6.36783 56.6133H4.24512V49.9269H6.36783V56.6133Z" fill="#F19389"/>
<path d="M6.36783 51.7988H4.24512V49.9266H6.36783V51.7988Z" fill="#F19389"/>
<path d="M10.6139 50.0723H8.49121V49.9266H10.6139V50.0723Z" fill="#F19389"/>
<path d="M10.6139 51.7988H8.49121V49.9266H10.6139V51.7988Z" fill="#F19389"/>
<path d="M14.859 57.1543H12.7363V49.9267H14.859V57.1543Z" fill="#F19389"/>
<path d="M14.859 51.7988H12.7363V49.9266H14.859V51.7988Z" fill="#F19389"/>
<path d="M19.1042 54.3926H16.9814V49.9273H19.1042V54.3926Z" fill="#F19389"/>
<path d="M19.1042 51.7988H16.9814V49.9266H19.1042V51.7988Z" fill="#F19389"/>
<path d="M23.3493 61.3027H21.2266V49.9271H23.3493V61.3027Z" fill="#F19389"/>
<path d="M23.3493 51.7988H21.2266V49.9266H23.3493V51.7988Z" fill="#F19389"/>
<path d="M27.5954 58.2471H25.4727V49.9269H27.5954V58.2471Z" fill="#F19389"/>
<path d="M27.5954 51.7988H25.4727V49.9266H27.5954V51.7988Z" fill="#F19389"/>
<path d="M31.8405 62.7217H29.7178V49.9263H31.8405V62.7217Z" fill="#F19389"/>
<path d="M31.8405 51.7988H29.7178V49.9266H31.8405V51.7988Z" fill="#F19389"/>
<path d="M36.0866 56.3232H33.9639V49.927H36.0866V56.3232Z" fill="#F19389"/>
<path d="M36.0866 51.7988H33.9639V49.9266H36.0866V51.7988Z" fill="#F19389"/>
<path d="M40.3317 53.9111H38.209V49.9272H40.3317V53.9111Z" fill="#F19389"/>
<path d="M40.3317 51.7988H38.209V49.9266H40.3317V51.7988Z" fill="#F19389"/>
<path d="M44.5778 60.1299H42.4551V49.9261H44.5778V60.1299Z" fill="#F19389"/>
<path d="M44.5778 51.7988H42.4551V49.9266H44.5778V51.7988Z" fill="#F19389"/>
<path d="M48.8229 51.8438H46.7002V49.9266H48.8229V51.8438Z" fill="#F19389"/>
<path d="M48.8229 51.7988H46.7002V49.9266H48.8229V51.7988Z" fill="#F19389"/>
<path d="M53.068 52.8047H50.9453V49.9275H53.068V52.8047Z" fill="#F19389"/>
<path d="M53.068 51.7988H50.9453V49.9266H53.068V51.7988Z" fill="#F19389"/>
</svg>
