<svg width="680" height="697" viewBox="0 0 680 697" fill="none" xmlns="http://www.w3.org/2000/svg">
<rect x="0.5" y="0.5" width="679" height="695.836" rx="9.5" fill="white" fill-opacity="0.05" stroke="url(#paint0_radial)"/>
<path d="M345 536.758L345 438.837L335 438.837L335 536.758L345 536.758Z" fill="url(#paint1_linear)" fill-opacity="0.5"/>
<circle cx="340" cy="446.152" r="1.00986" fill="white"/>
<circle cx="340" cy="453.171" r="1.00986" fill="white"/>
<circle cx="340" cy="460.191" r="1.00986" fill="white"/>
<circle cx="340" cy="467.211" r="1.00986" fill="white"/>
<circle cx="340" cy="474.231" r="1.00986" fill="white"/>
<circle cx="340" cy="481.251" r="1.00986" fill="white"/>
<circle cx="340" cy="488.27" r="1.00986" fill="white"/>
<circle cx="340" cy="495.29" r="1.00986" fill="white"/>
<circle cx="340" cy="502.31" r="1.00986" fill="white"/>
<circle cx="340" cy="509.329" r="1.00986" fill="white"/>
<circle cx="340" cy="516.349" r="1.00986" fill="white"/>
<circle cx="340" cy="523.369" r="1.00986" fill="white"/>
<circle cx="340" cy="530.389" r="1.00986" fill="white"/>
<rect x="249.316" y="536.759" width="181.368" height="64" rx="5" fill="white"/>
<g clip-path="url(#clip0)">
<path d="M285.159 570.234C285.098 569.72 285.066 569.208 285.066 568.759C285.066 562.046 290.603 556.509 297.316 556.509C300.447 556.509 303.378 557.771 305.535 559.74L304.453 560.84C304.21 561.084 304.116 561.44 304.21 561.778C304.322 562.096 304.585 562.34 304.922 562.415C305.111 562.453 311.311 564.451 310.916 564.371C311.418 564.539 312.161 564.003 312.022 563.265C311.984 563.076 310.612 556.189 310.691 556.584C310.616 556.246 310.372 555.965 310.035 555.871C309.716 555.778 309.36 555.871 309.116 556.115L308.197 557.015C305.366 554.371 301.478 552.759 297.316 552.759C288.522 552.759 281.316 559.965 281.316 568.759V568.796C281.316 569.325 281.34 569.733 281.368 570.046C281.406 570.46 281.711 570.799 282.118 570.881L284.044 571.266C284.671 571.391 285.235 570.865 285.159 570.234Z" fill="#0098DD"/>
<path d="M312.52 566.636L310.588 566.242C309.96 566.114 309.393 566.64 309.47 567.274C309.537 567.821 309.566 568.353 309.566 568.759C309.566 575.471 304.029 581.009 297.316 581.009C294.185 581.009 291.254 579.746 289.098 577.759L290.179 576.678C290.423 576.434 290.516 576.078 290.423 575.74C290.31 575.421 290.048 575.178 289.71 575.103C289.522 575.064 283.322 573.067 283.717 573.146C283.398 573.09 283.079 573.184 282.873 573.409C282.648 573.615 282.554 573.952 282.61 574.252C282.648 574.441 284.021 581.266 283.942 580.871C284.016 581.209 284.26 581.49 284.598 581.584C284.989 581.682 285.316 581.563 285.516 581.34L286.417 580.44C289.248 583.084 293.135 584.759 297.316 584.759C306.11 584.759 313.316 577.553 313.316 568.759V568.702C313.316 568.287 313.301 567.879 313.267 567.473C313.231 567.059 312.927 566.719 312.52 566.636Z" fill="#0098DD"/>
</g>
<path d="M322.898 574.93L324.003 571.744H328.706L329.805 574.93H331.733L327.401 562.891H325.302L320.97 574.93H322.898ZM324.532 570.216L326.307 565.078H326.401L328.177 570.216H324.532ZM339.05 571.186C339.056 572.72 337.916 573.449 336.928 573.449C335.84 573.449 335.088 572.661 335.088 571.433V565.901H333.33V571.644C333.33 573.884 334.559 575.048 336.293 575.048C337.651 575.048 338.574 574.331 338.991 573.367H339.085V574.93H340.814V565.901H339.05V571.186ZM347.39 565.901H345.538V563.738H343.781V565.901H342.458V567.312H343.781V572.643C343.775 574.284 345.027 575.077 346.414 575.048C346.973 575.042 347.349 574.936 347.555 574.86L347.237 573.408C347.12 573.431 346.902 573.484 346.62 573.484C346.05 573.484 345.538 573.296 345.538 572.279V567.312H347.39V565.901ZM353.041 575.112C355.586 575.112 357.25 573.249 357.25 570.457C357.25 567.647 355.586 565.783 353.041 565.783C350.495 565.783 348.832 567.647 348.832 570.457C348.832 573.249 350.495 575.112 353.041 575.112ZM353.047 573.637C351.383 573.637 350.607 572.185 350.607 570.451C350.607 568.723 351.383 567.253 353.047 567.253C354.698 567.253 355.474 568.723 355.474 570.451C355.474 572.185 354.698 573.637 353.047 573.637ZM359.211 574.93H360.969V569.363C360.969 568.147 361.821 567.3 362.821 567.3C363.797 567.3 364.473 567.947 364.473 568.928V574.93H366.224V569.175C366.224 568.088 366.889 567.3 368.035 567.3C368.964 567.3 369.728 567.817 369.728 569.04V574.93H371.486V568.875C371.486 566.812 370.333 565.783 368.699 565.783C367.4 565.783 366.424 566.407 365.989 567.371H365.895C365.501 566.383 364.673 565.783 363.467 565.783C362.274 565.783 361.386 566.377 361.01 567.371H360.899V565.901H359.211V574.93ZM376.469 575.13C377.962 575.13 378.803 574.372 379.138 573.696H379.208V574.93H380.925V568.934C380.925 566.307 378.856 565.783 377.421 565.783C375.787 565.783 374.282 566.442 373.694 568.088L375.346 568.464C375.605 567.823 376.263 567.206 377.445 567.206C378.579 567.206 379.161 567.8 379.161 568.823V568.864C379.161 569.504 378.503 569.493 376.88 569.681C375.17 569.881 373.418 570.327 373.418 572.379C373.418 574.154 374.752 575.13 376.469 575.13ZM376.851 573.719C375.858 573.719 375.14 573.272 375.14 572.402C375.14 571.462 375.975 571.127 376.992 570.992C377.562 570.915 378.914 570.762 379.167 570.51V571.674C379.167 572.743 378.315 573.719 376.851 573.719ZM387.481 565.901H385.629V563.738H383.871V565.901H382.549V567.312H383.871V572.643C383.865 574.284 385.118 575.077 386.505 575.048C387.063 575.042 387.44 574.936 387.645 574.86L387.328 573.408C387.21 573.431 386.993 573.484 386.711 573.484C386.14 573.484 385.629 573.296 385.629 572.279V567.312H387.481V565.901ZM393.219 575.112C395.189 575.112 396.582 574.142 396.982 572.673L395.318 572.373C395.001 573.225 394.236 573.66 393.237 573.66C391.732 573.66 390.721 572.685 390.674 570.945H397.093V570.322C397.093 567.059 395.142 565.783 393.096 565.783C390.58 565.783 388.922 567.7 388.922 570.474C388.922 573.278 390.557 575.112 393.219 575.112ZM390.68 569.628C390.751 568.346 391.679 567.235 393.108 567.235C394.472 567.235 395.365 568.246 395.371 569.628H390.68Z" fill="#0098DD"/>
<rect x="143.197" y="212.915" width="393.607" height="64" rx="5" fill="white"/>
<path d="M207.197 244.915C207.197 253.751 200.033 260.915 191.197 260.915C182.36 260.915 175.197 253.751 175.197 244.915C175.197 236.078 182.36 228.915 191.197 228.915C200.033 228.915 207.197 236.078 207.197 244.915Z" fill="#87BBFD"/>
<path d="M181.86 235.51V236.446V235.51ZM181.86 235.51V236.446V235.51ZM182.328 235.978H181.392H182.328ZM192.153 253.056V254.459V253.056ZM192.855 253.758H191.451H192.855ZM199.64 240.189V242.06V240.189ZM200.576 241.125H198.704H200.576Z" fill="black"/>
<path fill-rule="evenodd" clip-rule="evenodd" d="M181.86 235.176C182.044 235.176 182.193 235.326 182.193 235.51V235.644H182.328C182.512 235.644 182.661 235.793 182.661 235.977C182.661 236.162 182.512 236.311 182.328 236.311H182.193V236.445C182.193 236.629 182.044 236.779 181.86 236.779C181.676 236.779 181.526 236.629 181.526 236.445V236.311H181.392C181.208 236.311 181.059 236.162 181.059 235.977C181.059 235.793 181.208 235.644 181.392 235.644H181.526V235.51C181.526 235.326 181.676 235.176 181.86 235.176ZM199.64 239.855C199.824 239.855 199.973 240.004 199.973 240.189V240.791H200.576C200.76 240.791 200.909 240.94 200.909 241.124C200.909 241.308 200.76 241.458 200.576 241.458H199.973V242.06C199.973 242.244 199.824 242.393 199.64 242.393C199.456 242.393 199.306 242.244 199.306 242.06V241.458H198.704C198.52 241.458 198.371 241.308 198.371 241.124C198.371 240.94 198.52 240.791 198.704 240.791H199.306V240.189C199.306 240.004 199.456 239.855 199.64 239.855ZM192.154 252.722C192.338 252.722 192.487 252.871 192.487 253.055V253.424H192.855C193.039 253.424 193.188 253.573 193.188 253.758C193.188 253.942 193.039 254.091 192.855 254.091H192.487V254.459C192.487 254.643 192.338 254.792 192.154 254.792C191.969 254.792 191.82 254.643 191.82 254.459V254.091H191.451C191.267 254.091 191.118 253.942 191.118 253.758C191.118 253.573 191.267 253.424 191.451 253.424H191.82V253.055C191.82 252.871 191.969 252.722 192.154 252.722Z" fill="#6772E5"/>
<path d="M198.259 250.744L192.841 247.435L198.259 250.744Z" fill="black"/>
<path fill-rule="evenodd" clip-rule="evenodd" d="M191.196 237.956C191.334 237.956 191.446 238.067 191.446 238.206V244.494C191.446 244.632 191.334 244.744 191.196 244.744C191.058 244.744 190.946 244.632 190.946 244.494V238.206C190.946 238.067 191.058 237.956 191.196 237.956ZM189.765 247.305C189.837 247.423 189.799 247.577 189.682 247.649L184.264 250.958C184.146 251.029 183.992 250.992 183.92 250.874C183.848 250.757 183.885 250.603 184.003 250.531L189.421 247.222C189.539 247.15 189.693 247.187 189.765 247.305ZM192.627 247.305C192.699 247.187 192.853 247.15 192.971 247.222L198.389 250.531C198.507 250.603 198.544 250.757 198.472 250.874C198.4 250.992 198.246 251.029 198.128 250.958L192.71 247.649C192.593 247.577 192.555 247.423 192.627 247.305Z" fill="white"/>
<path d="M191.195 248.437C191.708 248.437 192.2 248.233 192.563 247.87C192.926 247.508 193.13 247.015 193.13 246.502C193.13 245.989 192.926 245.497 192.563 245.134C192.2 244.771 191.708 244.567 191.195 244.567C190.682 244.567 190.189 244.771 189.827 245.134C189.464 245.497 189.26 245.989 189.26 246.502C189.26 247.015 189.464 247.508 189.827 247.87C190.189 248.233 190.682 248.437 191.195 248.437ZM199.902 253.758C200.415 253.758 200.908 253.554 201.27 253.192C201.633 252.829 201.837 252.337 201.837 251.823C201.837 251.31 201.633 250.818 201.27 250.455C200.908 250.092 200.415 249.888 199.902 249.888C199.389 249.888 198.897 250.092 198.534 250.455C198.171 250.818 197.967 251.31 197.967 251.823C197.967 252.337 198.171 252.829 198.534 253.192C198.897 253.554 199.389 253.758 199.902 253.758ZM182.487 253.758C183.001 253.758 183.493 253.554 183.856 253.192C184.219 252.829 184.422 252.337 184.422 251.823C184.422 251.31 184.219 250.818 183.856 250.455C183.493 250.092 183.001 249.888 182.487 249.888C181.974 249.888 181.482 250.092 181.119 250.455C180.756 250.818 180.552 251.31 180.552 251.823C180.552 252.337 180.756 252.829 181.119 253.192C181.482 253.554 181.974 253.758 182.487 253.758ZM191.195 238.279C191.708 238.279 192.2 238.075 192.563 237.712C192.926 237.349 193.13 236.857 193.13 236.344C193.13 235.83 192.926 235.338 192.563 234.975C192.2 234.613 191.708 234.409 191.195 234.409C190.682 234.409 190.189 234.613 189.827 234.975C189.464 235.338 189.26 235.83 189.26 236.344C189.26 236.857 189.464 237.349 189.827 237.712C190.189 238.075 190.682 238.279 191.195 238.279Z" fill="black"/>
<path fill-rule="evenodd" clip-rule="evenodd" d="M189.474 234.622C189.93 234.166 190.55 233.909 191.196 233.909C191.841 233.909 192.461 234.166 192.917 234.622C193.374 235.079 193.631 235.698 193.631 236.344C193.631 236.99 193.374 237.609 192.917 238.066C192.461 238.523 191.841 238.779 191.196 238.779C190.55 238.779 189.93 238.523 189.474 238.066C189.017 237.609 188.761 236.99 188.761 236.344C188.761 235.698 189.017 235.079 189.474 234.622ZM191.196 234.909C190.815 234.909 190.45 235.06 190.181 235.329C189.912 235.599 189.761 235.964 189.761 236.344C189.761 236.725 189.912 237.09 190.181 237.359C190.45 237.628 190.815 237.779 191.196 237.779C191.576 237.779 191.941 237.628 192.21 237.359C192.479 237.09 192.631 236.725 192.631 236.344C192.631 235.964 192.479 235.599 192.21 235.329C191.941 235.06 191.576 234.909 191.196 234.909ZM189.474 244.781C189.93 244.324 190.55 244.068 191.196 244.068C191.841 244.068 192.461 244.324 192.917 244.781C193.374 245.238 193.631 245.857 193.631 246.503C193.631 247.149 193.374 247.768 192.917 248.225C192.461 248.681 191.841 248.938 191.196 248.938C190.55 248.938 189.93 248.681 189.474 248.225C189.017 247.768 188.761 247.149 188.761 246.503C188.761 245.857 189.017 245.238 189.474 244.781ZM191.196 245.068C190.815 245.068 190.45 245.219 190.181 245.488C189.912 245.757 189.761 246.122 189.761 246.503C189.761 246.883 189.912 247.248 190.181 247.517C190.45 247.787 190.815 247.938 191.196 247.938C191.576 247.938 191.941 247.787 192.21 247.517C192.479 247.248 192.631 246.883 192.631 246.503C192.631 246.122 192.479 245.757 192.21 245.488C191.941 245.219 191.576 245.068 191.196 245.068ZM180.766 250.102C181.223 249.645 181.842 249.389 182.488 249.389C183.134 249.389 183.753 249.645 184.21 250.102C184.667 250.559 184.923 251.178 184.923 251.824C184.923 252.47 184.667 253.089 184.21 253.546C183.753 254.002 183.134 254.259 182.488 254.259C181.842 254.259 181.223 254.002 180.766 253.546C180.31 253.089 180.053 252.47 180.053 251.824C180.053 251.178 180.31 250.559 180.766 250.102ZM182.488 250.389C182.108 250.389 181.743 250.54 181.474 250.809C181.204 251.078 181.053 251.443 181.053 251.824C181.053 252.204 181.204 252.569 181.474 252.839C181.743 253.108 182.108 253.259 182.488 253.259C182.869 253.259 183.234 253.108 183.503 252.839C183.772 252.569 183.923 252.204 183.923 251.824C183.923 251.443 183.772 251.078 183.503 250.809C183.234 250.54 182.869 250.389 182.488 250.389ZM198.181 250.102C198.638 249.645 199.257 249.389 199.903 249.389C200.549 249.389 201.168 249.645 201.625 250.102C202.081 250.559 202.338 251.178 202.338 251.824C202.338 252.47 202.081 253.089 201.625 253.546C201.168 254.002 200.549 254.259 199.903 254.259C199.257 254.259 198.638 254.002 198.181 253.546C197.724 253.089 197.468 252.47 197.468 251.824C197.468 251.178 197.724 250.559 198.181 250.102ZM199.903 250.389C199.522 250.389 199.157 250.54 198.888 250.809C198.619 251.078 198.468 251.443 198.468 251.824C198.468 252.204 198.619 252.569 198.888 252.839C199.157 253.108 199.522 253.259 199.903 253.259C200.283 253.259 200.648 253.108 200.918 252.839C201.187 252.569 201.338 252.204 201.338 251.824C201.338 251.443 201.187 251.078 200.918 250.809C200.648 250.54 200.283 250.389 199.903 250.389Z" fill="#6772E5"/>
<path d="M222.414 251.086C226.082 251.086 228.204 248.811 228.204 245.049C228.204 241.304 226.082 239.047 222.538 239.047H218.517V251.086H222.414ZM220.333 249.499V240.634H222.426C225.06 240.634 226.417 242.21 226.417 245.049C226.417 247.9 225.06 249.499 222.314 249.499H220.333ZM234.214 251.268C236.183 251.268 237.576 250.298 237.976 248.829L236.312 248.529C235.995 249.381 235.231 249.816 234.231 249.816C232.726 249.816 231.715 248.84 231.668 247.1H238.088V246.477C238.088 243.215 236.136 241.939 234.09 241.939C231.574 241.939 229.917 243.856 229.917 246.63C229.917 249.434 231.551 251.268 234.214 251.268ZM231.674 245.784C231.745 244.502 232.674 243.391 234.102 243.391C235.466 243.391 236.359 244.402 236.365 245.784H231.674ZM247.487 242.057H245.6L243.319 249.005H243.225L240.939 242.057H239.052L242.332 251.086H244.213L247.487 242.057ZM252.707 251.268C254.676 251.268 256.07 250.298 256.469 248.829L254.806 248.529C254.488 249.381 253.724 249.816 252.725 249.816C251.22 249.816 250.209 248.84 250.162 247.1H256.581V246.477C256.581 243.215 254.629 241.939 252.584 241.939C250.068 241.939 248.41 243.856 248.41 246.63C248.41 249.434 250.044 251.268 252.707 251.268ZM250.168 245.784C250.238 244.502 251.167 243.391 252.595 243.391C253.959 243.391 254.853 244.402 254.859 245.784H250.168ZM260.289 239.047H258.531V251.086H260.289V239.047ZM266.457 251.268C269.002 251.268 270.666 249.405 270.666 246.612C270.666 243.803 269.002 241.939 266.457 241.939C263.911 241.939 262.248 243.803 262.248 246.612C262.248 249.405 263.911 251.268 266.457 251.268ZM266.463 249.793C264.799 249.793 264.023 248.341 264.023 246.607C264.023 244.878 264.799 243.409 266.463 243.409C268.114 243.409 268.89 244.878 268.89 246.607C268.89 248.341 268.114 249.793 266.463 249.793ZM272.627 254.472H274.385V249.681H274.491C274.808 250.257 275.455 251.262 277.101 251.262C279.288 251.262 280.875 249.511 280.875 246.589C280.875 243.662 279.264 241.939 277.083 241.939C275.408 241.939 274.802 242.962 274.491 243.52H274.344V242.057H272.627V254.472ZM274.35 246.571C274.35 244.684 275.173 243.432 276.707 243.432C278.3 243.432 279.1 244.778 279.1 246.571C279.1 248.382 278.277 249.763 276.707 249.763C275.196 249.763 274.35 248.47 274.35 246.571ZM288.336 254.472C289.788 254.472 290.705 253.714 291.228 252.291L294.961 242.074L293.062 242.057L290.776 249.064H290.681L288.395 242.057H286.514L289.817 251.204L289.6 251.803C289.153 253.002 288.524 253.102 287.56 252.838L287.137 254.278C287.348 254.372 287.807 254.472 288.336 254.472ZM300.097 251.268C302.643 251.268 304.306 249.405 304.306 246.612C304.306 243.803 302.643 241.939 300.097 241.939C297.552 241.939 295.888 243.803 295.888 246.612C295.888 249.405 297.552 251.268 300.097 251.268ZM300.103 249.793C298.44 249.793 297.664 248.341 297.664 246.607C297.664 244.878 298.44 243.409 300.103 243.409C301.755 243.409 302.531 244.878 302.531 246.607C302.531 248.341 301.755 249.793 300.103 249.793ZM311.988 247.341C311.994 248.876 310.853 249.605 309.866 249.605C308.778 249.605 308.026 248.817 308.026 247.588V242.057H306.268V247.8C306.268 250.04 307.497 251.204 309.231 251.204C310.589 251.204 311.512 250.486 311.929 249.522H312.023V251.086H313.751V242.057H311.988V247.341ZM316.113 251.086H317.871V245.572C317.871 244.39 318.782 243.538 320.028 243.538C320.392 243.538 320.804 243.603 320.945 243.644V241.963C320.769 241.939 320.422 241.922 320.198 241.922C319.14 241.922 318.235 242.521 317.906 243.491H317.812V242.057H316.113V251.086ZM364.621 251.086H371.893V249.522H366.438V239.047H364.621V251.086ZM373.824 251.086H375.582V242.057H373.824V251.086ZM374.712 240.664C375.317 240.664 375.823 240.193 375.823 239.617C375.823 239.041 375.317 238.565 374.712 238.565C374.1 238.565 373.601 239.041 373.601 239.617C373.601 240.193 374.1 240.664 374.712 240.664ZM382.161 242.057H380.309V239.893H378.552V242.057H377.229V243.468H378.552V248.799C378.546 250.439 379.798 251.233 381.185 251.204C381.744 251.198 382.12 251.092 382.326 251.015L382.008 249.563C381.891 249.587 381.673 249.64 381.391 249.64C380.821 249.64 380.309 249.452 380.309 248.435V243.468H382.161V242.057ZM384.105 251.086H385.863V245.519C385.863 244.302 386.715 243.456 387.715 243.456C388.69 243.456 389.367 244.102 389.367 245.084V251.086H391.118V245.331C391.118 244.243 391.783 243.456 392.929 243.456C393.858 243.456 394.622 243.973 394.622 245.196V251.086H396.379V245.031C396.379 242.968 395.227 241.939 393.593 241.939C392.294 241.939 391.318 242.562 390.883 243.526H390.789C390.395 242.539 389.566 241.939 388.361 241.939C387.168 241.939 386.28 242.533 385.904 243.526H385.792V242.057H384.105V251.086ZM404.455 247.341C404.461 248.876 403.32 249.605 402.333 249.605C401.245 249.605 400.493 248.817 400.493 247.588V242.057H398.735V247.8C398.735 250.04 399.964 251.204 401.698 251.204C403.056 251.204 403.979 250.486 404.396 249.522H404.49V251.086H406.218V242.057H404.455V247.341ZM415.346 244.261C414.982 242.856 413.882 241.939 411.931 241.939C409.891 241.939 408.445 243.015 408.445 244.614C408.445 245.895 409.221 246.748 410.914 247.124L412.442 247.459C413.312 247.653 413.718 248.041 413.718 248.605C413.718 249.305 412.971 249.851 411.819 249.851C410.767 249.851 410.091 249.399 409.879 248.511L408.18 248.77C408.474 250.369 409.803 251.268 411.831 251.268C414.012 251.268 415.522 250.11 415.522 248.476C415.522 247.2 414.711 246.413 413.053 246.031L411.619 245.701C410.626 245.466 410.197 245.131 410.202 244.52C410.197 243.826 410.949 243.332 411.948 243.332C413.042 243.332 413.547 243.938 413.753 244.543L415.346 244.261ZM423.793 251.086H425.58L427.414 244.567H427.55L429.384 251.086H431.177L433.828 242.057H432.011L430.254 248.658H430.165L428.402 242.057H426.586L424.81 248.688H424.722L422.953 242.057H421.136L423.793 251.086ZM439.024 251.268C441.57 251.268 443.233 249.405 443.233 246.612C443.233 243.803 441.57 241.939 439.024 241.939C436.479 241.939 434.815 243.803 434.815 246.612C434.815 249.405 436.479 251.268 439.024 251.268ZM439.03 249.793C437.367 249.793 436.591 248.341 436.591 246.607C436.591 244.878 437.367 243.409 439.03 243.409C440.682 243.409 441.458 244.878 441.458 246.607C441.458 248.341 440.682 249.793 439.03 249.793ZM445.195 251.086H446.953V245.572C446.953 244.39 447.864 243.538 449.11 243.538C449.475 243.538 449.886 243.603 450.027 243.644V241.963C449.851 241.939 449.504 241.922 449.281 241.922C448.222 241.922 447.317 242.521 446.988 243.491H446.894V242.057H445.195V251.086ZM451.548 251.086H453.306V247.882L454.182 247.006L457.25 251.086H459.408L455.504 245.931L459.161 242.057H457.056L453.459 245.878H453.306V239.047H451.548V251.086ZM465.06 242.057H463.114V241.246C463.114 240.446 463.443 240.011 464.301 240.011C464.666 240.011 464.924 240.093 465.089 240.146L465.501 238.724C465.254 238.63 464.742 238.483 464.031 238.483C462.602 238.483 461.35 239.317 461.35 241.01V242.057H459.957V243.468H461.35V251.086H463.114V243.468H465.06V242.057ZM468.631 239.047H466.873V251.086H468.631V239.047ZM474.799 251.268C477.344 251.268 479.008 249.405 479.008 246.612C479.008 243.803 477.344 241.939 474.799 241.939C472.253 241.939 470.59 243.803 470.59 246.612C470.59 249.405 472.253 251.268 474.799 251.268ZM474.805 249.793C473.141 249.793 472.365 248.341 472.365 246.607C472.365 244.878 473.141 243.409 474.805 243.409C476.456 243.409 477.232 244.878 477.232 246.607C477.232 248.341 476.456 249.793 474.805 249.793ZM482.652 251.086H484.439L486.273 244.567H486.408L488.243 251.086H490.035L492.687 242.057H490.87L489.113 248.658H489.024L487.261 242.057H485.444L483.669 248.688H483.581L481.812 242.057H479.995L482.652 251.086ZM501.121 244.261C500.756 242.856 499.657 241.939 497.705 241.939C495.665 241.939 494.219 243.015 494.219 244.614C494.219 245.895 494.995 246.748 496.688 247.124L498.217 247.459C499.087 247.653 499.492 248.041 499.492 248.605C499.492 249.305 498.746 249.851 497.594 249.851C496.541 249.851 495.865 249.399 495.654 248.511L493.955 248.77C494.249 250.369 495.577 251.268 497.605 251.268C499.786 251.268 501.297 250.11 501.297 248.476C501.297 247.2 500.486 246.413 498.828 246.031L497.394 245.701C496.4 245.466 495.971 245.131 495.977 244.52C495.971 243.826 496.724 243.332 497.723 243.332C498.816 243.332 499.322 243.938 499.528 244.543L501.121 244.261Z" fill="#1C0732"/>
<path d="M330.65 251.268C333.196 251.268 334.859 249.405 334.859 246.612C334.859 243.803 333.196 241.939 330.65 241.939C328.105 241.939 326.441 243.803 326.441 246.612C326.441 249.405 328.105 251.268 330.65 251.268ZM330.656 249.793C328.992 249.793 328.217 248.341 328.217 246.607C328.217 244.878 328.992 243.409 330.656 243.409C332.308 243.409 333.084 244.878 333.084 246.607C333.084 248.341 332.308 249.793 330.656 249.793ZM338.504 251.086H340.291L342.125 244.567H342.26L344.094 251.086H345.887L348.538 242.057H346.722L344.964 248.658H344.876L343.112 242.057H341.296L339.521 248.688H339.432L337.663 242.057H335.847L338.504 251.086ZM351.964 245.725C351.964 244.285 352.846 243.462 354.068 243.462C355.262 243.462 355.985 244.243 355.985 245.554V251.086H357.742V245.343C357.742 243.109 356.514 241.939 354.668 241.939C353.31 241.939 352.422 242.568 352.005 243.526H351.893V242.057H350.206V251.086H351.964V245.725Z" fill="#5B44BA"/>
<rect x="156.929" y="374.836" width="366.141" height="64" rx="5" fill="white"/>
<path d="M196.899 404.131H198.65C198.598 402.203 196.893 400.804 194.447 400.804C192.031 400.804 190.18 402.186 190.18 404.261C190.18 405.936 191.379 406.918 193.313 407.441L194.735 407.829C196.023 408.17 197.016 408.593 197.016 409.663C197.016 410.839 195.893 411.615 194.347 411.615C192.948 411.615 191.784 410.992 191.679 409.681H189.856C189.974 411.862 191.661 413.208 194.359 413.208C197.187 413.208 198.815 411.72 198.815 409.681C198.815 407.512 196.881 406.671 195.353 406.295L194.177 405.989C193.236 405.748 191.984 405.307 191.99 404.155C191.99 403.132 192.925 402.374 194.406 402.374C195.788 402.374 196.769 403.02 196.899 404.131ZM204.736 413.19C206.705 413.19 208.098 412.22 208.498 410.751L206.835 410.451C206.517 411.303 205.753 411.738 204.754 411.738C203.249 411.738 202.238 410.762 202.191 409.022H208.61V408.399C208.61 405.137 206.658 403.861 204.613 403.861C202.097 403.861 200.439 405.777 200.439 408.552C200.439 411.356 202.073 413.19 204.736 413.19ZM202.197 407.706C202.267 406.424 203.196 405.313 204.624 405.313C205.988 405.313 206.882 406.324 206.888 407.706H202.197ZM214.775 403.979H212.923V401.815H211.166V403.979H209.843V405.389H211.166V410.721C211.16 412.361 212.412 413.155 213.799 413.125C214.358 413.12 214.734 413.014 214.939 412.937L214.622 411.485C214.504 411.509 214.287 411.562 214.005 411.562C213.435 411.562 212.923 411.374 212.923 410.357V405.389H214.775V403.979ZM222.439 409.263C222.445 410.798 221.304 411.526 220.317 411.526C219.229 411.526 218.477 410.739 218.477 409.51V403.979H216.719V409.722C216.719 411.961 217.948 413.125 219.682 413.125C221.04 413.125 221.963 412.408 222.38 411.444H222.474V413.008H224.202V403.979H222.439V409.263ZM226.564 416.394H228.322V411.603H228.427C228.745 412.179 229.392 413.184 231.037 413.184C233.224 413.184 234.811 411.432 234.811 408.511C234.811 405.583 233.201 403.861 231.02 403.861C229.344 403.861 228.739 404.884 228.427 405.442H228.28V403.979H226.564V416.394ZM228.286 408.493C228.286 406.606 229.109 405.354 230.644 405.354C232.237 405.354 233.036 406.7 233.036 408.493C233.036 410.304 232.213 411.685 230.644 411.685C229.133 411.685 228.286 410.392 228.286 408.493Z" fill="#1C0732"/>
<g clip-path="url(#clip1)">
<path d="M250.922 391.836C250.922 391.571 250.816 391.317 250.629 391.129C250.441 390.942 250.187 390.836 249.922 390.836C249.656 390.836 249.402 390.942 249.215 391.129C249.027 391.317 248.922 391.571 248.922 391.836V392.836H246.922C245.861 392.836 244.843 393.258 244.093 394.008C243.343 394.758 242.922 395.776 242.922 396.836V398.836H274.922V396.836C274.922 395.776 274.5 394.758 273.75 394.008C273 393.258 271.982 392.836 270.922 392.836H268.922V391.836C268.922 391.571 268.816 391.317 268.629 391.129C268.441 390.942 268.187 390.836 267.922 390.836C267.656 390.836 267.402 390.942 267.215 391.129C267.027 391.317 266.922 391.571 266.922 391.836V392.836H250.922V391.836ZM274.922 418.836V400.836H242.922V418.836C242.922 419.897 243.343 420.915 244.093 421.665C244.843 422.415 245.861 422.836 246.922 422.836H270.922C271.982 422.836 273 422.415 273.75 421.665C274.5 420.915 274.922 419.897 274.922 418.836ZM261.922 404.836H263.922C264.187 404.836 264.441 404.942 264.629 405.129C264.816 405.317 264.922 405.571 264.922 405.836V407.836C264.922 408.102 264.816 408.356 264.629 408.544C264.441 408.731 264.187 408.836 263.922 408.836H261.922C261.656 408.836 261.402 408.731 261.215 408.544C261.027 408.356 260.922 408.102 260.922 407.836V405.836C260.922 405.571 261.027 405.317 261.215 405.129C261.402 404.942 261.656 404.836 261.922 404.836ZM267.922 404.836H269.922C270.187 404.836 270.441 404.942 270.629 405.129C270.816 405.317 270.922 405.571 270.922 405.836V407.836C270.922 408.102 270.816 408.356 270.629 408.544C270.441 408.731 270.187 408.836 269.922 408.836H267.922C267.656 408.836 267.402 408.731 267.215 408.544C267.027 408.356 266.922 408.102 266.922 407.836V405.836C266.922 405.571 267.027 405.317 267.215 405.129C267.402 404.942 267.656 404.836 267.922 404.836ZM246.922 411.836C246.922 411.571 247.027 411.317 247.215 411.129C247.402 410.942 247.656 410.836 247.922 410.836H249.922C250.187 410.836 250.441 410.942 250.629 411.129C250.816 411.317 250.922 411.571 250.922 411.836V413.836C250.922 414.102 250.816 414.356 250.629 414.544C250.441 414.731 250.187 414.836 249.922 414.836H247.922C247.656 414.836 247.402 414.731 247.215 414.544C247.027 414.356 246.922 414.102 246.922 413.836V411.836ZM253.922 410.836H255.922C256.187 410.836 256.441 410.942 256.629 411.129C256.816 411.317 256.922 411.571 256.922 411.836V413.836C256.922 414.102 256.816 414.356 256.629 414.544C256.441 414.731 256.187 414.836 255.922 414.836H253.922C253.656 414.836 253.402 414.731 253.215 414.544C253.027 414.356 252.922 414.102 252.922 413.836V411.836C252.922 411.571 253.027 411.317 253.215 411.129C253.402 410.942 253.656 410.836 253.922 410.836Z" fill="#5B44BA"/>
</g>
<path d="M290.336 404.131H292.088C292.035 402.203 290.33 400.804 287.885 400.804C285.469 400.804 283.617 402.186 283.617 404.261C283.617 405.936 284.817 406.918 286.751 407.441L288.173 407.829C289.46 408.17 290.454 408.593 290.454 409.663C290.454 410.839 289.331 411.615 287.785 411.615C286.386 411.615 285.222 410.992 285.116 409.681H283.294C283.412 411.862 285.099 413.208 287.797 413.208C290.624 413.208 292.253 411.72 292.253 409.681C292.253 407.512 290.319 406.671 288.79 406.295L287.615 405.989C286.674 405.748 285.422 405.307 285.428 404.155C285.428 403.132 286.363 402.374 287.844 402.374C289.225 402.374 290.207 403.02 290.336 404.131ZM298.086 413.19C300.219 413.19 301.601 411.909 301.795 410.151H300.084C299.861 411.127 299.103 411.703 298.097 411.703C296.61 411.703 295.652 410.462 295.652 408.493C295.652 406.559 296.628 405.342 298.097 405.342C299.214 405.342 299.896 406.048 300.084 406.894H301.795C301.607 405.072 300.119 403.861 298.068 403.861C295.523 403.861 293.877 405.777 293.877 408.534C293.877 411.256 295.464 413.19 298.086 413.19ZM305.432 407.647C305.432 406.207 306.343 405.384 307.595 405.384C308.806 405.384 309.529 406.154 309.529 407.476V413.008H311.287V407.265C311.287 405.013 310.053 403.861 308.195 403.861C306.79 403.861 305.944 404.472 305.52 405.448H305.409V400.969H303.674V413.008H305.432V407.647ZM317.524 413.19C319.493 413.19 320.886 412.22 321.286 410.751L319.623 410.451C319.305 411.303 318.541 411.738 317.542 411.738C316.037 411.738 315.026 410.762 314.979 409.022H321.398V408.399C321.398 405.137 319.446 403.861 317.401 403.861C314.885 403.861 313.227 405.777 313.227 408.552C313.227 411.356 314.861 413.19 317.524 413.19ZM314.984 407.706C315.055 406.424 315.984 405.313 317.412 405.313C318.776 405.313 319.67 406.324 319.675 407.706H314.984ZM326.728 413.184C328.374 413.184 329.021 412.179 329.338 411.603H329.485V413.008H331.201V400.969H329.444V405.442H329.338C329.021 404.884 328.421 403.861 326.74 403.861C324.559 403.861 322.954 405.583 322.954 408.511C322.954 411.432 324.535 413.184 326.728 413.184ZM327.116 411.685C325.546 411.685 324.729 410.304 324.729 408.493C324.729 406.7 325.529 405.354 327.116 405.354C328.65 405.354 329.473 406.606 329.473 408.493C329.473 410.392 328.633 411.685 327.116 411.685ZM339.43 409.263C339.436 410.798 338.295 411.526 337.308 411.526C336.22 411.526 335.468 410.739 335.468 409.51V403.979H333.71V409.722C333.71 411.961 334.939 413.125 336.673 413.125C338.031 413.125 338.954 412.408 339.371 411.444H339.465V413.008H341.193V403.979H339.43V409.263ZM345.313 400.969H343.555V413.008H345.313V400.969ZM351.569 413.19C353.538 413.19 354.931 412.22 355.331 410.751L353.667 410.451C353.35 411.303 352.586 411.738 351.586 411.738C350.081 411.738 349.07 410.762 349.023 409.022H355.443V408.399C355.443 405.137 353.491 403.861 351.445 403.861C348.929 403.861 347.272 405.777 347.272 408.552C347.272 411.356 348.906 413.19 351.569 413.19ZM349.029 407.706C349.1 406.424 350.029 405.313 351.457 405.313C352.821 405.313 353.714 406.324 353.72 407.706H349.029ZM364.159 406.183C363.794 404.778 362.695 403.861 360.743 403.861C358.704 403.861 357.257 404.937 357.257 406.536C357.257 407.817 358.033 408.67 359.726 409.046L361.255 409.381C362.125 409.575 362.53 409.963 362.53 410.527C362.53 411.227 361.784 411.773 360.632 411.773C359.579 411.773 358.903 411.321 358.692 410.433L356.993 410.692C357.287 412.291 358.615 413.19 360.643 413.19C362.824 413.19 364.335 412.032 364.335 410.398C364.335 409.122 363.524 408.334 361.866 407.952L360.432 407.623C359.438 407.388 359.009 407.053 359.015 406.442C359.009 405.748 359.762 405.254 360.761 405.254C361.854 405.254 362.36 405.86 362.566 406.465L364.159 406.183Z" fill="#5B44BA"/>
<path d="M377.597 413.19C380.142 413.19 381.806 411.327 381.806 408.534C381.806 405.724 380.142 403.861 377.597 403.861C375.051 403.861 373.388 405.724 373.388 408.534C373.388 411.327 375.051 413.19 377.597 413.19ZM377.603 411.715C375.939 411.715 375.163 410.263 375.163 408.528C375.163 406.8 375.939 405.331 377.603 405.331C379.254 405.331 380.03 406.8 380.03 408.528C380.03 410.263 379.254 411.715 377.603 411.715ZM383.768 413.008H385.525V407.494C385.525 406.312 386.436 405.46 387.683 405.46C388.047 405.46 388.458 405.525 388.6 405.566V403.885C388.423 403.861 388.076 403.843 387.853 403.843C386.795 403.843 385.89 404.443 385.56 405.413H385.466V403.979H383.768V413.008Z" fill="#1C0732"/>
<g clip-path="url(#clip2)">
<path d="M427.997 405.411L414.026 391.44C413.221 390.636 411.916 390.636 411.111 391.44L408.21 394.342L411.89 398.022C412.746 397.733 413.726 397.927 414.408 398.609C415.093 399.295 415.286 400.284 414.99 401.142L418.537 404.689C419.395 404.393 420.385 404.585 421.07 405.271C422.028 406.229 422.028 407.78 421.07 408.739C420.112 409.697 418.56 409.697 417.602 408.739C416.881 408.017 416.703 406.959 417.068 406.072L413.76 402.764L413.76 411.468C413.999 411.587 414.218 411.744 414.408 411.932C415.366 412.89 415.366 414.442 414.408 415.401C413.45 416.358 411.897 416.358 410.941 415.401C409.983 414.442 409.983 412.89 410.941 411.932C411.17 411.703 411.443 411.521 411.743 411.397V402.611C411.443 402.489 411.17 402.307 410.941 402.076C410.215 401.352 410.04 400.287 410.412 399.396L406.784 395.767L397.204 405.347C396.399 406.152 396.399 407.457 397.204 408.262L411.176 422.233C411.98 423.038 413.285 423.038 414.091 422.233L427.997 408.327C428.802 407.522 428.802 406.216 427.997 405.411" fill="#DE4C36"/>
</g>
<path d="M445.313 404.772H447.176C446.771 402.427 444.766 400.804 442.168 400.804C439.052 400.804 436.777 403.15 436.777 406.994C436.777 410.803 438.988 413.172 442.25 413.172C445.172 413.172 447.259 411.256 447.259 408.217V406.847H442.527V408.346H445.501C445.46 410.286 444.178 411.515 442.25 411.515C440.128 411.515 438.582 409.91 438.582 406.982C438.582 404.067 440.14 402.462 442.18 402.462C443.779 402.462 444.86 403.344 445.313 404.772ZM449.989 413.008H451.747V403.979H449.989V413.008ZM450.877 402.585C451.482 402.585 451.988 402.115 451.988 401.539C451.988 400.963 451.482 400.487 450.877 400.487C450.265 400.487 449.766 400.963 449.766 401.539C449.766 402.115 450.265 402.585 450.877 402.585ZM458.326 403.979H456.474V401.815H454.717V403.979H453.394V405.389H454.717V410.721C454.711 412.361 455.963 413.155 457.35 413.125C457.909 413.12 458.285 413.014 458.491 412.937L458.173 411.485C458.056 411.509 457.838 411.562 457.556 411.562C456.986 411.562 456.474 411.374 456.474 410.357V405.389H458.326V403.979ZM470.869 406.988C470.869 403.138 468.565 400.804 465.449 400.804C462.322 400.804 460.024 403.138 460.024 406.988C460.024 410.833 462.322 413.172 465.449 413.172C468.565 413.172 470.869 410.839 470.869 406.988ZM469.07 406.988C469.07 409.922 467.518 411.515 465.449 411.515C463.374 411.515 461.828 409.922 461.828 406.988C461.828 404.055 463.374 402.462 465.449 402.462C467.518 402.462 469.07 404.055 469.07 406.988ZM472.993 416.394H474.75V411.603H474.856C475.174 412.179 475.82 413.184 477.466 413.184C479.653 413.184 481.24 411.432 481.24 408.511C481.24 405.583 479.629 403.861 477.449 403.861C475.773 403.861 475.168 404.884 474.856 405.442H474.709V403.979H472.993V416.394ZM474.715 408.493C474.715 406.606 475.538 405.354 477.072 405.354C478.665 405.354 479.465 406.7 479.465 408.493C479.465 410.304 478.642 411.685 477.072 411.685C475.562 411.685 474.715 410.392 474.715 408.493ZM489.975 406.183C489.611 404.778 488.512 403.861 486.56 403.861C484.52 403.861 483.074 404.937 483.074 406.536C483.074 407.817 483.85 408.67 485.543 409.046L487.072 409.381C487.942 409.575 488.347 409.963 488.347 410.527C488.347 411.227 487.601 411.773 486.448 411.773C485.396 411.773 484.72 411.321 484.509 410.433L482.81 410.692C483.104 412.291 484.432 413.19 486.46 413.19C488.641 413.19 490.152 412.032 490.152 410.398C490.152 409.122 489.341 408.334 487.683 407.952L486.249 407.623C485.255 407.388 484.826 407.053 484.832 406.442C484.826 405.748 485.578 405.254 486.578 405.254C487.671 405.254 488.177 405.86 488.382 406.465L489.975 406.183Z" fill="#DE4C36"/>
<path d="M345 212.915L345 114.993L335 114.993L335 212.915L345 212.915Z" fill="url(#paint2_linear)" fill-opacity="0.5"/>
<rect x="182.494" y="50.9932" width="315.012" height="64" rx="5" fill="white"/>
<path d="M231.161 73.5935V81.3841L237.046 75.4988C236.591 74.8097 236.408 73.976 236.532 73.1593C236.656 72.3426 237.079 71.6012 237.719 71.0788C238.359 70.5563 239.17 70.29 239.995 70.3316C240.82 70.3732 241.6 70.7196 242.184 71.3037C242.768 71.8878 243.115 72.668 243.156 73.493C243.198 74.318 242.932 75.1291 242.409 75.7689C241.887 76.4088 241.145 76.8319 240.329 76.9561C239.512 77.0804 238.678 76.897 237.989 76.4415L232.104 82.3268H239.894C240.06 81.5174 240.519 80.7982 241.185 80.3087C241.85 79.8191 242.674 79.594 243.495 79.677C244.317 79.76 245.079 80.1453 245.633 80.758C246.187 81.3708 246.494 82.1674 246.494 82.9935C246.494 83.8195 246.187 84.6161 245.633 85.2289C245.079 85.8417 244.317 86.2269 243.495 86.3099C242.674 86.3929 241.85 86.1678 241.185 85.6783C240.519 85.1887 240.06 84.4695 239.894 83.6601H232.104L237.989 89.5455C238.678 89.0899 239.512 88.9065 240.329 89.0308C241.145 89.1551 241.887 89.5781 242.409 90.218C242.932 90.8578 243.198 91.6689 243.156 92.4939C243.115 93.3189 242.768 94.0991 242.184 94.6832C241.6 95.2673 240.82 95.6138 239.995 95.6553C239.17 95.6969 238.359 95.4306 237.719 94.9082C237.079 94.3857 236.656 93.6443 236.532 92.8276C236.408 92.011 236.591 91.1772 237.046 90.4881L231.161 84.6028V92.3935C231.97 92.5587 232.69 93.0185 233.179 93.6839C233.669 94.3492 233.894 95.1726 233.811 95.9945C233.728 96.8163 233.343 97.5781 232.73 98.1321C232.117 98.6861 231.32 98.9928 230.494 98.9928C229.668 98.9928 228.872 98.6861 228.259 98.1321C227.646 97.5781 227.261 96.8163 227.178 95.9945C227.095 95.1726 227.32 94.3492 227.81 93.6839C228.299 93.0185 229.018 92.5587 229.828 92.3935V84.6028L223.942 90.4881C224.398 91.1772 224.581 92.011 224.457 92.8276C224.333 93.6443 223.91 94.3857 223.27 94.9082C222.63 95.4306 221.819 95.6969 220.994 95.6553C220.169 95.6138 219.389 95.2673 218.805 94.6832C218.221 94.0991 217.874 93.3189 217.833 92.4939C217.791 91.6689 218.057 90.8578 218.58 90.218C219.102 89.5781 219.844 89.1551 220.66 89.0308C221.477 88.9065 222.311 89.0899 223 89.5455L228.885 83.6601H221.094C220.929 84.4695 220.469 85.1887 219.804 85.6783C219.139 86.1678 218.315 86.3929 217.493 86.3099C216.672 86.2269 215.91 85.8417 215.356 85.2289C214.802 84.6161 214.495 83.8195 214.495 82.9935C214.495 82.1674 214.802 81.3708 215.356 80.758C215.91 80.1453 216.672 79.76 217.493 79.677C218.315 79.594 219.139 79.8191 219.804 80.3087C220.469 80.7982 220.929 81.5174 221.094 82.3268H228.885L223 76.4415C222.311 76.897 221.477 77.0804 220.66 76.9561C219.844 76.8319 219.102 76.4088 218.58 75.7689C218.057 75.1291 217.791 74.318 217.833 73.493C217.874 72.668 218.221 71.8878 218.805 71.3037C219.389 70.7196 220.169 70.3732 220.994 70.3316C221.819 70.29 222.63 70.5563 223.27 71.0788C223.91 71.6012 224.333 72.3426 224.457 73.1593C224.581 73.976 224.398 74.8097 223.942 75.4988L229.828 81.3841V73.5935C229.018 73.4282 228.299 72.9684 227.81 72.3031C227.32 71.6377 227.095 70.8143 227.178 69.9924C227.261 69.1706 227.646 68.4088 228.259 67.8548C228.872 67.3009 229.668 66.9941 230.494 66.9941C231.32 66.9941 232.117 67.3009 232.73 67.8548C233.343 68.4088 233.728 69.1706 233.811 69.9924C233.894 70.8143 233.669 71.6377 233.179 72.3031C232.69 72.9684 231.97 73.4282 231.161 73.5935Z" fill="#87BBFD"/>
<path d="M230.494 86.9932C232.703 86.9932 234.494 85.2023 234.494 82.9932C234.494 80.784 232.703 78.9932 230.494 78.9932C228.285 78.9932 226.494 80.784 226.494 82.9932C226.494 85.2023 228.285 86.9932 230.494 86.9932Z" fill="#6772E5"/>
<path d="M243.649 88.0397H243.648H242.031V86.8967C242.031 86.0675 241.701 85.2723 241.115 84.686C240.529 84.0997 239.733 83.7703 238.904 83.7703C238.075 83.7703 237.28 84.0997 236.694 84.686C236.107 85.2723 235.778 86.0675 235.778 86.8967V88.0397L234.16 88.0397L234.16 88.0397C233.771 88.0402 233.399 88.1947 233.124 88.4694C232.849 88.7442 232.695 89.1167 232.694 89.5052V89.5058L232.694 96.1471L232.694 96.1477C232.695 96.5362 232.849 96.9087 233.124 97.1834C233.399 97.4582 233.771 97.6127 234.16 97.6131H234.16H243.648H243.649C244.037 97.6127 244.41 97.4582 244.684 97.1834C244.959 96.9087 245.114 96.5362 245.114 96.1477V96.1471V89.5058V89.5052C245.114 89.1167 244.959 88.7442 244.684 88.4694C244.41 88.1947 244.037 88.0402 243.649 88.0397ZM238.724 92.9008L238.246 93.0987L238.724 92.9008C238.71 92.8653 238.706 92.8262 238.713 92.7885C238.721 92.7508 238.739 92.7162 238.767 92.6891C238.794 92.6619 238.828 92.6434 238.866 92.6359C238.904 92.6284 238.943 92.6322 238.978 92.6469C239.014 92.6617 239.044 92.6866 239.065 92.7185C239.087 92.7505 239.098 92.788 239.098 92.8264C239.098 92.8519 239.093 92.8772 239.083 92.9008C239.074 92.9243 239.059 92.9458 239.041 92.9638C239.023 92.9818 239.002 92.9962 238.978 93.0059C238.955 93.0157 238.929 93.0207 238.904 93.0207C238.865 93.0207 238.828 93.0093 238.796 92.988C238.764 92.9666 238.739 92.9363 238.724 92.9008ZM240.047 88.0397H237.761V86.8967C237.761 86.5935 237.882 86.3028 238.096 86.0884L237.73 85.7227L238.096 86.0884C238.31 85.8741 238.601 85.7537 238.904 85.7537C239.207 85.7537 239.498 85.8741 239.712 86.0884C239.927 86.3028 240.047 86.5935 240.047 86.8967V88.0397Z" fill="#6772E5" stroke="white" stroke-width="1.0346"/>
<path d="M267.003 80.2882H268.755C268.702 78.3601 266.997 76.961 264.552 76.961C262.136 76.961 260.284 78.3424 260.284 80.4175C260.284 82.0928 261.483 83.0745 263.417 83.5977L264.84 83.9857C266.127 84.3266 267.12 84.7499 267.12 85.8197C267.12 86.9954 265.998 87.7714 264.452 87.7714C263.053 87.7714 261.889 87.1483 261.783 85.8374H259.961C260.078 88.0183 261.765 89.3644 264.463 89.3644C267.291 89.3644 268.919 87.8772 268.919 85.8374C268.919 83.6683 266.985 82.8276 265.457 82.4514L264.281 82.1457C263.341 81.9047 262.089 81.4639 262.094 80.3117C262.094 79.2888 263.029 78.5305 264.51 78.5305C265.892 78.5305 266.874 79.1772 267.003 80.2882ZM274.84 89.3468C276.81 89.3468 278.203 88.3768 278.602 86.9072L276.939 86.6074C276.621 87.4598 275.857 87.8948 274.858 87.8948C273.353 87.8948 272.342 86.919 272.295 85.179H278.714V84.5559C278.714 81.2934 276.762 80.0178 274.717 80.0178C272.201 80.0178 270.543 81.9341 270.543 84.7087C270.543 87.5127 272.177 89.3468 274.84 89.3468ZM272.301 83.8622C272.371 82.5807 273.3 81.4697 274.729 81.4697C276.092 81.4697 276.986 82.4808 276.992 83.8622H272.301ZM284.879 80.1353H283.027V77.9721H281.27V80.1353H279.947V81.5462H281.27V86.8779C281.264 88.5179 282.516 89.3115 283.903 89.2821C284.462 89.2762 284.838 89.1704 285.044 89.094L284.726 87.642C284.609 87.6656 284.391 87.7185 284.109 87.7185C283.539 87.7185 283.027 87.5304 283.027 86.5134V81.5462H284.879V80.1353ZM296.924 85.42C296.93 86.9543 295.789 87.6832 294.802 87.6832C293.714 87.6832 292.962 86.8955 292.962 85.6669V80.1353H291.204V85.8785C291.204 88.1182 292.433 89.2821 294.167 89.2821C295.525 89.2821 296.448 88.565 296.865 87.6009H296.959V89.1646H298.687V80.1353H296.924V85.42ZM301.049 92.5505H302.807V87.7596H302.913C303.23 88.3357 303.877 89.3409 305.523 89.3409C307.709 89.3409 309.296 87.5891 309.296 84.6676C309.296 81.7401 307.686 80.0178 305.505 80.0178C303.83 80.0178 303.224 81.0406 302.913 81.5991H302.766V80.1353H301.049V92.5505ZM302.771 84.6499C302.771 82.763 303.594 81.5109 305.129 81.5109C306.722 81.5109 307.521 82.857 307.521 84.6499C307.521 86.4605 306.698 87.8419 305.129 87.8419C303.618 87.8419 302.771 86.5487 302.771 84.6499Z" fill="#1C0732"/>
<path d="M315.647 92.5505H317.404V87.7596H317.51C317.827 88.3357 318.474 89.3409 320.12 89.3409C322.307 89.3409 323.894 87.5891 323.894 84.6676C323.894 81.7401 322.283 80.0178 320.102 80.0178C318.427 80.0178 317.822 81.0406 317.51 81.5991H317.363V80.1353H315.647V92.5505ZM317.369 84.6499C317.369 82.763 318.192 81.5109 319.726 81.5109C321.319 81.5109 322.119 82.857 322.119 84.6499C322.119 86.4605 321.296 87.8419 319.726 87.8419C318.215 87.8419 317.369 86.5487 317.369 84.6499ZM325.863 89.1646H327.621V83.6506C327.621 82.4691 328.532 81.6167 329.778 81.6167C330.143 81.6167 330.554 81.6814 330.695 81.7225V80.0413C330.519 80.0178 330.172 80.0001 329.949 80.0001C328.891 80.0001 327.985 80.5997 327.656 81.5697H327.562V80.1353H325.863V89.1646ZM332.216 89.1646H333.974V80.1353H332.216V89.1646ZM333.104 78.7422C333.709 78.7422 334.215 78.2719 334.215 77.6958C334.215 77.1197 333.709 76.6436 333.104 76.6436C332.493 76.6436 331.993 77.1197 331.993 77.6958C331.993 78.2719 332.493 78.7422 333.104 78.7422ZM344.063 80.1353H342.176L339.895 87.0836H339.801L337.514 80.1353H335.627L338.907 89.1646H340.788L344.063 80.1353ZM348.067 89.3644C349.561 89.3644 350.401 88.6061 350.736 87.9301H350.807V89.1646H352.523V83.1686C352.523 80.5409 350.454 80.0178 349.02 80.0178C347.386 80.0178 345.881 80.6761 345.293 82.3221L346.945 82.6983C347.203 82.0576 347.862 81.4403 349.043 81.4403C350.178 81.4403 350.76 82.0341 350.76 83.0569V83.098C350.76 83.7388 350.101 83.727 348.479 83.9151C346.768 84.115 345.017 84.5618 345.017 86.6133C345.017 88.3886 346.351 89.3644 348.067 89.3644ZM348.45 87.9536C347.456 87.9536 346.739 87.5068 346.739 86.6368C346.739 85.6963 347.574 85.3612 348.591 85.226C349.161 85.1496 350.513 84.9968 350.766 84.744V85.9079C350.766 86.9778 349.913 87.9536 348.45 87.9536ZM359.079 80.1353H357.227V77.9721H355.47V80.1353H354.147V81.5462H355.47V86.8779C355.464 88.5179 356.716 89.3115 358.103 89.2821C358.662 89.2762 359.038 89.1704 359.244 89.094L358.926 87.642C358.809 87.6656 358.591 87.7185 358.309 87.7185C357.739 87.7185 357.227 87.5304 357.227 86.5134V81.5462H359.079V80.1353ZM364.818 89.3468C366.787 89.3468 368.18 88.3768 368.58 86.9072L366.916 86.6074C366.599 87.4598 365.835 87.8948 364.836 87.8948C363.331 87.8948 362.32 86.919 362.273 85.179H368.692V84.5559C368.692 81.2934 366.74 80.0178 364.694 80.0178C362.178 80.0178 360.521 81.9341 360.521 84.7087C360.521 87.5127 362.155 89.3468 364.818 89.3468ZM362.278 83.8622C362.349 82.5807 363.278 81.4697 364.706 81.4697C366.07 81.4697 366.964 82.4808 366.969 83.8622H362.278ZM378.826 89.3468C380.96 89.3468 382.341 88.0653 382.535 86.3077H380.825C380.601 87.2835 379.843 87.8595 378.838 87.8595C377.351 87.8595 376.392 86.6192 376.392 84.6499C376.392 82.716 377.368 81.4991 378.838 81.4991C379.955 81.4991 380.637 82.2045 380.825 83.051H382.535C382.347 81.2287 380.86 80.0178 378.808 80.0178C376.263 80.0178 374.617 81.9341 374.617 84.6911C374.617 87.4128 376.204 89.3468 378.826 89.3468ZM386.173 83.8035C386.173 82.3632 387.084 81.5403 388.336 81.5403C389.547 81.5403 390.27 82.3103 390.27 83.633V89.1646H392.028V83.4214C392.028 81.1699 390.793 80.0178 388.935 80.0178C387.531 80.0178 386.684 80.6291 386.261 81.6049H386.149V77.1256H384.415V89.1646H386.173V83.8035ZM397.001 89.3644C398.494 89.3644 399.334 88.6061 399.669 87.9301H399.74V89.1646H401.456V83.1686C401.456 80.5409 399.387 80.0178 397.953 80.0178C396.319 80.0178 394.814 80.6761 394.226 82.3221L395.878 82.6983C396.137 82.0576 396.795 81.4403 397.976 81.4403C399.111 81.4403 399.693 82.0341 399.693 83.0569V83.098C399.693 83.7388 399.035 83.727 397.412 83.9151C395.702 84.115 393.95 84.5618 393.95 86.6133C393.95 88.3886 395.284 89.3644 397.001 89.3644ZM397.383 87.9536C396.389 87.9536 395.672 87.5068 395.672 86.6368C395.672 85.6963 396.507 85.3612 397.524 85.226C398.094 85.1496 399.446 84.9968 399.699 84.744V85.9079C399.699 86.9778 398.846 87.9536 397.383 87.9536ZM407.601 89.3468C410.146 89.3468 411.81 87.4833 411.81 84.6911C411.81 81.8812 410.146 80.0178 407.601 80.0178C405.056 80.0178 403.392 81.8812 403.392 84.6911C403.392 87.4833 405.056 89.3468 407.601 89.3468ZM407.607 87.8713C405.943 87.8713 405.167 86.4193 405.167 84.6852C405.167 82.957 405.943 81.4874 407.607 81.4874C409.259 81.4874 410.034 82.957 410.034 84.6852C410.034 86.4193 409.259 87.8713 407.607 87.8713ZM420.538 82.3397C420.173 80.9348 419.074 80.0178 417.122 80.0178C415.083 80.0178 413.636 81.0935 413.636 82.6924C413.636 83.9739 414.412 84.8263 416.105 85.2025L417.634 85.5376C418.504 85.7316 418.909 86.1195 418.909 86.6839C418.909 87.3834 418.163 87.9301 417.011 87.9301C415.958 87.9301 415.282 87.4775 415.071 86.5898L413.372 86.8485C413.666 88.4474 414.994 89.3468 417.022 89.3468C419.203 89.3468 420.714 88.1887 420.714 86.5545C420.714 85.2789 419.903 84.4912 418.245 84.1091L416.811 83.7799C415.817 83.5448 415.388 83.2097 415.394 82.5984C415.388 81.9047 416.141 81.4109 417.14 81.4109C418.233 81.4109 418.739 82.0164 418.945 82.6219L420.538 82.3397ZM428.785 83.8035C428.785 82.3632 429.696 81.5403 430.948 81.5403C432.159 81.5403 432.882 82.3103 432.882 83.633V89.1646H434.64V83.4214C434.64 81.1699 433.406 80.0178 431.548 80.0178C430.143 80.0178 429.297 80.6291 428.873 81.6049H428.762V77.1256H427.027V89.1646H428.785V83.8035ZM442.705 85.42C442.711 86.9543 441.571 87.6832 440.583 87.6832C439.496 87.6832 438.743 86.8955 438.743 85.6669V80.1353H436.985V85.8785C436.985 88.1182 438.214 89.2821 439.948 89.2821C441.306 89.2821 442.229 88.565 442.646 87.6009H442.74V89.1646H444.469V80.1353H442.705V85.42ZM446.971 89.1646H448.688V87.7596H448.835C449.152 88.3357 449.799 89.3409 451.445 89.3409C453.632 89.3409 455.219 87.5891 455.219 84.6676C455.219 81.7401 453.608 80.0178 451.427 80.0178C449.752 80.0178 449.146 81.0406 448.835 81.5991H448.729V77.1256H446.971V89.1646ZM448.694 84.6499C448.694 82.763 449.517 81.5109 451.051 81.5109C452.644 81.5109 453.443 82.857 453.443 84.6499C453.443 86.4605 452.621 87.8419 451.051 87.8419C449.54 87.8419 448.694 86.5487 448.694 84.6499ZM463.958 82.3397C463.594 80.9348 462.495 80.0178 460.543 80.0178C458.503 80.0178 457.057 81.0935 457.057 82.6924C457.057 83.9739 457.833 84.8263 459.526 85.2025L461.055 85.5376C461.925 85.7316 462.33 86.1195 462.33 86.6839C462.33 87.3834 461.584 87.9301 460.431 87.9301C459.379 87.9301 458.703 87.4775 458.492 86.5898L456.793 86.8485C457.087 88.4474 458.415 89.3468 460.443 89.3468C462.624 89.3468 464.135 88.1887 464.135 86.5545C464.135 85.2789 463.324 84.4912 461.666 84.1091L460.232 83.7799C459.238 83.5448 458.809 83.2097 458.815 82.5984C458.809 81.9047 459.561 81.4109 460.561 81.4109C461.654 81.4109 462.16 82.0164 462.365 82.6219L463.958 82.3397Z" fill="#5B44BA"/>
<circle cx="340" cy="122.308" r="1.00986" fill="white"/>
<circle cx="340" cy="129.328" r="1.00986" fill="white"/>
<circle cx="340" cy="136.348" r="1.00986" fill="white"/>
<circle cx="340" cy="143.367" r="1.00986" fill="white"/>
<circle cx="340" cy="150.387" r="1.00986" fill="white"/>
<circle cx="340" cy="157.407" r="1.00986" fill="white"/>
<circle cx="340" cy="164.426" r="1.00986" fill="white"/>
<circle cx="340" cy="171.446" r="1.00986" fill="white"/>
<circle cx="340" cy="178.466" r="1.00986" fill="white"/>
<circle cx="340" cy="185.485" r="1.00986" fill="white"/>
<circle cx="340" cy="192.505" r="1.00986" fill="white"/>
<circle cx="340" cy="199.525" r="1.00986" fill="white"/>
<circle cx="340" cy="206.545" r="1.00986" fill="white"/>
<path d="M345 374.836L345 276.915L335 276.915L335 374.836L345 374.836Z" fill="url(#paint3_linear)" fill-opacity="0.5"/>
<circle cx="340" cy="284.23" r="1.00986" fill="white"/>
<circle cx="340" cy="291.25" r="1.00986" fill="white"/>
<circle cx="340" cy="298.27" r="1.00986" fill="white"/>
<circle cx="340" cy="305.289" r="1.00986" fill="white"/>
<circle cx="340" cy="312.309" r="1.00986" fill="white"/>
<circle cx="340" cy="319.329" r="1.00986" fill="white"/>
<circle cx="340" cy="326.348" r="1.00986" fill="white"/>
<circle cx="340" cy="333.368" r="1.00986" fill="white"/>
<circle cx="340" cy="340.388" r="1.00986" fill="white"/>
<circle cx="340" cy="347.407" r="1.00986" fill="white"/>
<circle cx="340" cy="354.427" r="1.00986" fill="white"/>
<circle cx="340" cy="361.447" r="1.00986" fill="white"/>
<circle cx="340" cy="368.467" r="1.00986" fill="white"/>
<defs>
<radialGradient id="paint0_radial" cx="0" cy="0" r="1" gradientUnits="userSpaceOnUse" gradientTransform="translate(-7.30452e-06 581.324) rotate(-14.7098) scale(236.592 176.913)">
<stop stop-color="#A93DDB"/>
<stop offset="1" stop-color="#A93DDB" stop-opacity="0"/>
</radialGradient>
<linearGradient id="paint1_linear" x1="340" y1="503.11" x2="340" y2="438.837" gradientUnits="userSpaceOnUse">
<stop stop-color="#CEC7EB"/>
<stop offset="1" stop-color="white" stop-opacity="0"/>
</linearGradient>
<linearGradient id="paint2_linear" x1="340" y1="179.266" x2="340" y2="114.993" gradientUnits="userSpaceOnUse">
<stop stop-color="#CEC7EB"/>
<stop offset="1" stop-color="white" stop-opacity="0"/>
</linearGradient>
<linearGradient id="paint3_linear" x1="340" y1="341.188" x2="340" y2="276.915" gradientUnits="userSpaceOnUse">
<stop stop-color="#CEC7EB"/>
<stop offset="1" stop-color="white" stop-opacity="0"/>
</linearGradient>
<clipPath id="clip0">
<rect width="32" height="32" fill="white" transform="translate(281.316 552.759)"/>
</clipPath>
<clipPath id="clip1">
<rect width="32" height="32" fill="white" transform="translate(242.922 390.836)"/>
</clipPath>
<clipPath id="clip2">
<rect width="32" height="32" fill="white" transform="translate(396.601 390.836)"/>
</clipPath>
</defs>
</svg>
