<svg width="378" height="171" viewBox="0 0 378 171" fill="none" xmlns="http://www.w3.org/2000/svg">
<path fill-rule="evenodd" clip-rule="evenodd" d="M50.8893 52.9629H0V112.385C0 115.046 2.13599 117.203 4.77087 117.203H46.1185C48.7533 117.203 50.8893 115.046 50.8893 112.385V52.9629Z" fill="#878EDE"/>
<path d="M7.8291 60.7969H15.6582V78.8155H7.8291V60.7969Z" fill="#4028A0"/>
<path d="M7.8291 77.248H15.6582V109.368H7.8291V77.248Z" fill="white"/>
<path d="M19.5732 101.535H43.0606V109.369H19.5732V101.535Z" fill="white"/>
<line x1="76.5817" y1="44.3506" x2="76.5817" y2="125.815" stroke="#BBBBBB" stroke-width="1.2533"/>
<rect x="101.021" width="78.9576" height="78.9576" rx="8.49006" fill="url(#paint0_linear_2517_11094)"/>
<rect x="113.331" y="12.3096" width="54.3364" height="54.3364" rx="8.49006" fill="url(#paint1_linear_2517_11094)"/>
<rect x="113.967" y="12.9463" width="53.0629" height="53.0629" rx="7.85331" stroke="white" stroke-opacity="0.2" stroke-width="1.27351"/>
<g clip-path="url(#clip0_2517_11094)">
<path d="M132.95 58.2695C131.99 58.2695 131.082 57.8573 130.469 57.1099L121.13 45.8997C120.516 45.1523 120.276 44.1989 120.516 43.271L123.851 29.2777C124.065 28.3499 124.705 27.6025 125.586 27.1903L139.087 20.9536C139.514 20.7477 139.995 20.6445 140.475 20.6445C140.955 20.6445 141.436 20.7475 141.863 20.9538L155.364 27.1645C156.245 27.5768 156.885 28.3242 157.099 29.2519L160.434 43.2453C160.647 44.173 160.434 45.1265 159.82 45.8739L150.481 57.0841C149.867 57.8056 148.96 58.2437 148 58.2437L132.951 58.2695H132.95Z" fill="#326DE6"/>
<path d="M140.447 21.2894C140.821 21.2894 141.195 21.3666 141.541 21.5213L155.043 27.732C155.737 28.067 156.27 28.6855 156.431 29.4072L159.766 43.4005C159.953 44.1479 159.766 44.921 159.259 45.5137L149.92 56.724C149.44 57.3166 148.692 57.6516 147.919 57.6516H132.949C132.176 57.6516 131.429 57.3166 130.948 56.724L121.609 45.5137C121.129 44.921 120.942 44.1479 121.102 43.4005L124.438 29.4072C124.624 28.6598 125.131 28.0413 125.825 27.732L139.327 21.4957C139.674 21.3668 140.074 21.2896 140.448 21.2896L140.447 21.2894ZM140.447 20.0781C139.887 20.0781 139.327 20.207 138.793 20.4389L125.291 26.6755C124.224 27.1651 123.477 28.067 123.21 29.1751L119.875 43.1686C119.608 44.2768 119.875 45.4107 120.622 46.3127L129.961 57.5229C130.682 58.399 131.775 58.8886 132.923 58.8886H147.892C149.039 58.8886 150.133 58.399 150.854 57.5229L160.193 46.3125C160.94 45.4364 161.207 44.2768 160.94 43.1685L157.605 29.1751C157.338 28.067 156.591 27.1651 155.523 26.6755L142.075 20.4387C141.568 20.207 141.008 20.0781 140.447 20.0781Z" fill="white"/>
<path d="M153.977 42.2924C153.95 42.2924 153.95 42.2924 153.977 42.2924H153.95C153.923 42.2924 153.897 42.2924 153.897 42.2666C153.843 42.2666 153.79 42.2409 153.737 42.2409C153.55 42.2151 153.39 42.1894 153.23 42.1894C153.149 42.1894 153.069 42.1894 152.963 42.1635H152.936C152.376 42.112 151.922 42.0605 151.495 41.9316C151.308 41.8542 151.255 41.7512 151.202 41.6481C151.202 41.6224 151.175 41.6224 151.175 41.5966L150.828 41.4936C150.992 40.2813 150.929 39.0504 150.641 37.8598C150.35 36.6592 149.844 35.5168 149.147 34.4839L149.414 34.252V34.2005C149.414 34.0716 149.441 33.9427 149.547 33.8139C149.867 33.5303 150.268 33.2985 150.748 33.015C150.828 32.9635 150.908 32.9377 150.988 32.8861C151.148 32.8088 151.282 32.7316 151.442 32.6285C151.468 32.6027 151.522 32.577 151.575 32.5255C151.602 32.4996 151.629 32.4996 151.629 32.4738C152.002 32.1646 152.082 31.6492 151.815 31.3141C151.682 31.1337 151.442 31.0307 151.202 31.0307C150.988 31.0307 150.801 31.1079 150.615 31.2368L150.561 31.2883C150.508 31.3141 150.481 31.3657 150.428 31.3914C150.294 31.5203 150.188 31.6233 150.081 31.7522C150.028 31.8037 149.974 31.8811 149.894 31.9326C149.521 32.3192 149.174 32.6285 148.827 32.8603C148.747 32.9118 148.667 32.9377 148.587 32.9377C148.533 32.9377 148.48 32.9377 148.427 32.9118H148.373L148.053 33.1181C147.706 32.7574 147.333 32.4481 146.959 32.1388C145.351 30.9246 143.415 30.1822 141.382 29.9998L141.356 29.6648L141.302 29.6133C141.222 29.5359 141.115 29.4587 141.089 29.2783C141.062 28.8659 141.115 28.402 141.169 27.8866V27.8609C141.169 27.7835 141.195 27.6805 141.222 27.6031C141.249 27.4487 141.275 27.2939 141.302 27.1135V26.8816C141.302 26.4177 140.929 26.0312 140.475 26.0312C140.261 26.0312 140.048 26.1342 139.888 26.2889C139.728 26.4435 139.648 26.6496 139.648 26.8816V27.0877C139.648 27.2681 139.675 27.4228 139.728 27.5774C139.755 27.6548 139.755 27.732 139.781 27.8351V27.8609C139.834 28.3763 139.915 28.8402 139.861 29.2525C139.835 29.4329 139.728 29.5102 139.648 29.5875L139.595 29.639L139.568 29.974C139.087 30.0255 138.607 30.077 138.127 30.1802C136.072 30.6183 134.258 31.6235 132.844 33.0665L132.577 32.8861H132.524C132.47 32.8861 132.417 32.9118 132.363 32.9118C132.283 32.9118 132.203 32.8861 132.123 32.8346C131.776 32.6027 131.429 32.2676 131.056 31.8811C131.003 31.8296 130.949 31.7522 130.869 31.7007C130.762 31.5718 130.656 31.4687 130.522 31.34C130.495 31.3141 130.442 31.2885 130.389 31.2368C130.362 31.2111 130.336 31.2111 130.336 31.1853C130.17 31.0534 129.963 30.9806 129.748 30.979C129.508 30.979 129.268 31.0822 129.135 31.2626C128.868 31.5976 128.948 32.1129 129.321 32.4222C129.348 32.4222 129.348 32.4481 129.375 32.4481C129.428 32.4738 129.455 32.5253 129.508 32.5511C129.668 32.6541 129.802 32.7315 129.962 32.8088C130.042 32.8346 130.122 32.8861 130.202 32.9377C130.682 33.2211 131.083 33.4531 131.403 33.7366C131.536 33.8653 131.536 33.9942 131.536 34.1231V34.1746L131.803 34.4066C131.75 34.4839 131.696 34.5355 131.67 34.6127C130.335 36.6487 129.828 39.0453 130.175 41.4162L129.828 41.5192C129.828 41.5451 129.802 41.5451 129.802 41.5707C129.748 41.6738 129.668 41.777 129.508 41.8542C129.108 41.9831 128.628 42.0347 128.067 42.0862H128.041C127.961 42.0862 127.854 42.0862 127.774 42.112C127.614 42.112 127.454 42.1377 127.267 42.1635C127.214 42.1635 127.16 42.1894 127.107 42.1894C127.08 42.1894 127.053 42.1894 127.027 42.2151C126.546 42.3181 126.253 42.7562 126.333 43.1685C126.413 43.5294 126.76 43.7614 127.187 43.7614C127.267 43.7614 127.32 43.7614 127.4 43.7355C127.427 43.7355 127.454 43.7355 127.454 43.7098C127.507 43.7098 127.56 43.684 127.614 43.684C127.801 43.6325 127.934 43.581 128.094 43.5036C128.174 43.4779 128.254 43.4263 128.334 43.4007H128.361C128.868 43.2201 129.321 43.0655 129.748 43.014H129.802C129.962 43.014 130.069 43.0912 130.149 43.1429C130.175 43.1429 130.175 43.1686 130.202 43.1686L130.576 43.1172C131.216 45.024 132.443 46.7249 134.071 47.962C134.445 48.2453 134.818 48.4773 135.218 48.7094L135.058 49.0442C135.058 49.0701 135.085 49.0701 135.085 49.0957C135.138 49.1988 135.192 49.3277 135.138 49.5081C134.978 49.8947 134.738 50.2812 134.445 50.7194V50.7451C134.391 50.8225 134.338 50.874 134.285 50.9512C134.178 51.0801 134.098 51.209 133.991 51.3636C133.964 51.3894 133.938 51.4409 133.911 51.4925C133.911 51.5183 133.884 51.544 133.884 51.544C133.671 51.9822 133.831 52.4718 134.231 52.6522C134.338 52.7036 134.445 52.7295 134.551 52.7295C134.872 52.7295 135.192 52.5233 135.352 52.2398C135.352 52.214 135.379 52.1883 135.379 52.1883C135.405 52.1368 135.432 52.0853 135.459 52.0594C135.539 51.879 135.565 51.7501 135.619 51.5955L135.699 51.3636C135.886 50.8483 136.019 50.4359 136.259 50.0751C136.366 49.9205 136.499 49.8947 136.606 49.8431C136.633 49.8431 136.633 49.8431 136.659 49.8174L136.846 49.4823C138.02 49.9205 139.301 50.1524 140.582 50.1524C141.356 50.1524 142.156 50.0751 142.903 49.8947C143.373 49.7932 143.837 49.6641 144.291 49.5081L144.451 49.7916C144.477 49.7916 144.477 49.7916 144.504 49.8174C144.638 49.8431 144.744 49.8947 144.851 50.0494C145.064 50.4101 145.225 50.8483 145.411 51.3379V51.3636L145.491 51.5955C145.545 51.7501 145.571 51.9048 145.651 52.0594C145.678 52.1109 145.705 52.1368 145.732 52.1883C145.732 52.214 145.758 52.2398 145.758 52.2398C145.918 52.549 146.238 52.7295 146.559 52.7295C146.665 52.7295 146.772 52.7036 146.879 52.6522C147.066 52.5492 147.226 52.3944 147.279 52.1883C147.333 51.9822 147.333 51.7501 147.226 51.544C147.226 51.5183 147.199 51.5183 147.199 51.4925C147.172 51.441 147.146 51.3895 147.119 51.3636C147.039 51.209 146.932 51.0801 146.826 50.9512C146.772 50.874 146.719 50.8225 146.666 50.7453V50.7194C146.372 50.2812 146.105 49.8947 145.972 49.5081C145.918 49.3277 145.972 49.2247 145.998 49.0959C145.998 49.0701 146.025 49.0701 146.025 49.0444L145.892 48.7351C147.306 47.9362 148.507 46.8022 149.414 45.4107C149.894 44.689 150.268 43.8901 150.534 43.0912L150.855 43.1427C150.881 43.1427 150.881 43.117 150.908 43.117C151.015 43.0655 151.095 42.9883 151.255 42.9883H151.308C151.735 43.0398 152.189 43.1942 152.696 43.3748H152.723C152.803 43.4005 152.883 43.452 152.963 43.4777C153.123 43.5551 153.256 43.6066 153.443 43.6583C153.496 43.6583 153.55 43.684 153.603 43.684C153.63 43.684 153.656 43.684 153.683 43.7098C153.763 43.7355 153.816 43.7355 153.897 43.7355C154.297 43.7355 154.644 43.4779 154.75 43.1429C154.75 42.8336 154.457 42.4212 153.977 42.2925V42.2924ZM141.622 41.0296L140.448 41.5709L139.274 41.0296L138.981 39.8185L139.781 38.8392H141.089L141.889 39.8185L141.622 41.0296H141.622ZM148.587 38.3496C148.794 39.2017 148.857 40.0806 148.773 40.9522L144.691 39.8185C144.317 39.7155 144.104 39.3546 144.184 38.9938C144.211 38.8907 144.264 38.7876 144.344 38.7103L147.573 35.9013C148.026 36.6229 148.373 37.4475 148.587 38.3494V38.3496ZM146.292 34.3551L142.796 36.7518C142.503 36.9322 142.103 36.8805 141.863 36.5972C141.783 36.5198 141.756 36.4166 141.729 36.3137L141.489 32.1129C143.306 32.315 144.999 33.1053 146.292 34.3551ZM138.554 32.2417C138.847 32.1902 139.114 32.1387 139.408 32.0872L139.168 36.2104C139.141 36.5711 138.847 36.8804 138.447 36.8804C138.34 36.8804 138.207 36.8546 138.127 36.8031L134.578 34.3551C135.672 33.2985 137.033 32.5768 138.554 32.2418V32.2417ZM133.297 35.9011L136.472 38.6328C136.766 38.8648 136.793 39.3028 136.553 39.5863C136.472 39.6893 136.366 39.7667 136.232 39.7926L132.097 40.9522C131.936 39.1998 132.337 37.4216 133.297 35.9011ZM132.577 42.885L136.819 42.1891C137.166 42.1633 137.487 42.3953 137.567 42.7303C137.593 42.8848 137.593 43.0139 137.54 43.1427L135.912 46.9309C134.418 46.0031 133.217 44.5857 132.577 42.885H132.577ZM142.316 48.0133C141.702 48.1422 141.089 48.2194 140.448 48.2194C139.514 48.2194 138.607 48.0649 137.753 47.8072L139.861 44.122C140.075 43.89 140.422 43.787 140.715 43.9416C140.84 44.0153 140.948 44.1115 141.035 44.225L143.09 47.8072C142.85 47.8844 142.583 47.9361 142.316 48.0133H142.316ZM147.519 44.4313C146.852 45.462 145.972 46.2866 144.958 46.9309L143.277 43.0394C143.197 42.7303 143.33 42.3953 143.65 42.2406C143.757 42.1891 143.89 42.1633 144.024 42.1633L148.293 42.8592C148.133 43.4261 147.866 43.9416 147.519 44.4313Z" fill="white"/>
</g>
<rect x="200.031" width="78.9576" height="78.9576" rx="8.49006" fill="url(#paint2_linear_2517_11094)"/>
<rect x="212.341" y="12.3096" width="54.3364" height="54.3364" rx="8.49006" fill="url(#paint3_linear_2517_11094)"/>
<rect x="212.978" y="12.9463" width="53.0629" height="53.0629" rx="7.85331" stroke="white" stroke-opacity="0.2" stroke-width="1.27351"/>
<g clip-path="url(#clip1_2517_11094)">
<path d="M229.851 35.0564C229.851 35.6217 229.909 36.08 230.011 36.4161C230.14 36.7942 230.295 37.1618 230.476 37.5159C230.548 37.6381 230.577 37.7603 230.577 37.8673C230.577 38.0199 230.49 38.1728 230.301 38.3256L229.386 38.9671C229.256 39.0589 229.125 39.1046 229.009 39.1046C228.863 39.1046 228.718 39.0282 228.573 38.8907C228.377 38.6695 228.202 38.4291 228.05 38.1728C227.905 37.9133 227.759 37.6228 227.6 37.2715C226.467 38.6768 225.043 39.3797 223.329 39.3797C222.109 39.3797 221.136 39.0129 220.424 38.2798C219.713 37.5463 219.35 36.5687 219.35 35.3467C219.35 34.0482 219.785 32.9942 220.671 32.1998C221.557 31.4054 222.734 31.0082 224.23 31.0082C224.724 31.0082 225.232 31.054 225.77 31.1304C226.307 31.2068 226.859 31.329 227.44 31.4665V30.3514C227.44 29.1903 227.208 28.3807 226.757 27.9071C226.293 27.4335 225.508 27.2043 224.39 27.2043C223.881 27.2043 223.358 27.2656 222.821 27.4031C222.284 27.5404 221.761 27.7086 221.252 27.9225C221.02 28.0293 220.846 28.0904 220.744 28.1211C220.642 28.1517 220.57 28.1668 220.512 28.1668C220.308 28.1668 220.207 28.014 220.207 27.6932V26.9446C220.207 26.7003 220.236 26.517 220.308 26.4101C220.381 26.3031 220.512 26.1962 220.715 26.0893C221.223 25.8143 221.833 25.5851 222.545 25.4018C223.257 25.2032 224.012 25.1117 224.811 25.1117C226.54 25.1117 227.803 25.524 228.617 26.349C229.416 27.1739 229.822 28.4265 229.822 30.107V35.0564H229.851H229.851ZM223.954 37.3784C224.433 37.3784 224.927 37.2868 225.45 37.1034C225.973 36.9201 226.438 36.584 226.83 36.1257C227.062 35.8356 227.237 35.5148 227.324 35.1481C227.411 34.7815 227.469 34.3384 227.469 33.819V33.1775C227.028 33.0647 226.582 32.978 226.133 32.9178C225.68 32.8573 225.224 32.8266 224.767 32.826C223.794 32.826 223.082 33.0246 222.603 33.4371C222.124 33.8497 221.891 34.4301 221.891 35.1939C221.891 35.9118 222.066 36.4465 222.429 36.8132C222.777 37.1951 223.286 37.3784 223.954 37.3784ZM235.617 39.0282C235.356 39.0282 235.182 38.9825 235.066 38.8754C234.949 38.7839 234.848 38.57 234.761 38.2798L231.347 26.4712C231.26 26.1656 231.216 25.967 231.216 25.8601C231.216 25.6157 231.333 25.4781 231.565 25.4781H232.988C233.264 25.4781 233.453 25.524 233.555 25.6309C233.671 25.7226 233.758 25.9365 233.845 26.2267L236.286 36.3396L238.551 26.2267C238.624 25.9212 238.711 25.7226 238.827 25.6309C238.944 25.5393 239.147 25.4782 239.409 25.4782H240.571C240.846 25.4782 241.035 25.524 241.151 25.6309C241.268 25.7226 241.369 25.9365 241.427 26.2267L243.722 36.4618L246.235 26.2267C246.322 25.9212 246.424 25.7226 246.526 25.6309C246.642 25.5393 246.831 25.4782 247.092 25.4782H248.443C248.675 25.4782 248.806 25.6004 248.806 25.8601C248.806 25.9365 248.791 26.0129 248.777 26.1045C248.762 26.1962 248.733 26.3184 248.675 26.4865L245.175 38.295C245.088 38.6006 244.986 38.7992 244.87 38.8907C244.753 38.9825 244.565 39.0436 244.318 39.0436H243.069C242.793 39.0436 242.604 38.9978 242.488 38.8907C242.371 38.7839 242.27 38.5853 242.212 38.2798L239.96 28.4265L237.723 38.2643C237.651 38.57 237.564 38.7685 237.447 38.8754C237.331 38.9825 237.128 39.0282 236.867 39.0282H235.617H235.617ZM254.282 39.4407C253.527 39.4407 252.771 39.349 252.045 39.1657C251.319 38.9825 250.753 38.7837 250.375 38.5548C250.142 38.4171 249.983 38.2645 249.925 38.127C249.868 37.9922 249.838 37.8465 249.837 37.6992V36.9201C249.837 36.5993 249.954 36.4465 250.172 36.4465C250.26 36.4469 250.349 36.4624 250.433 36.4925C250.52 36.5231 250.651 36.584 250.796 36.6451C251.309 36.8824 251.845 37.0617 252.394 37.1798C252.963 37.3012 253.542 37.3626 254.122 37.3631C255.037 37.3631 255.749 37.1951 256.243 36.859C256.737 36.5229 256.998 36.0342 256.998 35.4078C256.998 34.9801 256.868 34.6287 256.606 34.3384C256.345 34.0482 255.851 33.7886 255.139 33.544L253.033 32.8567C251.973 32.5053 251.188 31.9859 250.709 31.2984C250.23 30.6262 249.983 29.8778 249.983 29.0834C249.983 28.4418 250.113 27.8765 250.375 27.3876C250.636 26.8989 250.985 26.4712 251.421 26.1351C251.856 25.7837 252.35 25.524 252.931 25.3407C253.512 25.1575 254.122 25.0811 254.761 25.0811C255.081 25.0811 255.415 25.0964 255.735 25.1421C256.069 25.1879 256.374 25.249 256.679 25.3101C256.969 25.3865 257.245 25.4629 257.507 25.5547C257.768 25.6462 257.971 25.7379 258.117 25.8295C258.32 25.9518 258.465 26.074 258.552 26.2115C258.64 26.3337 258.683 26.5017 258.683 26.7156V27.4335C258.683 27.7543 258.567 27.9225 258.349 27.9225C258.233 27.9225 258.044 27.8612 257.797 27.739C256.969 27.3418 256.04 27.1432 255.008 27.1432C254.18 27.1432 253.527 27.2807 253.076 27.571C252.626 27.8612 252.394 28.3043 252.394 28.9306C252.394 29.3584 252.539 29.7249 252.829 30.0153C253.12 30.3054 253.657 30.5957 254.427 30.8554L256.49 31.5429C257.536 31.8943 258.291 32.3831 258.741 33.0093C259.192 33.6357 259.409 34.3537 259.409 35.1481C259.409 35.805 259.279 36.4007 259.032 36.9201C258.77 37.4395 258.422 37.8978 257.971 38.2645C257.521 38.6464 256.984 38.9214 256.359 39.12C255.705 39.3339 255.023 39.4407 254.282 39.4407Z" fill="white"/>
<path d="M257.026 46.8645C252.248 50.5767 245.305 52.5473 239.335 52.5473C230.969 52.5473 223.43 49.2934 217.736 43.8856C217.286 43.458 217.693 42.8775 218.23 43.2134C224.389 46.9716 231.985 49.2476 239.843 49.2476C245.145 49.2476 250.969 48.0867 256.329 45.7036C257.128 45.3215 257.811 46.2536 257.026 46.8645ZM259.016 44.4814C258.406 43.6566 254.978 44.0842 253.424 44.2828C252.959 44.3441 252.887 43.9162 253.308 43.5955C256.039 41.5789 260.527 42.1595 261.05 42.8315C261.573 43.5191 260.904 48.2394 258.348 50.5003C257.956 50.8517 257.578 50.6684 257.753 50.2102C258.334 48.6976 259.626 45.2911 259.016 44.4814Z" fill="#FF9900"/>
</g>
<rect x="299.042" width="78.9576" height="78.9576" rx="8.49006" fill="url(#paint4_linear_2517_11094)"/>
<rect x="311.351" y="12.3096" width="54.3364" height="54.3364" rx="8.49006" fill="url(#paint5_linear_2517_11094)"/>
<rect x="311.988" y="12.9463" width="53.0629" height="53.0629" rx="7.85331" stroke="white" stroke-opacity="0.2" stroke-width="1.27351"/>
<g clip-path="url(#clip2_2517_11094)">
<path d="M344.049 32.6704L347.099 29.6919L347.302 28.4378C341.744 23.5024 332.907 24.0621 327.896 29.6055C326.505 31.1451 325.472 33.0646 324.921 35.0467L326.014 34.8964L332.115 33.914L332.586 33.4438C335.299 30.5337 339.888 30.1422 343.021 32.6182L344.049 32.6704Z" fill="#EA4335"/>
<path d="M351.446 34.9578C350.744 32.4367 349.305 30.1702 347.303 28.4365L343.022 32.6168C343.914 33.3287 344.629 34.2291 345.113 35.2501C345.597 36.2712 345.837 37.3862 345.816 38.5111V39.2531C347.92 39.2531 349.626 40.9188 349.626 42.9735C349.626 45.0283 347.92 46.6523 345.816 46.6523H338.184L337.435 47.4466V51.909L338.184 52.6092H345.816C351.289 52.6508 355.761 48.3938 355.804 43.0493C355.816 41.4543 355.425 39.881 354.665 38.4694C353.904 37.0577 352.799 35.8514 351.446 34.9578Z" fill="#4285F4"/>
<path d="M330.563 52.6107H338.183V46.6537H330.563C330.023 46.6536 329.49 46.5396 329 46.3193L327.919 46.6432L324.847 49.6217L324.58 50.6355C326.302 51.9056 328.404 52.6198 330.563 52.6107Z" fill="#34A853"/>
<path d="M330.563 33.2862C325.09 33.3182 320.679 37.6768 320.712 43.0214C320.721 44.4942 321.074 45.9456 321.744 47.2649C322.415 48.5842 323.385 49.7368 324.58 50.6347L329.001 46.3186C327.083 45.4724 326.231 43.2688 327.097 41.3963C327.964 39.5237 330.221 38.6915 332.138 39.5374C332.983 39.9102 333.66 40.5711 334.042 41.3963L338.462 37.08C337.535 35.8956 336.339 34.9368 334.968 34.2787C333.598 33.6206 332.09 33.2809 330.563 33.2862Z" fill="#FBBC05"/>
</g>
<rect x="101.021" y="91.209" width="78.9576" height="78.9576" rx="8.49006" fill="url(#paint6_linear_2517_11094)"/>
<rect x="113.331" y="103.519" width="54.3364" height="54.3364" rx="8.49006" fill="url(#paint7_linear_2517_11094)"/>
<rect x="113.967" y="104.155" width="53.0629" height="53.0629" rx="7.85331" stroke="white" stroke-opacity="0.2" stroke-width="1.27351"/>
<path d="M138.776 144.613C144.251 143.658 148.773 142.868 148.825 142.857L148.919 142.837L143.75 136.768C140.908 133.43 138.582 130.685 138.582 130.669C138.582 130.639 143.919 116.129 143.949 116.078C143.959 116.061 147.591 122.251 152.753 131.085C157.586 139.355 161.571 146.173 161.608 146.237L161.675 146.353L145.249 146.351L128.823 146.349L138.776 144.613ZM119.063 142.762C119.063 142.754 121.498 138.58 124.475 133.487L129.887 124.227L136.194 119.001C139.663 116.127 142.511 113.772 142.522 113.768C142.533 113.763 142.488 113.877 142.42 114.02C142.353 114.162 139.271 120.689 135.572 128.522L128.846 142.766L123.954 142.772C121.264 142.775 119.063 142.771 119.063 142.762Z" fill="#0089D6"/>
<rect x="200.032" y="91.209" width="78.9576" height="78.9576" rx="8.49006" fill="url(#paint8_linear_2517_11094)"/>
<rect x="212.341" y="103.519" width="54.3364" height="54.3364" rx="8.49006" fill="url(#paint9_linear_2517_11094)"/>
<rect x="212.978" y="104.155" width="53.0629" height="53.0629" rx="7.85331" stroke="white" stroke-opacity="0.2" stroke-width="1.27351"/>
<path fill-rule="evenodd" clip-rule="evenodd" d="M227.106 112.93C226.527 113.085 225.983 113.448 225.635 113.909C225.5 114.089 224.787 115.467 223.645 117.757C222.243 120.568 221.846 121.401 221.777 121.682C221.692 122.024 221.688 122.217 221.688 125.975C221.688 130.298 221.679 130.152 221.965 130.717C222.098 130.98 222.343 131.318 222.51 131.469C222.555 131.51 222.591 131.557 222.591 131.575C222.591 131.593 222.488 131.723 222.363 131.863C222.109 132.147 221.856 132.621 221.755 133C221.656 133.373 221.657 138.097 221.756 138.489C221.858 138.887 222.104 139.356 222.365 139.648L222.596 139.906L222.342 140.213C222.203 140.381 222.03 140.643 221.957 140.795C221.683 141.367 221.683 141.367 221.698 144.208L221.712 146.797L221.819 147.084C222.143 147.958 222.884 148.62 223.8 148.855C224.133 148.94 224.47 148.942 239.7 148.941C256.926 148.94 255.57 148.965 256.23 148.642C256.701 148.412 257.235 147.877 257.466 147.406C257.755 146.815 257.764 146.711 257.764 144.087C257.764 141.476 257.753 141.354 257.476 140.79C257.39 140.616 257.208 140.349 257.07 140.197L256.821 139.921L257.016 139.709C257.282 139.419 257.523 139.002 257.643 138.622C257.741 138.311 257.743 138.265 257.743 135.732C257.743 133.326 257.737 133.141 257.658 132.909C257.517 132.5 257.326 132.157 257.072 131.857L256.832 131.574L257.069 131.313C257.199 131.169 257.38 130.903 257.469 130.721C257.775 130.103 257.77 130.184 257.755 125.826C257.741 121.917 257.741 121.912 257.64 121.583C257.582 121.396 256.751 119.678 255.727 117.631L253.915 114.009L253.571 113.668C253.347 113.446 253.118 113.271 252.912 113.164C252.267 112.83 253.422 112.857 239.698 112.86C228.962 112.863 227.322 112.872 227.106 112.93ZM252.221 114.383C252.387 114.464 252.576 114.595 252.642 114.674C252.804 114.866 256.227 121.718 256.304 122.003C256.337 122.127 256.365 122.305 256.365 122.398L256.366 122.567H239.701H223.037L223.066 122.353C223.083 122.235 223.116 122.058 223.141 121.961C223.211 121.684 226.633 114.872 226.795 114.688C226.976 114.482 227.266 114.311 227.519 114.26C227.627 114.239 233.162 114.225 239.818 114.228L251.92 114.235L252.221 114.383ZM227.59 115.706C227.087 115.973 227.129 116.741 227.658 116.941C227.834 117.008 228.67 117.013 237.026 117.002L246.2 116.99L246.324 116.896C246.528 116.745 246.624 116.581 246.646 116.349C246.668 116.106 246.565 115.906 246.327 115.729L246.2 115.635L236.98 115.625C227.83 115.616 227.76 115.616 227.59 115.706ZM248.422 115.713C248.189 115.836 248.058 116.053 248.058 116.312C248.058 116.571 248.189 116.788 248.422 116.911C248.619 117.015 248.625 117.015 250.187 117.002C251.688 116.99 251.759 116.986 251.878 116.896C252.082 116.744 252.178 116.581 252.199 116.349C252.222 116.106 252.119 115.906 251.881 115.729C251.758 115.638 251.695 115.634 250.187 115.622C248.625 115.609 248.619 115.609 248.422 115.713ZM256.356 126.937L256.343 129.906L256.241 130.097C256.089 130.381 255.903 130.573 255.635 130.721L255.395 130.854L239.796 130.866C222.304 130.879 223.965 130.913 223.543 130.533C223.413 130.416 223.265 130.222 223.192 130.073L223.065 129.816L223.052 126.891L223.039 123.967H239.704H256.368L256.356 126.937ZM251.151 125.369C250.462 125.51 249.942 125.914 249.642 126.541C249.484 126.872 249.48 126.893 249.48 127.424C249.48 127.961 249.482 127.973 249.647 128.308C250.046 129.115 250.935 129.603 251.783 129.48C252.733 129.342 253.415 128.667 253.573 127.709C253.797 126.354 252.493 125.094 251.151 125.369ZM226.154 126.147C225.873 126.335 225.842 126.459 225.842 127.415C225.842 128.36 225.872 128.492 226.126 128.673C226.335 128.822 226.682 128.835 226.876 128.702C227.213 128.471 227.219 128.447 227.219 127.422C227.219 126.56 227.213 126.495 227.125 126.375C226.877 126.041 226.459 125.943 226.154 126.147ZM229.646 126.135C229.343 126.319 229.319 126.414 229.319 127.422C229.319 128.244 229.327 128.339 229.409 128.472C229.675 128.909 230.317 128.909 230.583 128.472C230.665 128.339 230.673 128.244 230.673 127.422C230.673 126.6 230.665 126.506 230.583 126.372C230.458 126.166 230.241 126.045 229.996 126.045C229.873 126.045 229.735 126.08 229.646 126.135ZM233.123 126.135C232.82 126.319 232.796 126.414 232.796 127.422C232.796 128.244 232.804 128.339 232.886 128.472C233.077 128.787 233.515 128.897 233.823 128.709C234.126 128.525 234.15 128.431 234.15 127.422C234.15 126.6 234.142 126.506 234.06 126.372C233.935 126.166 233.718 126.045 233.473 126.045C233.35 126.045 233.212 126.08 233.123 126.135ZM236.588 126.146C236.257 126.371 236.25 126.399 236.25 127.418V128.332L236.376 128.498C236.446 128.589 236.566 128.697 236.644 128.737C236.827 128.832 237.165 128.801 237.345 128.672C237.598 128.492 237.627 128.361 237.627 127.393C237.627 126.6 237.618 126.505 237.537 126.372C237.34 126.049 236.889 125.941 236.588 126.146ZM240.133 126.087C239.975 126.152 239.796 126.367 239.746 126.554C239.716 126.663 239.703 127.055 239.712 127.539C239.728 128.43 239.743 128.478 240.07 128.702C240.264 128.835 240.611 128.822 240.82 128.673C241.074 128.492 241.104 128.36 241.104 127.414C241.104 126.461 241.074 126.342 240.788 126.146C240.633 126.041 240.317 126.012 240.133 126.087ZM251.839 126.656C252.063 126.75 252.164 126.846 252.262 127.061C252.649 127.903 251.59 128.66 250.938 128.007C250.295 127.365 251.001 126.306 251.839 126.656ZM242.868 126.823C242.604 126.958 242.492 127.164 242.515 127.47C242.536 127.748 242.644 127.909 242.893 128.032C243.074 128.122 243.141 128.124 245.339 128.112C247.542 128.1 247.603 128.097 247.724 128.006C247.955 127.834 248.032 127.688 248.032 127.422C248.032 127.156 247.955 127.01 247.724 126.838C247.603 126.747 247.542 126.744 245.334 126.732L243.068 126.72L242.868 126.823ZM255.567 132.407C255.879 132.562 256.162 132.864 256.272 133.16C256.362 133.4 256.366 133.494 256.366 135.748C256.366 137.777 256.356 138.115 256.293 138.3C256.195 138.589 255.841 138.967 255.543 139.102L255.305 139.209H239.704H224.104L223.899 139.107C223.562 138.94 223.373 138.752 223.214 138.43L223.065 138.128L223.052 135.879C223.04 133.952 223.048 133.589 223.109 133.348C223.23 132.869 223.546 132.52 224 132.362C224.23 132.283 224.815 132.28 239.794 132.29L255.35 132.3L255.567 132.407ZM250.895 133.764C250.027 134.041 249.457 134.823 249.457 135.735C249.457 136.736 250.056 137.513 251.024 137.765C252.184 138.067 253.373 137.271 253.574 136.059C253.703 135.283 253.268 134.362 252.583 133.961C252.102 133.679 251.411 133.598 250.895 133.764ZM226.222 134.443C226.11 134.5 226 134.605 225.94 134.711C225.849 134.874 225.842 134.947 225.842 135.752C225.842 136.698 225.859 136.776 226.11 136.987C226.317 137.161 226.567 137.186 226.825 137.057C227.192 136.874 227.219 136.783 227.219 135.754C227.219 135.004 227.208 134.853 227.141 134.731C226.962 134.404 226.552 134.275 226.222 134.443ZM229.681 134.457C229.347 134.633 229.319 134.735 229.319 135.748C229.319 136.552 229.327 136.636 229.413 136.791C229.662 137.233 230.318 137.243 230.586 136.81C230.665 136.683 230.673 136.58 230.673 135.749C230.673 134.691 230.647 134.601 230.3 134.443C230.05 134.33 229.916 134.333 229.681 134.457ZM233.175 134.44C233.068 134.489 232.949 134.59 232.893 134.682C232.802 134.829 232.796 134.896 232.796 135.754C232.796 136.58 232.804 136.683 232.883 136.81C233.135 137.217 233.745 137.236 234.037 136.846C234.12 136.736 234.129 136.644 234.141 135.8C234.155 134.724 234.131 134.632 233.787 134.456C233.548 134.333 233.418 134.33 233.175 134.44ZM236.633 134.456C236.279 134.636 236.25 134.734 236.25 135.754C236.25 136.6 236.254 136.642 236.356 136.806C236.49 137.021 236.687 137.125 236.961 137.126C237.205 137.127 237.362 137.033 237.528 136.79C237.629 136.641 237.632 136.615 237.618 135.71C237.603 134.662 237.59 134.619 237.24 134.445C237.005 134.329 236.88 134.331 236.633 134.456ZM240.133 134.415C239.774 134.581 239.704 134.799 239.704 135.766C239.704 136.487 239.712 136.564 239.806 136.75C240.005 137.145 240.476 137.255 240.825 136.988C241.077 136.796 241.104 136.672 241.104 135.717C241.104 134.907 241.099 134.857 241.002 134.715C240.946 134.633 240.847 134.526 240.782 134.478C240.63 134.365 240.309 134.334 240.133 134.415ZM251.729 134.945C251.954 135.007 252.238 135.266 252.305 135.469C252.433 135.857 252.254 136.301 251.892 136.491C251.653 136.617 251.234 136.579 251.016 136.413C250.822 136.265 250.678 135.984 250.678 135.754C250.678 135.423 250.969 135.023 251.256 134.96C251.322 134.946 251.397 134.927 251.421 134.919C251.502 134.892 251.554 134.896 251.729 134.945ZM242.831 135.167C242.394 135.433 242.394 136.076 242.831 136.342C242.972 136.428 243.062 136.432 245.259 136.432C247.394 136.432 247.55 136.427 247.696 136.348C247.869 136.255 248.058 135.946 248.057 135.759C248.055 135.559 247.898 135.278 247.73 135.174C247.574 135.078 247.549 135.077 245.275 135.077C243.062 135.077 242.972 135.081 242.831 135.167ZM255.475 140.703C255.749 140.797 256.069 141.083 256.221 141.372L256.343 141.603V144.087V146.571L256.241 146.761C256.089 147.046 255.903 147.238 255.635 147.386L255.395 147.519H239.727H224.059L223.83 147.399C223.557 147.254 223.294 146.975 223.162 146.689C223.067 146.484 223.065 146.437 223.065 144.087V141.693L223.183 141.445C223.359 141.074 223.682 140.782 224.036 140.674C224.098 140.655 231.15 140.638 239.707 140.636C253.755 140.632 255.286 140.639 255.475 140.703ZM251.081 142.048C250.463 142.181 249.924 142.614 249.644 143.201C249.483 143.538 249.48 143.556 249.48 144.089C249.48 144.626 249.482 144.638 249.647 144.973C249.763 145.207 249.899 145.392 250.086 145.57C251.307 146.735 253.295 146.061 253.571 144.389C253.676 143.752 253.456 143.091 252.98 142.613C252.682 142.314 252.361 142.14 251.947 142.052C251.592 141.977 251.417 141.976 251.081 142.048ZM226.158 142.808C225.872 143.001 225.842 143.121 225.842 144.08C225.842 145.023 225.872 145.157 226.124 145.337C226.305 145.465 226.642 145.497 226.826 145.402C226.903 145.362 227.023 145.254 227.093 145.163C227.219 144.998 227.219 144.994 227.234 144.199C227.251 143.282 227.219 143.109 226.995 142.891C226.86 142.76 226.798 142.735 226.576 142.72C226.359 142.704 226.29 142.719 226.158 142.808ZM229.646 142.8C229.343 142.984 229.319 143.078 229.319 144.091C229.319 144.959 229.323 145.006 229.42 145.148C229.708 145.569 230.321 145.564 230.585 145.137C230.67 145 230.675 144.926 230.663 144.034C230.651 143.084 230.65 143.077 230.538 142.957C230.294 142.696 229.923 142.631 229.646 142.8ZM233.134 142.793C232.818 142.989 232.82 142.982 232.806 144.035C232.794 144.926 232.799 145 232.884 145.137C233.148 145.564 233.761 145.569 234.049 145.148C234.146 145.006 234.15 144.959 234.15 144.091C234.15 143.265 234.142 143.17 234.06 143.036C233.872 142.727 233.429 142.611 233.134 142.793ZM236.588 142.811C236.259 143.035 236.25 143.067 236.25 144.056C236.25 145.053 236.276 145.152 236.591 145.367C236.787 145.5 237.134 145.487 237.343 145.338C237.598 145.156 237.627 145.026 237.627 144.057C237.627 143.265 237.618 143.17 237.537 143.036C237.34 142.714 236.889 142.606 236.588 142.811ZM240.077 142.784C239.996 142.823 239.885 142.93 239.829 143.02C239.732 143.176 239.727 143.228 239.727 144.095C239.727 144.949 239.733 145.014 239.821 145.134C240.15 145.577 240.744 145.571 241.002 145.121C241.096 144.956 241.102 144.892 241.103 144.086C241.104 143.125 241.075 143.007 240.788 142.811C240.609 142.689 240.294 142.677 240.077 142.784ZM251.987 143.36C252.238 143.526 252.367 143.763 252.368 144.063C252.37 144.398 252.243 144.636 251.971 144.805C251.61 145.029 251.18 144.974 250.896 144.667C250.717 144.473 250.669 144.351 250.667 144.086C250.661 143.404 251.422 142.985 251.987 143.36ZM242.847 143.489C242.375 143.76 242.401 144.461 242.891 144.698C243.075 144.787 243.146 144.79 245.339 144.777L247.598 144.764L247.771 144.625C248.084 144.373 248.136 143.947 247.889 143.653C247.663 143.385 247.683 143.387 245.248 143.388C243.029 143.388 243.022 143.389 242.847 143.489Z" fill="white"/>
<rect x="299.042" y="91.209" width="78.9576" height="78.9576" rx="8.49006" fill="url(#paint10_linear_2517_11094)"/>
<rect x="302.671" y="103.742" width="72.6911" height="53.8917" rx="8.49006" fill="url(#paint11_linear_2517_11094)"/>
<rect x="303.308" y="104.379" width="71.4176" height="52.6182" rx="7.85331" stroke="white" stroke-opacity="0.2" stroke-width="1.27351"/>
<path d="M310.216 125.049C310.042 125.055 309.87 125.094 309.712 125.164C309.553 125.228 309.408 125.322 309.288 125.441C309.169 125.559 309.076 125.699 309.016 125.853C308.956 126.006 308.93 126.169 308.94 126.333C308.95 126.496 308.995 126.655 309.073 126.801L311.985 132.76C312.443 133.675 312.957 134.185 313.83 134.185C314.705 134.185 315.216 133.656 315.672 132.76L318.238 127.497C318.267 127.428 318.318 127.369 318.384 127.329C318.45 127.29 318.528 127.271 318.607 127.276C318.714 127.278 318.816 127.319 318.891 127.391C318.967 127.463 319.009 127.56 319.009 127.661V132.76C318.992 132.938 319.015 133.117 319.076 133.286C319.138 133.455 319.235 133.61 319.364 133.742C319.492 133.873 319.648 133.978 319.821 134.05C319.995 134.122 320.183 134.159 320.373 134.159C320.562 134.159 320.75 134.122 320.924 134.05C321.097 133.978 321.253 133.873 321.382 133.742C321.51 133.61 321.608 133.455 321.669 133.286C321.73 133.117 321.753 132.938 321.736 132.76V128.595C321.728 128.416 321.761 128.237 321.831 128.07C321.902 127.903 322.009 127.752 322.145 127.626C322.282 127.501 322.445 127.404 322.624 127.342C322.803 127.28 322.994 127.254 323.185 127.266C323.371 127.259 323.556 127.288 323.73 127.352C323.903 127.417 324.06 127.515 324.19 127.64C324.321 127.765 324.422 127.914 324.487 128.078C324.552 128.242 324.58 128.418 324.569 128.593V132.758C324.547 132.937 324.565 133.12 324.623 133.292C324.681 133.465 324.777 133.624 324.905 133.759C325.034 133.894 325.191 134.002 325.367 134.075C325.542 134.149 325.733 134.186 325.925 134.185C326.118 134.185 326.308 134.146 326.483 134.073C326.659 133.999 326.816 133.892 326.945 133.758C327.074 133.623 327.172 133.465 327.232 133.294C327.292 133.122 327.313 132.94 327.294 132.76V128.595C327.286 128.416 327.318 128.237 327.389 128.071C327.459 127.904 327.565 127.754 327.701 127.628C327.837 127.503 328 127.406 328.179 127.344C328.357 127.281 328.547 127.255 328.737 127.266C328.924 127.258 329.11 127.287 329.284 127.351C329.458 127.415 329.615 127.513 329.746 127.638C329.878 127.763 329.979 127.913 330.045 128.077C330.11 128.242 330.138 128.417 330.127 128.593V132.758C330.104 132.937 330.123 133.119 330.18 133.291C330.238 133.463 330.334 133.622 330.462 133.757C330.589 133.892 330.746 134 330.921 134.074C331.096 134.147 331.286 134.185 331.478 134.185C331.671 134.186 331.861 134.149 332.038 134.076C332.214 134.003 332.372 133.895 332.501 133.761C332.631 133.626 332.728 133.468 332.788 133.295C332.847 133.123 332.867 132.94 332.847 132.76V128.02C332.846 127.62 332.759 127.225 332.592 126.858C332.425 126.491 332.181 126.159 331.875 125.882C331.568 125.606 331.205 125.39 330.808 125.249C330.411 125.107 329.988 125.043 329.564 125.058C328.467 125.076 327.42 125.496 326.647 126.228C326.319 125.831 325.891 125.517 325.402 125.314C324.913 125.111 324.378 125.026 323.845 125.066C322.817 125.154 321.849 125.563 321.097 126.228C320.8 125.879 320.427 125.594 320.002 125.394C319.578 125.193 319.112 125.081 318.638 125.066C317.994 125.041 317.358 125.212 316.825 125.552C316.291 125.893 315.888 126.386 315.674 126.958L313.809 131.089L311.422 125.785L311.45 125.776C311.346 125.552 311.172 125.363 310.952 125.233C310.732 125.104 310.476 125.039 310.216 125.049ZM357.376 125.193C357.285 125.194 357.196 125.213 357.112 125.246C357.029 125.28 356.954 125.329 356.891 125.39C356.827 125.452 356.778 125.524 356.744 125.603C356.711 125.683 356.694 125.767 356.695 125.853H356.701V133.417C356.687 133.509 356.695 133.603 356.723 133.692C356.751 133.781 356.8 133.863 356.864 133.933C356.929 134.003 357.009 134.059 357.099 134.097C357.189 134.136 357.286 134.156 357.385 134.156C357.484 134.156 357.581 134.136 357.671 134.097C357.761 134.059 357.841 134.003 357.906 133.933C357.971 133.863 358.019 133.781 358.047 133.692C358.075 133.603 358.083 133.509 358.07 133.417V130.475C358.07 127.979 359.531 126.72 361.319 126.52C361.491 126.503 361.649 126.425 361.762 126.303C361.875 126.18 361.934 126.022 361.928 125.86C361.932 125.775 361.917 125.689 361.885 125.61C361.852 125.53 361.802 125.457 361.738 125.397C361.674 125.336 361.598 125.288 361.513 125.256C361.429 125.225 361.338 125.21 361.248 125.212C360.562 125.258 359.904 125.479 359.343 125.853C358.783 126.227 358.342 126.738 358.07 127.331V125.853C358.072 125.766 358.056 125.68 358.023 125.599C357.989 125.518 357.938 125.445 357.873 125.383C357.808 125.321 357.731 125.273 357.645 125.24C357.56 125.208 357.468 125.192 357.376 125.193ZM340.142 125.212C339.989 125.222 339.844 125.278 339.729 125.372C339.613 125.466 339.534 125.594 339.503 125.735L337.169 132.059L334.861 125.752C334.826 125.601 334.737 125.467 334.609 125.371C334.482 125.274 334.323 125.222 334.16 125.222C333.981 125.219 333.808 125.283 333.679 125.399C333.55 125.516 333.474 125.675 333.469 125.843C333.479 125.962 333.508 126.079 333.556 126.19L336.345 133.501L336.396 133.485C336.439 133.646 336.536 133.791 336.674 133.896C336.811 134.001 336.982 134.061 337.159 134.067C337.336 134.067 337.507 134.008 337.644 133.902C337.781 133.796 337.874 133.648 337.908 133.485L340.219 127.266L342.512 133.485C342.546 133.648 342.639 133.796 342.776 133.902C342.913 134.008 343.084 134.067 343.261 134.067H343.308C343.482 134.059 343.65 133.997 343.785 133.892C343.92 133.788 344.015 133.645 344.057 133.485L346.864 126.171C346.91 126.06 346.939 125.943 346.949 125.824C346.943 125.66 346.869 125.504 346.742 125.391C346.615 125.278 346.445 125.218 346.271 125.222C346.116 125.221 345.965 125.271 345.845 125.363C345.725 125.454 345.642 125.583 345.61 125.725L343.261 132.057L340.948 125.735C340.909 125.585 340.818 125.452 340.689 125.358C340.56 125.263 340.401 125.212 340.237 125.212H340.173C340.163 125.212 340.152 125.212 340.142 125.212ZM366.161 125.232C365.563 125.25 364.975 125.38 364.432 125.615C363.889 125.851 363.401 126.186 362.998 126.601C362.595 127.016 362.284 127.504 362.084 128.034C361.884 128.564 361.799 129.126 361.834 129.688C361.801 130.264 361.894 130.839 362.106 131.38C362.317 131.921 362.644 132.416 363.065 132.834C363.486 133.253 363.993 133.586 364.556 133.814C365.119 134.042 365.725 134.16 366.337 134.161L366.317 134.192C366.949 134.21 367.577 134.103 368.163 133.88C368.749 133.656 369.279 133.321 369.72 132.895C369.784 132.845 369.836 132.782 369.872 132.712C369.908 132.641 369.928 132.564 369.93 132.486C369.928 132.38 369.895 132.278 369.833 132.19C369.772 132.102 369.685 132.033 369.583 131.99C369.481 131.948 369.368 131.934 369.257 131.95C369.147 131.966 369.044 132.011 368.96 132.081C368.617 132.401 368.21 132.653 367.763 132.825C367.316 132.996 366.838 133.083 366.355 133.08C365.527 133.082 364.732 132.779 364.139 132.236C363.546 131.693 363.202 130.953 363.182 130.174H369.72C369.887 130.174 370.047 130.111 370.165 129.999C370.283 129.888 370.349 129.737 370.349 129.58C370.349 127.305 368.832 125.232 366.161 125.232ZM351.463 125.237C351.328 125.235 351.193 125.24 351.058 125.251C350.111 125.211 349.166 125.38 348.3 125.745C348.186 125.784 348.088 125.858 348.022 125.954C347.956 126.051 347.925 126.165 347.934 126.279C347.941 126.426 348.007 126.564 348.119 126.666C348.23 126.769 348.379 126.827 348.535 126.83C348.619 126.825 348.702 126.806 348.778 126.773C349.447 126.486 350.178 126.352 350.912 126.383C352.681 126.383 353.65 127.187 353.65 128.739V129.04C352.734 128.79 351.783 128.668 350.828 128.679C348.545 128.679 346.939 129.642 346.939 131.472L346.931 131.462C346.931 133.234 348.648 134.152 350.36 134.152C351 134.169 351.635 134.042 352.212 133.783C352.79 133.523 353.293 133.138 353.681 132.659V133.485C353.68 133.565 353.696 133.644 353.729 133.718C353.761 133.793 353.809 133.86 353.87 133.916C353.93 133.972 354.003 134.016 354.082 134.046C354.161 134.075 354.246 134.089 354.331 134.087C354.419 134.088 354.506 134.072 354.588 134.041C354.669 134.01 354.743 133.963 354.805 133.904C354.866 133.845 354.915 133.775 354.947 133.698C354.979 133.621 354.994 133.538 354.991 133.456V128.682C355.019 128.222 354.947 127.762 354.78 127.329C354.614 126.896 354.355 126.5 354.021 126.163C353.31 125.582 352.405 125.254 351.463 125.237ZM366.097 126.272C367.924 126.272 368.873 127.632 369.011 129.194H363.182C363.185 128.451 363.487 127.735 364.028 127.192C364.569 126.65 365.308 126.32 366.097 126.269V126.272ZM351.038 129.599C351.953 129.6 352.864 129.724 353.743 129.967V130.803C353.743 132.175 352.363 133.145 350.672 133.145C349.431 133.145 348.359 132.517 348.359 131.429C348.359 130.304 349.318 129.599 351.038 129.599Z" fill="white"/>
<defs>
<linearGradient id="paint0_linear_2517_11094" x1="140.5" y1="0" x2="140.5" y2="78.9576" gradientUnits="userSpaceOnUse">
<stop stop-color="#574867"/>
<stop offset="1" stop-color="#200B35"/>
</linearGradient>
<linearGradient id="paint1_linear_2517_11094" x1="140.499" y1="12.3096" x2="140.499" y2="66.646" gradientUnits="userSpaceOnUse">
<stop stop-color="#200B35"/>
<stop offset="1" stop-color="#574867"/>
</linearGradient>
<linearGradient id="paint2_linear_2517_11094" x1="239.51" y1="0" x2="239.51" y2="78.9576" gradientUnits="userSpaceOnUse">
<stop stop-color="#574867"/>
<stop offset="1" stop-color="#200B35"/>
</linearGradient>
<linearGradient id="paint3_linear_2517_11094" x1="239.509" y1="12.3096" x2="239.509" y2="66.646" gradientUnits="userSpaceOnUse">
<stop stop-color="#200B35"/>
<stop offset="1" stop-color="#574867"/>
</linearGradient>
<linearGradient id="paint4_linear_2517_11094" x1="338.52" y1="0" x2="338.52" y2="78.9576" gradientUnits="userSpaceOnUse">
<stop stop-color="#574867"/>
<stop offset="1" stop-color="#200B35"/>
</linearGradient>
<linearGradient id="paint5_linear_2517_11094" x1="338.519" y1="12.3096" x2="338.519" y2="66.646" gradientUnits="userSpaceOnUse">
<stop stop-color="#200B35"/>
<stop offset="1" stop-color="#574867"/>
</linearGradient>
<linearGradient id="paint6_linear_2517_11094" x1="140.5" y1="91.209" x2="140.5" y2="170.167" gradientUnits="userSpaceOnUse">
<stop stop-color="#574867"/>
<stop offset="1" stop-color="#200B35"/>
</linearGradient>
<linearGradient id="paint7_linear_2517_11094" x1="140.499" y1="103.519" x2="140.499" y2="157.855" gradientUnits="userSpaceOnUse">
<stop stop-color="#200B35"/>
<stop offset="1" stop-color="#574867"/>
</linearGradient>
<linearGradient id="paint8_linear_2517_11094" x1="239.511" y1="91.209" x2="239.511" y2="170.167" gradientUnits="userSpaceOnUse">
<stop stop-color="#574867"/>
<stop offset="1" stop-color="#200B35"/>
</linearGradient>
<linearGradient id="paint9_linear_2517_11094" x1="239.51" y1="103.519" x2="239.51" y2="157.855" gradientUnits="userSpaceOnUse">
<stop stop-color="#200B35"/>
<stop offset="1" stop-color="#574867"/>
</linearGradient>
<linearGradient id="paint10_linear_2517_11094" x1="338.521" y1="91.209" x2="338.521" y2="170.167" gradientUnits="userSpaceOnUse">
<stop stop-color="#574867"/>
<stop offset="1" stop-color="#200B35"/>
</linearGradient>
<linearGradient id="paint11_linear_2517_11094" x1="339.017" y1="103.742" x2="339.017" y2="157.634" gradientUnits="userSpaceOnUse">
<stop stop-color="#200B35"/>
<stop offset="1" stop-color="#574867"/>
</linearGradient>
<clipPath id="clip0_2517_11094">
<rect width="41.3587" height="38.8522" fill="white" transform="translate(119.69 20.0527)"/>
</clipPath>
<clipPath id="clip1_2517_11094">
<rect width="43.8653" height="27.5725" fill="white" transform="translate(217.445 25.0654)"/>
</clipPath>
<clipPath id="clip2_2517_11094">
<rect width="35.0923" height="27.5725" fill="white" transform="translate(320.711 25.0654)"/>
</clipPath>
</defs>
</svg>
