<svg width="79" height="79" viewBox="0 0 79 79" fill="none" xmlns="http://www.w3.org/2000/svg">
<circle cx="38.9372" cy="40.0759" r="38.695" fill="#19555C"/>
<path d="M63.5286 69.949C74.2675 61.1083 79.4348 47.1839 77.0629 33.4779C74.691 19.7719 65.1449 8.39374 52.0597 3.67599C38.9745 -1.04175 24.3639 1.62701 13.7915 10.6661C-2.34431 24.4616 -4.35149 48.682 9.29329 64.9456C22.9381 81.2092 47.1387 83.4418 63.5286 69.949ZM60.3192 56.9633C60.7472 57.4736 60.9611 58.1319 60.8788 58.8067C60.813 59.465 60.4838 60.1069 59.9736 60.5348C59.464 60.978 58.7985 61.1995 58.1248 61.1501C57.4512 61.1006 56.8252 60.7844 56.3857 60.2715C55.4969 59.2181 55.6615 57.6381 56.7478 56.7165C57.834 55.7948 59.4305 55.91 60.3357 56.9633H60.3192ZM62.7057 24.1619C61.7536 24.978 60.4061 25.1465 59.2824 24.5898C58.1714 24.0267 57.528 22.8319 57.6694 21.5944C57.8011 20.36 58.6734 19.2902 59.8749 18.8952C61.0763 18.5167 62.3765 18.8952 63.1665 19.8333C64.2363 21.1171 64.0388 23.0592 62.7057 24.1619ZM67.4786 48.405C66.9849 49.7217 65.5201 50.4294 64.2199 49.9686C63.5926 49.7463 63.0816 49.2803 62.8028 48.6761C62.5239 48.0719 62.5008 47.3807 62.7386 46.7592C63.2324 45.4425 64.7136 44.7348 66.0138 45.1956C66.6411 45.4179 67.152 45.8839 67.4309 46.4881C67.7098 47.0923 67.7329 47.7835 67.4951 48.405H67.4786ZM65.9974 30.4654C67.0042 30.2593 68.0335 30.6985 68.5813 31.5681C69.1244 32.424 69.0751 33.5431 68.4826 34.3661C67.8901 35.2219 66.8367 35.6498 65.8492 35.4358C64.8288 35.2383 64.0717 34.4483 63.9072 33.4279C63.6932 32.0619 64.6313 30.7452 66.0138 30.4654H65.9974ZM32.982 68.945C32.3236 69.5046 31.369 69.4881 30.7601 68.945C30.1347 68.369 30.0359 67.4308 30.5297 66.7231C31.0234 66.0319 31.9615 65.785 32.7022 66.1636C33.4535 66.5458 33.7946 67.434 33.4922 68.2208C33.3932 68.501 33.2231 68.7506 32.9984 68.945H32.982ZM47.564 66.8713C47.7135 67.8007 47.0915 68.6789 46.1651 68.8463C45.4908 68.9851 44.8014 68.6896 44.437 68.1056C44.0749 67.5461 44.1078 66.789 44.5028 66.2294C44.9142 65.6698 45.6055 65.4065 46.2638 65.5381C46.9222 65.6698 47.4488 66.1965 47.5476 66.8548V66.8713H47.564ZM18.729 64.4354L18.0213 63.7936C11.2888 57.5837 7.64424 48.7164 8.06404 39.5669C8.1957 38.2502 8.22862 36.8183 8.50841 35.5181L8.88695 33.5102L9.463 31.5352C9.62758 30.8604 9.87445 30.2185 10.1542 29.5602C10.4176 28.9019 10.648 28.2436 10.9442 27.6181C11.6026 26.3838 12.1786 25.0835 12.9851 23.9315C15.9516 19.1925 20.1271 15.3295 25.082 12.7398C26.267 12.1308 27.4684 11.6206 28.6699 11.1269C29.8878 10.7648 31.0563 10.2381 32.2907 10.0242C33.4757 9.76084 34.6442 9.44814 35.7963 9.36584C36.9319 9.21772 38.084 9.06959 39.088 9.05313C43.9237 8.90309 48.7317 9.83659 53.1599 11.7852C54.0713 12.1674 54.7095 13.0068 54.8342 13.9872C54.9589 14.9676 54.5511 15.9401 53.7644 16.5382C52.9777 17.1364 51.9317 17.2695 51.0203 16.8873L50.938 16.8379L50.8392 16.805L50.0657 16.4429C48.1586 15.6052 46.1666 14.9762 44.1242 14.5667C42.6924 14.3033 40.9972 14.1058 39.2197 14.0894C38.2486 14.0729 37.3599 14.1717 36.3559 14.254C35.3684 14.2869 34.3809 14.5173 33.344 14.6983C32.3072 14.8465 31.3032 15.2579 30.2334 15.5213C29.213 15.9163 28.1597 16.3113 27.1228 16.805C22.7527 18.8902 19.0152 22.0994 16.2932 26.104C15.5361 27.0915 15.0095 28.2106 14.384 29.2804C14.1042 29.8236 13.8903 30.3996 13.627 30.9592C13.3617 31.5111 13.1416 32.0835 12.9686 32.6708L12.3761 34.4154L11.9647 36.1765C11.6355 37.3615 11.6355 38.4806 11.4545 39.6163C11.3722 40.7683 11.3722 42.1508 11.3722 43.1383C11.4912 46.281 12.1423 49.3807 13.2978 52.3056C14.8499 56.2534 17.2684 59.8023 20.3749 62.6908C20.8092 63.154 20.8081 63.8752 20.3723 64.3371C19.9366 64.799 19.2167 64.842 18.729 64.4354Z" fill="#2F9DAA"/>
<path fill-rule="evenodd" clip-rule="evenodd" d="M51.8769 38.0195C52.7624 37.134 52.7624 35.6984 51.8769 34.8129L40.5401 23.4761C39.6546 22.5906 38.219 22.5906 37.3335 23.4761L25.9966 34.8129C25.1112 35.6984 25.1112 37.134 25.9966 38.0195C26.8821 38.905 28.3177 38.905 29.2032 38.0195L38.9368 28.2859L48.6704 38.0195C49.5558 38.905 50.9915 38.905 51.8769 38.0195Z" fill="white"/>
<path fill-rule="evenodd" clip-rule="evenodd" d="M51.8769 55.5244C52.7624 54.6389 52.7624 53.2033 51.8769 52.3178L40.5401 40.981C39.6546 40.0955 38.219 40.0955 37.3335 40.981L25.9966 52.3178C25.1112 53.2033 25.1112 54.6389 25.9966 55.5244C26.8821 56.4098 28.3177 56.4098 29.2032 55.5244L38.9368 45.7908L48.6704 55.5244C49.5558 56.4098 50.9915 56.4098 51.8769 55.5244Z" fill="white"/>
</svg>
