<svg width="80" height="79" viewBox="0 0 80 79" fill="none" xmlns="http://www.w3.org/2000/svg">
<g clip-path="url(#clip0)">
<circle cx="39.5622" cy="40.0759" r="38.695" fill="#003B61"/>
<path d="M64.1541 69.949C74.893 61.1083 80.0602 47.1839 77.6883 33.4779C75.3165 19.7719 65.7704 8.39374 52.6852 3.67599C39.6 -1.04175 24.9894 1.62701 14.417 10.6661C-1.71882 24.4616 -3.72601 48.682 9.91878 64.9456C23.5636 81.2092 47.7642 83.4418 64.1541 69.949ZM60.9447 56.9633C61.3726 57.4736 61.5866 58.1319 61.5043 58.8067C61.4385 59.465 61.1093 60.1069 60.5991 60.5348C60.0894 60.978 59.424 61.1995 58.7503 61.1501C58.0767 61.1006 57.4507 60.7844 57.0112 60.2715C56.1224 59.2181 56.287 57.6381 57.3733 56.7165C58.4595 55.7948 60.056 55.91 60.9612 56.9633H60.9447ZM63.3312 24.1619C62.3791 24.978 61.0315 25.1465 59.9079 24.5898C58.7969 24.0267 58.1535 22.8319 58.2949 21.5944C58.4266 20.36 59.2989 19.2902 60.5004 18.8952C61.7018 18.5167 63.002 18.8952 63.792 19.8333C64.8618 21.1171 64.6643 23.0592 63.3312 24.1619ZM68.1041 48.405C67.6104 49.7217 66.1456 50.4294 64.8454 49.9686C64.2181 49.7463 63.7071 49.2803 63.4283 48.6761C63.1494 48.0719 63.1263 47.3807 63.3641 46.7592C63.8578 45.4425 65.3391 44.7348 66.6393 45.1956C67.2666 45.4179 67.7775 45.8839 68.0564 46.4881C68.3353 47.0923 68.3584 47.7835 68.1206 48.405H68.1041ZM66.6228 30.4654C67.6297 30.2593 68.659 30.6985 69.2068 31.5681C69.7499 32.424 69.7006 33.5431 69.1081 34.3661C68.5156 35.2219 67.4622 35.6498 66.4747 35.4358C65.4543 35.2383 64.6972 34.4483 64.5326 33.4279C64.3187 32.0619 65.2568 30.7452 66.6393 30.4654H66.6228ZM33.6074 68.945C32.9491 69.5046 31.9945 69.4881 31.3856 68.945C30.7601 68.369 30.6614 67.4308 31.1551 66.7231C31.6489 66.0319 32.587 65.785 33.3276 66.1636C34.079 66.5458 34.42 67.434 34.1176 68.2208C34.0187 68.501 33.8485 68.7506 33.6239 68.945H33.6074ZM48.1895 66.8713C48.339 67.8007 47.717 68.6789 46.7906 68.8463C46.1163 68.9851 45.4269 68.6896 45.0624 68.1056C44.7004 67.5461 44.7333 66.789 45.1283 66.2294C45.5397 65.6698 46.231 65.4065 46.8893 65.5381C47.5476 65.6698 48.0743 66.1965 48.1731 66.8548V66.8713H48.1895ZM19.3545 64.4354L18.6468 63.7936C11.9143 57.5837 8.26972 48.7164 8.68953 39.5669C8.82119 38.2502 8.85411 36.8183 9.1339 35.5181L9.51244 33.5102L10.0885 31.5352C10.2531 30.8604 10.4999 30.2185 10.7797 29.5602C11.0431 28.9019 11.2735 28.2436 11.5697 27.6181C12.2281 26.3838 12.8041 25.0835 13.6106 23.9315C16.5771 19.1925 20.7526 15.3295 25.7074 12.7398C26.8924 12.1308 28.0939 11.6206 29.2954 11.1269C30.5133 10.7648 31.6818 10.2381 32.9162 10.0242C34.1012 9.76084 35.2697 9.44814 36.4218 9.36584C37.5574 9.21772 38.7095 9.06959 39.7135 9.05313C44.5491 8.90309 49.3571 9.83659 53.7854 11.7852C54.6968 12.1674 55.335 13.0068 55.4597 13.9872C55.5844 14.9676 55.1766 15.9401 54.3899 16.5382C53.6032 17.1364 52.5572 17.2695 51.6458 16.8873L51.5635 16.8379L51.4647 16.805L50.6912 16.4429C48.7841 15.6052 46.792 14.9762 44.7497 14.5667C43.3179 14.3033 41.6226 14.1058 39.8451 14.0894C38.8741 14.0729 37.9854 14.1717 36.9814 14.254C35.9939 14.2869 35.0064 14.5173 33.9695 14.6983C32.9326 14.8465 31.9287 15.2579 30.8589 15.5213C29.8385 15.9163 28.7851 16.3113 27.7483 16.805C23.3782 18.8902 19.6407 22.0994 16.9187 26.104C16.1616 27.0915 15.6349 28.2106 15.0095 29.2804C14.7297 29.8236 14.5158 30.3996 14.2524 30.9592C13.9872 31.5111 13.767 32.0835 13.5941 32.6708L13.0016 34.4154L12.5901 36.1765C12.261 37.3615 12.261 38.4806 12.0799 39.6163C11.9977 40.7683 11.9977 42.1508 11.9977 43.1383C12.1167 46.281 12.7678 49.3807 13.9233 52.3056C15.4754 56.2534 17.8939 59.8023 21.0004 62.6908C21.4347 63.154 21.4336 63.8752 20.9978 64.3371C20.5621 64.799 19.8422 64.842 19.3545 64.4354Z" fill="#0077C5"/>
<path d="M42.2625 26.0045L40.5015 36.8506L48.1382 37.1797H48.385C49.0105 37.2949 49.5371 37.6735 49.8334 38.2331C50.1132 38.8091 50.1132 39.4674 49.8334 40.0435L40.2546 58.411C39.9227 59.0583 39.1699 59.3688 38.4782 59.1437C37.7864 58.9185 37.3605 58.2245 37.4732 57.5058L39.2507 46.6433L31.5975 46.2812H31.3671C30.7417 46.166 30.215 45.7874 29.9188 45.2279C29.6286 44.6593 29.6286 43.986 29.9188 43.4174L39.4811 25.0829C39.7961 24.4037 40.5684 24.0663 41.2808 24.2968C41.9932 24.5272 42.4215 25.2531 42.279 25.9881L42.2625 26.0045Z" fill="white"/>
</g>
<defs>
<clipPath id="clip0">
<rect width="79" height="79" fill="white" transform="translate(0.625)"/>
</clipPath>
</defs>
</svg>
