<svg width="254" height="79" viewBox="0 0 254 79" fill="none" xmlns="http://www.w3.org/2000/svg">
<path fill-rule="evenodd" clip-rule="evenodd" d="M248.653 75.7926C247.836 75.7893 247.053 75.4534 246.475 74.8579C245.897 74.2625 245.571 73.4559 245.568 72.6139C245.603 71.7954 245.944 71.0227 246.519 70.4565C247.093 69.8903 247.858 69.5744 248.653 69.5744C249.448 69.5744 250.213 69.8903 250.787 70.4565C251.362 71.0227 251.703 71.7954 251.738 72.6139C251.738 74.3552 250.359 75.7926 248.653 75.7926ZM248.653 68.8557C246.631 68.8557 244.99 70.5274 244.99 72.6139C244.99 74.7036 246.631 76.3373 248.653 76.3373C250.681 76.3373 252.319 74.7003 252.319 72.6139C252.319 70.5274 250.678 68.8557 248.653 68.8557ZM247.962 72.3321V71.1259H248.638C249.025 71.1259 249.458 71.2456 249.458 71.7051C249.458 72.2185 248.976 72.3321 248.558 72.3321H247.962ZM250.196 71.7182C250.196 70.8124 249.443 70.4771 248.672 70.4771H247.228V74.7135H247.962V72.9436H248.493L249.459 74.7166H250.359L249.246 72.8613C249.83 72.732 250.195 72.3324 250.195 71.7221L250.196 71.7182ZM227.128 18.0049C228.124 18.0257 229.114 17.8414 230.041 17.463C230.967 17.0846 231.811 16.5195 232.522 15.801C233.234 15.0825 233.8 14.2249 234.186 13.2785C234.572 12.332 234.771 11.3157 234.771 10.289C234.771 9.26236 234.573 8.24587 234.187 7.29924C233.801 6.35261 233.236 5.49479 232.524 4.77597C231.813 4.05716 230.969 3.4919 230.043 3.11309C229.117 2.73429 228.127 2.54954 227.131 2.56987C225.17 2.61031 223.303 3.44116 221.931 4.88407C220.558 6.32698 219.789 8.26693 219.789 10.2874C219.789 12.3079 220.558 14.2478 221.931 15.6907C223.303 17.1336 225.17 17.9645 227.131 18.0049H227.128ZM207.031 24.6694V35.9915H220.927V75.7963H233.326V35.9915H247.225V24.6694H207.031ZM98.8553 18.0049C99.8391 18.0052 100.813 17.8058 101.722 17.4181C102.631 17.0303 103.457 16.4618 104.153 15.7451C104.849 15.0285 105.401 14.1777 105.777 13.2412C106.154 12.3048 106.347 11.301 106.347 10.2874C106.347 9.27376 106.154 8.27002 105.777 7.33357C105.401 6.39712 104.849 5.54632 104.153 4.82966C103.457 4.113 102.631 3.54446 101.722 3.15673C100.813 2.769 99.8391 2.56962 98.8553 2.56987C96.8947 2.61031 95.0277 3.44116 93.655 4.88407C92.2824 6.32698 91.5135 8.26693 91.5135 10.2874C91.5135 12.3079 92.2824 14.2478 93.655 15.6907C95.0277 17.1336 96.8947 17.9645 98.8553 18.0049ZM78.7554 35.9884H92.6542V75.7963H105.05V35.9915H118.952V24.6694H78.7586V35.9915L78.7554 35.9884ZM185.941 75.7963H198.344V24.7012H185.945V75.7963H185.941ZM160.854 52.8037C160.854 59.6173 157.13 66.6397 149.282 66.6397C141.326 66.6397 139.983 59.0854 139.983 53.0159V24.7012H127.584V56.6349C127.584 67.0704 132.955 77.2875 145.874 77.2875C153.206 77.2875 159.097 72.7093 161.266 67.5991H161.472V75.7963H173.25V24.7012H160.854L160.854 52.8037ZM54.1538 23.2099C46.8188 23.2099 40.9311 27.7882 38.7616 32.8984H38.5525V24.7012H26.7772V75.7963H39.1733V47.6936C39.1733 40.8801 42.8946 33.8544 50.7458 33.8544C58.6985 33.8544 60.0445 41.4121 60.0445 47.4816V75.7963H72.4405V43.8564C72.4405 33.4271 67.0722 23.2068 54.1537 23.2068L54.1538 23.2099ZM1.67773 75.7963H14.0739V24.7012H1.67773V75.7963Z" fill="#0077C5"/>
</svg>
