<svg width="33" height="33" viewBox="0 0 33 33" fill="none" xmlns="http://www.w3.org/2000/svg">
<g clip-path="url(#clip0)">
<path d="M17.1015 6.62276V14.4134L22.9869 8.52809C22.5314 7.83897 22.348 7.00526 22.4722 6.1886C22.5965 5.37194 23.0195 4.63051 23.6594 4.10805C24.2992 3.5856 25.1103 3.31934 25.9353 3.3609C26.7603 3.40246 27.5405 3.74887 28.1246 4.33299C28.7087 4.9171 29.0552 5.69729 29.0967 6.52231C29.1383 7.34732 28.872 8.15838 28.3496 8.79823C27.8271 9.43809 27.0857 9.86116 26.269 9.98541C25.4524 10.1097 24.6187 9.92627 23.9295 9.47076L18.0442 15.3561H25.8349C26.0001 14.5467 26.4599 13.8275 27.1253 13.338C27.7906 12.8484 28.614 12.6233 29.4359 12.7063C30.2578 12.7893 31.0195 13.1746 31.5735 13.7873C32.1275 14.4001 32.4342 15.1967 32.4342 16.0228C32.4342 16.8488 32.1275 17.6454 31.5735 18.2582C31.0195 18.8709 30.2578 19.2562 29.4359 19.3392C28.614 19.4222 27.7906 19.1971 27.1253 18.7076C26.4599 18.218 26.0001 17.4988 25.8349 16.6894H18.0442L23.9295 22.5748C24.6187 22.1192 25.4524 21.9358 26.269 22.0601C27.0857 22.1844 27.8271 22.6074 28.3496 23.2473C28.872 23.8871 29.1383 24.6982 29.0967 25.5232C29.0552 26.3482 28.7087 27.1284 28.1246 27.7125C27.5405 28.2966 26.7603 28.6431 25.9353 28.6846C25.1103 28.7262 24.2992 28.4599 23.6594 27.9375C23.0195 27.415 22.5965 26.6736 22.4722 25.8569C22.348 25.0403 22.5314 24.2065 22.9869 23.5174L17.1015 17.6321V25.4228C17.9109 25.588 18.6301 26.0478 19.1197 26.7132C19.6092 27.3785 19.8343 28.2019 19.7513 29.0238C19.6683 29.8456 19.2831 30.6074 18.6703 31.1614C18.0575 31.7154 17.2609 32.0221 16.4349 32.0221C15.6088 32.0221 14.8122 31.7154 14.1994 31.1614C13.5867 30.6074 13.2014 29.8456 13.1184 29.0238C13.0354 28.2019 13.2605 27.3785 13.7501 26.7132C14.2397 26.0478 14.9588 25.588 15.7682 25.4228V17.6321L9.88287 23.5174C10.3384 24.2065 10.5218 25.0403 10.3975 25.8569C10.2733 26.6736 9.8502 27.415 9.21034 27.9375C8.57049 28.4599 7.75943 28.7262 6.93442 28.6846C6.1094 28.6431 5.32921 28.2966 4.7451 27.7125C4.16098 27.1284 3.81457 26.3482 3.77301 25.5232C3.73145 24.6982 3.99771 23.8871 4.52016 23.2473C5.04262 22.6074 5.78405 22.1844 6.60071 22.0601C7.41737 21.9358 8.25108 22.1192 8.9402 22.5748L14.8255 16.6894H7.03487C6.86966 17.4988 6.40981 18.218 5.74447 18.7076C5.07914 19.1971 4.25572 19.4222 3.43385 19.3392C2.61198 19.2562 1.85022 18.8709 1.29624 18.2582C0.742267 17.6454 0.435547 16.8488 0.435547 16.0228C0.435547 15.1967 0.742267 14.4001 1.29624 13.7873C1.85022 13.1746 2.61198 12.7893 3.43385 12.7063C4.25572 12.6233 5.07914 12.8484 5.74447 13.338C6.40981 13.8275 6.86966 14.5467 7.03487 15.3561H14.8255L8.9402 9.47076C8.25108 9.92627 7.41737 10.1097 6.60071 9.98541C5.78405 9.86116 5.04262 9.43809 4.52016 8.79823C3.99771 8.15838 3.73145 7.34732 3.77301 6.52231C3.81457 5.69729 4.16098 4.9171 4.7451 4.33299C5.32921 3.74887 6.1094 3.40246 6.93442 3.3609C7.75943 3.31934 8.57049 3.5856 9.21034 4.10805C9.8502 4.63051 10.2733 5.37194 10.3975 6.1886C10.5218 7.00526 10.3384 7.83897 9.88287 8.52809L15.7682 14.4134V6.62276C14.9588 6.45755 14.2397 5.9977 13.7501 5.33236C13.2605 4.66703 13.0354 3.84361 13.1184 3.02174C13.2014 2.19987 13.5867 1.43811 14.1994 0.884133C14.8122 0.330157 15.6088 0.0234375 16.4349 0.0234375C17.2609 0.0234375 18.0575 0.330157 18.6703 0.884133C19.2831 1.43811 19.6683 2.19987 19.7513 3.02174C19.8343 3.84361 19.6092 4.66703 19.1197 5.33236C18.6301 5.9977 17.9109 6.45755 17.1015 6.62276Z" fill="#87BBFD"/>
<path d="M16.4336 20.0225C18.6427 20.0225 20.4336 18.2316 20.4336 16.0225C20.4336 13.8133 18.6427 12.0225 16.4336 12.0225C14.2245 12.0225 12.4336 13.8133 12.4336 16.0225C12.4336 18.2316 14.2245 20.0225 16.4336 20.0225Z" fill="#6772E5"/>
</g>
<defs>
<clipPath id="clip0">
<rect width="32" height="32" fill="white" transform="translate(0.433594 0.0224609)"/>
</clipPath>
</defs>
</svg>
