<svg width="190" height="52" viewBox="0 0 190 52" fill="none" xmlns="http://www.w3.org/2000/svg">
<path d="M107.834 22.4723H109.464V20.854H107.834V22.4723ZM110.121 38.6014V33.5198H113.937V31.7111H111.227L110.121 33.3474V29.0842H110.1L106.068 33.5198H108.127V38.7092C108.127 40.8192 109.558 42.4769 111.964 42.4769C112.657 42.4769 113.373 42.3478 113.98 42.0681V40.2591C113.373 40.5823 112.787 40.6683 112.289 40.6683C110.837 40.6683 110.121 39.764 110.121 38.6014ZM119.009 36.0176L117.903 37.5676L117.881 37.051C117.881 34.7469 119.421 33.2183 121.328 33.2183C122.976 33.2183 124.168 34.3163 124.471 36.0176H119.009ZM121.285 31.4957C118.315 31.4957 115.974 33.8212 115.974 37.0079C115.974 40.1945 118.293 42.4769 121.696 42.4769C123.192 42.4769 124.579 42.0249 125.512 41.3143V39.4412C124.254 40.3668 123.127 40.7328 121.87 40.7328C119.616 40.7328 118.142 39.5271 117.925 37.6107H126.379V36.9001C126.379 33.7994 124.254 31.4957 121.285 31.4957ZM118.11 16.4658C118.041 15.582 117.807 14.9833 117.2 14.4295C116.593 13.8757 115.889 13.5986 115.086 13.5986H112.491V15.2336H115.086C115.108 15.2336 115.127 15.2328 115.148 15.2336C115.166 15.2328 115.183 15.2336 115.202 15.2336C115.557 15.2399 115.896 15.3845 116.146 15.6365C116.395 15.8885 116.534 16.2276 116.534 16.5809C116.534 16.9341 116.395 17.2732 116.146 17.5252C115.896 17.7772 115.557 17.9219 115.202 17.9281C115.179 17.9281 115.159 17.9289 115.137 17.9281C115.12 17.9294 115.104 17.9273 115.086 17.9281H111.77V19.5489H115.086C115.889 19.5489 116.593 19.2684 117.2 18.7058C117.807 18.1432 118.183 17.3936 118.11 16.4658ZM108.521 19.5489C109.895 19.5489 110.77 18.414 110.77 17.3135V13.8187H109.142V17.0988C109.142 17.604 108.724 17.9306 108.306 17.9306H106.028V16.2038C106.028 14.0841 104.378 13.1248 103.05 13.1248C101.605 13.1248 100.074 14.1985 100.074 16.2038V17.9306L95.5577 17.9302C95.4476 17.9308 95.3385 17.9096 95.2366 17.8681C95.1347 17.8265 95.0422 17.7653 94.9643 17.688C94.8863 17.6107 94.8246 17.5189 94.7826 17.4177C94.7406 17.3166 94.7192 17.2082 94.7195 17.0988V13.7285L93.0929 14.2249V17.3135C93.0929 18.6584 94.2194 19.5493 95.3421 19.5493H101.7V16.0885C101.7 15.3447 102.295 14.7414 103.045 14.7414C103.404 14.7414 103.749 14.8833 104.004 15.1359C104.258 15.3885 104.401 15.7311 104.401 16.0885V19.5489H108.521ZM101.429 33.5198V39.9149C100.54 40.4532 99.7812 40.6469 98.9578 40.6469C96.8986 40.6469 95.4463 39.1825 95.4463 37.0942C95.4463 35.0483 96.8551 33.5198 99.2828 33.5198H101.429ZM93.4302 37.0942C93.4302 40.1945 95.5763 42.4555 98.6759 42.4555C99.2613 42.4555 99.8032 42.3264 100.193 42.1327L101.429 40.0872V42.2618H103.423V31.7111H99.0443C95.7278 31.7111 93.4302 34.0149 93.4302 37.0942ZM88.5744 31.9048L87.3171 33.9289V31.7111H85.3229V42.2618H87.3171V34.0794C88.141 33.5198 89.0083 33.3043 90.1137 33.3043C90.7641 33.3043 91.306 33.3906 91.9559 33.6057V31.668C91.5225 31.5388 91.0675 31.4957 90.5906 31.4957C89.7883 31.4957 89.0948 31.6466 88.5744 31.9048ZM99.747 20.854H98.1179V22.4723H99.747V20.854ZM95.6911 22.4807H97.3202V20.8624H95.6911V22.4807ZM133.966 36.2545L131.993 35.8235C131.126 35.6512 130.714 35.2424 130.714 34.5964C130.714 33.6703 131.494 33.1965 133.12 33.1965C134.356 33.1965 135.375 33.4552 136.068 33.9289V32.0771C135.396 31.668 134.507 31.4957 133.402 31.4957C130.541 31.4957 128.915 32.6582 128.915 34.6823C128.915 36.2113 129.804 37.1802 131.516 37.5462L133.511 37.9767C134.442 38.1708 134.854 38.6442 134.854 39.312C134.854 40.2809 134.052 40.776 132.275 40.776C130.996 40.776 129.956 40.5391 128.937 39.9795V41.8526C129.891 42.2618 130.909 42.4555 132.166 42.4555C135.136 42.4555 136.632 41.3357 136.632 39.2257C136.632 37.5248 135.678 36.6205 133.966 36.2545ZM179.141 19.5497H182.182C182.586 19.5112 182.995 19.3904 183.246 19.1133C183.503 18.7968 183.648 18.5918 183.648 18.105L184.902 19.5497H187.118C188.302 19.5497 189.367 18.5934 189.367 17.3156V13.8187H187.739V17.0674C187.739 17.5734 187.385 17.9306 186.896 17.9306H183.648V14.2752H182.019V17.0674C182.019 17.3114 181.936 17.5118 181.769 17.669C181.611 17.8434 181.409 17.9306 181.163 17.9306H179.312C178.908 17.9306 178.605 17.778 178.403 17.4728C178.438 17.2896 178.456 17.1152 178.456 16.9496V10.7029L176.831 9.52353V17.0674C176.831 17.3026 176.738 17.5055 176.58 17.6757C176.423 17.8455 176.22 17.9306 175.975 17.9306H169.547C169.113 17.9306 168.691 17.6225 168.691 17.0674V14.5662L167.065 15.0634V17.3156C167.065 18.6521 168.163 19.5497 169.314 19.5497H175.981C176.534 19.5497 177.051 19.3665 177.534 19.0001C178.061 19.3665 178.596 19.5497 179.141 19.5497ZM81.6696 17.9776L81.4983 18.0585C81.2019 18.2022 80.8759 18.2752 80.5461 18.2715C79.51 18.2715 78.8912 17.7122 78.8912 16.776C78.8912 15.7631 79.5965 15.1087 80.6883 15.1087H81.6696V17.9776ZM86.7773 17.09V9.52353H85.1579V17.0938C85.1579 17.329 85.0655 17.521 84.9076 17.6694C84.7498 17.8438 84.5476 17.931 84.302 17.931H83.1675V13.7256H80.487C78.7233 13.7256 77.3929 15.037 77.3929 16.776C77.3929 18.5243 78.538 19.6541 80.3098 19.6541C80.5368 19.6541 80.7744 19.6147 80.9791 19.5439L81.0467 19.5208L81.6696 18.461V20.4142C81.6696 20.8444 81.3223 21.2481 80.831 21.2481H79.0297L79.7278 22.863H81.1062C82.1537 22.863 83.2958 21.9759 83.2958 20.6293V19.5489H84.302C84.9865 19.5489 85.5707 19.3116 86.0531 18.8362C86.5359 18.3612 86.7773 17.7789 86.7773 17.09ZM168.28 40.5391H164.443V35.4793H168.323C169.754 35.4793 170.946 36.319 170.946 38.0845C170.946 39.678 169.949 40.5391 168.28 40.5391ZM164.443 29.1269H167.846C169.169 29.1269 170.274 29.9453 170.274 31.4957C170.274 33.0246 169.212 33.778 167.846 33.778H165.635L164.443 35.3716V29.1269ZM170.252 34.5532C171.423 33.9717 172.29 32.6582 172.29 31.1942C172.29 29.0196 170.512 27.4047 168.15 27.4047H162.427V42.2618H168.648C171.119 42.2618 172.984 40.5823 172.984 38.2136C172.984 36.5341 171.878 35.0701 170.252 34.5532ZM186.277 22.4723H187.906V20.854H186.277V22.4723ZM182.196 40.4532H180.202L178.945 42.1109V29.2347H182.196C185.621 29.2347 187.962 31.4743 187.962 34.8114C187.962 38.1059 185.6 40.4532 182.196 40.4532ZM182.196 27.4047H176.929V42.2618H182.196C186.705 42.2618 190 39.0752 190 34.8114C190 30.5482 186.705 27.4047 182.196 27.4047ZM138.961 20.4142C138.961 20.8444 138.614 21.2481 138.122 21.2481H136.321L137.019 22.863H138.397C139.445 22.863 140.587 21.9759 140.587 20.6293V13.8187H138.961V20.4142ZM163.709 9.52353H162.082V19.5497H163.709V9.52353ZM155.837 40.1086L148.966 27.4047H146.04V42.2618H148.055V29.5793L154.927 42.2618H157.853V27.4047H155.837V40.1086ZM148.306 15.1087H149.287C150.379 15.1087 151.084 15.7631 151.084 16.776C151.084 17.7122 150.465 18.2715 149.429 18.2715C149.083 18.2715 148.789 18.2056 148.477 18.0585L148.306 17.9776V15.1087ZM148.306 18.461L148.929 19.5208L148.996 19.5439C149.212 19.6167 149.438 19.6539 149.666 19.6541C151.437 19.6541 152.582 18.5243 152.582 16.776C152.582 15.037 151.252 13.7256 149.488 13.7256H146.808V17.931H144.637C144.525 17.9332 144.414 17.9131 144.31 17.8719C144.206 17.8306 144.111 17.7691 144.031 17.6909C143.951 17.6127 143.888 17.5194 143.845 17.4166C143.802 17.3138 143.781 17.2034 143.781 17.0921V10.7171L142.155 9.52269V17.3135C142.155 18.575 143.19 19.5489 144.404 19.5489H148.306V18.461ZM157.14 22.4958C156.93 22.4958 156.776 22.4438 156.679 22.3398C156.581 22.2354 156.532 22.0971 156.532 21.9247C156.532 21.7453 156.599 21.5868 156.733 21.4506C156.867 21.3139 157.038 21.246 157.248 21.246H157.769L157.454 20.5563H157.129C156.766 20.5509 156.416 20.6861 156.152 20.9332C155.871 21.1919 155.73 21.5223 155.73 21.9247C155.73 22.1189 155.784 22.3088 155.892 22.4958H155.328L155.437 23.3041H157.942L157.78 22.4958H157.14ZM159.231 17.0988C159.231 17.4841 158.941 17.9285 158.381 17.9285H157.302V10.7616H155.675V16.8376L156.808 17.9285H153.28L153.786 19.5493H158.608C159.923 19.5476 160.858 18.4643 160.858 17.3135V9.52353H159.231V17.0988ZM79.3838 29.3856H81.378V27.4047H79.3838V29.3856ZM137.017 10.7171L135.391 9.52269V19.5493H137.017V10.7171ZM127.333 12.6662H125.703V14.2845H127.333V12.6662ZM129.76 12.6578H128.131V14.2761H129.76V12.6578ZM63.4305 11.3607H61.8014V12.9789H63.4305V11.3607ZM124.146 19.5493H131.317C132.545 19.5493 133.566 18.5389 133.566 17.3135V13.7L131.941 14.894V17.0942C131.941 17.5218 131.605 17.9302 131.101 17.9302H124.362C123.864 17.9302 123.524 17.5286 123.524 17.0988V14.8194L121.897 16.0055V17.3135C121.897 18.6584 123.024 19.5493 124.146 19.5493ZM48.451 35.5221H55.3659V33.7348H49.6863L48.451 35.3498V29.2347H55.7559V27.4047H46.4348V42.2618H55.8644V40.4314H48.451V35.5221ZM89.5257 9.52353H87.8987V19.5497H89.5257V9.52353ZM171.459 14.6169H173.964L173.802 13.8086H173.162C172.952 13.8086 172.798 13.7566 172.701 13.6522C172.603 13.5483 172.554 13.4099 172.554 13.2376C172.554 13.0577 172.621 12.8997 172.755 12.7634C172.889 12.6268 173.06 12.5588 173.27 12.5588H173.791L173.476 11.8688H173.151C172.775 11.8688 172.449 11.9945 172.175 12.2461C171.893 12.5048 171.752 12.8351 171.752 13.2376C171.752 13.4313 171.806 13.6216 171.914 13.8086H171.35L171.459 14.6169ZM72.9335 13.6346H68.9215L67.9001 15.25H73.0496C73.7987 15.25 74.4056 15.8411 74.4056 16.5853C74.4056 16.7621 74.3706 16.9372 74.3024 17.1006C74.2342 17.264 74.1343 17.4124 74.0084 17.5375C73.8825 17.6625 73.733 17.7616 73.5685 17.8292C73.4039 17.8968 73.2276 17.9316 73.0496 17.9315L67.8836 17.9323V10.7171L66.257 9.52269V17.9323C64.7022 17.9323 63.4377 17.9323 63.4377 17.9315V14.2752H61.8124V17.9315H59.405V16.2038C59.405 14.0841 57.7548 13.1248 56.4265 13.1248C54.9814 13.1248 53.4511 14.1985 53.4511 16.2038V17.9315H48.9001C48.402 17.9315 48.0614 17.5286 48.0614 17.0988V13.7285L46.4348 14.2249V17.3135C46.4348 18.6584 47.5613 19.5493 48.684 19.5493H55.0768V16.0901C55.0768 15.3447 55.6719 14.7414 56.4211 14.7414C56.5993 14.7415 56.7758 14.7764 56.9405 14.8442C57.1051 14.912 57.2547 15.0114 57.3807 15.1366C57.5067 15.2619 57.6066 15.4105 57.6748 15.5741C57.743 15.7377 57.778 15.9131 57.778 16.0901V19.5493H72.9335C75.0674 19.551 76.0331 17.9097 76.0331 16.5907C76.0331 15.1548 74.9522 13.6346 72.9335 13.6346ZM49.0912 22.4807H50.7204V20.8624H49.0912V22.4807ZM71.6015 31.4957C70.7127 31.4957 69.9542 31.7325 69.5208 32.0126L68.307 34.1012C67.895 32.6368 66.6593 31.4957 64.3181 31.4957C63.4297 31.4957 62.6924 31.7111 62.2809 31.948L61.0451 33.9289V31.7111H59.0509V42.2618H61.0451V34.0794C61.7769 33.5744 62.6467 33.3039 63.5377 33.3043C65.4454 33.3043 66.3558 34.3595 66.3558 35.6944V42.2618H68.35V34.2731C69.0654 33.6703 69.8892 33.3043 70.8431 33.3043C72.7504 33.3043 73.6607 34.4027 73.6607 36.1249V42.2618H75.6549V35.6298C75.6549 33.0028 74.2026 31.4957 71.6015 31.4957ZM79.3838 42.2618H81.378V31.7111H79.3838V42.2618ZM183.648 11.3607H182.019V12.9789H183.648V11.3607ZM51.5185 22.4723H53.1476V20.854H51.5185V22.4723ZM18.3952 39.7413C18.4471 39.8243 19.8969 39.0362 20.7444 38.4652C22.0422 37.591 23.1923 36.5391 24.1972 35.3569C27.0921 31.9497 28.6862 27.5254 28.7546 23.0798C28.809 19.499 27.8011 16.3828 26.8722 14.4542C26.3927 13.4569 25.6778 12.1979 25.5782 12.2494C25.533 12.2717 25.5782 12.4654 25.6647 12.7467C25.7862 13.1437 27.6091 18.9179 26.2235 25.9084C25.9568 27.2546 25.5326 28.6016 24.9903 29.9193C25.0928 29.1307 25.1274 28.3349 25.0937 27.5405C24.9839 25.0095 24.1348 22.8496 23.3911 21.526C23.0066 20.8406 22.4448 19.9807 22.3756 20.021C22.3448 20.039 22.3841 20.1744 22.4584 20.3694C22.5618 20.6452 24.1031 24.6486 23.4054 29.6439C22.9087 33.2083 20.8786 36.8695 18.6198 39.455C18.4826 39.6114 18.3653 39.7049 18.3952 39.7413ZM3.10885 3.08899H17.4393C10.9215 10.5721 7.697 20.0281 8.33557 29.734C8.8585 37.6694 13.3306 45.0133 17.029 48.9098H3.10885V3.08899ZM25.6791 3.08899C18.1935 9.55624 13.1622 18.6291 12.9537 28.7157C12.795 36.4075 14.2249 42.3155 18.1298 48.2084C14.395 42.7867 11.9631 38.0338 11.3967 31.6952C10.4716 21.3546 14.5119 10.9481 22.4866 3.08899H25.6791ZM31.8178 3.08899H34.4333V48.9098H20.1653C16.8332 43.2722 15.7793 37.3575 16.0127 30.9737C16.4268 19.6432 22.5757 9.61158 31.8178 3.08899ZM0 52H37.4611V-5.62132e-07H0V52Z" fill="#FEFEFE"/>
</svg>
