<svg width="345" height="60" viewBox="0 0 345 60" fill="none" xmlns="http://www.w3.org/2000/svg">
<path fill-rule="evenodd" clip-rule="evenodd" d="M94.623 52.4133V6.5957H99.8759V24.8685C101.786 21.1917 105.692 18.7585 110.873 18.7585C118.751 18.7585 123.716 23.6862 123.716 31.2457V52.4133H118.464V32.3005C118.464 26.7716 115.06 23.286 109.595 23.286C103.916 23.286 99.8759 27.104 99.8759 32.6281V52.4133H94.623Z" fill="white"/>
<path fill-rule="evenodd" clip-rule="evenodd" d="M143.506 48.865C150.527 48.865 154.433 45.9064 154.433 41.2393V35.3198C153.44 36.3076 150.317 36.9645 145.133 37.3551C138.606 37.8877 135.272 39.3299 135.272 43.3393C135.272 46.8264 138.395 48.865 143.506 48.865ZM144.922 32.7574C148.613 32.4895 151.094 32.1029 152.446 31.5057C153.789 30.9158 154.433 29.7358 154.433 27.8918C154.433 25.1971 151.947 22.8325 146.767 22.8325C142.863 22.8325 139.671 24.411 137.116 27.5028L133.499 24.7379C136.691 20.4655 141.088 18.293 146.767 18.293C154.502 18.293 159.683 22.3031 159.683 28.6197V46.2986C159.683 48.7972 161.102 48.865 162.66 48.865H163.3V52.3482C162.518 52.8074 161.317 53.0721 159.683 53.0721C157.906 53.0721 156.702 52.4789 155.922 51.295C155.566 50.709 155.285 49.9779 155.143 49.1911C152.585 52.0237 148.544 53.3989 142.938 53.3989C135.272 53.3989 130.018 49.4605 130.018 43.4724C130.018 36.703 134.983 33.4797 144.922 32.7574Z" fill="white"/>
<path fill-rule="evenodd" clip-rule="evenodd" d="M169.83 6.5957H175.08V43.7385C175.08 47.4178 176.21 48.864 179.548 48.864C180.541 48.864 181.391 48.7962 182.1 48.5985V53.1396C181.322 53.3349 180.473 53.3987 179.548 53.3987C177.204 53.3987 175.499 53.071 173.302 51.9557C171.104 50.8355 169.83 48.0771 169.83 44.0685V6.5957Z" fill="white"/>
<path fill-rule="evenodd" clip-rule="evenodd" d="M188.711 35.8508C188.711 39.5939 189.984 42.6896 192.612 45.181C195.236 47.6127 198.502 48.8651 202.473 48.8651C206.448 48.8651 209.714 47.6127 212.338 45.181C214.966 42.6872 216.241 39.5939 216.241 35.8508C216.241 32.1029 214.966 29.012 212.338 26.5772C209.714 24.0842 206.448 22.8325 202.473 22.8325C198.502 22.8325 195.236 24.0842 192.612 26.5772C189.984 29.012 188.711 32.1029 188.711 35.8508ZM183.455 35.8508C183.455 30.8521 185.303 26.7159 188.992 23.3595C192.681 20.0055 197.152 18.293 202.473 18.293C207.796 18.293 212.266 20.0055 215.962 23.3595C219.649 26.7159 221.495 30.8521 221.495 35.8508C221.495 40.8464 219.649 45.0527 215.962 48.4059C212.266 51.7576 207.796 53.3999 202.473 53.3999C197.152 53.3999 192.681 51.7576 188.992 48.4059C185.303 45.0527 183.455 40.8464 183.455 35.8508Z" fill="white"/>
<path fill-rule="evenodd" clip-rule="evenodd" d="M254.474 45.1799C257.034 42.6861 258.31 39.5928 258.31 35.8498C258.31 32.1019 257.034 29.011 254.474 26.5762C251.99 24.0832 248.794 22.8316 244.97 22.8316C241.279 22.8316 238.224 24.0832 235.741 26.5762C233.333 29.011 232.124 32.1019 232.124 35.8498C232.124 39.5928 233.333 42.6861 235.741 45.1799C238.224 47.6115 241.279 48.864 244.97 48.864C248.794 48.864 251.99 47.6115 254.474 45.1799ZM257.671 24.2108V6.5957H262.919V52.4133H257.671V47.4855C255.61 50.8355 251.424 53.3987 244.97 53.3987C239.933 53.3987 235.599 51.7564 232.124 48.4047C228.647 45.0507 226.875 40.8453 226.875 35.8498C226.875 30.851 228.647 26.7141 232.124 23.3585C235.599 20.0045 239.933 18.2921 244.97 18.2921C251.424 18.2921 255.61 20.8616 257.671 24.2108Z" fill="white"/>
<path fill-rule="evenodd" clip-rule="evenodd" d="M274.468 35.8508C274.468 39.5939 275.741 42.6872 278.37 45.181C280.995 47.6127 284.256 48.8651 288.235 48.8651C292.206 48.8651 295.472 47.6127 298.096 45.181C300.72 42.6872 301.999 39.5939 301.999 35.8508C301.999 32.1029 300.72 29.012 298.096 26.5772C295.472 24.0842 292.206 22.8325 288.235 22.8325C284.256 22.8325 280.995 24.0842 278.37 26.5772C275.741 29.012 274.468 32.1029 274.468 35.8508ZM269.213 35.8508C269.213 30.8521 271.061 26.7159 274.75 23.3595C278.439 20.0055 282.913 18.293 288.235 18.293C293.557 18.293 298.023 20.0055 301.715 23.3595C305.406 26.7159 307.248 30.8521 307.248 35.8508C307.248 40.8464 305.406 45.0527 301.715 48.4059C298.023 51.7576 293.557 53.3999 288.235 53.3999C282.913 53.3999 278.439 51.7576 274.75 48.4059C271.061 45.0527 269.213 40.8464 269.213 35.8508Z" fill="white"/>
<mask id="mask0" mask-type="alpha" maskUnits="userSpaceOnUse" x="312" y="18" width="33" height="36">
<path d="M344.663 18.291V53.3975H312.096V18.291H344.663Z" fill="white"/>
</mask>
<g mask="url(#mask0)">
<path fill-rule="evenodd" clip-rule="evenodd" d="M344.663 23.2857L341.472 26.7139C338.775 24.1459 335.299 22.8313 331.112 22.8313C327.138 22.8313 323.876 24.0822 321.252 26.5751C318.621 29.0099 317.345 32.1016 317.345 35.8486C317.345 39.5917 318.621 42.685 321.252 45.1787C323.876 47.6103 327.138 48.8636 331.112 48.8636C335.299 48.8636 338.775 47.5441 341.472 44.9834L344.663 48.4036C341.189 51.7551 336.647 53.3975 331.112 53.3975C325.791 53.3975 321.325 51.7551 317.629 48.4036C313.942 45.0504 312.096 40.8441 312.096 35.8486C312.096 30.8499 313.942 26.7139 317.629 23.3575C321.325 20.0043 325.791 18.291 331.112 18.291C336.647 18.291 341.189 19.9389 344.663 23.2857Z" fill="white"/>
</g>
<mask id="mask1" mask-type="alpha" maskUnits="userSpaceOnUse" x="0" y="1" width="68" height="59">
<path d="M33.7382 59.1638H0.0214844V1.42773H67.455V59.1638H33.7382Z" fill="white"/>
</mask>
<g mask="url(#mask1)">
<path fill-rule="evenodd" clip-rule="evenodd" d="M62.2066 37.9094C62.2066 47.8486 53.4969 54.7894 41.0222 54.7894C28.217 54.7894 18.9281 47.6947 18.9281 37.9094V25.4454C22.4994 24.9001 24.8745 23.6875 27.4588 21.2734C30.6963 18.2439 32.6626 13.8782 32.6256 9.60263V1.42773H21.3058V5.78704H27.9123V9.60263C27.9123 16.0523 22.9529 21.2926 15.9918 21.2926C9.02728 21.2926 4.65389 16.0523 4.65389 9.60263V5.78704H11.3422V1.42773H0.0214844V9.60263C0.0214844 17.8509 5.12462 24.46 13.6735 25.5107V37.9094C13.6735 50.0251 25.4313 59.1582 41.0222 59.1638C56.341 59.1638 67.4552 50.2244 67.4552 37.9094V25.4454H62.2066V37.9094Z" fill="white"/>
</g>
<path fill-rule="evenodd" clip-rule="evenodd" d="M64.9981 15.433C61.9534 15.433 59.4776 13.1386 59.4776 10.3259C59.4776 7.50449 61.9534 5.20844 64.9981 5.20844C68.0359 5.20844 70.5143 7.47738 70.5143 10.2661C70.5143 13.1155 68.0359 15.433 64.9981 15.433ZM64.9981 0.833984C59.3812 0.833984 54.8125 5.06892 54.8125 10.2709C54.8125 15.5048 59.3812 19.7581 64.9981 19.7581C70.6098 19.7581 75.1837 15.5048 75.1837 10.2709C75.1837 5.06892 70.6098 0.833984 64.9981 0.833984Z" fill="white"/>
</svg>
