<svg width="323" height="60" viewBox="0 0 323 60" fill="none" xmlns="http://www.w3.org/2000/svg">
<path d="M26.3044 24.807L19.1298 17.6755C18.2815 16.8755 17.2698 16.2692 16.1645 15.8985C13.7142 15.0865 11.2839 15.7232 9.30982 17.6755L2.13529 24.807C1.33173 25.6472 0.721018 26.6529 0.345768 27.7537C-0.470215 30.1897 0.170578 32.6045 2.13529 34.5662L9.30982 41.6977C10.1593 42.4985 11.1704 43.1077 12.2751 43.4841C12.9421 43.7106 13.6413 43.8282 14.3456 43.8324C16.067 43.8324 17.7201 43.1075 19.1298 41.7059L26.3044 34.5745C27.1079 33.7342 27.7187 32.7286 28.0939 31.6277C28.9099 29.1835 28.2679 26.7675 26.3044 24.807ZM14.7736 19.7432C15.5814 19.9844 16.1845 20.5352 16.2316 20.574L18.3515 22.6805L14.2198 26.7875L10.0882 22.6805L12.2163 20.5646C12.7901 20.0044 13.5873 19.396 14.7736 19.7432ZM4.21522 29.1353C4.4586 28.3339 5.01239 27.7349 5.05119 27.6854L7.17227 25.5801L11.3039 29.6872L7.17227 33.7942L5.04296 31.676C4.47859 31.1064 3.86601 30.305 4.21522 29.1353ZM13.666 39.6288C12.8583 39.3876 12.2551 38.8369 12.2081 38.798L10.0882 36.6915L14.2198 32.5845L18.3515 36.6915L16.2233 38.8074C15.6484 39.3676 14.8418 39.9772 13.666 39.6288ZM24.2244 30.2379C23.981 31.0382 23.4261 31.6383 23.3873 31.6854L21.2685 33.7919L17.1369 29.686L21.2685 25.579L23.3967 27.696C23.9611 28.2656 24.5736 29.0576 24.2232 30.2379H24.2244Z" fill="#00ADE4"/>
<path d="M45.2364 39.1016H48.9401V28.8881C48.9401 25.7378 47.0153 23.41 43.7291 23.41C42.1253 23.41 40.4134 24.1161 39.5198 25.4106V17.8438H35.8162V39.1016H39.5198V31.0334C39.5198 29.1493 40.4628 26.791 42.6897 26.791C44.6438 26.791 45.2364 27.8831 45.2364 29.6424V39.1016ZM60.1898 33.0622C60.1898 35.3134 58.5755 36.5409 56.2804 36.5409C55.134 36.5409 54.1029 35.8159 54.1029 34.6462C54.1029 33.42 55.1916 32.7539 56.3098 32.6574L60.1898 32.3667V33.0622ZM63.2703 39.3346C64.1557 39.3346 64.4767 39.1887 65.0892 38.9274V36.2419C65.0892 36.2419 64.8553 36.2996 64.6224 36.2996C64.0111 36.2996 63.7677 36.0384 63.7677 35.3334V29.7001C63.7677 28.6763 63.7089 27.5936 63.3291 26.6368C62.4449 24.3562 60.218 23.5454 57.6031 23.5454C54.191 23.5454 51.4586 25.0623 51.254 28.4821H54.813C54.9 27.0817 55.9018 26.3179 57.6031 26.3179C59.6936 26.3179 60.1898 27.2841 60.1898 28.7139V29.6518L55.6984 29.9696C52.7907 30.1732 50.525 31.836 50.525 34.7239C50.525 37.2069 52.4015 39.4876 56.0476 39.4876C58.2251 39.4876 59.9852 38.4343 60.6848 37.2081C60.8024 38.3484 61.6866 39.3334 63.2715 39.3334L63.2703 39.3346ZM74.8116 27.1582C75.0056 27.1582 75.1996 27.1782 75.4042 27.197V23.7572C75.249 23.7478 75.0832 23.7184 74.928 23.7184C73.1397 23.7184 71.3114 24.4433 70.6118 26.2014L70.2908 23.922H67.1797V39.1028H70.8834V31.4488C70.874 29.0046 72.225 27.1582 74.8105 27.1582H74.8116ZM86.4094 39.1028H90.0849V28.9752C90.0849 25.8249 88.1801 23.5454 84.9127 23.5454C83.1537 23.5454 81.3254 24.2691 80.4212 25.8837L80.159 23.9314H77.0762V39.1122H80.7516V32.9175C80.7516 31.6324 80.7222 30.0578 81.2478 28.8598C81.744 27.7478 82.5999 26.9369 83.8921 26.9369C85.8262 26.9369 86.42 28.0196 86.42 29.7966V39.1016H86.4106L86.4094 39.1028ZM102.131 29.9896H95.5192C95.5486 28.9952 95.7826 28.2985 96.3164 27.623C96.842 26.9169 97.7556 26.4533 98.8737 26.4533C99.9343 26.4533 100.691 26.8016 101.198 27.3323C101.781 27.9796 102.101 28.8598 102.131 29.9896ZM105.806 31.6324C105.865 29.7377 105.601 28.009 104.483 26.3474C103.219 24.4433 101.168 23.5454 98.9031 23.5454C96.822 23.5454 95.1701 24.3079 94.0237 25.4683C92.554 26.9558 91.8156 29.1199 91.8156 31.5359C91.8156 34.019 92.6421 36.1454 94.1683 37.6035C95.3746 38.745 96.9008 39.4687 98.9901 39.4687C100.925 39.4687 102.841 38.8603 104.134 37.3328C104.727 36.6385 105.339 35.4394 105.427 34.532H101.898C101.776 35.0207 101.52 35.4654 101.158 35.8159C100.634 36.3384 99.9825 36.5503 98.9219 36.5503C97.9213 36.5503 97.1924 36.1148 96.6574 35.6135C95.9178 34.9074 95.5098 33.8071 95.5392 32.6374H105.767C105.777 32.3279 105.806 31.6324 105.806 31.6324ZM110.735 28.1538C110.735 27.3618 111.26 26.811 111.911 26.5498C112.466 26.3179 112.971 26.3179 113.497 26.3179C114.265 26.3179 115.052 26.5792 115.49 27.0134C115.839 27.39 116.101 27.8643 116.101 28.4444H119.601C119.601 27.3323 119.077 26.192 118.25 25.3224C117.132 24.1244 115.285 23.5454 113.457 23.5454C111.552 23.5454 109.928 24.0961 108.82 25.0623C107.906 25.8543 107.264 26.9263 107.264 28.4821C107.264 30.405 108.675 32.1066 110.764 32.5409C112.116 32.8304 113.643 32.9175 114.993 33.1211C115.936 33.2658 116.52 33.8554 116.52 34.725C116.52 36.3867 114.643 36.6574 113.409 36.6574C112.349 36.6574 111.678 36.4538 111.085 35.9807C110.705 35.6712 110.415 35.1499 110.307 34.5991H106.847C106.963 35.8642 107.644 36.9669 108.441 37.7294C109.705 38.9274 111.436 39.4782 113.379 39.4782C115.46 39.4782 117.376 38.9568 118.61 37.7294C119.407 36.9468 119.933 35.8642 119.933 34.4061C119.933 32.009 118.173 30.4921 115.761 30.1155C114.265 29.8837 113.885 29.8542 112.504 29.6801C111.678 29.5553 110.735 29.2364 110.735 28.1538ZM130.189 28.4444H133.689C133.689 27.3323 133.164 26.192 132.338 25.3224C131.22 24.1244 129.373 23.5454 127.554 23.5454C125.649 23.5454 124.035 24.0961 122.917 25.0623C122.002 25.8543 121.361 26.9263 121.361 28.4821C121.361 30.405 122.771 32.1066 124.862 32.5409C126.213 32.8304 127.739 32.9175 129.09 33.1211C130.034 33.2658 130.617 33.8554 130.617 34.725C130.617 36.3867 128.741 36.6574 127.505 36.6574C126.447 36.6574 125.775 36.4538 125.182 35.9807C124.803 35.6712 124.511 35.1499 124.415 34.5991H120.952C121.07 35.8642 121.751 36.9669 122.548 37.7294C123.811 38.9274 125.542 39.4782 127.487 39.4782C129.577 39.4782 131.482 38.9568 132.717 37.7294C133.514 36.9468 134.04 35.8642 134.04 34.4061C134.04 32.009 132.28 30.4921 129.868 30.1155C128.371 29.8837 127.992 29.8542 126.611 29.6801C125.794 29.5647 124.852 29.2458 124.852 28.1632C124.852 27.3712 125.377 26.8216 126.028 26.5592C126.582 26.3273 127.087 26.3273 127.613 26.3273C128.371 26.3273 129.169 26.5886 129.606 27.024C129.926 27.3912 130.189 27.8643 130.189 28.4444Z" fill="#0D0C0C"/>
<rect x="153.04" y="15.5391" width="1.22972" height="28.3088" fill="#4F5162"/>
<path d="M218.563 53.9254V45.4968H221.279C221.876 45.4968 222.374 45.612 222.774 45.8425C223.177 46.0702 223.48 46.3803 223.682 46.7726C223.888 47.1649 223.99 47.6067 223.99 48.0978C223.99 48.5889 223.889 49.032 223.686 49.4271C223.484 49.8195 223.182 50.1309 222.783 50.3613C222.383 50.5891 221.885 50.7029 221.291 50.7029H219.155V50.0115H221.271C221.712 50.0115 222.077 49.9292 222.368 49.7646C222.658 49.5972 222.874 49.3695 223.017 49.0814C223.162 48.7933 223.234 48.4654 223.234 48.0978C223.234 47.7301 223.162 47.4023 223.017 47.1142C222.874 46.8261 222.657 46.5997 222.363 46.4351C222.073 46.2705 221.705 46.1882 221.258 46.1882H219.331V53.9254H218.563Z" fill="black"/>
<path d="M228.027 54.0571C227.482 54.0571 227 53.9185 226.581 53.6414C226.165 53.3643 225.839 52.9815 225.603 52.4932C225.368 52.002 225.25 51.4355 225.25 50.7935C225.25 50.146 225.368 49.5766 225.603 49.0855C225.839 48.5917 226.165 48.2075 226.581 47.9332C227 47.6561 227.482 47.5175 228.027 47.5175C228.572 47.5175 229.053 47.6561 229.469 47.9332C229.886 48.2103 230.212 48.5944 230.447 49.0855C230.685 49.5766 230.805 50.146 230.805 50.7935C230.805 51.4355 230.687 52.002 230.451 52.4932C230.216 52.9815 229.888 53.3643 229.469 53.6414C229.053 53.9185 228.572 54.0571 228.027 54.0571ZM228.027 53.3862C228.465 53.3862 228.837 53.2683 229.141 53.0323C229.445 52.7963 229.675 52.4822 229.831 52.0898C229.99 51.6975 230.069 51.2654 230.069 50.7935C230.069 50.3215 229.99 49.888 229.831 49.493C229.675 49.0979 229.445 48.781 229.141 48.5423C228.837 48.3036 228.465 48.1842 228.027 48.1842C227.592 48.1842 227.221 48.3036 226.914 48.5423C226.61 48.781 226.378 49.0979 226.219 49.493C226.063 49.888 225.985 50.3215 225.985 50.7935C225.985 51.2654 226.063 51.6975 226.219 52.0898C226.378 52.4822 226.61 52.7963 226.914 53.0323C227.218 53.2683 227.589 53.3862 228.027 53.3862Z" fill="black"/>
<path d="M233.596 53.9254L231.69 47.6039H232.462L233.958 52.8183H234.011L235.503 47.6039H236.279L237.758 52.8059H237.816L239.312 47.6039H240.084L238.178 53.9254H237.422L235.926 48.7439H235.848L234.352 53.9254H233.596Z" fill="black"/>
<path d="M243.842 54.0571C243.253 54.0571 242.744 53.9199 242.314 53.6455C241.884 53.3684 241.551 52.9857 241.316 52.4973C241.083 52.0062 240.966 51.441 240.966 50.8017C240.966 50.1652 241.083 49.6 241.316 49.1061C241.551 48.6095 241.876 48.2213 242.289 47.9414C242.706 47.6588 243.186 47.5175 243.731 47.5175C244.074 47.5175 244.404 47.5806 244.722 47.7068C245.039 47.8303 245.324 48.021 245.576 48.2789C245.831 48.534 246.032 48.8564 246.18 49.246C246.328 49.6329 246.402 50.0911 246.402 50.6206V50.9828H241.472V50.3366H245.654C245.654 49.9306 245.572 49.5657 245.408 49.2419C245.246 48.9154 245.02 48.6575 244.73 48.4682C244.442 48.2789 244.109 48.1842 243.731 48.1842C243.331 48.1842 242.98 48.2912 242.675 48.5052C242.371 48.7192 242.133 49.0018 241.961 49.353C241.791 49.7042 241.704 50.0883 241.702 50.5054V50.8922C241.702 51.3943 241.788 51.8333 241.961 52.2092C242.136 52.5823 242.384 52.8718 242.704 53.0776C243.025 53.2833 243.404 53.3862 243.842 53.3862C244.141 53.3862 244.402 53.3396 244.627 53.2463C244.854 53.153 245.045 53.0282 245.198 52.8718C245.354 52.7127 245.472 52.5384 245.552 52.3491L246.246 52.5755C246.15 52.8416 245.992 53.0872 245.773 53.3122C245.557 53.5371 245.286 53.7182 244.96 53.8554C244.637 53.9898 244.264 54.0571 243.842 54.0571Z" fill="black"/>
<path d="M248.014 53.9254V47.6039H248.724V48.5752H248.778C248.904 48.2569 249.123 48.0004 249.435 47.8056C249.75 47.6081 250.106 47.5093 250.503 47.5093C250.564 47.5093 250.631 47.5107 250.705 47.5134C250.779 47.5161 250.84 47.5189 250.89 47.5216V48.2665C250.857 48.261 250.799 48.2528 250.717 48.2418C250.635 48.2309 250.546 48.2254 250.45 48.2254C250.121 48.2254 249.828 48.2953 249.571 48.4353C249.316 48.5725 249.115 48.7631 248.967 49.0073C248.819 49.2515 248.745 49.53 248.745 49.8428V53.9254H248.014Z" fill="black"/>
<path d="M254.497 54.0571C253.908 54.0571 253.399 53.9199 252.969 53.6455C252.539 53.3684 252.206 52.9857 251.97 52.4973C251.737 52.0062 251.621 51.441 251.621 50.8017C251.621 50.1652 251.737 49.6 251.97 49.1061C252.206 48.6095 252.53 48.2213 252.944 47.9414C253.36 47.6588 253.841 47.5175 254.386 47.5175C254.728 47.5175 255.059 47.5806 255.376 47.7068C255.694 47.8303 255.979 48.021 256.231 48.2789C256.486 48.534 256.687 48.8564 256.835 49.246C256.983 49.6329 257.057 50.0911 257.057 50.6206V50.9828H252.126V50.3366H256.309C256.309 49.9306 256.227 49.5657 256.062 49.2419C255.901 48.9154 255.675 48.6575 255.384 48.4682C255.097 48.2789 254.764 48.1842 254.386 48.1842C253.986 48.1842 253.634 48.2912 253.33 48.5052C253.026 48.7192 252.788 49.0018 252.615 49.353C252.445 49.7042 252.359 50.0883 252.356 50.5054V50.8922C252.356 51.3943 252.443 51.8333 252.615 52.2092C252.791 52.5823 253.038 52.8718 253.359 53.0776C253.679 53.2833 254.059 53.3862 254.497 53.3862C254.796 53.3862 255.057 53.3396 255.282 53.2463C255.509 53.153 255.699 53.0282 255.853 52.8718C256.009 52.7127 256.127 52.5384 256.206 52.3491L256.901 52.5755C256.805 52.8416 256.647 53.0872 256.428 53.3122C256.212 53.5371 255.94 53.7182 255.615 53.8554C255.291 53.9898 254.919 54.0571 254.497 54.0571Z" fill="black"/>
<path d="M260.94 54.0571C260.423 54.0571 259.969 53.9199 259.58 53.6455C259.191 53.3711 258.887 52.9884 258.668 52.4973C258.452 52.0062 258.344 51.4341 258.344 50.7811C258.344 50.1309 258.452 49.5615 258.668 49.0732C258.887 48.5821 259.193 48.2007 259.585 47.9291C259.976 47.6547 260.432 47.5175 260.953 47.5175C261.336 47.5175 261.655 47.5861 261.91 47.7233C262.165 47.8577 262.369 48.0251 262.522 48.2254C262.676 48.4257 262.795 48.6205 262.88 48.8098H262.945V45.4968H263.681V53.9254H262.966V52.7524H262.88C262.795 52.9445 262.674 53.142 262.518 53.3451C262.362 53.5454 262.155 53.7141 261.898 53.8513C261.643 53.9885 261.324 54.0571 260.94 54.0571ZM261.027 53.3862C261.435 53.3862 261.783 53.2751 262.07 53.0529C262.358 52.8279 262.577 52.5192 262.728 52.1269C262.881 51.7318 262.958 51.2791 262.958 50.7688C262.958 50.2639 262.882 49.8181 262.732 49.4312C262.581 49.0416 262.362 48.7371 262.074 48.5176C261.787 48.2953 261.437 48.1842 261.027 48.1842C260.605 48.1842 260.249 48.2995 259.958 48.5299C259.671 48.7577 259.452 49.0663 259.301 49.4559C259.153 49.8455 259.079 50.2831 259.079 50.7688C259.079 51.2599 259.154 51.703 259.305 52.0981C259.456 52.4932 259.675 52.8073 259.962 53.0405C260.253 53.271 260.608 53.3862 261.027 53.3862Z" fill="black"/>
<path d="M269.17 53.9254V45.4968H269.905V48.8098H269.971C270.053 48.6205 270.171 48.4257 270.324 48.2254C270.481 48.0251 270.685 47.8577 270.937 47.7233C271.191 47.5861 271.512 47.5175 271.898 47.5175C272.416 47.5175 272.87 47.6547 273.262 47.9291C273.654 48.2007 273.959 48.5821 274.178 49.0732C274.397 49.5615 274.507 50.1309 274.507 50.7811C274.507 51.4341 274.397 52.0062 274.178 52.4973C273.962 52.9884 273.658 53.3711 273.266 53.6455C272.877 53.9199 272.425 54.0571 271.91 54.0571C271.527 54.0571 271.206 53.9885 270.949 53.8513C270.694 53.7141 270.489 53.5454 270.333 53.3451C270.177 53.142 270.056 52.9445 269.971 52.7524H269.881V53.9254H269.17ZM269.893 50.7688C269.893 51.2791 269.968 51.7318 270.119 52.1269C270.272 52.5192 270.492 52.8279 270.776 53.0529C271.064 53.2751 271.412 53.3862 271.82 53.3862C272.239 53.3862 272.594 53.271 272.884 53.0405C273.174 52.8073 273.395 52.4932 273.546 52.0981C273.696 51.703 273.772 51.2599 273.772 50.7688C273.772 50.2831 273.696 49.8455 273.546 49.4559C273.398 49.0663 273.179 48.7577 272.888 48.5299C272.598 48.2995 272.242 48.1842 271.82 48.1842C271.409 48.1842 271.06 48.2953 270.772 48.5176C270.487 48.7371 270.27 49.0416 270.119 49.4312C269.968 49.8181 269.893 50.2639 269.893 50.7688Z" fill="black"/>
<path d="M276.397 56.2959C276.252 56.2959 276.116 56.2822 275.99 56.2547C275.864 56.2273 275.764 56.1971 275.69 56.1642L275.888 55.5181C276.137 55.5949 276.359 55.6223 276.553 55.6004C276.748 55.5812 276.92 55.4934 277.071 55.337C277.221 55.1833 277.356 54.9474 277.473 54.6291L277.704 53.9871L275.382 47.6039H276.175L278.049 52.9582H278.106L279.98 47.6039H280.773L278.102 54.9254C277.99 55.23 277.851 55.4838 277.687 55.6868C277.523 55.8926 277.332 56.0449 277.116 56.1436C276.902 56.2451 276.663 56.2959 276.397 56.2959Z" fill="black"/>
<path d="M285.61 53.9254V45.4968H286.378V53.234H290.388V53.9254H285.61Z" fill="black"/>
<path d="M291.974 53.9254V47.6039H292.709V53.9254H291.974ZM292.348 46.5174C292.197 46.5174 292.068 46.4667 291.961 46.3652C291.855 46.2609 291.801 46.1361 291.801 45.9907C291.801 45.8452 291.855 45.7218 291.961 45.6203C292.068 45.516 292.197 45.4639 292.348 45.4639C292.498 45.4639 292.627 45.516 292.734 45.6203C292.841 45.7218 292.894 45.8452 292.894 45.9907C292.894 46.1361 292.841 46.2609 292.734 46.3652C292.627 46.4667 292.498 46.5174 292.348 46.5174Z" fill="black"/>
<path d="M297.129 47.6039V48.2418H294.117V47.6039H297.129ZM295.058 46.0894H295.794V52.275C295.794 52.5384 295.839 52.7456 295.929 52.8965C296.02 53.0446 296.138 53.1503 296.283 53.2134C296.428 53.2737 296.583 53.3039 296.747 53.3039C296.843 53.3039 296.925 53.2984 296.994 53.2875C297.062 53.2737 297.122 53.26 297.174 53.2463L297.33 53.9089C297.259 53.9363 297.172 53.961 297.067 53.983C296.963 54.0077 296.835 54.02 296.681 54.02C296.413 54.02 296.154 53.961 295.905 53.8431C295.658 53.7251 295.456 53.5495 295.297 53.3163C295.138 53.0831 295.058 52.7936 295.058 52.4479V46.0894Z" fill="black"/>
<path d="M298.79 53.9254V47.6039H299.501V48.5752H299.567C299.693 48.2487 299.902 47.9922 300.195 47.8056C300.491 47.6163 300.846 47.5216 301.259 47.5216C301.695 47.5216 302.052 47.6245 302.332 47.8303C302.614 48.0333 302.825 48.3132 302.964 48.6699H303.018C303.16 48.3187 303.392 48.0402 303.712 47.8344C304.035 47.6259 304.427 47.5216 304.887 47.5216C305.473 47.5216 305.936 47.7068 306.276 48.0772C306.616 48.4449 306.785 48.9826 306.785 49.6905V53.9254H306.054V49.6905C306.054 49.1912 305.927 48.8166 305.672 48.567C305.417 48.3173 305.082 48.1925 304.665 48.1925C304.183 48.1925 303.812 48.3406 303.552 48.6369C303.292 48.9332 303.162 49.3091 303.162 49.7646V53.9254H302.414V49.6247C302.414 49.1966 302.295 48.8509 302.056 48.5875C301.818 48.3242 301.483 48.1925 301.05 48.1925C300.759 48.1925 300.498 48.2638 300.265 48.4065C300.035 48.5491 299.853 48.748 299.719 49.0032C299.587 49.2556 299.521 49.5465 299.521 49.8757V53.9254H298.79Z" fill="black"/>
<path d="M312.732 51.5096V47.6039H313.463V53.9254H312.732V52.8759H312.674C312.526 53.1997 312.292 53.4699 311.971 53.6867C311.651 53.9007 311.259 54.0077 310.796 54.0077C310.394 54.0077 310.036 53.9199 309.724 53.7443C309.412 53.5659 309.167 53.3053 308.989 52.9623C308.811 52.6194 308.722 52.1982 308.722 51.6989V47.6039H309.453V51.6536C309.453 52.1475 309.598 52.5453 309.888 52.8471C310.179 53.1462 310.551 53.2957 311.006 53.2957C311.291 53.2957 311.565 53.2271 311.828 53.0899C312.091 52.9527 312.307 52.7524 312.477 52.4891C312.647 52.2229 312.732 51.8964 312.732 51.5096Z" fill="black"/>
<path d="M319.639 48.9909L318.97 49.1802C318.904 48.9909 318.811 48.8194 318.69 48.6657C318.57 48.5121 318.412 48.39 318.218 48.2995C318.026 48.2089 317.788 48.1636 317.503 48.1636C317.075 48.1636 316.725 48.2652 316.451 48.4682C316.177 48.6712 316.04 48.9332 316.04 49.2543C316.04 49.5259 316.133 49.7467 316.319 49.9169C316.508 50.0842 316.799 50.2173 317.19 50.3161L318.144 50.5506C318.672 50.6796 319.068 50.884 319.331 51.1639C319.597 51.4437 319.73 51.7949 319.73 52.2174C319.73 52.5741 319.631 52.891 319.434 53.1681C319.237 53.4452 318.961 53.6633 318.608 53.8225C318.257 53.9789 317.851 54.0571 317.388 54.0571C316.771 54.0571 316.263 53.9185 315.863 53.6414C315.463 53.3615 315.207 52.9582 315.095 52.4314L315.798 52.2586C315.888 52.6345 316.065 52.9184 316.328 53.1105C316.593 53.3026 316.943 53.3986 317.375 53.3986C317.86 53.3986 318.248 53.2902 318.538 53.0735C318.828 52.854 318.974 52.5796 318.974 52.2504C318.974 51.9952 318.889 51.7812 318.719 51.6083C318.549 51.4327 318.292 51.3038 317.946 51.2215L316.915 50.9745C316.367 50.8428 315.962 50.6343 315.699 50.349C315.436 50.0636 315.305 49.7097 315.305 49.2872C315.305 48.9387 315.399 48.6328 315.588 48.3694C315.777 48.1033 316.037 47.8948 316.369 47.7439C316.7 47.593 317.078 47.5175 317.503 47.5175C318.081 47.5175 318.542 47.6492 318.887 47.9126C319.235 48.1732 319.486 48.5327 319.639 48.9909Z" fill="black"/>
<path d="M228.045 11.1838H226.042C225.985 10.8546 225.879 10.563 225.726 10.309C225.572 10.0514 225.381 9.83318 225.152 9.65429C224.924 9.4754 224.663 9.34124 224.37 9.2518C224.081 9.15878 223.768 9.11227 223.433 9.11227C222.836 9.11227 222.307 9.26253 221.847 9.56306C221.386 9.86001 221.025 10.2965 220.764 10.8725C220.504 11.4449 220.373 12.1444 220.373 12.9708C220.373 13.8116 220.504 14.52 220.764 15.096C221.029 15.6684 221.39 16.1013 221.847 16.3947C222.307 16.6845 222.834 16.8294 223.427 16.8294C223.756 16.8294 224.063 16.7865 224.349 16.7006C224.638 16.6112 224.897 16.4806 225.126 16.3088C225.358 16.1371 225.552 15.926 225.71 15.6756C225.87 15.4252 225.981 15.1389 226.042 14.8169L228.045 14.8277C227.97 15.35 227.808 15.8402 227.558 16.2981C227.311 16.7561 226.988 17.1603 226.588 17.511C226.188 17.858 225.72 18.1299 225.185 18.3267C224.649 18.5199 224.054 18.6165 223.4 18.6165C222.436 18.6165 221.575 18.3929 220.818 17.9457C220.061 17.4984 219.464 16.8527 219.029 16.0083C218.593 15.164 218.375 14.1515 218.375 12.9708C218.375 11.7866 218.595 10.7741 219.034 9.93335C219.473 9.08901 220.072 8.44323 220.829 7.99602C221.586 7.5488 222.443 7.3252 223.4 7.3252C224.011 7.3252 224.579 7.41106 225.104 7.58279C225.629 7.75452 226.097 8.00675 226.508 8.33948C226.919 8.66863 227.256 9.07291 227.52 9.55233C227.788 10.0282 227.963 10.572 228.045 11.1838Z" fill="black"/>
<path d="M231.719 13.6363V18.4662H229.78V7.47546H231.677V11.6238H231.773C231.966 11.1587 232.264 10.792 232.668 10.5237C233.075 10.2518 233.593 10.1158 234.221 10.1158C234.793 10.1158 235.291 10.2357 235.716 10.4754C236.141 10.7151 236.47 11.0657 236.702 11.5272C236.938 11.9888 237.056 12.5522 237.056 13.2177V18.4662H235.116V13.5182C235.116 12.9637 234.973 12.5326 234.688 12.2249C234.405 11.9136 234.009 11.758 233.498 11.758C233.155 11.758 232.848 11.8331 232.577 11.9834C232.309 12.1301 232.098 12.3429 231.944 12.622C231.794 12.9011 231.719 13.2392 231.719 13.6363Z" fill="black"/>
<path d="M241.401 18.6326C240.879 18.6326 240.409 18.5396 239.992 18.3535C239.577 18.1639 239.249 17.8848 239.006 17.5163C238.766 17.1478 238.647 16.6935 238.647 16.1532C238.647 15.6881 238.733 15.3035 238.904 14.9994C239.075 14.6953 239.309 14.452 239.606 14.2695C239.902 14.0871 240.236 13.9493 240.608 13.8563C240.983 13.7597 241.37 13.69 241.77 13.647C242.252 13.5969 242.644 13.5522 242.944 13.5129C243.244 13.4699 243.461 13.4055 243.597 13.3197C243.737 13.2302 243.806 13.0925 243.806 12.9064V12.8742C243.806 12.47 243.687 12.1569 243.447 11.9351C243.208 11.7133 242.863 11.6024 242.413 11.6024C241.938 11.6024 241.561 11.7061 241.283 11.9136C241.008 12.1211 240.822 12.3662 240.726 12.6488L238.915 12.3912C239.058 11.8904 239.293 11.4718 239.622 11.1355C239.95 10.7956 240.352 10.5416 240.827 10.3734C241.302 10.2017 241.827 10.1158 242.402 10.1158C242.799 10.1158 243.194 10.1623 243.587 10.2553C243.979 10.3484 244.338 10.5022 244.663 10.7169C244.988 10.928 245.249 11.216 245.446 11.5809C245.646 11.9458 245.746 12.402 245.746 12.9494V18.4662H243.881V17.3339H243.817C243.699 17.5628 243.533 17.7775 243.319 17.9779C243.108 18.1746 242.842 18.3338 242.52 18.4555C242.202 18.5735 241.829 18.6326 241.401 18.6326ZM241.904 17.2051C242.294 17.2051 242.631 17.1281 242.917 16.9743C243.203 16.8169 243.422 16.6094 243.576 16.3518C243.733 16.0942 243.812 15.8133 243.812 15.5092V14.5379C243.751 14.588 243.647 14.6345 243.501 14.6774C243.358 14.7203 243.197 14.7579 243.019 14.7901C242.84 14.8223 242.663 14.8509 242.488 14.876C242.313 14.901 242.161 14.9225 242.033 14.9404C241.743 14.9797 241.485 15.0441 241.256 15.1336C241.027 15.223 240.847 15.3482 240.715 15.5092C240.583 15.6666 240.517 15.8706 240.517 16.121C240.517 16.4788 240.647 16.7489 240.908 16.9314C241.168 17.1138 241.501 17.2051 241.904 17.2051Z" fill="black"/>
<path d="M251.285 18.6272C250.482 18.6272 249.785 18.4501 249.196 18.0959C248.607 17.7417 248.149 17.2462 247.824 16.6094C247.503 15.9725 247.342 15.2284 247.342 14.3769C247.342 13.5254 247.503 12.7794 247.824 12.139C248.149 11.4986 248.607 11.0013 249.196 10.6471C249.785 10.2929 250.482 10.1158 251.285 10.1158C252.089 10.1158 252.785 10.2929 253.375 10.6471C253.964 11.0013 254.42 11.4986 254.741 12.139C255.066 12.7794 255.229 13.5254 255.229 14.3769C255.229 15.2284 255.066 15.9725 254.741 16.6094C254.42 17.2462 253.964 17.7417 253.375 18.0959C252.785 18.4501 252.089 18.6272 251.285 18.6272ZM251.296 17.0709C251.732 17.0709 252.096 16.951 252.389 16.7113C252.682 16.4681 252.9 16.1425 253.043 15.7346C253.189 15.3268 253.262 14.8724 253.262 14.3715C253.262 13.8671 253.189 13.4109 253.043 13.003C252.9 12.5916 252.682 12.2642 252.389 12.021C252.096 11.7777 251.732 11.656 251.296 11.656C250.85 11.656 250.478 11.7777 250.182 12.021C249.889 12.2642 249.669 12.5916 249.523 13.003C249.38 13.4109 249.308 13.8671 249.308 14.3715C249.308 14.8724 249.38 15.3268 249.523 15.7346C249.669 16.1425 249.889 16.4681 250.182 16.7113C250.478 16.951 250.85 17.0709 251.296 17.0709Z" fill="black"/>
<path d="M263.379 12.402L261.611 12.5952C261.561 12.4163 261.473 12.2481 261.348 12.0907C261.227 11.9333 261.063 11.8063 260.855 11.7097C260.648 11.6131 260.395 11.5648 260.095 11.5648C259.691 11.5648 259.352 11.6524 259.077 11.8278C258.805 12.0031 258.671 12.2302 258.675 12.5093C258.671 12.749 258.759 12.944 258.937 13.0943C259.12 13.2445 259.42 13.368 259.837 13.4646L261.241 13.7651C262.02 13.9332 262.598 14.1998 262.977 14.5647C263.359 14.9296 263.552 15.4073 263.556 15.9976C263.552 16.5164 263.4 16.9743 263.1 17.3714C262.804 17.765 262.391 18.0727 261.863 18.2945C261.334 18.5163 260.727 18.6272 260.041 18.6272C259.034 18.6272 258.223 18.4161 257.609 17.994C256.994 17.5682 256.628 16.9761 256.51 16.2176L258.402 16.0352C258.487 16.4072 258.669 16.6881 258.948 16.8777C259.227 17.0673 259.589 17.1621 260.036 17.1621C260.496 17.1621 260.866 17.0673 261.145 16.8777C261.427 16.6881 261.568 16.4537 261.568 16.1747C261.568 15.9386 261.477 15.7436 261.295 15.5897C261.116 15.4359 260.838 15.3178 260.459 15.2355L259.055 14.9404C258.266 14.7758 257.682 14.4985 257.303 14.1086C256.925 13.715 256.737 13.2177 256.741 12.6166C256.737 12.1086 256.875 11.6685 257.153 11.2965C257.435 10.9208 257.827 10.631 258.327 10.4271C258.83 10.2196 259.411 10.1158 260.068 10.1158C261.032 10.1158 261.791 10.3215 262.345 10.733C262.902 11.1444 263.247 11.7007 263.379 12.402Z" fill="black"/>
<path d="M218.654 34.4028V23.4121H225.79V25.0811H220.641V28.0649H225.42V29.7339H220.641V32.7338H225.833V34.4028H218.654Z" fill="black"/>
<path d="M229.671 29.5729V34.4028H227.732V26.1597H229.586V27.5604H229.682C229.872 27.0989 230.173 26.7322 230.588 26.4603C231.006 26.1884 231.522 26.0524 232.136 26.0524C232.704 26.0524 233.199 26.1741 233.62 26.4173C234.045 26.6606 234.374 27.013 234.606 27.4746C234.842 27.9361 234.958 28.496 234.954 29.1543V34.4028H233.015V29.4548C233.015 28.9039 232.872 28.4727 232.586 28.1615C232.304 27.8502 231.913 27.6946 231.413 27.6946C231.073 27.6946 230.772 27.7697 230.507 27.92C230.247 28.0667 230.041 28.2795 229.891 28.5586C229.745 28.8377 229.671 29.1758 229.671 29.5729Z" fill="black"/>
<path d="M240.505 37.6657C239.808 37.6657 239.21 37.5709 238.71 37.3813C238.21 37.1952 237.808 36.9448 237.504 36.6299C237.201 36.3151 236.99 35.9663 236.872 35.5835L238.619 35.1595C238.697 35.3205 238.812 35.4797 238.962 35.6371C239.112 35.7981 239.313 35.9305 239.567 36.0342C239.824 36.1416 240.147 36.1952 240.537 36.1952C241.087 36.1952 241.542 36.0611 241.903 35.7927C242.264 35.528 242.444 35.0915 242.444 34.4833V32.9216H242.348C242.248 33.122 242.101 33.3277 241.908 33.5388C241.719 33.7499 241.467 33.927 241.153 34.0701C240.842 34.2132 240.451 34.2847 239.98 34.2847C239.347 34.2847 238.774 34.1363 238.26 33.8393C237.749 33.5388 237.342 33.0916 237.038 32.4977C236.738 31.9002 236.588 31.1524 236.588 30.2544C236.588 29.3493 236.738 28.5854 237.038 27.9629C237.342 27.3368 237.751 26.8628 238.265 26.5408C238.779 26.2152 239.353 26.0524 239.985 26.0524C240.467 26.0524 240.864 26.1347 241.174 26.2993C241.489 26.4603 241.739 26.6553 241.924 26.8842C242.11 27.1096 242.251 27.3225 242.348 27.5229H242.455V26.1597H244.367V34.537C244.367 35.2418 244.2 35.8249 243.864 36.2865C243.528 36.748 243.069 37.0933 242.487 37.3222C241.905 37.5512 241.244 37.6657 240.505 37.6657ZM240.521 32.7606C240.931 32.7606 241.281 32.6605 241.571 32.4601C241.86 32.2598 242.08 31.9717 242.23 31.5961C242.38 31.2204 242.455 30.7696 242.455 30.2437C242.455 29.7249 242.38 29.2706 242.23 28.8806C242.083 28.4906 241.865 28.1883 241.576 27.9736C241.29 27.7554 240.939 27.6463 240.521 27.6463C240.088 27.6463 239.728 27.759 239.438 27.9844C239.149 28.2098 238.931 28.5192 238.785 28.9128C238.638 29.3028 238.565 29.7464 238.565 30.2437C238.565 30.7482 238.638 31.19 238.785 31.5693C238.935 31.9449 239.154 32.2383 239.444 32.4494C239.737 32.6569 240.096 32.7606 240.521 32.7606Z" fill="black"/>
<path d="M246.355 34.4028V26.1597H248.294V34.4028H246.355ZM247.33 24.9898C247.023 24.9898 246.759 24.8879 246.537 24.6839C246.316 24.4764 246.205 24.2278 246.205 23.938C246.205 23.6446 246.316 23.396 246.537 23.192C246.759 22.9845 247.023 22.8808 247.33 22.8808C247.641 22.8808 247.905 22.9845 248.123 23.192C248.344 23.396 248.455 23.6446 248.455 23.938C248.455 24.2278 248.344 24.4764 248.123 24.6839C247.905 24.8879 247.641 24.9898 247.33 24.9898Z" fill="black"/>
<path d="M252.228 29.5729V34.4028H250.289V26.1597H252.143V27.5604H252.239C252.428 27.0989 252.73 26.7322 253.144 26.4603C253.562 26.1884 254.078 26.0524 254.693 26.0524C255.261 26.0524 255.755 26.1741 256.177 26.4173C256.602 26.6606 256.93 27.013 257.163 27.4746C257.398 27.9361 257.514 28.496 257.511 29.1543V34.4028H255.571V29.4548C255.571 28.9039 255.429 28.4727 255.143 28.1615C254.861 27.8502 254.47 27.6946 253.97 27.6946C253.63 27.6946 253.328 27.7697 253.064 27.92C252.803 28.0667 252.598 28.2795 252.448 28.5586C252.302 28.8377 252.228 29.1758 252.228 29.5729Z" fill="black"/>
<path d="M263.126 34.5638C262.301 34.5638 261.588 34.3921 260.988 34.0486C260.391 33.7016 259.933 33.2114 259.611 32.5782C259.29 31.9413 259.129 31.1918 259.129 30.3296C259.129 29.4817 259.29 28.7375 259.611 28.0971C259.936 27.4531 260.39 26.9522 260.972 26.5944C261.554 26.2331 262.238 26.0524 263.024 26.0524C263.531 26.0524 264.01 26.1347 264.46 26.2993C264.913 26.4603 265.313 26.7107 265.66 27.0506C266.01 27.3905 266.285 27.8234 266.485 28.3493C266.685 28.8717 266.785 29.4942 266.785 30.2169V30.8126H260.04V29.5031H264.926C264.922 29.131 264.842 28.8001 264.685 28.5103C264.528 28.2169 264.308 27.9862 264.026 27.818C263.747 27.6499 263.422 27.5658 263.051 27.5658C262.654 27.5658 262.306 27.6624 262.006 27.8556C261.706 28.0452 261.472 28.2956 261.304 28.6069C261.14 28.9146 261.056 29.2527 261.052 29.6212V30.7643C261.052 31.2437 261.14 31.6551 261.315 31.9986C261.49 32.3385 261.734 32.5996 262.049 32.7821C262.363 32.961 262.731 33.0504 263.152 33.0504C263.435 33.0504 263.69 33.0111 263.919 32.9324C264.147 32.8501 264.345 32.7302 264.513 32.5728C264.681 32.4154 264.808 32.2204 264.894 31.9878L266.705 32.1918C266.59 32.6712 266.372 33.0898 266.051 33.4476C265.733 33.8017 265.326 34.0772 264.829 34.274C264.333 34.4672 263.765 34.5638 263.126 34.5638Z" fill="black"/>
<path d="M272.069 34.5638C271.244 34.5638 270.531 34.3921 269.931 34.0486C269.335 33.7016 268.876 33.2114 268.554 32.5782C268.233 31.9413 268.072 31.1918 268.072 30.3296C268.072 29.4817 268.233 28.7375 268.554 28.0971C268.879 27.4531 269.333 26.9522 269.915 26.5944C270.497 26.2331 271.181 26.0524 271.967 26.0524C272.474 26.0524 272.953 26.1347 273.403 26.2993C273.856 26.4603 274.257 26.7107 274.603 27.0506C274.953 27.3905 275.228 27.8234 275.428 28.3493C275.628 28.8717 275.728 29.4942 275.728 30.2169V30.8126H268.983V29.5031H273.869C273.865 29.131 273.785 28.8001 273.628 28.5103C273.471 28.2169 273.251 27.9862 272.969 27.818C272.69 27.6499 272.365 27.5658 271.994 27.5658C271.597 27.5658 271.249 27.6624 270.949 27.8556C270.649 28.0452 270.415 28.2956 270.247 28.6069C270.083 28.9146 269.999 29.2527 269.995 29.6212V30.7643C269.995 31.2437 270.083 31.6551 270.258 31.9986C270.433 32.3385 270.678 32.5996 270.992 32.7821C271.306 32.961 271.674 33.0504 272.096 33.0504C272.378 33.0504 272.633 33.0111 272.862 32.9324C273.09 32.8501 273.289 32.7302 273.456 32.5728C273.624 32.4154 273.751 32.2204 273.837 31.9878L275.648 32.1918C275.533 32.6712 275.316 33.0898 274.994 33.4476C274.676 33.8017 274.269 34.0772 273.773 34.274C273.276 34.4672 272.708 34.5638 272.069 34.5638Z" fill="black"/>
<path d="M277.369 34.4028V26.1597H279.249V27.5336H279.335C279.485 27.0577 279.742 26.691 280.107 26.4334C280.474 26.1723 280.894 26.0417 281.366 26.0417C281.473 26.0417 281.592 26.047 281.725 26.0578C281.86 26.0649 281.973 26.0775 282.062 26.0953V27.8824C281.98 27.8538 281.85 27.8287 281.671 27.8073C281.496 27.7822 281.326 27.7697 281.162 27.7697C280.808 27.7697 280.491 27.8466 280.208 28.0005C279.93 28.1507 279.71 28.36 279.549 28.6284C279.389 28.8967 279.308 29.2062 279.308 29.5568V34.4028H277.369Z" fill="black"/>
<path d="M283.351 34.4028V26.1597H285.29V34.4028H283.351ZM284.326 24.9898C284.018 24.9898 283.754 24.8879 283.533 24.6839C283.311 24.4764 283.201 24.2278 283.201 23.938C283.201 23.6446 283.311 23.396 283.533 23.192C283.754 22.9845 284.018 22.8808 284.326 22.8808C284.636 22.8808 284.901 22.9845 285.119 23.192C285.34 23.396 285.451 23.6446 285.451 23.938C285.451 24.2278 285.34 24.4764 285.119 24.6839C284.901 24.8879 284.636 24.9898 284.326 24.9898Z" fill="black"/>
<path d="M289.224 29.5729V34.4028H287.284V26.1597H289.138V27.5604H289.235C289.424 27.0989 289.726 26.7322 290.14 26.4603C290.558 26.1884 291.074 26.0524 291.688 26.0524C292.256 26.0524 292.751 26.1741 293.172 26.4173C293.597 26.6606 293.926 27.013 294.158 27.4746C294.394 27.9361 294.51 28.496 294.506 29.1543V34.4028H292.567V29.4548C292.567 28.9039 292.424 28.4727 292.138 28.1615C291.856 27.8502 291.465 27.6946 290.965 27.6946C290.626 27.6946 290.324 27.7697 290.06 27.92C289.799 28.0667 289.594 28.2795 289.443 28.5586C289.297 28.8377 289.224 29.1758 289.224 29.5729Z" fill="black"/>
<path d="M300.057 37.6657C299.36 37.6657 298.762 37.5709 298.262 37.3813C297.762 37.1952 297.36 36.9448 297.057 36.6299C296.753 36.3151 296.542 35.9663 296.424 35.5835L298.171 35.1595C298.25 35.3205 298.364 35.4797 298.514 35.6371C298.664 35.7981 298.866 35.9305 299.119 36.0342C299.376 36.1416 299.7 36.1952 300.089 36.1952C300.639 36.1952 301.094 36.0611 301.455 35.7927C301.816 35.528 301.996 35.0915 301.996 34.4833V32.9216H301.9C301.8 33.122 301.653 33.3277 301.461 33.5388C301.271 33.7499 301.019 33.927 300.705 34.0701C300.394 34.2132 300.003 34.2847 299.532 34.2847C298.9 34.2847 298.326 34.1363 297.812 33.8393C297.301 33.5388 296.894 33.0916 296.591 32.4977C296.291 31.9002 296.14 31.1524 296.14 30.2544C296.14 29.3493 296.291 28.5854 296.591 27.9629C296.894 27.3368 297.303 26.8628 297.817 26.5408C298.332 26.2152 298.905 26.0524 299.537 26.0524C300.019 26.0524 300.416 26.1347 300.727 26.2993C301.041 26.4603 301.291 26.6553 301.477 26.8842C301.662 27.1096 301.803 27.3225 301.9 27.5229H302.007V26.1597H303.92V34.537C303.92 35.2418 303.752 35.8249 303.416 36.2865C303.08 36.748 302.621 37.0933 302.039 37.3222C301.457 37.5512 300.796 37.6657 300.057 37.6657ZM300.073 32.7606C300.484 32.7606 300.834 32.6605 301.123 32.4601C301.412 32.2598 301.632 31.9717 301.782 31.5961C301.932 31.2204 302.007 30.7696 302.007 30.2437C302.007 29.7249 301.932 29.2706 301.782 28.8806C301.636 28.4906 301.418 28.1883 301.128 27.9736C300.843 27.7554 300.491 27.6463 300.073 27.6463C299.641 27.6463 299.28 27.759 298.991 27.9844C298.701 28.2098 298.484 28.5192 298.337 28.9128C298.191 29.3028 298.117 29.7464 298.117 30.2437C298.117 30.7482 298.191 31.19 298.337 31.5693C298.487 31.9449 298.707 32.2383 298.996 32.4494C299.289 32.6569 299.648 32.7606 300.073 32.7606Z" fill="black"/>
<path fill-rule="evenodd" clip-rule="evenodd" d="M199.778 17.73C200.313 18.2665 201.182 18.2665 201.718 17.73C202.253 17.1934 202.253 16.3236 201.718 15.7871L194.651 8.70914L203.207 3.76126C205.208 2.60413 207.709 4.05054 207.709 6.36478L207.709 21.4859L197.367 23.9643C196.63 24.1409 196.176 24.8822 196.352 25.6201C196.528 26.358 197.268 26.8131 198.005 26.6366L207.709 24.3112V35.6062C207.709 37.9205 205.208 39.3669 203.207 38.2097L191.304 31.3259L192.969 19.2766C193.073 18.525 192.549 17.8314 191.799 17.7273C191.049 17.6233 190.356 18.1482 190.252 18.8998L188.74 29.8429L177.926 23.589C175.925 22.4319 175.925 19.5391 177.926 18.382L192.192 10.1314L199.778 17.73Z" fill="url(#paint0_linear_214_20221)"/>
<defs>
<linearGradient id="paint0_linear_214_20221" x1="188.632" y1="8.84938" x2="207.741" y2="38.4953" gradientUnits="userSpaceOnUse">
<stop stop-color="#FF61A2"/>
<stop offset="1" stop-color="#D8005A"/>
</linearGradient>
</defs>
</svg>
