<svg width="58" height="59" viewBox="0 0 58 59" fill="none" xmlns="http://www.w3.org/2000/svg">
<circle cx="29.094" cy="29.5491" r="28.6097" fill="#109B67" fill-opacity="0.2"/>
<g clip-path="url(#clip0)">
<path d="M29.0948 16.668C27.909 16.668 26.9478 17.6292 26.9478 18.8149V27.4029L18.3599 27.4029C17.1741 27.4029 16.2129 28.3641 16.2129 29.5498C16.2129 30.7356 17.1741 31.6968 18.3599 31.6968H26.9478V40.2847C26.9478 41.4705 27.909 42.4317 29.0948 42.4317C30.2805 42.4317 31.2417 41.4705 31.2417 40.2847V31.6968H39.8297C41.0154 31.6968 41.9766 30.7356 41.9766 29.5498C41.9766 28.3641 41.0154 27.4029 39.8297 27.4029H31.2417V18.8149C31.2417 17.6292 30.2805 16.668 29.0948 16.668Z" fill="#109B67"/>
</g>
<defs>
<clipPath id="clip0">
<rect width="34.3517" height="34.3517" fill="white" transform="translate(11.918 12.373)"/>
</clipPath>
</defs>
</svg>
