<svg width="57" height="56" viewBox="0 0 57 56" fill="none" xmlns="http://www.w3.org/2000/svg">
<g clip-path="url(#clip0)">
<path fill-rule="evenodd" clip-rule="evenodd" d="M13.3585 2.37695H44.4696C51.3424 2.37695 56.9141 7.65529 56.9141 14.1664C56.9141 20.6776 51.3424 25.9559 44.4696 25.9559H13.3585C6.48563 25.9559 0.914062 20.6776 0.914062 14.1664C0.914062 7.65529 6.48563 2.37695 13.3585 2.37695ZM13.3585 20.0611C16.795 20.0611 19.5808 17.422 19.5808 14.1664C19.5808 10.9108 16.795 8.27165 13.3585 8.27165C9.9221 8.27165 7.13632 10.9108 7.13632 14.1664C7.13632 17.422 9.9221 20.0611 13.3585 20.0611Z" fill="#8185A7"/>
<path fill-rule="evenodd" clip-rule="evenodd" d="M13.3585 31.8496H44.4696C51.3424 31.8496 56.9141 37.1278 56.9141 43.6391C56.9141 50.1501 51.3424 55.4286 44.4696 55.4286H13.3585C6.48563 55.4286 0.914062 50.1501 0.914062 43.6391C0.914062 37.1278 6.48563 31.8496 13.3585 31.8496ZM44.4696 49.5335C47.9062 49.5335 50.6918 46.8944 50.6918 43.6388C50.6918 40.3834 47.9062 37.7441 44.4696 37.7441C41.0331 37.7441 38.2474 40.3834 38.2474 43.6388C38.2474 46.8944 41.0331 49.5335 44.4696 49.5335Z" fill="#B1B4D3"/>
</g>
<defs>
<clipPath id="clip0">
<rect width="56" height="56" fill="white" transform="translate(0.914062)"/>
</clipPath>
</defs>
</svg>
