<svg width="48" height="49" viewBox="0 0 48 49" fill="none" xmlns="http://www.w3.org/2000/svg">
<path d="M36.2808 30.8603L14.3806 43.0904L11.7695 41.741V17.665L32.6919 4.97314L36.2808 6.81923V30.8603Z" fill="white"/>
<path fill-rule="evenodd" clip-rule="evenodd" d="M14.3291 17.5245C14.4948 17.5245 14.6291 17.6589 14.6291 17.8245L14.6291 43.5872C14.6291 43.7529 14.4948 43.8872 14.3291 43.8872C14.1634 43.8872 14.0291 43.7529 14.0291 43.5872L14.0291 17.8245C14.0291 17.6589 14.1634 17.5245 14.3291 17.5245Z" fill="black"/>
<path fill-rule="evenodd" clip-rule="evenodd" d="M36.0671 5.53174C36.2328 5.53174 36.3671 5.66605 36.3671 5.83174V31.3595C36.3671 31.5252 36.2328 31.6595 36.0671 31.6595C35.9014 31.6595 35.7671 31.5252 35.7671 31.3595V5.83174C35.7671 5.66605 35.9014 5.53174 36.0671 5.53174Z" fill="black"/>
<path fill-rule="evenodd" clip-rule="evenodd" d="M13.0776 20.0606C12.9947 19.9171 13.0438 19.7336 13.1873 19.6507L36.6517 6.0935C36.7951 6.01061 36.9786 6.05971 37.0615 6.20318C37.1444 6.34664 37.0953 6.53013 36.9518 6.61302L13.4874 20.1703C13.344 20.2532 13.1605 20.204 13.0776 20.0606Z" fill="black"/>
<path d="M20.2929 39.4678L32.4204 33.0169V19.6255L29.1498 21.5849V24.6062L26.2832 26.4026V29.0178L23.3302 30.9755V33.0169L20.2929 34.4867V39.4678Z" fill="#FF368A"/>
<path fill-rule="evenodd" clip-rule="evenodd" d="M32.4135 19.1613C32.2479 19.1613 32.1135 19.2956 32.1135 19.4613L32.1137 32.8544C32.1137 33.0201 32.248 33.1544 32.4137 33.1544C32.5794 33.1544 32.7137 33.0201 32.7137 32.8544L32.7135 19.4613C32.7135 19.2956 32.5792 19.1613 32.4135 19.1613ZM29.3401 20.8763C29.1744 20.8763 29.0401 21.0106 29.0401 21.1763L29.0405 34.6509C29.0405 34.8165 29.1749 34.9509 29.3406 34.9508C29.5062 34.9508 29.6406 34.8165 29.6405 34.6508L29.6401 21.1763C29.6401 21.0106 29.5058 20.8763 29.3401 20.8763ZM26.3567 25.858C26.191 25.858 26.0567 25.9923 26.0567 26.158L26.0567 36.2952C26.0567 36.4609 26.191 36.5952 26.3567 36.5952C26.5224 36.5952 26.6567 36.4609 26.6567 36.2952L26.6567 26.158C26.6567 25.9923 26.5224 25.858 26.3567 25.858ZM23.3274 30.3491C23.1617 30.3491 23.0274 30.4834 23.0274 30.6491L23.0274 38.1894C23.0274 38.3551 23.1617 38.4894 23.3274 38.4894C23.4931 38.4894 23.6274 38.3551 23.6274 38.1894L23.6274 30.6491C23.6274 30.4834 23.4931 30.3491 23.3274 30.3491ZM20.4344 34.3508C20.2687 34.3508 20.1344 34.4852 20.1344 34.6508L20.1344 40.0061C20.1344 40.1718 20.2687 40.3061 20.4344 40.3061C20.6001 40.3061 20.7344 40.1718 20.7344 40.0061L20.7344 34.6508C20.7344 34.4852 20.6001 34.3508 20.4344 34.3508Z" fill="black"/>
<path fill-rule="evenodd" clip-rule="evenodd" d="M32.9024 19.2592C32.9853 19.4027 32.9362 19.5862 32.7927 19.6691L28.7628 21.9975C28.6194 22.0803 28.4359 22.0312 28.353 21.8878C28.2701 21.7443 28.3192 21.5608 28.4627 21.4779L32.4926 19.1496C32.636 19.0667 32.8195 19.1158 32.9024 19.2592Z" fill="black"/>
<path fill-rule="evenodd" clip-rule="evenodd" d="M29.8589 23.8818C29.9418 24.0253 29.8927 24.2087 29.7493 24.2916L26.348 26.2568C26.2046 26.3397 26.0211 26.2906 25.9382 26.1471C25.8553 26.0037 25.9044 25.8202 26.0479 25.7373L29.4491 23.7721C29.5926 23.6892 29.776 23.7383 29.8589 23.8818Z" fill="black"/>
<path fill-rule="evenodd" clip-rule="evenodd" d="M26.7383 28.9682C26.8212 29.1117 26.7721 29.2952 26.6287 29.3781L23.1528 31.3863C23.0094 31.4692 22.8259 31.4201 22.743 31.2766C22.6601 31.1332 22.7092 30.9497 22.8527 30.8668L26.3285 28.8585C26.4719 28.7757 26.6554 28.8248 26.7383 28.9682Z" fill="black"/>
<path fill-rule="evenodd" clip-rule="evenodd" d="M23.7248 32.869C23.8094 33.0115 23.7624 33.1955 23.62 33.2801L20.4628 35.1539C20.3203 35.2385 20.1362 35.1915 20.0517 35.049C19.9671 34.9066 20.0141 34.7225 20.1565 34.6379L23.3137 32.7641C23.4562 32.6796 23.6403 32.7265 23.7248 32.869Z" fill="black"/>
<path fill-rule="evenodd" clip-rule="evenodd" d="M13.0777 44.0461C12.9949 43.9026 13.0441 43.7191 13.1877 43.6363L37.2759 29.7409C37.4194 29.6581 37.6029 29.7073 37.6857 29.8508C37.7685 29.9944 37.7192 30.1778 37.5757 30.2606L13.4875 44.1561C13.3439 44.2388 13.1605 44.1896 13.0777 44.0461Z" fill="black"/>
<path fill-rule="evenodd" clip-rule="evenodd" d="M11.5698 15.653C11.7355 15.653 11.8698 15.7873 11.8698 15.953L11.8698 41.7156C11.8698 41.8813 11.7355 42.0156 11.5698 42.0156C11.4042 42.0156 11.2698 41.8813 11.2698 41.7156L11.2698 15.953C11.2698 15.7873 11.4042 15.653 11.5698 15.653Z" fill="black"/>
<path fill-rule="evenodd" clip-rule="evenodd" d="M10.3183 18.189C10.2354 18.0455 10.2845 17.8621 10.428 17.7792L33.8924 4.22192C34.0359 4.13903 34.2194 4.18813 34.3022 4.33159C34.3851 4.47505 34.336 4.65855 34.1926 4.74144L10.7282 18.2987C10.5847 18.3816 10.4012 18.3325 10.3183 18.189Z" fill="black"/>
<path fill-rule="evenodd" clip-rule="evenodd" d="M10.4534 17.2033C10.5233 17.0531 10.7017 16.988 10.8519 17.0579L15.3702 19.1607C15.5204 19.2306 15.5855 19.409 15.5156 19.5592C15.4457 19.7094 15.2673 19.7745 15.1171 19.7046L10.5988 17.6018C10.4486 17.5319 10.3835 17.3535 10.4534 17.2033Z" fill="black"/>
<path fill-rule="evenodd" clip-rule="evenodd" d="M11.2963 20.4766C11.3647 20.3257 11.5424 20.2587 11.6934 20.3271L14.5394 21.6159C14.6904 21.6842 14.7573 21.862 14.689 22.0129C14.6206 22.1639 14.4429 22.2308 14.2919 22.1625L11.4459 20.8737C11.2949 20.8053 11.228 20.6275 11.2963 20.4766Z" fill="black"/>
<path fill-rule="evenodd" clip-rule="evenodd" d="M13.1883 16.2198C13.2577 16.0694 13.436 16.0037 13.5864 16.0731L16.7922 17.5521C16.9427 17.6216 17.0084 17.7998 16.939 17.9502C16.8696 18.1007 16.6913 18.1664 16.5409 18.097L13.335 16.6179C13.1846 16.5485 13.1189 16.3702 13.1883 16.2198Z" fill="black"/>
<path fill-rule="evenodd" clip-rule="evenodd" d="M15.3426 15.088C15.412 14.9375 15.5902 14.8718 15.7407 14.9412L18.9465 16.4203C19.097 16.4897 19.1627 16.6679 19.0933 16.8184C19.0239 16.9688 18.8456 17.0345 18.6952 16.9651L15.4893 15.4861C15.3389 15.4166 15.2732 15.2384 15.3426 15.088Z" fill="black"/>
<path fill-rule="evenodd" clip-rule="evenodd" d="M17.4969 13.9415C17.5663 13.791 17.7445 13.7253 17.895 13.7948L21.1008 15.2738C21.2513 15.3432 21.317 15.5215 21.2476 15.6719C21.1781 15.8224 20.9999 15.888 20.8495 15.8186L17.6436 14.3396C17.4932 14.2702 17.4275 14.0919 17.4969 13.9415Z" fill="black"/>
<path fill-rule="evenodd" clip-rule="evenodd" d="M19.512 12.7252C19.5815 12.5747 19.7597 12.509 19.9101 12.5784L23.116 14.0575C23.2664 14.1269 23.3321 14.3052 23.2627 14.4556C23.1933 14.606 23.0151 14.6717 22.8646 14.6023L19.6588 13.1233C19.5083 13.0538 19.4426 12.8756 19.512 12.7252Z" fill="black"/>
<path fill-rule="evenodd" clip-rule="evenodd" d="M21.5911 11.5269C21.6606 11.3765 21.8388 11.3108 21.9892 11.3802L25.1951 12.8593C25.3455 12.9287 25.4112 13.1069 25.3418 13.2574C25.2724 13.4078 25.0942 13.4735 24.9437 13.4041L21.7379 11.925C21.5874 11.8556 21.5217 11.6774 21.5911 11.5269Z" fill="black"/>
<path fill-rule="evenodd" clip-rule="evenodd" d="M23.4549 10.3951C23.5243 10.2447 23.7026 10.179 23.853 10.2484L27.0588 11.7274C27.2093 11.7968 27.275 11.9751 27.2056 12.1255C27.1362 12.276 26.9579 12.3417 26.8075 12.2722L23.6016 10.7932C23.4512 10.7238 23.3855 10.5455 23.4549 10.3951Z" fill="black"/>
<path fill-rule="evenodd" clip-rule="evenodd" d="M25.4354 9.31795C25.5048 9.1675 25.683 9.10181 25.8335 9.17122L29.0393 10.6503C29.1898 10.7197 29.2554 10.8979 29.186 11.0484C29.1166 11.1988 28.9384 11.2645 28.788 11.1951L25.5821 9.71603C25.4317 9.64662 25.366 9.46839 25.4354 9.31795Z" fill="black"/>
<path fill-rule="evenodd" clip-rule="evenodd" d="M27.3114 8.1368C27.3808 7.98635 27.559 7.92066 27.7094 7.99007L30.9153 9.46913C31.0657 9.53854 31.1314 9.71677 31.062 9.86722C30.9926 10.0177 30.8144 10.0834 30.6639 10.0139L27.4581 8.53488C27.3076 8.46547 27.2419 8.28724 27.3114 8.1368Z" fill="black"/>
<path fill-rule="evenodd" clip-rule="evenodd" d="M29.3265 7.02498C29.3959 6.87453 29.5741 6.80884 29.7246 6.87825L32.9304 8.35732C33.0809 8.42673 33.1466 8.60496 33.0771 8.7554C33.0077 8.90585 32.8295 8.97154 32.6791 8.90213L29.4732 7.42306C29.3228 7.35365 29.2571 7.17543 29.3265 7.02498Z" fill="black"/>
<path fill-rule="evenodd" clip-rule="evenodd" d="M31.3416 5.79109C31.411 5.64065 31.5893 5.57496 31.7397 5.64437L34.9456 7.12343C35.096 7.19284 35.1617 7.37107 35.0923 7.52151C35.0229 7.67196 34.8446 7.73765 34.6942 7.66824L31.4884 6.18918C31.3379 6.11977 31.2722 5.94154 31.3416 5.79109Z" fill="black"/>
<path fill-rule="evenodd" clip-rule="evenodd" d="M11.2963 22.8829C11.3647 22.7319 11.5424 22.665 11.6934 22.7333L14.5394 24.0221C14.6904 24.0905 14.7573 24.2682 14.689 24.4192C14.6206 24.5701 14.4429 24.6371 14.2919 24.5687L11.4459 23.2799C11.2949 23.2116 11.228 23.0338 11.2963 22.8829Z" fill="black"/>
<path fill-rule="evenodd" clip-rule="evenodd" d="M11.2612 25.1793C11.3295 25.0283 11.5073 24.9614 11.6582 25.0297L14.5043 26.3185C14.6552 26.3869 14.7222 26.5646 14.6538 26.7156C14.5855 26.8665 14.4077 26.9334 14.2568 26.8651L11.4107 25.5763C11.2598 25.5079 11.1928 25.3302 11.2612 25.1793Z" fill="black"/>
<path fill-rule="evenodd" clip-rule="evenodd" d="M11.2612 27.4263C11.3295 27.2754 11.5073 27.2084 11.6582 27.2768L14.5043 28.5656C14.6552 28.6339 14.7222 28.8117 14.6538 28.9626C14.5855 29.1136 14.4077 29.1805 14.2568 29.1122L11.4107 27.8234C11.2598 27.755 11.1928 27.5773 11.2612 27.4263Z" fill="black"/>
<path fill-rule="evenodd" clip-rule="evenodd" d="M11.2963 29.712C11.3647 29.561 11.5424 29.4941 11.6934 29.5624L14.5394 30.8512C14.6904 30.9196 14.7573 31.0973 14.689 31.2483C14.6206 31.3992 14.4429 31.4662 14.2919 31.3978L11.4459 30.109C11.2949 30.0407 11.228 29.8629 11.2963 29.712Z" fill="black"/>
<path fill-rule="evenodd" clip-rule="evenodd" d="M11.2963 32.0518C11.3647 31.9009 11.5424 31.8339 11.6934 31.9023L14.5394 33.1911C14.6904 33.2594 14.7573 33.4372 14.689 33.5881C14.6206 33.739 14.4429 33.806 14.2919 33.7377L11.4459 32.4488C11.2949 32.3805 11.228 32.2027 11.2963 32.0518Z" fill="black"/>
<path fill-rule="evenodd" clip-rule="evenodd" d="M11.2963 34.3917C11.3647 34.2407 11.5424 34.1738 11.6934 34.2421L14.5394 35.5309C14.6904 35.5993 14.7573 35.777 14.689 35.928C14.6206 36.0789 14.4429 36.1458 14.2919 36.0775L11.4459 34.7887C11.2949 34.7203 11.228 34.5426 11.2963 34.3917Z" fill="black"/>
<path fill-rule="evenodd" clip-rule="evenodd" d="M11.2963 36.8248C11.3647 36.6738 11.5424 36.6069 11.6934 36.6752L14.5394 37.964C14.6904 38.0324 14.7573 38.2101 14.689 38.3611C14.6206 38.512 14.4429 38.5789 14.2919 38.5106L11.4459 37.2218C11.2949 37.1535 11.228 36.9757 11.2963 36.8248Z" fill="black"/>
<path fill-rule="evenodd" clip-rule="evenodd" d="M11.2963 39.4039C11.3647 39.2529 11.5424 39.186 11.6934 39.2543L14.5394 40.5431C14.6904 40.6115 14.7573 40.7892 14.689 40.9402C14.6206 41.0911 14.4429 41.158 14.2919 41.0897L11.4459 39.8009C11.2949 39.7326 11.228 39.5548 11.2963 39.4039Z" fill="black"/>
<path fill-rule="evenodd" clip-rule="evenodd" d="M32.0154 4.65347C32.0853 4.50326 32.2637 4.43816 32.414 4.50807L36.9322 6.61086C37.0825 6.68077 37.1476 6.85921 37.0776 7.00943C37.0077 7.15964 36.8293 7.22474 36.6791 7.15483L32.1608 5.05204C32.0106 4.98213 31.9455 4.80368 32.0154 4.65347Z" fill="black"/>
<path fill-rule="evenodd" clip-rule="evenodd" d="M10.3015 41.3576C10.3714 41.2074 10.5499 41.1423 10.7001 41.2122L15.2184 43.315C15.3686 43.3849 15.4337 43.5633 15.3638 43.7135C15.2939 43.8637 15.1154 43.9288 14.9652 43.8589L10.4469 41.7561C10.2967 41.6862 10.2316 41.5078 10.3015 41.3576Z" fill="black"/>
<path fill-rule="evenodd" clip-rule="evenodd" d="M31.3293 14.0595C31.2317 13.9257 31.044 13.8963 30.9101 13.9939L26.8738 16.9372C26.8465 16.9571 26.8228 16.9815 26.8036 17.0093L23.6543 21.578C23.6271 21.6175 23.6097 21.6629 23.6037 21.7105L22.9666 26.7278L18.66 29.9179C18.5268 30.0165 18.4989 30.2044 18.5975 30.3375C18.6961 30.4706 18.884 30.4986 19.0171 30.4L23.4266 27.1337C23.4923 27.085 23.5353 27.0116 23.5456 26.9304L24.1897 21.8584L27.2686 17.3919L31.2637 14.4787C31.3975 14.3811 31.4269 14.1934 31.3293 14.0595Z" fill="#FF368A"/>
<path d="M26.4706 17.3574C26.6046 17.7126 27.0012 17.8919 27.3564 17.7579C27.7115 17.6238 27.8908 17.2273 27.7568 16.8721C27.6228 16.5169 27.2262 16.3376 26.8711 16.4717C26.5159 16.6057 26.3366 17.0022 26.4706 17.3574Z" fill="black"/>
<path d="M23.245 21.5542C23.379 21.9094 23.7756 22.0886 24.1308 21.9546C24.4859 21.8206 24.6652 21.4241 24.5312 21.0689C24.3972 20.7137 24.0006 20.5344 23.6455 20.6684C23.2903 20.8024 23.111 21.199 23.245 21.5542Z" fill="black"/>
<path d="M22.4442 27.3916C22.5783 27.7468 22.9748 27.926 23.33 27.792C23.6852 27.658 23.8645 27.2615 23.7304 26.9063C23.5964 26.5511 23.1999 26.3718 22.8447 26.5058C22.4895 26.6398 22.3102 27.0364 22.4442 27.3916Z" fill="black"/>
<path d="M30.3847 14.5698C30.5187 14.925 30.9152 15.1043 31.2704 14.9703C31.6256 14.8362 31.8049 14.4397 31.6709 14.0845C31.5369 13.7293 31.1403 13.55 30.7851 13.6841C30.4299 13.8181 30.2507 14.2146 30.3847 14.5698Z" fill="black"/>
</svg>
