<svg width="264" height="49" viewBox="0 0 264 49" fill="none" xmlns="http://www.w3.org/2000/svg">
<g clip-path="url(#clip0_263_9604)">
<path d="M21.9251 43.3517L7.88471 14.0952C4.49566 17.2076 2.35156 21.6341 2.35156 26.6139C2.35156 35.9511 9.95963 43.5592 19.2968 43.5592C20.1959 43.5592 21.0259 43.49 21.9251 43.3517Z" fill="#232736"/>
<path d="M16.1845 9.9455C17.222 9.738 18.2595 9.66886 19.2969 9.66886C28.6341 9.66886 36.2422 17.2769 36.2422 26.6141C36.2422 31.7323 33.9597 36.3663 30.294 39.4787L34.4439 48.1934C41.222 43.421 45.6485 35.5363 45.6485 26.6141C45.7177 12.0204 33.8906 0.193359 19.2969 0.193359C16.807 0.193359 14.3171 0.539169 12.0347 1.23082L16.1845 9.9455Z" fill="#232736"/>
</g>
<g clip-path="url(#clip1_263_9604)">
<mask id="mask0_263_9604" style="mask-type:alpha" maskUnits="userSpaceOnUse" x="72" y="0" width="49" height="52">
<path d="M120.6 0.193359H72.0752V51.9434H120.6V0.193359Z" fill="white"/>
</mask>
<g mask="url(#mask0_263_9604)">
<path d="M115.279 25.4811L116.46 40.5561L95.55 44.3084L93.75 29.2334L96.7373 28.8164C97.2233 29.0249 97.5713 29.0939 98.127 29.2334C99.03 29.4419 100.073 29.7194 101.6 28.8861C101.947 28.6776 102.711 28.0521 102.989 27.6359L115.279 25.4811ZM82.974 43.4061C82.6268 42.8511 82.0013 42.2249 81.0285 41.4606C79.6388 40.3491 80.1255 38.4036 80.9588 37.2231C82.0088 35.2086 87.489 32.5686 87.2115 29.3031C87.0728 28.1219 86.934 26.5934 85.8218 25.4819C85.752 25.8989 85.8218 26.3159 85.8218 26.3159C85.8218 26.3159 85.3358 25.7609 85.1273 24.9261C84.9188 24.6486 84.7103 24.5091 84.5018 24.0921C84.363 24.5781 84.363 25.0649 84.363 25.0649C84.363 25.0649 84.0158 24.1619 83.946 23.4674C83.7375 23.8146 83.6685 24.4401 83.6685 24.4401C83.6685 24.4401 83.1825 23.0504 83.3213 22.2876C83.1128 21.6621 82.4183 20.3421 82.6268 17.4246C83.808 18.2586 86.448 18.0501 87.4898 16.5216C87.837 16.0356 88.0448 14.6466 87.351 11.9361C86.865 10.1991 85.6838 7.62886 85.1985 6.65611L85.1288 6.72586C85.4063 7.49086 85.8938 9.15736 86.1015 9.99136C86.6565 12.4229 86.8665 13.2569 86.5875 14.3684C86.379 15.3411 85.8225 15.9659 84.3645 16.6611C82.9748 17.3556 81.03 15.6111 80.9595 15.5496C79.5698 14.4381 78.528 12.6246 78.3893 11.7981C78.2505 10.8254 78.9443 10.2696 79.2923 9.50536C78.8063 9.64411 78.2423 9.92236 78.2423 9.92236C78.2423 9.92236 78.8678 9.22786 79.701 8.67211C80.0178 8.48734 80.3197 8.2782 80.604 8.04661H79.71C79.71 8.04661 80.544 7.56061 81.447 7.28161H80.1975L83.532 5.82286C84.582 5.40586 85.5465 5.54536 86.1023 6.30886C86.8673 7.35886 87.6308 7.90636 89.2283 8.32336C90.201 7.90636 90.5483 7.62886 91.7985 7.27336C92.91 6.02311 93.813 5.88361 93.813 5.88361C93.813 5.88361 93.1875 6.43861 93.1185 7.06486C93.744 6.57886 94.4385 6.16186 94.4385 6.16186C94.4385 6.16186 94.161 6.50911 93.9525 6.99586L94.0223 7.06561C94.7873 6.64861 95.6198 6.30061 95.6198 6.30061C95.6198 6.30061 95.3423 6.57811 95.0648 6.99511C95.6198 6.99511 96.732 6.99511 97.1498 7.06486C99.72 7.13461 100.276 4.35511 101.249 3.93886C102.499 3.52186 103.055 3.24436 105.139 5.32861C106.945 7.13461 108.334 10.2614 107.64 10.9559C107.085 11.5109 105.903 10.7474 104.583 9.14986C103.889 8.31586 103.402 7.27486 103.124 6.02386C102.986 4.97386 102.221 4.35661 102.221 4.35661C102.221 4.35661 102.707 5.40661 102.707 6.30211C102.707 6.78811 102.777 8.59486 103.541 9.63661C103.472 9.77536 103.403 10.4016 103.333 10.4706C102.43 9.35911 100.408 8.59561 100.138 8.31811C101.249 9.22111 103.751 11.2431 104.723 13.1811C105.626 15.0561 105.071 16.7241 105.557 17.1411C105.696 17.2799 107.503 19.5036 107.85 20.6841C108.476 22.6986 107.92 24.7829 107.085 26.0331L104.862 26.3804C104.572 26.3299 104.291 26.2361 104.028 26.1021C104.167 25.8246 104.514 25.1294 104.514 24.9906L104.375 24.7821C103.681 25.7549 102.5 26.7276 101.527 27.2834C100.277 27.9779 98.817 27.9089 97.8518 27.5609C95.142 26.7269 92.5718 24.9209 92.0168 24.4349C92.0168 24.4349 92.0168 24.7821 92.0865 24.9209C93.2116 26.1049 94.4705 27.1539 95.838 28.0469L92.643 28.3941L94.1715 40.2044C93.477 40.2741 93.4065 40.3431 92.643 40.4819C92.0175 38.1891 90.768 36.7304 89.3775 35.8274C88.1963 35.0624 86.529 34.8546 84.9315 35.2019L84.8618 35.3406C85.9733 35.2019 87.2933 35.4104 88.6133 36.2436C89.9333 37.0769 90.9758 39.2309 91.392 40.4811C91.878 42.1484 92.226 43.8861 90.906 45.7611C89.9333 47.0811 87.1545 47.8461 84.9315 46.2471C85.557 47.2199 86.3213 47.9841 87.4328 48.1221C89.0303 48.3306 90.5588 48.0524 91.6703 47.0106C92.5733 46.1076 93.06 44.1621 92.9205 42.0779L94.3793 41.8694L94.8653 45.5444L118.545 42.7184L116.46 23.8221L115.279 24.0306L112.917 0.193359L73.4565 4.77886L78.3195 44.0999L82.974 43.4061Z" fill="#5C2D90"/>
<path d="M101.749 22.7386C102.799 23.5036 103.694 23.9889 104.597 23.9199C105.152 23.8501 105.709 22.9471 106.056 22.1139C106.333 21.5589 106.333 20.9326 105.917 20.7241C105.709 20.6544 104.867 20.6544 104.25 20.7241C103.069 20.8629 101.887 21.2791 101.61 21.4891C101.193 21.7666 101.401 22.4619 101.749 22.7394V22.7386ZM102.026 14.6094V14.6791L102.096 14.8179C102.373 15.3729 102.651 15.9294 103.207 16.2076C103.346 16.2076 103.485 16.1379 103.624 16.1379C104.11 16.1379 104.389 16.2076 104.597 16.2766V15.8596C104.527 15.1651 104.736 13.9141 103.347 13.2196C102.792 12.9421 102.097 13.0809 101.818 13.3584H101.957C102.304 13.4971 102.096 13.6359 102.027 13.7754C101.957 14.0529 101.888 14.1226 102.027 14.6094" fill="#5C2D90"/>
<path d="M95.7732 14.7487C96.1205 14.4712 94.1757 14.0542 92.6472 15.0262C91.5357 15.7912 91.5357 17.3887 92.5775 18.2917C92.682 18.3436 92.776 18.4143 92.855 18.5002C93.1325 18.3615 93.5495 18.2227 93.905 18.0832C94.5995 17.8747 95.1552 17.736 95.642 17.6662C95.8505 17.3887 96.128 16.9717 96.059 16.2075C95.9892 15.1575 95.156 15.3735 95.7815 14.7487H95.7732ZM107.105 31.6237L103.77 37.1737L99.8802 35.9925L96.4752 41.2027L96.614 42.87L115.233 39.465L114.121 27.8625L111.064 34.254L107.105 31.6237Z" fill="#5C2D90"/>
</g>
</g>
<g clip-path="url(#clip2_263_9604)">
<path d="M159.948 4.1974C159.333 7.44106 158.582 12.2553 158.173 17.1379C157.456 25.7421 157.899 31.5124 157.899 31.5124L145.778 43.0189C145.778 43.0189 144.857 36.5657 144.379 29.2931C144.105 24.7861 144.003 20.8254 144.003 18.4354C144.003 18.2988 144.071 18.1622 144.071 18.0256C144.071 17.8549 144.276 16.2502 145.847 14.7478C147.554 13.1089 160.153 3.24138 159.948 4.1974Z" fill="#1496FF"/>
<path d="M159.948 4.19761C159.333 7.44127 158.582 12.2555 158.173 17.1381C158.173 17.1381 144.754 15.5333 144.003 18.777C144.003 18.6063 144.242 16.6259 145.813 15.1236C147.52 13.4847 160.153 3.24158 159.948 4.19761Z" fill="#1284EA"/>
<path d="M144.003 17.9917V18.7428C144.14 18.1624 144.379 17.7527 144.857 17.1039C145.847 15.8406 147.452 15.4992 148.1 15.4309C151.378 14.987 156.226 14.4749 161.109 14.3383C169.747 14.0651 175.449 14.7822 175.449 14.7822L187.57 3.27571C187.57 3.27571 181.22 2.08067 173.981 1.22708C169.235 0.646635 165.07 0.339341 162.714 0.202766C162.543 0.202766 160.87 -0.00209638 159.299 1.50023C157.592 3.13913 148.92 11.3678 145.437 14.6797C143.866 16.1821 144.003 17.8551 144.003 17.9917Z" fill="#B4DC00"/>
<path d="M187.126 32.7077C183.849 33.1516 179 33.6979 174.118 33.8686C165.479 34.1417 159.743 33.4247 159.743 33.4247L147.622 44.9653C147.622 44.9653 154.041 46.2286 161.28 47.0481C165.718 47.5603 169.645 47.8334 172.035 47.97C172.206 47.97 172.479 47.8334 172.649 47.8334C172.82 47.8334 174.493 47.5261 176.064 46.0238C177.771 44.3849 188.082 32.6053 187.126 32.7077Z" fill="#6F2DA8"/>
<path d="M187.126 32.7077C183.849 33.1515 179 33.6978 174.118 33.8686C174.118 33.8686 175.04 47.3553 171.796 47.9358C171.967 47.9358 174.186 47.8333 175.757 46.331C177.464 44.6921 188.082 32.6052 187.126 32.7077Z" fill="#591F91"/>
<path d="M172.513 48.0043C172.274 48.0043 172.035 47.9701 171.762 47.9701C172.376 47.8677 172.786 47.6628 173.435 47.1848C174.732 46.263 175.142 44.6582 175.279 44.0095C175.859 40.7658 176.644 35.9515 177.02 31.069C177.703 22.4647 177.293 16.7286 177.293 16.7286L189.414 5.18799C189.414 5.18799 190.302 11.607 190.814 18.8796C191.121 23.6256 191.224 27.8253 191.258 30.1471C191.258 30.3178 191.394 31.9909 189.824 33.4932C188.117 35.1321 179.444 43.3949 175.996 46.7068C174.357 48.2091 172.684 48.0043 172.513 48.0043Z" fill="#73BE28"/>
</g>
<g clip-path="url(#clip3_263_9604)">
<path d="M263.348 19.1826C261.113 8.83366 248.674 2.7603 235.653 5.62692C222.583 8.44497 213.838 19.1341 216.073 29.4832C218.308 39.8321 230.746 45.9055 243.767 43.0874C256.837 40.2208 265.631 29.5317 263.348 19.1826ZM239.686 33.856C234.438 33.856 230.163 29.5803 230.163 24.3329C230.163 19.0855 234.438 14.8099 239.686 14.8099C244.933 14.8099 249.209 19.0855 249.209 24.3329C249.209 29.5803 244.982 33.856 239.686 33.856Z" fill="#008C99"/>
<path d="M241.824 11.02C234.245 11.02 228.123 17.142 228.123 24.7216C228.123 32.3011 234.245 38.4231 241.824 38.4231C249.404 38.4231 255.526 32.3011 255.526 24.7216C255.526 17.142 249.404 11.02 241.824 11.02ZM239.686 32.6412C235.07 32.6412 231.378 28.9 231.378 24.3329C231.378 19.7657 235.119 16.0245 239.686 16.0245C244.253 16.0245 248.043 19.7657 248.043 24.3329C248.043 28.9 244.302 32.6412 239.686 32.6412Z" fill="#72CCD2"/>
</g>
<defs>
<clipPath id="clip0_263_9604">
<rect width="48" height="48" fill="white" transform="translate(0 0.193359)"/>
</clipPath>
<clipPath id="clip1_263_9604">
<rect width="48" height="48" fill="white" transform="translate(72 0.193359)"/>
</clipPath>
<clipPath id="clip2_263_9604">
<rect width="47.2615" height="48" fill="white" transform="translate(144 0.193359)"/>
</clipPath>
<clipPath id="clip3_263_9604">
<rect width="48" height="48" fill="white" transform="translate(215.716 0.376465)"/>
</clipPath>
</defs>
</svg>
