<svg width="80" height="80" viewBox="0 0 80 80" fill="none" xmlns="http://www.w3.org/2000/svg">
<g clip-path="url(#clip0_1495_70503)">
<path d="M29.1078 55.8283C28.4683 53.9096 32.8385 39.0401 35.1036 31.8451C29.3472 33.1242 28.7079 41.1718 29.1078 45.0357C26.7093 43.0371 22.4717 38.0806 24.7102 34.2433C26.9486 30.406 33.6372 27.5814 36.7017 26.6487C34.1699 22.5183 24.7102 14.6572 40.2992 16.2562C50.8736 17.3408 48.0271 24.3837 45.4956 26.6488C46.9612 26.5155 48.6328 26.8552 54.197 28.8061C58.7572 30.405 63.5929 30.8523 62.6533 31.8451C62.6533 31.8451 55.1467 32.5218 52.9051 31.8451C49.6166 30.8523 48.0499 30.8523 48.0499 30.8523C52.2804 40.3978 55.643 50.3772 55.643 50.3772C55.643 50.3772 57.2701 59.8143 46.7483 47.4485C44.3855 44.6717 38.1674 47.5674 36.7017 49.4328C34.4369 52.364 29.7474 57.7469 29.1078 55.8283Z" fill="white"/>
<path d="M39.8713 15.8055C43.1825 16.2994 46.0382 16.9203 47.8154 19.998C48.7725 21.6554 48.0265 25.6372 45.8005 26.7091C42.4879 28.3044 37.0831 26.8819 34.4599 24.5911C32.8756 23.2075 31.0064 20.4443 31.6704 18.2369C32.0801 16.8748 33.5183 16.3113 34.792 16.0056C37.4994 15.3557 40.3626 15.7103 43.0027 16.4664C45.3974 17.1522 49.2844 18.7302 49.0853 21.8546C48.9006 24.7518 46.0898 27.0912 43.4178 27.5741C39.3827 28.3035 30.9245 24.1465 31.5365 19.3792" stroke="black" stroke-linecap="round" stroke-linejoin="round"/>
<path d="M47.8206 30.4556C50.591 36.5117 51.2849 38.9079 53.8924 45.0356C54.4578 46.3642 56.775 52.4679 55.0916 53.8295C52.6036 54.4978 48.8808 48.5255 45.8982 47.0342C41.901 45.0356 38.1297 47.1555 34.7053 51.8309C33.1064 54.0138 31.1078 56.6275 27.5104 55.8281" stroke="black" stroke-linecap="round" stroke-linejoin="round"/>
<path d="M34.7054 32.2448C33.3829 35.7036 27.9941 50.1099 29.3166 57.0274" stroke="black" stroke-linecap="round" stroke-linejoin="round"/>
<path d="M36.5537 26.1906C32.2155 28.8547 24.8394 32.5135 23.3654 44.3056" stroke="black" stroke-linecap="round" stroke-linejoin="round"/>
<path d="M45.8972 26.2488C49.734 27.2793 52.2004 28.4538 63.4755 31.6249C58.7775 32.9168 52.9051 32.7994 47.8954 30.6457" stroke="black" stroke-linecap="round" stroke-linejoin="round"/>
<path d="M45.4768 22.0613C44.2777 25.6588 39.0272 24.4596 36.2292 22.0613" stroke="black" stroke-linecap="round" stroke-linejoin="round"/>
<path d="M23.7339 44.6741C25.0238 37.1198 31.0323 32.8538 36.6284 31.2549" stroke="black" stroke-linecap="round" stroke-linejoin="round"/>
<path d="M2.43834 53.4257C4.38389 51.3053 8.79438 45.397 12.8087 42.0517L21.8993 36.7467C21.8993 36.7467 15.5727 32.9366 22.0447 27.3274C25.0212 24.7478 30.0823 24.1885 32.128 27.5544C36.334 34.4746 29.204 37.6436 29.204 37.6436C24.5172 44.3934 26.3577 47.1865 30.6706 59.2388C31.0739 60.3657 10.751 59.839 2.43834 53.4257Z" fill="white"/>
<path d="M15.1512 35.6955C15.4189 36.2308 17.4929 38.3718 18.4965 39.3754L19.5001 40.0444L21.1727 38.7063C20.3922 38.2603 18.6303 37.1006 17.8274 36.0301C16.8239 34.692 16.8239 33.0193 16.8239 31.6812C16.8239 30.6107 17.7159 27.2208 18.162 25.6597C17.7159 25.5482 16.4893 26.0611 15.1512 29.005C13.4786 32.6848 14.8167 35.0265 15.1512 35.6955Z" fill="white"/>
<path d="M19.834 38.0374C17.8268 37.0338 16.6175 34.6376 16.7071 33.0613C16.8048 31.3401 17.5493 29.7608 18.1009 28.1549C18.2746 27.6494 18.9082 26.2502 18.4587 25.7156C18.1575 25.3574 17.2969 26.262 17.1391 26.4218C15.6635 27.9169 14.7765 30.0152 14.5512 32.0902C14.2395 34.9604 15.7586 37.2993 18.0777 38.7901" stroke="black" stroke-linecap="round" stroke-linejoin="round"/>
<path d="M21.5374 36.955C21.4939 37.1521 21.4445 37.4322 21.3452 37.6054C6.58814 41.4914 4.57947 54.7277 4.24671 55.207" stroke="black" stroke-linecap="round" stroke-linejoin="round"/>
<path d="M3.24207 54.5379C6.92579 57.4761 24.6601 60.7981 31.6767 58.5523" stroke="black" stroke-linecap="round" stroke-linejoin="round"/>
<path d="M28.6659 38.4806C24.9863 45.1712 26.9933 51.8618 31.3423 58.5523" stroke="black" stroke-linecap="round" stroke-linejoin="round"/>
<path d="M21.8795 27.6863C21.1365 28.1699 20.1752 28.8023 19.4985 29.4255C18.696 30.1647 18.4804 31.6869 18.6718 32.7272C19.1376 35.2572 22.4131 36.8985 24.616 37.5764C25.6714 37.9012 26.8995 38.1699 28.0103 38.0681C29.1435 37.9642 30.1855 37.3965 31.0819 36.7273C32.3454 35.7839 33.0949 34.6294 33.5694 33.1286C33.9907 31.796 34.1658 30.6219 33.4505 29.3692C31.2432 25.5031 24.7183 25.0341 21.3041 27.3394C19.3384 28.6667 17.612 31.1229 18.4283 33.6054C19.2566 36.1246 22.1601 37.9764 24.5129 38.4157" stroke="black" stroke-linecap="round" stroke-linejoin="round"/>
<path d="M26.4683 32.3932C28.1964 34.3575 32.8798 33.3539 31.4249 31.1774" stroke="black" stroke-linecap="round" stroke-linejoin="round"/>
<path d="M59.1471 18.7385C60.5535 16.9502 61.0478 13.8706 58.0523 13.4013C56.5762 13.17 52.9667 14.0837 54.0907 16.3335C54.3992 16.9511 55.3399 16.4812 55.713 16.2067C56.7742 15.4258 57.3632 13.8958 56.9178 12.6226C55.8337 9.52356 51.5034 9.40204 48.913 10.0788" stroke="black" stroke-linecap="round"/>
<path d="M62.3182 18.1741C62.9935 15.2133 63.5168 12.2968 63.8646 9.28227" stroke="black" stroke-linecap="round"/>
<path d="M65.3 16.6277C66.6699 14.7048 68.0224 12.7733 69.3594 10.8287" stroke="black" stroke-linecap="round"/>
<path d="M53.2399 35.2207L59.2023 29.0794L60.0839 24.0883C59.5909 24.2203 58.5902 24.1926 58.531 23.025C58.4569 21.5655 61.7174 21.1145 64.6434 21.3872C66.9842 21.6053 66.1471 23.4498 65.4359 24.3448L64.0949 29.9874C64.6636 30.9269 65.8909 33.1411 66.2501 34.4819C66.6992 36.1579 69.8012 35.1154 67.069 37.5381C64.3369 39.9608 55.1696 38.0849 53.7682 37.1924C52.6471 36.4784 52.9489 35.5804 53.2399 35.2207Z" fill="white"/>
<path d="M58.1918 30.8295C56.0422 31.0885 53.9229 34.615 52.5832 35.925C56.5889 38.5711 64.3234 39.1192 68.0608 36.1101C66.8892 33.1836 64.2533 30.579 63.3667 30.8166C61.2128 31.3937 60.3413 30.5705 58.1918 30.8295Z" fill="#FF368A"/>
<path d="M59.3612 22.1808C61.465 22.8817 62.9148 23.3931 65.1707 22.947C65.6876 22.8448 66.2234 22.4405 65.942 21.8386C65.6196 21.1492 64.4342 21.0282 63.7944 20.9929C63.2934 20.9653 60.1018 21.0742 59.9424 21.7604C59.6911 22.8427 62.6205 23.3167 63.284 23.4525" stroke="black" stroke-linecap="round"/>
<path d="M59.6026 23.9494L59.249 28.8219" stroke="black" stroke-linecap="round"/>
<path d="M59.4224 28.8575C59.4224 28.8575 55.4975 32.3488 53.2173 35.1187" stroke="black" stroke-linecap="round"/>
<path d="M53.9014 34.6069C48.9735 36.7485 65.2222 41.9201 68.1017 35.811" stroke="black" stroke-linecap="round"/>
<path d="M63.8217 29.9537C63.8217 29.9537 64.1443 27.1947 65.1447 24.5096" stroke="black" stroke-linecap="round"/>
<path d="M63.5248 29.5038C65.2364 32.473 66.9864 34.7139 68.2863 36.5006" stroke="black" stroke-linecap="round"/>
<path d="M54.7041 33.4551C55.6961 32.4591 56.8048 31.3436 58.2125 30.9664C59.101 30.7284 60.194 30.9925 61.1001 31.0258C62.7321 31.0857 63.4248 30.9431 63.6453 29.2951" stroke="black" stroke-linecap="round"/>
<path d="M60.0475 21.2737C57.9952 22.2884 59.0673 23.8989 59.6606 24.1663C61.2731 24.8927 64.7612 25.0339 66.1359 23.8721C66.3525 23.5817 66.4472 22.9521 66.2031 22.0413" stroke="black" stroke-linecap="round"/>
<path d="M61.6221 21.3808C61.9652 21.8668 62.2833 22.3573 62.5986 22.8599" stroke="black" stroke-linecap="round"/>
<path d="M63.6666 21.1231C63.8904 21.6497 64.1957 22.1696 64.3442 22.7237" stroke="black" stroke-linecap="round"/>
<path d="M57.3926 33.3683C57.2106 34.1045 57.1136 34.552 57.9291 34.8447C58.6941 35.1193 59.1744 34.3763 59.265 33.7178C59.3541 33.0698 58.9551 32.801 58.3578 32.8514C57.4488 32.9281 57.3475 33.5562 57.3346 34.3348" stroke="black" stroke-linecap="round"/>
<path d="M62.4174 34.7692C62.4049 35.0664 62.2823 35.8788 62.824 35.7169C63.1105 35.6313 63.3184 35.2 63.2946 34.9099C63.2306 34.1304 62.1467 34.8882 62.0302 35.2957" stroke="black" stroke-linecap="round"/>
<path d="M62.4015 32.3432C62.9609 32.7513 63.1333 32.1602 62.7992 31.9431C62.5465 31.779 62.1517 32.7758 62.618 31.9682" stroke="black" stroke-linecap="round"/>
<circle cx="69.5602" cy="17.9635" r="1.57239" transform="rotate(-79.9466 69.5602 17.9635)" fill="white" stroke="black"/>
<path d="M40.4732 50.0279C43.484 48.3552 47.4983 47.3516 47.8329 47.3516C48.5019 47.5747 49.171 48.2214 46.4947 49.0243C43.1495 50.0279 40.1387 53.3731 39.1351 55.0458C38.1315 56.7184 36.7934 57.722 35.7898 58.0565C34.987 58.3242 34.7863 57.276 34.7863 56.7184C35.6783 55.0458 38.0646 51.366 40.4732 50.0279Z" fill="white"/>
<path d="M54.5234 48.3552L53.8544 46.6826C54.858 47.0171 58.2032 47.0171 59.5414 46.6826C60.6118 46.415 63.3327 44.7869 64.5593 44.0064C65.4514 43.6718 67.1686 43.2704 66.901 44.3409C66.5664 45.679 62.8866 47.3516 61.214 48.3552C59.8759 49.1581 56.1961 48.6897 54.5234 48.3552Z" fill="white"/>
<path d="M63.1102 70.2151C62.6317 71.3121 45.6146 75.1518 36.3145 70.2794C40.1386 62.4053 43.4542 53.9857 47.1155 46.2642C47.1155 46.2642 40.2234 43.6105 45.6231 36.9628C48.1064 33.9055 53.7063 34.0033 56.3054 36.9628C61.6491 43.0475 54.4651 45.879 54.4651 45.879C56.4856 52.4729 63.5887 69.118 63.1102 70.2151Z" fill="white"/>
<path d="M46.795 46.5324C46.7864 46.7341 46.7864 47.0185 46.7187 47.2063C46.2759 48.4344 44.7676 51.6582 44.5232 52.188C42.0563 57.5345 39.4781 62.8294 37.0144 68.1771C36.6493 68.9694 36.415 69.7668 36.249 70.6179" stroke="black" stroke-linecap="round" stroke-linejoin="round"/>
<path d="M35.6113 69.6462C39.8303 73.445 56.6563 74.9081 63.0751 69.5468" stroke="black" stroke-linecap="round" stroke-linejoin="round"/>
<path d="M54.6844 46.8726C54.7251 47.4299 54.8234 47.7425 55.0223 48.3484C56.4158 52.5928 57.99 56.7803 59.5043 60.9826C60.2939 63.1739 61.1083 65.3672 61.7909 67.5951C62.1693 68.8299 62.5317 70.0668 62.9339 71.2945C63.1253 71.8786 63.4011 72.4355 63.5094 73.0416" stroke="black" stroke-linecap="round" stroke-linejoin="round"/>
<path d="M45.5219 37.3449C44.8742 37.9502 44.0373 38.7399 43.4792 39.4712C42.8172 40.3385 42.8692 41.875 43.2384 42.8662C44.1363 45.2769 47.6471 46.3245 49.9343 46.6096C51.03 46.7462 52.2861 46.7975 53.3624 46.5044C54.4604 46.2053 55.3879 45.4653 56.1545 44.6506C57.235 43.5021 57.7726 42.235 57.9793 40.6747C58.1628 39.2891 58.1314 38.1025 57.2094 36.9929C54.3643 33.5689 47.8571 34.2401 44.8951 37.1032C43.1897 38.7517 41.916 41.4703 43.151 43.7734C44.4042 46.1105 47.5851 47.43 49.9785 47.4541" stroke="black" stroke-linecap="round" stroke-linejoin="round"/>
<path d="M46.8287 47.3515C44.487 48.3551 41.1307 49.453 39.1345 51.3659C38.5484 51.9276 33.4475 56.7183 35.7893 58.0564C38.131 58.0564 38.6327 55.0457 40.1381 53.373C41.9446 51.3659 44.1525 49.6932 46.1596 49.0242" stroke="black" stroke-linecap="round" stroke-linejoin="round"/>
<path d="M55.1915 48.4851C59.2059 49.6931 64.5266 47.3386 65.8964 45.3443C67.9036 43.3371 66.1073 42.3742 63.2202 44.6752C61.1588 46.3181 58.5368 47.686 54.5225 46.6824" stroke="black" stroke-linecap="round" stroke-linejoin="round"/>
</g>
<defs>
<clipPath id="clip0_1495_70503">
<rect width="80" height="80" fill="white"/>
</clipPath>
</defs>
</svg>
