<svg width="264" height="41" viewBox="0 0 264 41" fill="none" xmlns="http://www.w3.org/2000/svg">
<g clip-path="url(#clip0_263_9933)">
<path d="M23.3862 22.164C23.3373 22.1543 23.2874 22.1505 23.2375 22.1527C23.1515 22.1573 23.0672 22.1792 22.9898 22.217C22.8396 22.2896 22.7232 22.4173 22.6648 22.5735C22.6064 22.7298 22.6105 22.9025 22.6764 23.0558L22.6719 23.0622L24.1544 26.6438C25.5727 25.7387 26.649 24.3868 27.213 22.8017L23.3928 22.156L23.3862 22.164ZM17.442 22.6716C17.4098 22.5304 17.3313 22.4041 17.2188 22.3129C17.1063 22.2217 16.9665 22.1708 16.8217 22.1685C16.779 22.168 16.7363 22.1718 16.6943 22.1798L16.6879 22.172L12.9008 22.8149C13.4695 24.3875 14.5413 25.7285 15.9499 26.6299L17.4175 23.0836L17.406 23.0697C17.4602 22.9443 17.4728 22.8048 17.442 22.6716ZM20.6136 24.0623C20.5583 23.9592 20.4761 23.873 20.3756 23.813C20.2752 23.753 20.1603 23.7214 20.0433 23.7215C19.9263 23.7217 19.8115 23.7536 19.7112 23.8138C19.6109 23.8741 19.5289 23.9605 19.4738 24.0637H19.4707L17.6083 27.4313C18.9418 27.8853 20.3753 27.959 21.7483 27.6442C22.0029 27.5863 22.2516 27.5168 22.4944 27.4356L20.6277 24.0621L20.6136 24.0623ZM26.5092 16.2396L23.6438 18.8043L23.6454 18.8124C23.5573 18.8894 23.4918 18.9888 23.4557 19.1C23.4196 19.2112 23.4142 19.3301 23.4403 19.4441C23.4663 19.5581 23.5227 19.6629 23.6035 19.7474C23.6843 19.8319 23.7865 19.893 23.8992 19.9241L23.9026 19.9396L27.6141 21.0087C27.7745 19.3412 27.3866 17.667 26.5092 16.24V16.2396ZM21.1857 16.527C21.1911 16.6438 21.2281 16.757 21.2926 16.8545C21.3571 16.952 21.4468 17.0302 21.5522 17.0808C21.6576 17.1315 21.7748 17.1526 21.8912 17.142C22.0077 17.1314 22.1191 17.0895 22.2136 17.0207L22.2249 17.0254L25.3603 14.8024C24.1668 13.6334 22.6223 12.8889 20.9644 12.6833L21.1823 16.526L21.1857 16.527ZM17.8654 17.0348C17.96 17.1035 18.0715 17.1454 18.1879 17.1558C18.3044 17.1662 18.4215 17.1449 18.5268 17.0941C18.6321 17.0432 18.7217 16.9648 18.7859 16.8671C18.8502 16.7694 18.8868 16.6562 18.8918 16.5393L18.9078 16.5319L19.1256 12.6831C18.8626 12.7147 18.6015 12.7597 18.3432 12.818C16.9688 13.1269 15.7081 13.8139 14.7035 14.8013L17.8594 17.0384L17.8654 17.0348ZM16.183 19.9429C16.296 19.9121 16.3985 19.8512 16.4795 19.7667C16.5606 19.6822 16.6172 19.5773 16.6433 19.4631C16.6694 19.349 16.664 19.2299 16.6277 19.1186C16.5914 19.0072 16.5256 18.9079 16.4372 18.831L16.4403 18.8157L13.5591 16.2388C12.6802 17.6694 12.3029 19.3521 12.4869 21.021L16.1801 19.9554L16.183 19.9429ZM18.9815 21.0749L20.0443 21.586L21.104 21.076L21.3672 19.9319L20.6338 19.0148H19.4534L18.7179 19.9306L18.9815 21.0749Z" fill="#326CE5"/>
<path d="M37.6145 23.329L34.5859 10.1738C34.5045 9.8335 34.3485 9.51549 34.1293 9.24274C33.91 8.96999 33.633 8.7493 33.3181 8.5966L21.0589 2.74349C20.7412 2.59187 20.3936 2.51318 20.0416 2.51318C19.6895 2.51318 19.3419 2.59187 19.0242 2.74349L6.76742 8.59973C6.45248 8.75233 6.17535 8.97296 5.95605 9.24569C5.73674 9.51841 5.58073 9.83643 5.49927 10.1768L2.47554 23.3316C2.40097 23.6641 2.40073 24.009 2.47485 24.3416C2.49668 24.4429 2.52519 24.5427 2.5602 24.6402C2.61938 24.8067 2.69772 24.9657 2.79366 25.1141C2.83521 25.1776 2.87902 25.2393 2.92665 25.2991L11.4106 35.8472C11.4476 35.8931 11.4885 35.935 11.529 35.9776C11.6621 36.1193 11.8124 36.2439 11.9765 36.3484C12.1839 36.4789 12.41 36.5772 12.6469 36.6399C12.8413 36.6932 13.0417 36.7208 13.2432 36.7221H13.3752L26.8483 36.719C26.9302 36.7186 27.012 36.7138 27.0934 36.7046C27.2101 36.6914 27.3257 36.6694 27.4391 36.6388C27.5204 36.6174 27.6006 36.5918 27.6792 36.562C27.7406 36.5385 27.8018 36.5151 27.8609 36.4867C27.9494 36.4444 28.0352 36.3966 28.118 36.3438C28.3314 36.2096 28.5215 36.0414 28.6807 35.8458L28.9393 35.5242L37.1617 25.2956C37.3193 25.098 37.4431 24.8757 37.5281 24.6376C37.5636 24.5397 37.5927 24.4396 37.6151 24.3379C37.6894 24.0053 37.6893 23.6615 37.6145 23.329ZM24.8988 28.4454C24.9333 28.5465 24.9741 28.6454 25.021 28.7414C24.946 28.8726 24.9256 29.0281 24.9642 29.1743C25.1426 29.5828 25.3605 29.9728 25.6147 30.339C25.757 30.5261 25.8884 30.7214 26.0081 30.9238C26.0376 30.9785 26.0762 31.0634 26.1042 31.1212C26.157 31.2095 26.1908 31.3078 26.2033 31.4099C26.2159 31.512 26.2069 31.6156 26.177 31.714C26.1471 31.8124 26.0969 31.9035 26.0297 31.9813C25.9625 32.0592 25.8797 32.1221 25.7868 32.1661C25.6938 32.21 25.5926 32.234 25.4898 32.2365C25.387 32.2391 25.2848 32.22 25.1897 32.1807C25.0947 32.1413 25.009 32.0825 24.938 32.0081C24.8671 31.9336 24.8125 31.8451 24.7778 31.7483C24.7499 31.6909 24.7109 31.6144 24.6871 31.5602C24.6033 31.3403 24.5322 31.1158 24.4742 30.8878C24.3469 30.4611 24.1783 30.0479 23.9707 29.6541C23.8804 29.5323 23.746 29.4507 23.5963 29.4268C23.5728 29.3863 23.4859 29.2269 23.4393 29.1447C21.257 29.9712 18.8467 29.965 16.6687 29.1273L16.5027 29.4281C16.3841 29.4465 16.2739 29.5002 16.1865 29.5823C15.9363 29.9928 15.745 30.4365 15.6184 30.9003C15.5609 31.1283 15.4902 31.3529 15.4066 31.5727C15.3831 31.6266 15.3439 31.702 15.3159 31.7592L15.3147 31.7622C15.28 31.8591 15.2255 31.9478 15.1545 32.0223C15.0835 32.0969 14.9977 32.1558 14.9025 32.1952C14.8074 32.2345 14.7051 32.2535 14.6021 32.2509C14.4992 32.2483 14.398 32.2241 14.305 32.18C14.2119 32.1358 14.1292 32.0727 14.0621 31.9946C13.995 31.9165 13.945 31.8252 13.9153 31.7266C13.8857 31.628 13.877 31.5243 13.8899 31.4222C13.9028 31.32 13.937 31.2217 13.9902 31.1336C14.0178 31.0753 14.0549 30.991 14.0841 30.9363C14.2037 30.7334 14.335 30.5376 14.4773 30.3499C14.7361 29.9741 14.9585 29.5744 15.1413 29.1564C15.1608 29.0146 15.1381 28.8703 15.076 28.7414L15.2095 28.4215C13.2015 27.2364 11.6966 25.3575 10.9786 23.1391L10.6589 23.1936C10.5349 23.1055 10.3887 23.054 10.2369 23.0449C9.79942 23.1286 9.37116 23.2547 8.95812 23.4213C8.74364 23.5177 8.52385 23.6019 8.29979 23.6733C8.24677 23.688 8.17028 23.7026 8.10979 23.7158C8.10492 23.7175 8.10075 23.7196 8.09588 23.7208C8.09214 23.7214 8.08837 23.7217 8.08458 23.7218C7.9872 23.7539 7.88421 23.7652 7.78219 23.7552C7.68017 23.7451 7.58138 23.7138 7.49214 23.6634C7.40289 23.6129 7.32517 23.5444 7.26393 23.4622C7.2027 23.38 7.1593 23.2859 7.13653 23.1859C7.11375 23.086 7.1121 22.9824 7.13167 22.8818C7.15124 22.7811 7.1916 22.6857 7.25018 22.6016C7.30876 22.5174 7.38425 22.4465 7.47184 22.3932C7.55942 22.3399 7.65717 22.3055 7.75881 22.2922L7.76941 22.2896L7.77585 22.2879C7.83721 22.2734 7.91579 22.2531 7.97176 22.2423C8.20516 22.2099 8.44023 22.191 8.6758 22.1856C9.12008 22.1566 9.56047 22.0843 9.99071 21.9697C10.1182 21.8885 10.226 21.7798 10.3061 21.6516L10.6132 21.5619C10.2799 19.2466 10.8131 16.8898 12.1105 14.9434L11.8753 14.7338C11.8667 14.5816 11.8156 14.4349 11.7279 14.3103C11.39 14.0198 11.0245 13.7631 10.6367 13.5437C10.4273 13.4369 10.2242 13.3181 10.0284 13.188C9.98393 13.1548 9.92483 13.1049 9.8765 13.0656L9.86555 13.058C9.69867 12.9381 9.58601 12.757 9.5522 12.5544C9.51839 12.3517 9.56617 12.1439 9.6851 11.9763C9.75537 11.8903 9.84492 11.8221 9.9465 11.7771C10.0481 11.7322 10.1588 11.7118 10.2697 11.7177C10.4564 11.7257 10.6357 11.7933 10.7811 11.9106C10.831 11.9498 10.8994 12.0021 10.9437 12.0401C11.1145 12.2017 11.2758 12.3729 11.427 12.553C11.7268 12.8824 12.0581 13.1818 12.4161 13.4468C12.5502 13.5174 12.7067 13.5325 12.8519 13.4891C12.9393 13.5528 13.0275 13.6155 13.1165 13.6772C14.4057 12.3068 16.0751 11.353 17.9104 10.9384C18.3472 10.8394 18.7904 10.7713 19.2368 10.7345L19.2542 10.4243C19.3681 10.3231 19.4507 10.1913 19.4923 10.0447C19.5083 9.59955 19.481 9.15393 19.4106 8.71411C19.364 8.48362 19.3305 8.25065 19.3105 8.01633C19.3086 7.96296 19.3115 7.88926 19.3122 7.82841C19.3122 7.82146 19.3105 7.81451 19.3105 7.8079C19.3001 7.70534 19.3113 7.60173 19.3434 7.50376C19.3755 7.40579 19.4278 7.31565 19.4969 7.23914C19.566 7.16263 19.6503 7.10146 19.7445 7.05958C19.8388 7.0177 19.9407 6.99603 20.0438 6.99599C20.1469 6.99594 20.2488 7.0175 20.3431 7.0593C20.4373 7.10109 20.5217 7.16218 20.5909 7.23862C20.6601 7.31506 20.7125 7.40516 20.7447 7.5031C20.7769 7.60103 20.7882 7.70463 20.7778 7.8072C20.7778 7.87152 20.7817 7.9567 20.7794 8.01581C20.7593 8.25009 20.7257 8.48302 20.6788 8.71342C20.608 9.15331 20.5802 9.59904 20.5957 10.0443C20.6247 10.1932 20.7107 10.3248 20.8354 10.4111C20.838 10.4641 20.8467 10.6411 20.8531 10.7386C23.1725 10.9496 25.3364 11.9951 26.943 13.6812L27.2222 13.4818C27.3721 13.5075 27.5263 13.4908 27.6672 13.4335C28.0252 13.1679 28.3564 12.8682 28.6563 12.5385C28.8078 12.3584 28.9695 12.1871 29.1408 12.0257C29.1858 11.9871 29.2538 11.9353 29.3035 11.896C29.3772 11.8234 29.4652 11.7671 29.562 11.7308C29.6588 11.6944 29.7621 11.6789 29.8653 11.685C29.9685 11.6912 30.0693 11.719 30.1611 11.7667C30.2528 11.8143 30.3335 11.8807 30.398 11.9616C30.4624 12.0424 30.5091 12.1359 30.5351 12.236C30.561 12.3361 30.5657 12.4405 30.5486 12.5425C30.5316 12.6444 30.4934 12.7417 30.4363 12.8279C30.3793 12.9142 30.3048 12.9875 30.2176 13.043C30.1684 13.0828 30.1034 13.1383 30.0561 13.1734C29.8599 13.3036 29.6563 13.4224 29.4464 13.5291C29.0587 13.7486 28.6932 14.0053 28.3552 14.2957C28.2569 14.4109 28.2075 14.56 28.2176 14.7112C28.1767 14.7487 28.0333 14.8758 27.9573 14.9446C29.2584 16.8841 29.8023 19.2336 29.4857 21.5475L29.7819 21.6337C29.856 21.767 29.9655 21.8771 30.0983 21.9518C30.5288 22.0666 30.9694 22.1391 31.4139 22.1684C31.6492 22.1738 31.8841 22.1926 32.1173 22.2248C32.179 22.2361 32.2682 22.2607 32.3311 22.2752C32.4327 22.2885 32.5305 22.323 32.618 22.3763C32.7056 22.4296 32.7811 22.5006 32.8396 22.5848C32.8982 22.6689 32.9385 22.7644 32.958 22.865C32.9775 22.9657 32.9758 23.0693 32.953 23.1692C32.9302 23.2692 32.8867 23.3632 32.8255 23.4454C32.7642 23.5276 32.6864 23.5961 32.5971 23.6465C32.5079 23.6969 32.409 23.7281 32.307 23.7381C32.205 23.7481 32.102 23.7367 32.0046 23.7046L31.994 23.7033C31.9891 23.702 31.9846 23.6994 31.9796 23.698C31.9191 23.685 31.8431 23.6718 31.7901 23.6579C31.5661 23.5859 31.3464 23.501 31.1321 23.4037C30.7187 23.237 30.29 23.111 29.8522 23.0274C29.7006 23.0226 29.5532 23.0773 29.4416 23.1798C29.3373 23.16 29.2327 23.1417 29.128 23.1249C28.4186 25.357 26.9134 27.2507 24.8988 28.4454Z" fill="#326CE5"/>
<path d="M39.2136 23.6662L35.9095 9.31414C35.8207 8.94277 35.6505 8.59575 35.4113 8.29813C35.172 8.00052 34.8697 7.75973 34.5261 7.59315L21.1519 1.2081C20.8053 1.04265 20.426 0.956787 20.0419 0.956787C19.6578 0.956787 19.2785 1.04265 18.9319 1.2081L5.55888 7.59697C5.21528 7.7634 4.91291 8.00403 4.67359 8.30149C4.43427 8.59895 4.26396 8.94583 4.17496 9.3171L0.876571 23.67C0.80217 24.0009 0.794521 24.3432 0.85407 24.6771C0.91362 25.011 1.03917 25.3296 1.22338 25.6144C1.26875 25.6839 1.3169 25.7513 1.36905 25.8164L10.6252 37.3253C10.8678 37.6214 11.1727 37.8604 11.5182 38.0253C11.8637 38.1902 12.2413 38.2768 12.6242 38.2791L27.4676 38.2756C27.8504 38.2735 28.2279 38.187 28.5734 38.0223C28.919 37.8577 29.224 37.6189 29.4667 37.323L38.7196 25.8131C38.9566 25.5146 39.1239 25.1671 39.2094 24.7957C39.2948 24.4244 39.2963 24.0387 39.2136 23.6667V23.6662ZM37.6149 24.3382C37.5926 24.4398 37.5637 24.5399 37.5283 24.6377C37.4432 24.8759 37.3192 25.0982 37.1615 25.2959L28.9392 35.5241L28.6808 35.8461C28.5215 36.0417 28.3312 36.2099 28.1176 36.3441C28.0351 36.3969 27.9496 36.4446 27.8614 36.487C27.8019 36.5145 27.7414 36.5394 27.6797 36.5618C27.601 36.5917 27.5207 36.6176 27.4393 36.6391C27.3258 36.6697 27.2103 36.6918 27.0935 36.705C27.0121 36.7142 26.9303 36.719 26.8484 36.7193L13.3753 36.7224H13.2432C13.0418 36.7211 12.8414 36.6935 12.6471 36.6403C12.4102 36.5775 12.1843 36.4791 11.977 36.3485C11.8128 36.2441 11.6624 36.1196 11.5292 35.9778C11.4887 35.9351 11.4478 35.8932 11.4109 35.8475L2.92681 25.2992C2.87953 25.2396 2.8352 25.1779 2.79382 25.1139C2.69789 24.9655 2.61954 24.8065 2.56036 24.64C2.52534 24.5424 2.49683 24.4426 2.47501 24.3412C2.40091 24.0086 2.40115 23.6638 2.4757 23.3313L5.49943 10.1762C5.58093 9.83591 5.73697 9.51796 5.95627 9.2453C6.17557 8.97264 6.45268 8.75206 6.76757 8.5995L19.0245 2.74378C19.3422 2.59216 19.6898 2.51347 20.0419 2.51347C20.3939 2.51347 20.7415 2.59216 21.0593 2.74378L33.3181 8.59689C33.633 8.74959 33.91 8.97028 34.1293 9.24303C34.3485 9.51577 34.5045 9.83379 34.5859 10.1741L37.6145 23.3291C37.6891 23.6614 37.6892 24.0062 37.6149 24.3386V24.3382Z" fill="white"/>
<path d="M32.331 22.2753C32.2684 22.2609 32.179 22.2362 32.1177 22.2249C31.8845 22.1926 31.6497 22.1737 31.4143 22.1682C30.9697 22.1391 30.529 22.0668 30.0984 21.9523C29.9655 21.8774 29.856 21.7672 29.782 21.6338L29.4858 21.5476C29.8024 19.2338 29.2587 16.8842 27.9577 14.9447C28.0335 14.8759 28.1771 14.7488 28.2176 14.7114C28.2075 14.5603 28.2569 14.4112 28.3553 14.296C28.6933 14.0056 29.0587 13.7489 29.4465 13.5293C29.6564 13.4227 29.86 13.3039 30.0561 13.1737C30.1034 13.1386 30.1681 13.0829 30.2176 13.0433C30.3048 12.9877 30.3793 12.9145 30.4364 12.8283C30.4934 12.7421 30.5316 12.6448 30.5487 12.5429C30.5657 12.4409 30.5611 12.3365 30.5352 12.2365C30.5092 12.1364 30.4626 12.0429 30.3982 11.962C30.3338 11.8812 30.2531 11.8148 30.1614 11.7671C30.0697 11.7194 29.969 11.6916 29.8658 11.6853C29.7626 11.6791 29.6593 11.6946 29.5625 11.7309C29.4657 11.7672 29.3776 11.8234 29.3039 11.896C29.2539 11.9354 29.1857 11.9872 29.1412 12.0258C28.9698 12.1872 28.808 12.3585 28.6564 12.5386C28.3565 12.8683 28.0252 13.168 27.6673 13.4336C27.5263 13.4909 27.3722 13.5076 27.2222 13.4819L26.9431 13.6813C25.3365 11.9953 23.1725 10.9497 20.8532 10.7387C20.8464 10.6412 20.8381 10.4646 20.8355 10.4112C20.7109 10.3248 20.625 10.1932 20.5961 10.0444C20.5806 9.59915 20.6084 9.15342 20.6792 8.71353C20.7259 8.48317 20.7593 8.2503 20.7791 8.01609C20.7814 7.95699 20.7779 7.87111 20.7779 7.80731C20.7882 7.70474 20.7769 7.60114 20.7447 7.5032C20.7125 7.40527 20.6602 7.31517 20.591 7.23873C20.5218 7.16229 20.4374 7.1012 20.3431 7.05941C20.2489 7.01761 20.1469 6.99604 20.0438 6.99609C19.9408 6.99614 19.8388 7.01781 19.7446 7.05969C19.6504 7.10157 19.566 7.16274 19.4969 7.23925C19.4278 7.31576 19.3756 7.4059 19.3434 7.50387C19.3113 7.60183 19.3001 7.70544 19.3105 7.80801C19.3105 7.81496 19.3121 7.82157 19.3123 7.82852C19.3116 7.88937 19.3086 7.96307 19.3105 8.01627C19.3306 8.25064 19.364 8.48367 19.4107 8.71422C19.481 9.15404 19.5084 9.59966 19.4924 10.0448C19.4507 10.1913 19.3681 10.3229 19.2542 10.4241L19.2368 10.7346C18.7905 10.7714 18.3473 10.8396 17.9105 10.9385C16.0754 11.3532 14.4062 12.3069 13.1171 13.6771C13.0278 13.6156 12.9394 13.5529 12.8518 13.489C12.7066 13.5324 12.5503 13.5173 12.4162 13.4468C12.0582 13.1818 11.7269 12.8824 11.427 12.5531C11.2761 12.373 11.1149 12.2018 10.9443 12.0403C10.8996 12.002 10.8313 11.9499 10.7812 11.9099C10.6357 11.7926 10.4565 11.7249 10.2698 11.7169C10.1588 11.7111 10.0481 11.7315 9.94651 11.7765C9.84494 11.8215 9.7554 11.8899 9.68517 11.9759C9.56624 12.1435 9.51846 12.3513 9.55227 12.554C9.58608 12.7566 9.69873 12.9377 9.86561 13.0576L9.87691 13.0655C9.92489 13.1048 9.984 13.1551 10.0285 13.1876C10.2243 13.3178 10.4273 13.4367 10.6368 13.5436C11.0245 13.7631 11.3899 14.02 11.7278 14.3106C11.8155 14.4351 11.8666 14.5816 11.8753 14.7337L12.1102 14.9437C10.8129 16.8901 10.2799 19.247 10.6133 21.5622L10.3061 21.6516C10.226 21.7796 10.1182 21.8881 9.99078 21.9692C9.56051 22.084 9.12006 22.1566 8.6757 22.1859C8.44018 22.1913 8.20517 22.2102 7.97183 22.2426C7.9155 22.253 7.83728 22.2728 7.77591 22.2881L7.76948 22.2895L7.75905 22.2927C7.65743 22.306 7.55972 22.3405 7.47216 22.3937C7.38461 22.447 7.30915 22.518 7.2506 22.6021C7.19206 22.6863 7.15172 22.7817 7.13217 22.8823C7.11262 22.9829 7.11429 23.0865 7.13708 23.1864C7.15986 23.2864 7.20325 23.3805 7.26448 23.4627C7.32571 23.5448 7.40342 23.6134 7.49265 23.6638C7.58188 23.7142 7.68065 23.7455 7.78265 23.7556C7.88465 23.7656 7.98763 23.7543 8.085 23.7223L8.09595 23.7206C8.10081 23.7195 8.10499 23.7171 8.10985 23.7162C8.17035 23.7023 8.24649 23.6879 8.29969 23.6735C8.52368 23.602 8.74342 23.5177 8.95783 23.4212C9.37099 23.2546 9.79937 23.1286 10.2369 23.0449C10.3887 23.0541 10.5348 23.1058 10.6587 23.1938L10.9785 23.1391C11.6966 25.3575 13.2016 27.2364 15.2097 28.4215L15.076 28.7413C15.1382 28.8702 15.161 29.0145 15.1416 29.1563C14.9587 29.5743 14.7363 29.9738 14.4775 30.3495C14.3352 30.5372 14.2039 30.7329 14.0841 30.9357C14.0549 30.991 14.0179 31.0756 13.9899 31.1335C13.937 31.2217 13.903 31.3199 13.8903 31.4219C13.8776 31.524 13.8864 31.6276 13.9162 31.726C13.9459 31.8244 13.9959 31.9155 14.063 31.9935C14.1301 32.0714 14.2127 32.1344 14.3056 32.1785C14.3985 32.2226 14.4996 32.2467 14.6024 32.2494C14.7052 32.2521 14.8074 32.2332 14.9024 32.1939C14.9975 32.1547 15.0833 32.096 15.1543 32.0217C15.2253 31.9473 15.2799 31.8589 15.3147 31.7621L15.3159 31.7607V31.759C15.3438 31.7016 15.3832 31.6263 15.4067 31.5726C15.4902 31.3528 15.5609 31.1283 15.6184 30.9002C15.7451 30.4364 15.9363 29.9928 16.1865 29.5822C16.274 29.5001 16.3842 29.4463 16.5027 29.4278L16.6691 29.1271C18.8471 29.9646 21.2572 29.9707 23.4394 29.1443C23.486 29.2274 23.5729 29.3863 23.5958 29.4264C23.7457 29.4504 23.8802 29.5321 23.9704 29.6542C24.1782 30.0479 24.3469 30.4611 24.4742 30.8877C24.5322 31.1157 24.6033 31.3403 24.6872 31.5601C24.711 31.6144 24.7498 31.6905 24.7779 31.7482C24.8126 31.845 24.8672 31.9335 24.9381 32.008C25.009 32.0825 25.0948 32.1413 25.1898 32.1806C25.2848 32.22 25.387 32.239 25.4899 32.2365C25.5927 32.234 25.6938 32.21 25.7868 32.166C25.8798 32.122 25.9626 32.0591 26.0298 31.9813C26.097 31.9034 26.1471 31.8123 26.177 31.7139C26.2069 31.6155 26.2159 31.5119 26.2034 31.4099C26.1909 31.3078 26.1571 31.2094 26.1043 31.1212C26.0763 31.0633 26.0377 30.9786 26.0087 30.9237C25.8889 30.7213 25.7576 30.5261 25.6153 30.3389C25.361 29.9728 25.1432 29.5827 24.9648 29.1742C24.9261 29.0281 24.9463 28.8727 25.0211 28.7413C24.9741 28.6453 24.9333 28.5465 24.8989 28.4453C26.9135 27.2507 28.4186 25.3571 29.128 23.125C29.2229 23.1401 29.3883 23.169 29.442 23.1799C29.5536 23.0775 29.7008 23.0228 29.8522 23.0275C30.2899 23.1111 30.7184 23.2371 31.1317 23.4038C31.3461 23.5012 31.566 23.586 31.7902 23.658C31.8432 23.6719 31.9188 23.6851 31.9796 23.6985C31.9847 23.6999 31.9892 23.702 31.9941 23.7034L32.0045 23.7049C32.1018 23.7369 32.2048 23.7481 32.3067 23.738C32.4087 23.728 32.5074 23.6967 32.5966 23.6463C32.6857 23.5958 32.7634 23.5274 32.8246 23.4452C32.8858 23.3631 32.9292 23.2691 32.952 23.1692C32.9748 23.0693 32.9765 22.9658 32.9571 22.8652C32.9376 22.7646 32.8973 22.6692 32.8389 22.5851C32.7804 22.501 32.7051 22.43 32.6176 22.3766C32.5302 22.3233 32.4325 22.2888 32.331 22.2753ZM25.3601 14.8025L22.2246 17.0254L22.2136 17.0202C22.1191 17.0891 22.0078 17.1311 21.8913 17.1418C21.7748 17.1525 21.6576 17.1314 21.5522 17.0808C21.4468 17.0302 21.357 16.9519 21.2925 16.8544C21.228 16.7569 21.1911 16.6437 21.1857 16.5268L21.1823 16.5251L20.9644 12.6828C22.6223 12.8886 24.1668 13.6334 25.3601 14.8025ZM19.4534 19.0143H20.6335L21.367 19.9314L21.104 21.0753L20.0443 21.5853L18.9815 21.0742L18.7179 19.9299L19.4534 19.0143ZM18.3433 12.8173C18.6018 12.7591 18.8631 12.7142 19.1261 12.6828L18.9079 16.531L18.8919 16.5386C18.887 16.6555 18.8505 16.7688 18.7862 16.8666C18.722 16.9643 18.6324 17.0428 18.5271 17.0937C18.4218 17.1445 18.3047 17.1659 18.1882 17.1555C18.0717 17.145 17.9602 17.1032 17.8656 17.0344L17.8595 17.0379L14.7037 14.8003C15.7084 13.813 16.969 13.1261 18.3433 12.8173ZM13.5593 16.2384L16.4405 18.8154L16.4374 18.831C16.5257 18.9079 16.5915 19.0072 16.6277 19.1185C16.664 19.2298 16.6694 19.3489 16.6433 19.463C16.6172 19.5771 16.5606 19.682 16.4796 19.7665C16.3986 19.851 16.2961 19.9119 16.1832 19.9427L16.1803 19.9552L12.4871 21.0209C12.3031 19.3519 12.6803 17.6691 13.5593 16.2384ZM17.4169 23.0841L15.9496 26.6299C14.5412 25.7283 13.4696 24.3872 12.9012 22.8145L16.6879 22.1713L16.6943 22.1798C16.7361 22.1718 16.7786 22.1681 16.8212 22.1685C16.9274 22.1701 17.0316 22.1978 17.1245 22.2492C17.2174 22.3006 17.2963 22.3741 17.3541 22.4632C17.4119 22.5523 17.4469 22.6542 17.4559 22.76C17.465 22.8659 17.4478 22.9723 17.406 23.0699L17.4169 23.0841ZM21.7483 27.6439C20.3753 27.9588 18.9418 27.8852 17.6083 27.4313L19.4707 24.0637H19.4738C19.5292 23.9608 19.6113 23.8748 19.7116 23.8149C19.8119 23.7549 19.9265 23.7232 20.0434 23.7231C20.1602 23.723 20.2749 23.7545 20.3753 23.8143C20.4757 23.874 20.5581 23.9599 20.6136 24.0627H20.6275L22.4946 27.4358C22.2522 27.5167 22.0035 27.5858 21.7483 27.6439ZM24.1544 26.6442L22.6719 23.0622L22.6764 23.0558C22.6106 22.9026 22.6065 22.7299 22.6649 22.5737C22.7233 22.4176 22.8397 22.2899 22.9898 22.2174C23.0672 22.1795 23.1515 22.1576 23.2375 22.1531C23.2873 22.1508 23.3372 22.1545 23.3862 22.164L23.3926 22.156L27.213 22.8017C26.6491 24.387 25.5728 25.739 24.1544 26.6442ZM27.6142 21.0084L23.9025 19.9393L23.899 19.9236C23.7863 19.8925 23.6841 19.8314 23.6033 19.7469C23.5225 19.6624 23.4661 19.5576 23.4401 19.4436C23.4141 19.3296 23.4194 19.2107 23.4555 19.0994C23.4916 18.9882 23.5572 18.8889 23.6452 18.8119L23.6438 18.8044L26.509 16.2402C27.3864 17.667 27.7745 19.341 27.6142 21.0084Z" fill="white"/>
</g>
<g clip-path="url(#clip1_263_9933)">
<path d="M67.3681 17.2491C67.3681 17.7352 67.4208 18.1293 67.5129 18.4183C67.6181 18.7073 67.7497 19.0225 67.9339 19.3641C67.9997 19.4692 68.026 19.5743 68.026 19.6662C68.026 19.7976 67.9471 19.9289 67.776 20.0603L66.9471 20.612C66.8287 20.6908 66.7102 20.7303 66.605 20.7303C66.4734 20.7303 66.3418 20.6646 66.2102 20.5463C66.026 20.3493 65.8681 20.1391 65.7366 19.9289C65.605 19.7056 65.4734 19.456 65.3287 19.1539C64.3023 20.3624 63.0129 20.9667 61.4602 20.9667C60.355 20.9667 59.4734 20.6514 58.8287 20.0209C58.1839 19.3904 57.855 18.5496 57.855 17.4987C57.855 16.3821 58.2497 15.4757 59.0523 14.7927C59.855 14.1096 60.9208 13.768 62.276 13.768C62.7234 13.768 63.1839 13.8074 63.6708 13.8731C64.1576 13.9388 64.6576 14.0439 65.1839 14.1621V13.2032C65.1839 12.2048 64.9734 11.5086 64.5655 11.1014C64.1445 10.6941 63.4339 10.4971 62.4208 10.4971C61.9602 10.4971 61.4866 10.5496 60.9997 10.6679C60.5129 10.7861 60.0392 10.9306 59.5787 11.1145C59.3681 11.2064 59.2102 11.259 59.1181 11.2853C59.026 11.3115 58.9602 11.3247 58.9076 11.3247C58.7234 11.3247 58.6313 11.1933 58.6313 10.9174V10.2738C58.6313 10.0636 58.6576 9.90595 58.7234 9.814C58.7892 9.72205 58.9076 9.63009 59.0918 9.53814C59.5523 9.30168 60.105 9.10464 60.7497 8.947C61.3945 8.77623 62.0787 8.69742 62.8023 8.69742C64.3681 8.69742 65.5129 9.05209 66.2497 9.76145C66.9734 10.4708 67.3418 11.548 67.3418 12.993V17.2491H67.3681ZM62.026 19.2459C62.4602 19.2459 62.9076 19.167 63.3813 19.0094C63.855 18.8518 64.276 18.5628 64.6313 18.1687C64.8418 17.9191 64.9997 17.6432 65.0787 17.328C65.1576 17.0127 65.2102 16.6317 65.2102 16.1851V15.6334C64.8287 15.5414 64.4208 15.4626 63.9997 15.4101C63.5787 15.3575 63.1708 15.3312 62.7629 15.3312C61.8813 15.3312 61.2366 15.502 60.8023 15.8567C60.3681 16.2114 60.1576 16.7106 60.1576 17.3674C60.1576 17.9848 60.3155 18.4445 60.6445 18.7598C60.9602 19.0882 61.4208 19.2459 62.026 19.2459ZM72.5918 20.6646C72.355 20.6646 72.1971 20.6252 72.0918 20.5332C71.9866 20.4544 71.8945 20.2705 71.8155 20.0209L68.7234 9.86654C68.6445 9.60382 68.605 9.43305 68.605 9.34109C68.605 9.13091 68.7102 9.01269 68.9208 9.01269H70.2102C70.4602 9.01269 70.6313 9.05209 70.7234 9.14405C70.8287 9.22287 70.9076 9.40677 70.9866 9.65636L73.1971 18.3526L75.2497 9.65636C75.3155 9.39364 75.3945 9.22287 75.4997 9.14405C75.605 9.06523 75.7892 9.01269 76.026 9.01269H77.0787C77.3287 9.01269 77.4997 9.05209 77.605 9.14405C77.7102 9.22287 77.8023 9.40677 77.855 9.65636L79.9339 18.4577L82.2102 9.65636C82.2892 9.39364 82.3813 9.22287 82.4734 9.14405C82.5787 9.06523 82.7497 9.01269 82.9866 9.01269H84.2102C84.4208 9.01269 84.5392 9.11778 84.5392 9.34109C84.5392 9.40677 84.526 9.47246 84.5129 9.55127C84.4997 9.63009 84.4734 9.73518 84.4208 9.87968L81.2497 20.034C81.1708 20.2968 81.0787 20.4675 80.9734 20.5463C80.8681 20.6252 80.6971 20.6777 80.4734 20.6777H79.3418C79.0918 20.6777 78.9208 20.6383 78.8155 20.5463C78.7102 20.4544 78.6181 20.2836 78.5655 20.0209L76.526 11.548L74.4997 20.0078C74.4339 20.2705 74.355 20.4413 74.2497 20.5332C74.1445 20.6252 73.9602 20.6646 73.7234 20.6646H72.5918ZM89.4997 21.0193C88.8155 21.0193 88.1313 20.9404 87.4734 20.7828C86.8155 20.6252 86.3023 20.4544 85.9602 20.2573C85.7497 20.1391 85.605 20.0078 85.5523 19.8895C85.4997 19.7713 85.4734 19.6399 85.4734 19.5217V18.8518C85.4734 18.5759 85.5787 18.4445 85.776 18.4445C85.855 18.4445 85.9339 18.4577 86.0129 18.484C86.0918 18.5102 86.2102 18.5628 86.3418 18.6153C86.7892 18.8124 87.276 18.97 87.7892 19.0751C88.3155 19.1802 88.8287 19.2327 89.355 19.2327C90.1839 19.2327 90.8287 19.0882 91.276 18.7992C91.7234 18.5102 91.9602 18.0899 91.9602 17.5513C91.9602 17.1835 91.8418 16.8813 91.605 16.6317C91.3681 16.3821 90.9208 16.1588 90.276 15.9486L88.3681 15.3575C87.4076 15.0554 86.6971 14.6087 86.2629 14.0176C85.8287 13.4396 85.605 12.7959 85.605 12.1128C85.605 11.5611 85.7234 11.0751 85.9602 10.6547C86.1971 10.2344 86.5129 9.86654 86.9076 9.57755C87.3023 9.27541 87.7497 9.05209 88.276 8.89446C88.8023 8.73682 89.355 8.67114 89.9339 8.67114C90.2234 8.67114 90.526 8.68428 90.8155 8.72369C91.1181 8.7631 91.3945 8.81564 91.6708 8.86819C91.9339 8.93387 92.1839 8.99955 92.4208 9.07837C92.6576 9.15719 92.8418 9.236 92.9734 9.31482C93.1576 9.41991 93.2892 9.525 93.3681 9.64323C93.4471 9.74832 93.4866 9.89282 93.4866 10.0767V10.6941C93.4866 10.97 93.3813 11.1145 93.1839 11.1145C93.0787 11.1145 92.9076 11.0619 92.6839 10.9569C91.9339 10.6153 91.0918 10.4445 90.1576 10.4445C89.4076 10.4445 88.8155 10.5628 88.4076 10.8124C87.9997 11.0619 87.7892 11.4429 87.7892 11.9815C87.7892 12.3493 87.9208 12.6646 88.1839 12.9142C88.4471 13.1638 88.9339 13.4133 89.6313 13.6367L91.4997 14.2278C92.4471 14.5299 93.1313 14.9503 93.5392 15.4889C93.9471 16.0275 94.1445 16.6449 94.1445 17.328C94.1445 17.8928 94.026 18.4051 93.8023 18.8518C93.5655 19.2984 93.2497 19.6925 92.8418 20.0078C92.4339 20.3362 91.9471 20.5726 91.3813 20.7434C90.7892 20.9273 90.1708 21.0193 89.4997 21.0193Z" fill="#252F3E"/>
<path fill-rule="evenodd" clip-rule="evenodd" d="M91.9866 27.4034C87.6577 30.5955 81.3682 32.2901 75.9603 32.2901C68.3813 32.2901 61.5524 29.492 56.3945 24.8418C55.9866 24.474 56.355 23.9748 56.8419 24.2638C62.4208 27.4953 69.3024 29.4526 76.4208 29.4526C81.2234 29.4526 86.4998 28.4543 91.355 26.405C92.0787 26.0766 92.6971 26.8779 91.9866 27.4034Z" fill="#FF9900"/>
<path fill-rule="evenodd" clip-rule="evenodd" d="M93.789 25.3541C93.2364 24.6447 90.1311 25.0125 88.7232 25.1833C88.3022 25.2359 88.2364 24.868 88.618 24.5922C91.0917 22.8582 95.1574 23.3574 95.6311 23.9354C96.1048 24.5265 95.4995 28.5856 93.1838 30.5298C92.8285 30.8319 92.4864 30.6743 92.6443 30.2802C93.1706 28.9797 94.3417 26.0503 93.789 25.3541Z" fill="#FF9900"/>
</g>
<g clip-path="url(#clip2_263_9933)">
<path d="M133.854 3.52832L122.062 13.7541L112 31.8156H121.073L133.854 3.52832ZM135.423 5.92085L130.391 20.1053L140.04 32.2288L121.32 35.4452H152L135.423 5.92085Z" fill="#0072C6"/>
</g>
<g clip-path="url(#clip3_263_9933)">
<path d="M193.382 12.3911H194.602L198.08 8.91367L198.251 7.43821C191.78 1.72752 181.903 2.34285 176.192 8.81307C174.605 10.6104 173.453 12.7482 172.826 15.062C173.213 14.9027 173.642 14.8775 174.046 14.9882L180.999 13.8414C180.999 13.8414 181.353 13.2562 181.536 13.2931C184.629 9.89619 189.835 9.5005 193.407 12.3911H193.382Z" fill="#EA4335"/>
<path d="M203.032 15.062C202.232 12.1194 200.593 9.47368 198.311 7.44995L193.432 12.329C195.492 14.0124 196.666 16.5492 196.616 19.21V20.0769C199.015 20.0769 200.958 22.0218 200.958 24.4194C200.958 26.8187 199.013 28.7619 196.616 28.7619H187.929L187.062 29.6405V34.8499L187.929 35.7167H196.616C201.595 35.7553 206.013 32.5277 207.492 27.7727C208.967 23.016 207.157 17.8519 203.032 15.062Z" fill="#4285F4"/>
<path d="M179.23 35.668H187.917V28.7149H179.23C178.612 28.7149 178 28.5824 177.436 28.3242L176.216 28.7015L172.715 32.1789L172.41 33.3995C174.373 34.8816 176.769 35.678 179.23 35.668Z" fill="#34A853"/>
<path d="M179.23 13.1104C174.405 13.1389 170.131 16.229 168.592 20.8012C167.053 25.3735 168.587 30.4202 172.411 33.3611L177.45 28.3227C175.263 27.3352 174.293 24.7632 175.28 22.5768C176.268 20.3905 178.84 19.4197 181.026 20.4072C181.989 20.8432 182.76 21.6144 183.196 22.5768L188.234 17.5385C186.09 14.7368 182.758 13.0987 179.23 13.1104Z" fill="#FBBC05"/>
</g>
<g clip-path="url(#clip4_263_9933)">
<path d="M264 21.1558V17.4896C264 14.3871 260.897 12.6958 258.36 12.6958C256.594 12.8337 254.916 13.5243 253.565 14.6696C252.983 14.0556 252.284 13.5646 251.509 13.2253C250.734 12.8861 249.898 12.7057 249.052 12.6946C247.269 12.7554 245.567 13.4565 244.259 14.6696C243.782 14.0056 243.142 13.4753 242.402 13.1294C241.661 12.7836 240.844 12.6338 240.029 12.6946C239.187 12.6295 238.344 12.81 237.603 13.2143C236.862 13.6185 236.254 14.2291 235.852 14.9721L232.132 23.4121L228 13.9446C227.779 13.4397 227.368 13.0426 226.856 12.8398C226.343 12.637 225.771 12.645 225.265 12.8621C225.008 12.9718 224.776 13.1318 224.583 13.3328C224.389 13.5337 224.238 13.7714 224.137 14.0319C224.037 14.2923 223.99 14.5703 223.999 14.8492C224.008 15.1281 224.073 15.4024 224.19 15.6558L229.311 26.7958C229.311 26.7958 230.157 28.7708 231.849 28.7708C232.368 28.8478 232.898 28.7514 233.357 28.4965C233.816 28.2416 234.178 27.8424 234.387 27.3608C234.777 26.7733 237.739 20.5483 239.522 16.7733C239.592 16.6278 239.708 16.5101 239.853 16.4396C239.998 16.3691 240.163 16.3501 240.32 16.3856C240.477 16.421 240.618 16.509 240.718 16.6349C240.819 16.7608 240.874 16.9172 240.874 17.0783V26.4371C240.866 27.0194 241.079 27.583 241.47 28.015C241.86 28.4469 242.4 28.7151 242.98 28.7658C243.288 28.7864 243.597 28.7434 243.888 28.6396C244.179 28.5357 244.446 28.3732 244.671 28.1622C244.897 27.9511 245.077 27.696 245.2 27.4126C245.323 27.1292 245.386 26.8235 245.386 26.5146V18.7583C245.401 18.1321 245.659 17.5364 246.107 17.0985C246.555 16.6607 247.157 16.4156 247.783 16.4156C248.409 16.4156 249.011 16.6607 249.459 17.0985C249.907 17.5364 250.166 18.1321 250.18 18.7583V26.5146C250.18 27.113 250.418 27.6869 250.841 28.11C251.264 28.5331 251.838 28.7708 252.436 28.7708C253.035 28.7708 253.608 28.5331 254.032 28.11C254.455 27.6869 254.692 27.113 254.692 26.5146V18.7583C254.692 18.1225 254.945 17.5127 255.395 17.063C255.844 16.6134 256.454 16.3608 257.09 16.3608C257.726 16.3608 258.336 16.6134 258.785 17.063C259.235 17.5127 259.487 18.1225 259.487 18.7583V26.5146C259.487 27.113 259.725 27.6869 260.148 28.11C260.571 28.5331 261.145 28.7708 261.744 28.7708C262.342 28.7708 262.916 28.5331 263.339 28.11C263.762 27.6869 264 27.113 264 26.5146V21.1558Z" fill="black"/>
</g>
<defs>
<clipPath id="clip0_263_9933">
<rect width="40" height="38.8266" fill="white" transform="translate(0 0.193359)"/>
</clipPath>
<clipPath id="clip1_263_9933">
<rect width="40" height="23.908" fill="white" transform="translate(56 8.52661)"/>
</clipPath>
<clipPath id="clip2_263_9933">
<rect width="40" height="31.92" fill="white" transform="translate(112 3.52661)"/>
</clipPath>
<clipPath id="clip3_263_9933">
<rect width="40" height="32.1901" fill="white" transform="translate(168 3.52661)"/>
</clipPath>
<clipPath id="clip4_263_9933">
<rect width="40" height="40" fill="white" transform="translate(224 0.193359)"/>
</clipPath>
</defs>
</svg>
