<svg width="56" height="56" viewBox="0 0 56 56" fill="none" xmlns="http://www.w3.org/2000/svg">
<path d="M46.7224 17.9976L34.4873 5.76248C34.4698 5.74497 34.4507 5.72958 34.4326 5.71292C34.409 5.69124 34.386 5.66881 34.3612 5.64841C34.3448 5.63495 34.3272 5.6232 34.3103 5.61027C34.2817 5.58838 34.2534 5.56616 34.2234 5.54598C34.2099 5.53689 34.1955 5.52931 34.1818 5.52066C34.1471 5.49876 34.1124 5.47698 34.076 5.45743C34.0662 5.4522 34.056 5.44814 34.0461 5.44311C34.0051 5.42197 33.9637 5.40167 33.9208 5.38383C33.9142 5.38106 33.9072 5.37902 33.9004 5.37636C33.8544 5.35788 33.8077 5.34057 33.7599 5.32604C33.7529 5.32391 33.7458 5.32262 33.7388 5.32059C33.6914 5.30681 33.6435 5.29411 33.5943 5.28428C33.5787 5.28118 33.5626 5.2798 33.5469 5.27713C33.5063 5.27008 33.4659 5.26292 33.4246 5.25886C33.3665 5.25296 33.3081 5.25 33.2498 5.25H12.248C11.3201 5.25106 10.4305 5.62015 9.77434 6.2763C9.1182 6.93245 8.74911 7.82207 8.74805 8.75V47.25C8.74911 48.1779 9.1182 49.0676 9.77434 49.7237C10.4305 50.3798 11.3201 50.7489 12.248 50.75H43.7498C44.6777 50.7489 45.5673 50.3798 46.2235 49.7237C46.8796 49.0676 47.2487 48.1779 47.2498 47.25V19.2839C47.25 19.2724 47.2515 19.2614 47.2515 19.25C47.2516 19.0165 47.2049 18.7853 47.114 18.5701C47.0231 18.355 46.89 18.1603 46.7224 17.9976ZM33.2498 19.25V9.47482L43.0247 19.25H33.2498Z" fill="#5469D4"/>
</svg>
