<svg width="255" height="32" viewBox="0 0 255 32" fill="none" xmlns="http://www.w3.org/2000/svg">
<path d="M29.8668 10.2152L21.9569 2.34472C21.0202 1.46467 19.9044 0.794534 18.6849 0.379526C15.9825 -0.514624 13.293 0.183323 11.1148 2.34472L3.18556 10.2152C2.30001 11.1461 1.62569 12.255 1.20809 13.4669C0.305121 16.1526 1.00743 18.8254 3.18556 20.9868L11.1051 28.8572C12.0404 29.7376 13.1552 30.4078 14.3739 30.8224C15.1123 31.0705 15.886 31.1986 16.6653 31.202C18.5651 31.202 20.384 30.4043 21.944 28.8572L29.8603 20.9868C30.747 20.0562 31.4225 18.9473 31.841 17.735C32.7408 15.0494 32.0385 12.3798 29.8603 10.2152H29.8668ZM17.1346 4.62834C17.7329 4.81896 18.2842 5.13236 18.7529 5.54823L21.0928 7.87687L16.5294 12.4087L11.966 7.87365L14.3189 5.53214C14.95 4.90817 15.8401 4.24559 17.1411 4.62512L17.1346 4.62834ZM5.4899 14.9915C5.68232 14.3965 5.99883 13.8485 6.41877 13.3833L8.75871 11.0579L13.3221 15.5929L8.75548 20.128L6.40258 17.7865C5.77148 17.1625 5.108 16.278 5.48667 14.985L5.4899 14.9915ZM15.9177 26.564C15.3187 26.375 14.767 26.0614 14.2995 25.6441L11.966 23.3444L16.5294 18.8061L21.0928 23.3412L18.7399 25.6827C18.1088 26.3066 17.222 26.9692 15.9177 26.5897V26.564ZM27.5689 16.2233C27.3766 16.8177 27.0613 17.3655 26.6433 17.8315L24.3034 20.128L19.74 15.5929L24.3034 11.0579L26.6563 13.3962C27.2874 14.0201 27.9508 14.9046 27.5722 16.1976" fill="#00ABE4"/>
<path d="M46.9462 26.6827H51.0339V15.4093C51.0339 11.9325 48.9075 9.3658 45.2795 9.3658C43.5124 9.3658 41.6191 10.1442 40.6352 11.5754V3.21289H36.5508V26.6731H40.6352V17.7798C40.6352 15.702 41.6838 13.1032 44.1338 13.1032C46.2925 13.1032 46.9462 14.3029 46.9462 16.2553V26.6827ZM63.4521 20.0152C63.4521 22.495 61.6688 23.8491 59.1412 23.8491C57.8757 23.8491 56.7397 23.045 56.7397 21.7552C56.7397 20.4012 57.9404 19.6614 59.1735 19.5649L63.4521 19.2433V20.0152ZM66.8568 26.9432C67.5545 26.9659 68.2463 26.8109 68.8667 26.493V23.5275C68.6969 23.5672 68.5233 23.5887 68.3488 23.5918C67.6692 23.5918 67.4103 23.3023 67.4103 22.5272V16.3099C67.4613 15.1616 67.2955 14.014 66.9216 12.9263C65.9506 10.4111 63.4845 9.51053 60.6008 9.51053C56.8368 9.51053 53.8204 11.1863 53.5939 14.9558H57.5197C57.6168 13.4088 58.7172 12.5725 60.6008 12.5725C62.9019 12.5725 63.4521 13.6339 63.4521 15.2132V16.2456L58.4874 16.5898C55.2768 16.8149 52.7815 18.6514 52.7815 21.8421C52.7815 24.5824 54.8561 27.0944 58.879 27.0944C61.2772 27.0944 63.2223 25.9365 64.0023 24.5824C64.1318 25.84 65.1027 26.9336 66.8536 26.9336L66.8568 26.9432ZM79.5923 13.4956C79.8086 13.4972 80.0248 13.5111 80.2395 13.5374V9.74211C80.0648 9.74211 79.89 9.70352 79.7185 9.70352C77.7378 9.70352 75.7279 10.5076 74.9512 12.4406L74.5919 9.92867H71.1516V26.6859H75.2392V18.243C75.2392 15.5348 76.7312 13.5053 79.5825 13.5053L79.5923 13.4956ZM92.3827 26.6924H96.438V15.5026C96.438 12.0225 94.3278 9.51053 90.7289 9.51053C88.787 9.51053 86.7739 10.3146 85.7674 12.0836L85.4761 9.92545H82.0811V26.6827H86.1331V19.8544C86.1331 18.436 86.1007 16.6959 86.6865 15.374C87.2367 14.1485 88.1785 13.2479 89.5993 13.2479C91.7386 13.2479 92.3859 14.4412 92.3859 16.4064L92.3827 26.6924ZM109.746 16.638H102.458C102.44 15.6932 102.75 14.771 103.335 14.0263C103.672 13.6082 104.103 13.2741 104.593 13.0507C105.083 12.8274 105.618 12.7209 106.157 12.7398C106.628 12.7148 107.099 12.7877 107.539 12.9538C107.98 13.12 108.381 13.3757 108.717 13.7047C109.364 14.4155 109.724 15.3804 109.756 16.638H109.746ZM113.808 18.4424C113.873 16.3485 113.581 14.4477 112.348 12.6079C110.957 10.514 108.685 9.51697 106.199 9.51697C105.203 9.48809 104.212 9.66177 103.285 10.0274C102.359 10.393 101.518 10.9427 100.814 11.643C99.1954 13.2865 98.3831 15.6699 98.3831 18.3459C98.3831 21.0862 99.2893 23.4374 100.972 25.0488C101.676 25.7276 102.509 26.2596 103.423 26.6137C104.337 26.9678 105.313 27.1367 106.293 27.1105C108.432 27.1105 110.539 26.4351 111.966 24.7593C112.614 23.9842 113.297 22.6655 113.394 21.6652H109.51C109.374 22.2024 109.093 22.6927 108.698 23.0836C108.115 23.6626 107.403 23.8877 106.235 23.8877C105.298 23.8846 104.4 23.5148 103.736 22.8585C103.316 22.4228 102.99 21.9065 102.778 21.3413C102.566 20.7761 102.473 20.1738 102.503 19.5713H113.776C113.776 19.2143 113.808 18.4424 113.808 18.4424ZM119.252 14.6085C119.261 14.2175 119.39 13.8387 119.621 13.5222C119.853 13.2057 120.175 12.9665 120.546 12.8363C121.105 12.6281 121.702 12.5404 122.297 12.5789C123.103 12.5567 123.888 12.8317 124.501 13.3509C124.925 13.7699 125.169 14.3361 125.181 14.9301H129.042C128.993 13.6364 128.461 12.407 127.55 11.4822C126.32 10.157 124.278 9.51375 122.268 9.51375C120.158 9.51375 118.384 10.1249 117.145 11.1895C116.591 11.6487 116.149 12.2263 115.852 12.879C115.554 13.5317 115.409 14.2427 115.426 14.9591C115.426 17.0851 116.983 18.9538 119.284 19.4395C120.776 19.7611 122.462 19.8576 123.954 20.0827C124.99 20.2435 125.64 20.8868 125.64 21.855C125.64 23.6915 123.566 23.981 122.203 23.981C121.035 23.981 120.291 23.7558 119.64 23.2412C119.192 22.8422 118.891 22.3054 118.786 21.7167H114.967C115.123 23.0385 115.745 24.263 116.721 25.1742C118.116 26.4962 120.028 27.1041 122.171 27.1041C124.472 27.1041 126.579 26.5251 127.941 25.1742C128.426 24.6935 128.805 24.1192 129.058 23.4869C129.31 22.8547 129.429 22.1777 129.408 21.4979C129.408 18.8541 127.466 17.1784 124.802 16.7602C123.148 16.5029 122.728 16.4708 121.203 16.2778C120.297 16.1491 119.261 15.7921 119.261 14.602L119.252 14.6085ZM140.738 14.9237H144.587C144.538 13.6299 144.006 12.4006 143.095 11.4757C141.861 10.157 139.819 9.51375 137.822 9.51375C135.715 9.51375 133.939 10.1249 132.699 11.1895C132.146 11.6487 131.704 12.2263 131.406 12.879C131.108 13.5317 130.963 14.2427 130.981 14.9591C130.981 17.0851 132.537 18.9538 134.838 19.4395C136.33 19.7611 138.017 19.8576 139.509 20.0827C140.544 20.2435 141.195 20.8868 141.195 21.855C141.195 23.6915 139.117 23.981 137.758 23.981C136.589 23.981 135.845 23.7558 135.194 23.2412C134.746 22.8422 134.445 22.3054 134.34 21.7167H130.508C130.665 23.0393 131.287 24.2641 132.265 25.1742C133.657 26.4962 135.57 27.1041 137.712 27.1041C140.013 27.1041 142.12 26.5251 143.483 25.1742C143.966 24.6929 144.344 24.1184 144.595 23.4862C144.847 22.8539 144.965 22.1773 144.943 21.4979C144.943 18.8541 143.001 17.1784 140.337 16.7602C138.683 16.5029 138.263 16.4708 136.738 16.2778C135.832 16.1491 134.796 15.7921 134.796 14.602C134.806 14.2111 134.935 13.8323 135.166 13.5158C135.397 13.1993 135.72 12.9601 136.091 12.8298C136.65 12.6216 137.246 12.5339 137.842 12.5725C138.647 12.5502 139.432 12.8252 140.046 13.3444C140.471 13.7632 140.715 14.3293 140.729 14.9237" fill="#231F20"/>
<path d="M163.934 21.5574C163.934 24.0563 162.084 25.8465 159.516 25.8465C156.949 25.8465 155.174 24.0936 155.174 21.5574V11.9351H154.57V21.5574C154.57 24.4292 156.609 26.4432 159.516 26.4432C161.517 26.4432 163.179 25.4735 163.858 23.9817H163.934V26.2567H164.538V11.9351H163.934V21.5574Z" fill="black"/>
<path d="M168.952 16.6344C168.952 14.1355 170.802 12.3453 173.37 12.3453C175.937 12.3453 177.712 14.0982 177.712 16.6344V26.2567H178.316V16.6344C178.316 13.7626 176.277 11.7486 173.37 11.7486C171.369 11.7486 169.707 12.7183 169.028 14.2101H168.952V11.9351H168.348V26.2567H168.952V16.6344Z" fill="black"/>
<path d="M182.202 26.2567H182.806V11.9351H182.202V26.2567ZM182.504 9.32433C182.834 9.32433 183.108 9.05394 183.108 8.7276C183.108 8.40126 182.834 8.13086 182.504 8.13086C182.173 8.13086 181.9 8.40126 181.9 8.7276C181.9 9.05394 182.173 9.32433 182.504 9.32433Z" fill="black"/>
<path d="M196.657 11.9351H196.015L191.107 25.5108H191.031L186.123 11.9351H185.481L190.654 26.2567H191.484L196.657 11.9351Z" fill="black"/>
<path d="M204.165 26.5551C206.987 26.5551 208.544 24.8022 209.186 23.7206L208.696 23.3849C208.167 24.2427 206.836 25.9584 204.165 25.9584C200.521 25.9584 198.473 22.8348 198.464 19.0959H209.79V18.4992C209.79 14.7975 207.232 11.7113 203.863 11.7113C200.437 11.7113 197.86 14.9187 197.86 19.1332C197.86 23.3476 200.361 26.5551 204.165 26.5551ZM198.483 18.4992C198.738 14.9374 201.012 12.308 203.863 12.308C206.798 12.308 209.186 15.0586 209.186 18.4992H198.483Z" fill="black"/>
<path d="M212.74 26.2567H213.344V16.6344C213.344 14.1355 215.194 12.3453 217.761 12.3453H218.063V11.7486H217.761C215.76 11.7486 214.099 12.7183 213.419 14.2101H213.344V11.9351H212.74V26.2567Z" fill="black"/>
<path d="M228.738 14.956C228.03 12.8115 226.52 11.7113 224.283 11.7113C221.64 11.7113 219.79 13.2311 219.79 15.4782C219.79 17.2684 220.96 18.5458 223.188 19.0959L225.453 19.6553C227.313 20.1122 228.247 21.1565 228.247 22.639C228.247 24.6344 226.539 25.9584 224.019 25.9584C221.715 25.9584 220.29 24.8581 219.865 22.8255L219.261 22.9747C219.752 25.2591 221.442 26.5551 224.019 26.5551C226.86 26.5551 228.851 24.9793 228.851 22.639C228.851 20.8768 227.728 19.5807 225.604 19.0586L223.339 18.4992C221.366 18.0143 220.394 16.9793 220.394 15.4782C220.394 13.5761 221.97 12.308 224.283 12.308C226.274 12.308 227.539 13.2404 228.134 15.1052L228.738 14.956Z" fill="black"/>
<path d="M231.909 26.2567H232.513V11.9351H231.909V26.2567ZM232.211 9.32433C232.541 9.32433 232.815 9.05394 232.815 8.7276C232.815 8.40126 232.541 8.13086 232.211 8.13086C231.881 8.13086 231.607 8.40126 231.607 8.7276C231.607 9.05394 231.881 9.32433 232.211 9.32433Z" fill="black"/>
<path d="M240.927 11.9351H237.907V8.50382H237.303V11.9351H235.188V12.5318H237.303V23.2358C237.303 25.2497 238.841 26.5178 240.625 26.5178C241.078 26.5178 241.418 26.4339 241.796 26.294L241.607 25.7346C241.277 25.8558 240.993 25.9211 240.625 25.9211C239.181 25.9211 237.907 24.9048 237.907 23.2358V12.5318H240.927V11.9351Z" fill="black"/>
<path d="M244.969 31.6274C246.385 31.6274 247.527 30.667 248.178 28.8675L254.276 11.9351H253.634L248.726 25.5108H248.65L243.742 11.9351H243.1L248.386 26.5178L247.612 28.6437C246.828 30.7882 245.441 31.5248 243.572 30.7323L243.346 31.2544C243.912 31.4968 244.478 31.6274 244.969 31.6274Z" fill="black"/>
</svg>
