<svg width="145" height="32" viewBox="0 0 145 32" fill="none" xmlns="http://www.w3.org/2000/svg">
<path d="M29.0426 10.2152L21.1327 2.34472C20.196 1.46467 19.0802 0.794534 17.8607 0.379526C15.1582 -0.514624 12.4688 0.183323 10.2906 2.34472L2.36134 10.2152C1.47579 11.1461 0.801469 12.255 0.38387 13.4669C-0.519098 16.1526 0.18321 18.8254 2.36134 20.9868L10.2809 28.8572C11.2162 29.7376 12.331 30.4078 13.5497 30.8224C14.288 31.0705 15.0618 31.1986 15.8411 31.202C17.7409 31.202 19.5598 30.4043 21.1198 28.8572L29.0361 20.9868C29.9228 20.0562 30.5983 18.9473 31.0168 17.735C31.9166 15.0494 31.2142 12.3798 29.0361 10.2152H29.0426ZM16.3104 4.62834C16.9087 4.81896 17.46 5.13236 17.9286 5.54823L20.2686 7.87687L15.7052 12.4087L11.1418 7.87365L13.4947 5.53214C14.1258 4.90817 15.0158 4.24559 16.3169 4.62512L16.3104 4.62834ZM4.66568 14.9915C4.8581 14.3965 5.17461 13.8485 5.59455 13.3833L7.93449 11.0579L12.4979 15.5929L7.93126 20.128L5.57836 17.7865C4.94726 17.1625 4.28379 16.278 4.66245 14.985L4.66568 14.9915ZM15.0935 26.564C14.4945 26.375 13.9428 26.0614 13.4753 25.6441L11.1418 23.3444L15.7052 18.8061L20.2686 23.3412L17.9157 25.6827C17.2846 26.3066 16.3978 26.9692 15.0935 26.5897V26.564ZM26.7447 16.2233C26.5524 16.8177 26.2371 17.3655 25.8191 17.8315L23.4791 20.128L18.9157 15.5929L23.4791 11.0579L25.832 13.3962C26.4631 14.0201 27.1266 14.9046 26.7479 16.1976" fill="#00ABE4"/>
<path d="M46.122 26.6827H50.2097V15.4093C50.2097 11.9325 48.0833 9.3658 44.4553 9.3658C42.6882 9.3658 40.7948 10.1442 39.811 11.5754V3.21289H35.7266V26.6731H39.811V17.7798C39.811 15.702 40.8596 13.1032 43.3095 13.1032C45.4683 13.1032 46.122 14.3029 46.122 16.2553V26.6827ZM62.6279 20.0152C62.6279 22.495 60.8446 23.8491 58.3169 23.8491C57.0515 23.8491 55.9155 23.045 55.9155 21.7552C55.9155 20.4012 57.1162 19.6614 58.3493 19.5649L62.6279 19.2433V20.0152ZM66.0326 26.9432C66.7302 26.9659 67.4221 26.8109 68.0425 26.493V23.5275C67.8726 23.5672 67.6991 23.5887 67.5246 23.5918C66.845 23.5918 66.5861 23.3023 66.5861 22.5272V16.3099C66.6371 15.1616 66.4713 14.014 66.0974 12.9263C65.1264 10.4111 62.6603 9.51053 59.7766 9.51053C56.0126 9.51053 52.9962 11.1863 52.7697 14.9558H56.6955C56.7926 13.4088 57.893 12.5725 59.7766 12.5725C62.0777 12.5725 62.6279 13.6339 62.6279 15.2132V16.2456L57.6632 16.5898C54.4526 16.8149 51.9573 18.6514 51.9573 21.8421C51.9573 24.5824 54.0319 27.0944 58.0548 27.0944C60.453 27.0944 62.3981 25.9365 63.1781 24.5824C63.3075 25.84 64.2785 26.9336 66.0294 26.9336L66.0326 26.9432ZM78.768 13.4956C78.9844 13.4972 79.2005 13.5111 79.4153 13.5374V9.74211C79.2406 9.74211 79.0658 9.70352 78.8943 9.70352C76.9136 9.70352 74.9037 10.5076 74.127 12.4406L73.7677 9.92867H70.3274V26.6859H74.415V18.243C74.415 15.5348 75.907 13.5053 78.7583 13.5053L78.768 13.4956ZM91.5585 26.6924H95.6137V15.5026C95.6137 12.0225 93.5036 9.51053 89.9046 9.51053C87.9628 9.51053 85.9497 10.3146 84.9432 12.0836L84.6519 9.92545H81.2569V26.6827H85.3089V19.8544C85.3089 18.436 85.2765 16.6959 85.8623 15.374C86.4125 14.1485 87.3543 13.2479 88.7751 13.2479C90.9144 13.2479 91.5617 14.4412 91.5617 16.4064L91.5585 26.6924ZM108.922 16.638H101.634C101.616 15.6932 101.925 14.771 102.511 14.0263C102.848 13.6082 103.278 13.2741 103.768 13.0507C104.258 12.8274 104.794 12.7209 105.333 12.7398C105.804 12.7148 106.274 12.7877 106.715 12.9538C107.156 13.12 107.557 13.3757 107.893 13.7047C108.54 14.4155 108.899 15.3804 108.932 16.638H108.922ZM112.984 18.4424C113.048 16.3485 112.757 14.4477 111.524 12.6079C110.132 10.514 107.86 9.51697 105.375 9.51697C104.379 9.48809 103.387 9.66177 102.461 10.0274C101.535 10.393 100.694 10.9427 99.9894 11.643C98.3712 13.2865 97.5588 15.6699 97.5588 18.3459C97.5588 21.0862 98.465 23.4374 100.148 25.0488C100.852 25.7276 101.685 26.2596 102.599 26.6137C103.513 26.9678 104.488 27.1367 105.469 27.1105C107.608 27.1105 109.715 26.4351 111.142 24.7593C111.789 23.9842 112.472 22.6655 112.569 21.6652H108.686C108.549 22.2024 108.269 22.6927 107.873 23.0836C107.291 23.6626 106.579 23.8877 105.41 23.8877C104.474 23.8846 103.576 23.5148 102.912 22.8585C102.492 22.4228 102.166 21.9065 101.954 21.3413C101.742 20.7761 101.648 20.1738 101.679 19.5713H112.951C112.951 19.2143 112.984 18.4424 112.984 18.4424ZM118.427 14.6085C118.437 14.2175 118.566 13.8387 118.797 13.5222C119.028 13.2057 119.351 12.9665 119.722 12.8363C120.281 12.6281 120.878 12.5404 121.473 12.5789C122.278 12.5567 123.064 12.8317 123.677 13.3509C124.101 13.7699 124.344 14.3361 124.357 14.9301H128.218C128.169 13.6364 127.637 12.407 126.726 11.4822C125.496 10.157 123.454 9.51375 121.444 9.51375C119.334 9.51375 117.56 10.1249 116.32 11.1895C115.767 11.6487 115.325 12.2263 115.027 12.879C114.73 13.5317 114.584 14.2427 114.602 14.9591C114.602 17.0851 116.159 18.9538 118.46 19.4395C119.952 19.7611 121.638 19.8576 123.13 20.0827C124.166 20.2435 124.816 20.8868 124.816 21.855C124.816 23.6915 122.742 23.981 121.379 23.981C120.211 23.981 119.466 23.7558 118.816 23.2412C118.368 22.8422 118.067 22.3054 117.961 21.7166H114.142C114.299 23.0385 114.92 24.263 115.897 25.1742C117.291 26.4962 119.204 27.1041 121.347 27.1041C123.648 27.1041 125.755 26.5251 127.117 25.1742C127.601 24.6935 127.981 24.1192 128.233 23.4869C128.486 22.8547 128.605 22.1777 128.583 21.4979C128.583 18.8541 126.642 17.1784 123.978 16.7602C122.324 16.5029 121.903 16.4708 120.379 16.2778C119.473 16.1491 118.437 15.7921 118.437 14.602L118.427 14.6085ZM139.914 14.9237H143.762C143.714 13.6299 143.182 12.4006 142.27 11.4757C141.037 10.157 138.995 9.51375 136.998 9.51375C134.891 9.51375 133.114 10.1249 131.875 11.1895C131.321 11.6487 130.879 12.2263 130.582 12.879C130.284 13.5317 130.139 14.2427 130.156 14.9591C130.156 17.0851 131.713 18.9538 134.014 19.4395C135.506 19.7611 137.192 19.8576 138.684 20.0827C139.72 20.2435 140.371 20.8868 140.371 21.855C140.371 23.6915 138.293 23.981 136.933 23.981C135.765 23.981 135.021 23.7558 134.37 23.2412C133.922 22.8422 133.621 22.3054 133.516 21.7166H129.684C129.84 23.0393 130.463 24.2641 131.441 25.1742C132.833 26.4962 134.746 27.1041 136.888 27.1041C139.189 27.1041 141.296 26.5251 142.659 25.1742C143.142 24.6929 143.52 24.1184 143.771 23.4862C144.022 22.8539 144.14 22.1773 144.118 21.4979C144.118 18.8541 142.176 17.1784 139.513 16.7602C137.859 16.5029 137.438 16.4708 135.914 16.2778C135.008 16.1491 133.972 15.7921 133.972 14.602C133.982 14.2111 134.111 13.8323 134.342 13.5158C134.573 13.1993 134.896 12.9601 135.267 12.8298C135.825 12.6216 136.422 12.5339 137.018 12.5725C137.823 12.5502 138.608 12.8252 139.222 13.3444C139.646 13.7632 139.891 14.3293 139.904 14.9237" fill="#231F20"/>
</svg>
