<svg width="57" height="56" viewBox="0 0 57 56" fill="none" xmlns="http://www.w3.org/2000/svg">
<path d="M12.6285 35.4023C12.6285 38.657 10.0001 41.2875 6.74784 41.2875C3.4956 41.2875 0.867188 38.657 0.867188 35.4023C0.867188 32.1479 3.4956 29.5176 6.74806 29.5176H12.6283V35.4025L12.6285 35.4023ZM15.5689 35.4023C15.5689 32.1479 18.1973 29.5176 21.4496 29.5176C24.7018 29.5176 27.3302 32.1479 27.3302 35.4025V50.1149C27.3302 53.3695 24.7018 56 21.4494 56C18.1976 56 15.5689 53.3695 15.5689 50.1149V35.4025V35.4023Z" fill="#E01E5A"/>
<path d="M21.453 11.7699C18.2008 11.7699 15.5722 9.13956 15.5722 5.88494C15.5722 2.63033 18.201 0 21.453 0C24.705 0 27.3336 2.63033 27.3336 5.88494V11.7701H21.4528L21.453 11.7699ZM21.453 14.757C24.7052 14.757 27.3336 17.3873 27.3336 20.642C27.3336 23.8966 24.7052 26.5269 21.4528 26.5269H6.70703C3.45458 26.5269 0.826172 23.8966 0.826172 20.6417C0.826172 17.3876 3.45458 14.757 6.70681 14.757H21.4528H21.453Z" fill="#36C5F0"/>
<path d="M45.0201 20.642C45.0201 17.3873 47.6485 14.7568 50.9005 14.7568C54.1528 14.7568 56.7814 17.3873 56.7814 20.642C56.7814 23.8966 54.1528 26.5269 50.9005 26.5269H45.0201V20.6417V20.642ZM42.0797 20.642C42.0797 23.8966 39.451 26.5269 36.1988 26.5269C32.9468 26.5269 30.3184 23.8966 30.3184 20.6417V5.88516C30.3184 2.63033 32.9468 0 36.1988 0C39.4508 0 42.0794 2.63033 42.0794 5.88494V20.6417L42.0797 20.642Z" fill="#2EB67D"/>
<path d="M36.1988 44.2301C39.451 44.2301 42.0796 46.8604 42.0796 50.1149C42.0796 53.3695 39.451 56 36.1988 56C32.9468 56 30.3184 53.3695 30.3184 50.1149V44.2301H36.199H36.1988ZM36.1988 41.2875C32.9468 41.2875 30.3184 38.657 30.3184 35.4023C30.3184 32.1479 32.9468 29.5176 36.199 29.5176H50.945C54.1972 29.5176 56.8258 32.1479 56.8258 35.4025C56.8258 38.657 54.1972 41.2875 50.945 41.2875H36.199H36.1988Z" fill="#ECB22E"/>
</svg>
