<svg width="86" height="32" viewBox="0 0 86 32" fill="none" xmlns="http://www.w3.org/2000/svg">
<g clip-path="url(#clip0_11921_16541)">
<path d="M13.2235 7.63482L6.61082 3.81741L0 7.63482V3.81741L6.61176 0L13.2245 3.81741V7.63482H13.2235Z" fill="#A435F0"/>
<path d="M0 10.8402H3.46353V19.2552C3.46353 21.4293 5.08706 22.4891 6.61176 22.4891C8.14965 22.4891 9.76094 21.4011 9.76094 19.2261V10.8402H13.2245V19.4557C13.2245 21.4585 12.5948 23.0039 11.3355 24.0637C10.0753 25.1225 8.50165 25.6383 6.58259 25.6383C4.66541 25.6383 3.09082 25.1235 1.86071 24.0637C0.629647 23.0049 0 21.5169 0 19.5413V10.8402V10.8402ZM43.168 21.2985C42.1195 22.2322 40.9252 22.6896 39.5633 22.6896C37.0786 22.6896 35.4127 21.2741 35.2245 19.0821H46.4151C46.4151 19.0821 46.4904 18.3743 46.4904 17.7098C46.4904 15.6486 45.8315 13.931 44.4856 12.5286C43.1699 11.1263 41.4532 10.4392 39.3628 10.4392C37.1595 10.4392 35.3553 11.1263 33.9238 12.5286C32.5214 13.931 31.8061 15.7625 31.8061 18.0533V18.1663C31.8061 20.4279 32.5214 22.2312 33.9238 23.5771C35.3261 24.9221 37.1868 25.6091 39.4485 25.6091C42.0781 25.6091 44.1704 24.5719 45.7402 22.7837L43.168 21.2985V21.2985ZM36.5854 14.2745C37.3572 13.6731 38.3031 13.3588 39.3619 13.3588C40.3633 13.3588 41.1934 13.6731 41.9096 14.3037C42.5929 14.8778 42.9619 15.5828 42.9939 16.3931H35.3129C35.424 15.5555 35.8475 14.8496 36.5864 14.2755L36.5854 14.2745ZM78.0329 27.5536C76.6278 30.8712 75.1576 31.9997 72.9035 31.9997H71.3412V28.9296H72.6042C73.3798 28.9296 74.1007 28.6378 74.7878 27.0529L75.4748 25.4661L69.5492 10.8402H73.0701L77.2781 21.3738L81.6009 10.8402H85.1209L78.0339 27.5536H78.0329ZM26.7078 5.31641V12.1465C25.5727 11.1301 23.8071 10.5249 22.0998 10.5249C20.0668 10.5249 18.3501 11.2402 16.9478 12.699C15.5736 14.1305 14.8866 15.9046 14.8866 18.0515C14.8866 20.1992 15.5736 21.9733 16.9478 23.4331C18.3501 24.8646 20.0678 25.5809 22.0998 25.5809C24.4433 25.5809 25.9247 24.6595 26.7078 23.9376V25.2656H30.1431V5.31735H26.7078V5.31641ZM25.6772 21.2016C24.8471 22.0317 23.7882 22.4618 22.5572 22.4618C21.3261 22.4618 20.3247 22.0317 19.4946 21.2016C18.6946 20.3715 18.2927 19.3126 18.2927 18.0533C18.2927 16.7931 18.6936 15.7343 19.4946 14.9042C20.3247 14.0741 21.3261 13.6449 22.5572 13.6449C23.7882 13.6449 24.8471 14.0741 25.6772 14.9042C26.5355 15.7343 26.9666 16.7931 26.9666 18.0533C26.9666 19.3126 26.5355 20.3715 25.6772 21.2016ZM64.2089 10.5541C61.6 10.5541 60.2438 11.6364 59.3148 12.6792C58.9431 11.9705 57.8965 10.5541 55.4513 10.5541C53.3845 10.5541 52.1666 11.5988 51.5586 12.3423V10.8421H48.1534V25.2675H51.5586V16.9663C51.5586 15.0199 52.7614 13.6176 54.3633 13.6176C55.9962 13.6176 56.9402 14.8486 56.9402 16.8232V25.2665H60.3463V16.9653C60.3463 14.9908 61.5191 13.6166 63.2075 13.6166C64.8395 13.6166 65.7835 14.8477 65.7835 16.8213V25.2656H69.2188V16.3357C69.2188 12.5748 67.1972 10.555 64.2089 10.555V10.5541Z" fill="black"/>
</g>
<defs>
<clipPath id="clip0_11921_16541">
<rect width="85.6471" height="32" fill="white"/>
</clipPath>
</defs>
</svg>
