<svg width="350" height="125" viewBox="0 0 350 125" fill="none" xmlns="http://www.w3.org/2000/svg">
<path fill-rule="evenodd" clip-rule="evenodd" d="M99 0H0V115.6C0 120.776 4.15536 124.973 9.28125 124.973H89.7188C94.8446 124.973 99 120.776 99 115.6V0Z" fill="#878EDE"/>
<path d="M15 22.5C15 18.3579 18.3579 15 22.5 15V15C26.6421 15 30 18.3579 30 22.5V50H15V22.5Z" fill="#5A44BA"/>
<path d="M15 50H30V102.5C30 106.642 26.6421 110 22.5 110V110C18.3579 110 15 106.642 15 102.5V50Z" fill="white"/>
<path d="M35 110V95H75.5C79.6421 95 83 98.3579 83 102.5V102.5C83 106.642 79.6421 110 75.5 110H35Z" fill="white"/>
<path d="M132.474 90.928H147.984V97H124.95V51.13H132.474V90.928ZM158.104 55.816C156.74 55.816 155.596 55.354 154.672 54.43C153.748 53.506 153.286 52.362 153.286 50.998C153.286 49.634 153.748 48.49 154.672 47.566C155.596 46.642 156.74 46.18 158.104 46.18C159.424 46.18 160.546 46.642 161.47 47.566C162.394 48.49 162.856 49.634 162.856 50.998C162.856 52.362 162.394 53.506 161.47 54.43C160.546 55.354 159.424 55.816 158.104 55.816ZM161.8 60.634V97H154.276V60.634H161.8ZM180.457 66.772V86.902C180.457 88.266 180.765 89.256 181.381 89.872C182.041 90.444 183.141 90.73 184.681 90.73H189.301V97H183.361C179.973 97 177.377 96.208 175.573 94.624C173.769 93.04 172.867 90.466 172.867 86.902V66.772H168.577V60.634H172.867V51.592H180.457V60.634H189.301V66.772H180.457ZM240.257 60.04C243.117 60.04 245.669 60.634 247.913 61.822C250.201 63.01 251.983 64.77 253.259 67.102C254.579 69.434 255.239 72.25 255.239 75.55V97H247.781V76.672C247.781 73.416 246.967 70.93 245.339 69.214C243.711 67.454 241.489 66.574 238.673 66.574C235.857 66.574 233.613 67.454 231.941 69.214C230.313 70.93 229.499 73.416 229.499 76.672V97H222.041V76.672C222.041 73.416 221.227 70.93 219.599 69.214C217.971 67.454 215.749 66.574 212.933 66.574C210.117 66.574 207.873 67.454 206.201 69.214C204.573 70.93 203.759 73.416 203.759 76.672V97H196.235V60.634H203.759V64.792C204.991 63.296 206.553 62.13 208.445 61.294C210.337 60.458 212.361 60.04 214.517 60.04C217.421 60.04 220.017 60.656 222.305 61.888C224.593 63.12 226.353 64.902 227.585 67.234C228.685 65.034 230.401 63.296 232.733 62.02C235.065 60.7 237.573 60.04 240.257 60.04ZM297.747 60.634V97H290.223V92.71C289.035 94.206 287.473 95.394 285.537 96.274C283.645 97.11 281.621 97.528 279.465 97.528C276.605 97.528 274.031 96.934 271.743 95.746C269.499 94.558 267.717 92.798 266.397 90.466C265.121 88.134 264.483 85.318 264.483 82.018V60.634H271.941V80.896C271.941 84.152 272.755 86.66 274.383 88.42C276.011 90.136 278.233 90.994 281.049 90.994C283.865 90.994 286.087 90.136 287.715 88.42C289.387 86.66 290.223 84.152 290.223 80.896V60.634H297.747ZM320.875 97.594C318.015 97.594 315.441 97.088 313.153 96.076C310.909 95.02 309.127 93.612 307.807 91.852C306.487 90.048 305.783 88.046 305.695 85.846H313.483C313.615 87.386 314.341 88.684 315.661 89.74C317.025 90.752 318.719 91.258 320.743 91.258C322.855 91.258 324.483 90.862 325.627 90.07C326.815 89.234 327.409 88.178 327.409 86.902C327.409 85.538 326.749 84.526 325.429 83.866C324.153 83.206 322.107 82.48 319.291 81.688C316.563 80.94 314.341 80.214 312.625 79.51C310.909 78.806 309.413 77.728 308.137 76.276C306.905 74.824 306.289 72.91 306.289 70.534C306.289 68.598 306.861 66.838 308.005 65.254C309.149 63.626 310.777 62.35 312.889 61.426C315.045 60.502 317.509 60.04 320.281 60.04C324.417 60.04 327.739 61.096 330.247 63.208C332.799 65.276 334.163 68.114 334.339 71.722H326.815C326.683 70.094 326.023 68.796 324.835 67.828C323.647 66.86 322.041 66.376 320.017 66.376C318.037 66.376 316.519 66.75 315.463 67.498C314.407 68.246 313.879 69.236 313.879 70.468C313.879 71.436 314.231 72.25 314.935 72.91C315.639 73.57 316.497 74.098 317.509 74.494C318.521 74.846 320.017 75.308 321.997 75.88C324.637 76.584 326.793 77.31 328.465 78.058C330.181 78.762 331.655 79.818 332.887 81.226C334.119 82.634 334.757 84.504 334.801 86.836C334.801 88.904 334.229 90.752 333.085 92.38C331.941 94.008 330.313 95.284 328.201 96.208C326.133 97.132 323.691 97.594 320.875 97.594Z" fill="#170A36"/>
</svg>
