<svg width="99" height="125" viewBox="0 0 99 125" fill="none" xmlns="http://www.w3.org/2000/svg">
<path fill-rule="evenodd" clip-rule="evenodd" d="M99 0H0V115.6C0 120.776 4.15536 124.973 9.28125 124.973H89.7188C94.8446 124.973 99 120.776 99 115.6V0Z" fill="#878EDE"/>
<path d="M15 22.5C15 18.3579 18.3579 15 22.5 15V15C26.6421 15 30 18.3579 30 22.5V50H15V22.5Z" fill="#5A44BA"/>
<path d="M15 50H30V102.5C30 106.642 26.6421 110 22.5 110V110C18.3579 110 15 106.642 15 102.5V50Z" fill="white"/>
<path d="M35 110V95H75.5C79.6421 95 83 98.3579 83 102.5V102.5C83 106.642 79.6421 110 75.5 110H35Z" fill="white"/>
</svg>
