<svg width="1920" height="412" viewBox="0 0 1920 412" fill="none" xmlns="http://www.w3.org/2000/svg">
<path d="M-36 51.5L117.5 178.5L209.5 125L322 200L555.5 78.5L802 110.5L1313 32.5L1375 110.5L1513 143L1629.5 32.5L1778 51.5L1918.5 0L2113.6 51.5V251.5L1896 223L1821.5 178.5L1675.5 143L1539 294.5L1424.5 178.5L1313 223L1221 110.5L1040 143L939.5 200H731.5L491 412L392 314.5L261 347L182.5 251.5L117.5 361.5L-36 251.5V51.5Z" fill="url(#paint0_radial_11978_13276)"/>
<path d="M-36 51.5L117.5 178.5L209.5 125L322 200L555.5 78.5L802 110.5L1313 32.5L1375 110.5L1513 143L1629.5 32.5L1778 51.5L1918.5 0L2113.6 51.5V251.5L1896 223L1821.5 178.5L1675.5 143L1539 294.5L1424.5 178.5L1313 223L1221 110.5L1040 143L939.5 200H731.5L491 412L392 314.5L261 347L182.5 251.5L117.5 361.5L-36 251.5V51.5Z" fill="url(#paint1_angular_11978_13276)"/>
<path d="M-36 51.5L117.5 178.5L209.5 125L322 200L555.5 78.5L802 110.5L1313 32.5L1375 110.5L1513 143L1629.5 32.5L1778 51.5L1918.5 0L2113.6 51.5V251.5L1896 223L1821.5 178.5L1675.5 143L1539 294.5L1424.5 178.5L1313 223L1221 110.5L1040 143L939.5 200H731.5L491 412L392 314.5L261 347L182.5 251.5L117.5 361.5L-36 251.5V51.5Z" fill="url(#paint2_radial_11978_13276)"/>
<path d="M-36 51.5L117.5 178.5L209.5 125L322 200L555.5 78.5L802 110.5L1313 32.5L1375 110.5L1513 143L1629.5 32.5L1778 51.5L1918.5 0L2113.6 51.5V251.5L1896 223L1821.5 178.5L1675.5 143L1539 294.5L1424.5 178.5L1313 223L1221 110.5L1040 143L939.5 200H731.5L491 412L392 314.5L261 347L182.5 251.5L117.5 361.5L-36 251.5V51.5Z" fill="url(#paint3_radial_11978_13276)"/>
<path d="M-36 51.5L117.5 178.5L209.5 125L322 200L555.5 78.5L802 110.5L1313 32.5L1375 110.5L1513 143L1629.5 32.5L1778 51.5L1918.5 0L2113.6 51.5V251.5L1896 223L1821.5 178.5L1675.5 143L1539 294.5L1424.5 178.5L1313 223L1221 110.5L1040 143L939.5 200H731.5L491 412L392 314.5L261 347L182.5 251.5L117.5 361.5L-36 251.5V51.5Z" fill="url(#paint4_radial_11978_13276)"/>
<path d="M-36 51.5L117.5 178.5L209.5 125L322 200L555.5 78.5L802 110.5L1313 32.5L1375 110.5L1513 143L1629.5 32.5L1778 51.5L1918.5 0L2113.6 51.5V251.5L1896 223L1821.5 178.5L1675.5 143L1539 294.5L1424.5 178.5L1313 223L1221 110.5L1040 143L939.5 200H731.5L491 412L392 314.5L261 347L182.5 251.5L117.5 361.5L-36 251.5V51.5Z" fill="url(#paint5_radial_11978_13276)" fill-opacity="0.1"/>
<path d="M-36 51.5L117.5 178.5L209.5 125L322 200L555.5 78.5L802 110.5L1313 32.5L1375 110.5L1513 143L1629.5 32.5L1778 51.5L1918.5 0L2113.6 51.5V251.5L1896 223L1821.5 178.5L1675.5 143L1539 294.5L1424.5 178.5L1313 223L1221 110.5L1040 143L939.5 200H731.5L491 412L392 314.5L261 347L182.5 251.5L117.5 361.5L-36 251.5V51.5Z" fill="url(#paint6_radial_11978_13276)"/>
<path d="M-36 51.5L117.5 178.5L209.5 125L322 200L555.5 78.5L802 110.5L1313 32.5L1375 110.5L1513 143L1629.5 32.5L1778 51.5L1918.5 0L2113.6 51.5V251.5L1896 223L1821.5 178.5L1675.5 143L1539 294.5L1424.5 178.5L1313 223L1221 110.5L1040 143L939.5 200H731.5L491 412L392 314.5L261 347L182.5 251.5L117.5 361.5L-36 251.5V51.5Z" fill="url(#paint7_radial_11978_13276)"/>
<path d="M-36 51.5L117.5 178.5L209.5 125L322 200L555.5 78.5L802 110.5L1313 32.5L1375 110.5L1513 143L1629.5 32.5L1778 51.5L1918.5 0L2113.6 51.5V251.5L1896 223L1821.5 178.5L1675.5 143L1539 294.5L1424.5 178.5L1313 223L1221 110.5L1040 143L939.5 200H731.5L491 412L392 314.5L261 347L182.5 251.5L117.5 361.5L-36 251.5V51.5Z" fill="url(#paint8_radial_11978_13276)"/>
<path d="M-36 51.5L117.5 178.5L209.5 125L322 200L555.5 78.5L802 110.5L1313 32.5L1375 110.5L1513 143L1629.5 32.5L1778 51.5L1918.5 0L2113.6 51.5V251.5L1896 223L1821.5 178.5L1675.5 143L1539 294.5L1424.5 178.5L1313 223L1221 110.5L1040 143L939.5 200H731.5L491 412L392 314.5L261 347L182.5 251.5L117.5 361.5L-36 251.5V51.5Z" fill="url(#paint9_radial_11978_13276)"/>
<path d="M-36 51.5L117.5 178.5L209.5 125L322 200L555.5 78.5L802 110.5L1313 32.5L1375 110.5L1513 143L1629.5 32.5L1778 51.5L1918.5 0L2113.6 51.5V251.5L1896 223L1821.5 178.5L1675.5 143L1539 294.5L1424.5 178.5L1313 223L1221 110.5L1040 143L939.5 200H731.5L491 412L392 314.5L261 347L182.5 251.5L117.5 361.5L-36 251.5V51.5Z" fill="url(#paint10_radial_11978_13276)" style="mix-blend-mode:hard-light"/>
<defs>
<radialGradient id="paint0_radial_11978_13276" cx="0" cy="0" r="1" gradientUnits="userSpaceOnUse" gradientTransform="translate(422.877 133.598) rotate(64.2652) scale(285.135 771.444)">
<stop stop-color="#FC9987"/>
<stop offset="1" stop-color="#AFE9FF"/>
</radialGradient>
<radialGradient id="paint1_angular_11978_13276" cx="0" cy="0" r="1" gradientUnits="userSpaceOnUse" gradientTransform="translate(439.209 166.351) rotate(-80.7666) scale(82.0845 230.953)">
<stop offset="0.495182" stop-color="#5469D4"/>
<stop offset="0.806554" stop-color="#8863E4" stop-opacity="0.383199"/>
<stop offset="1" stop-color="#A960EE" stop-opacity="0"/>
</radialGradient>
<radialGradient id="paint2_radial_11978_13276" cx="0" cy="0" r="1" gradientUnits="userSpaceOnUse" gradientTransform="translate(78.8509 162.042) rotate(126.47) scale(237.159 419.813)">
<stop offset="0.411761" stop-color="#FFCB57"/>
<stop offset="0.719902" stop-color="#B778E1" stop-opacity="0"/>
</radialGradient>
<radialGradient id="paint3_radial_11978_13276" cx="0" cy="0" r="1" gradientUnits="userSpaceOnUse" gradientTransform="translate(1039.65 68.7428) rotate(154.244) scale(557.866 623.083)">
<stop offset="0.192069" stop-color="#F5381B" stop-opacity="0.58"/>
<stop offset="1" stop-color="#7F87DB"/>
</radialGradient>
<radialGradient id="paint4_radial_11978_13276" cx="0" cy="0" r="1" gradientUnits="userSpaceOnUse" gradientTransform="translate(949.189 73.2636) rotate(-7.68912) scale(443.136 147.209)">
<stop offset="0.317029" stop-color="#007BFF"/>
<stop offset="1" stop-color="#FC9987"/>
</radialGradient>
<radialGradient id="paint5_radial_11978_13276" cx="0" cy="0" r="1" gradientUnits="userSpaceOnUse" gradientTransform="translate(378.622 235.736) rotate(74.1182) scale(175.194 605.256)">
<stop offset="0.507408" stop-color="#90E0FF"/>
<stop offset="1" stop-color="#A960EE" stop-opacity="0"/>
</radialGradient>
<radialGradient id="paint6_radial_11978_13276" cx="0" cy="0" r="1" gradientUnits="userSpaceOnUse" gradientTransform="translate(128.441 350.12) rotate(-165.933) scale(241.459 102.727)">
<stop offset="0.259592" stop-color="#A960EE"/>
<stop offset="1" stop-color="#FF333D" stop-opacity="0"/>
</radialGradient>
<radialGradient id="paint7_radial_11978_13276" cx="0" cy="0" r="1" gradientUnits="userSpaceOnUse" gradientTransform="translate(385.105 234.345) rotate(77.0839) scale(205.204 428.416)">
<stop offset="0.177083" stop-color="#7F87DB"/>
<stop offset="0.75" stop-color="#EC645D"/>
</radialGradient>
<radialGradient id="paint8_radial_11978_13276" cx="0" cy="0" r="1" gradientUnits="userSpaceOnUse" gradientTransform="translate(105.507 277.062) rotate(2.62901) scale(287.22 95.0845)">
<stop stop-color="#AFE9FF"/>
<stop offset="0.414475" stop-color="#90E0FF"/>
<stop offset="1" stop-color="#90E0FF" stop-opacity="0"/>
</radialGradient>
<radialGradient id="paint9_radial_11978_13276" cx="0" cy="0" r="1" gradientUnits="userSpaceOnUse" gradientTransform="translate(1182.05 206) rotate(174.961) scale(754.483 138.622)">
<stop offset="0.4362" stop-color="#F19389"/>
<stop offset="0.831859" stop-color="#858CDD" stop-opacity="0"/>
</radialGradient>
<radialGradient id="paint10_radial_11978_13276" cx="0" cy="0" r="1" gradientUnits="userSpaceOnUse" gradientTransform="translate(1187.85 66.3682) rotate(57.4225) scale(312.7 1623.33)">
<stop offset="0.166667" stop-color="#FFE04D"/>
<stop offset="0.614133" stop-color="#858CDD"/>
</radialGradient>
</defs>
</svg>
