<svg width="102" height="103" viewBox="0 0 102 103" fill="none" xmlns="http://www.w3.org/2000/svg">
<g opacity="0.8">
<ellipse cx="51.2802" cy="51.4997" rx="50.6152" ry="50.6482" fill="#FEFEFE"/>
<path d="M72.3166 48.7441L43.2825 30.9888C42.7934 30.6895 42.2335 30.5261 41.6604 30.5152C41.0872 30.5044 40.5216 30.6465 40.0216 30.927C39.5215 31.2076 39.1052 31.6163 38.8155 32.1113C38.5258 32.6062 38.373 33.1695 38.373 33.7431V69.2569C38.3735 69.8303 38.5265 70.3933 38.8164 70.888C39.1062 71.3826 39.5225 71.7912 40.0223 72.0716C40.5222 72.352 41.0876 72.4942 41.6606 72.4836C42.2335 72.473 42.7933 72.3099 43.2825 72.0112L72.3166 54.2558C72.7883 53.9672 73.178 53.5622 73.4483 53.0797C73.7187 52.5971 73.8607 52.0532 73.8607 51.5C73.8607 50.9468 73.7187 50.4028 73.4483 49.9203C73.178 49.4377 72.7883 49.0328 72.3166 48.7441Z" fill="black"/>
</g>
</svg>
